<svg xmlns="http://www.w3.org/2000/svg" xmlns:xlink="http://www.w3.org/1999/xlink" width="500" zoomAndPan="magnify" viewBox="0 0 375 374.999991" height="500" preserveAspectRatio="xMidYMid meet" version="1.0"><defs><clipPath id="3e751f84ac"><path d="M 3.238281 239 L 125 239 L 125 361 L 3.238281 361 Z M 3.238281 239 " clip-rule="nonzero"/></clipPath><clipPath id="29576cac5d"><path d="M 60 93 L 371.488281 93 L 371.488281 178 L 60 178 Z M 60 93 " clip-rule="nonzero"/></clipPath></defs><path fill="#014ba0" d="M 218.960938 276.867188 C 211.78125 276.878906 204.648438 276.304688 197.558594 275.140625 C 190.472656 273.980469 183.53125 272.246094 176.726562 269.941406 C 169.925781 267.632812 163.359375 264.789062 157.027344 261.402344 C 150.695312 258.015625 144.683594 254.132812 138.988281 249.753906 C 134.417969 246.246094 130.09375 242.453125 126.015625 238.382812 C 121.933594 234.3125 118.148438 229.984375 114.664062 225.398438 C 110.925781 220.527344 107.542969 215.421875 104.523438 210.082031 C 101.5 204.738281 98.867188 199.207031 96.621094 193.496094 C 94.378906 187.78125 92.542969 181.9375 91.121094 175.964844 C 89.699219 169.996094 88.703125 163.953125 88.128906 157.839844 C 88.105469 157.574219 88.105469 157.308594 88.136719 157.042969 C 88.167969 156.78125 88.226562 156.519531 88.308594 156.269531 C 88.394531 156.015625 88.503906 155.773438 88.640625 155.542969 C 88.773438 155.3125 88.929688 155.097656 89.109375 154.902344 C 89.289062 154.703125 89.488281 154.527344 89.703125 154.371094 C 89.921875 154.214844 90.152344 154.085938 90.394531 153.976562 C 90.640625 153.867188 90.890625 153.789062 91.152344 153.730469 C 91.414062 153.675781 91.675781 153.648438 91.945312 153.648438 L 132.816406 153.648438 C 133.628906 153.628906 134.28125 153.296875 134.777344 152.652344 L 156.929688 124.84375 C 157.117188 124.605469 157.332031 124.394531 157.570312 124.207031 C 157.808594 124.023438 158.066406 123.867188 158.339844 123.742188 C 158.617188 123.617188 158.902344 123.527344 159.199219 123.46875 C 159.5 123.410156 159.796875 123.390625 160.101562 123.402344 C 160.402344 123.417969 160.699219 123.464844 160.992188 123.550781 C 161.28125 123.632812 161.558594 123.75 161.820312 123.902344 C 162.085938 124.050781 162.328125 124.230469 162.546875 124.4375 C 162.769531 124.644531 162.960938 124.875 163.128906 125.125 L 192.007812 169.058594 C 192.464844 169.777344 193.117188 170.179688 193.964844 170.265625 C 194.765625 170.300781 195.417969 170.007812 195.925781 169.386719 L 207.816406 155.722656 C 208.179688 155.304688 208.609375 154.980469 209.113281 154.753906 C 209.617188 154.523438 210.144531 154.40625 210.699219 154.40625 L 229.414062 154.40625 C 229.859375 154.398438 230.28125 154.28125 230.667969 154.058594 C 231.054688 153.832031 231.363281 153.527344 231.589844 153.140625 L 254.414062 115.53125 C 254.773438 114.9375 255.257812 114.476562 255.871094 114.144531 C 256.480469 113.816406 257.132812 113.664062 257.828125 113.6875 C 258.519531 113.710938 259.160156 113.90625 259.746094 114.28125 C 260.332031 114.652344 260.785156 115.144531 261.101562 115.761719 L 288.464844 168.789062 C 288.644531 169.164062 288.894531 169.476562 289.222656 169.734375 C 289.546875 169.992188 289.914062 170.164062 290.320312 170.25 C 290.203125 170.21875 290.488281 170.25 290.726562 170.25 C 291.367188 170.25 291.925781 170.035156 292.394531 169.59375 L 307.660156 155.195312 C 308.398438 154.496094 309.277344 154.148438 310.292969 154.148438 L 346.171875 154.148438 C 346.441406 154.144531 346.707031 154.171875 346.972656 154.226562 C 347.234375 154.28125 347.488281 154.363281 347.734375 154.472656 C 347.980469 154.578125 348.210938 154.710938 348.429688 154.867188 C 348.648438 155.027344 348.847656 155.203125 349.03125 155.402344 C 349.210938 155.601562 349.367188 155.816406 349.503906 156.050781 C 349.640625 156.28125 349.75 156.523438 349.832031 156.78125 C 349.917969 157.035156 349.972656 157.296875 350.003906 157.5625 C 350.035156 157.832031 350.035156 158.097656 350.007812 158.367188 C 349.808594 160.375 349.566406 162.378906 349.277344 164.375 C 348.988281 166.375 348.652344 168.363281 348.269531 170.34375 C 347.890625 172.328125 347.460938 174.300781 346.988281 176.261719 C 346.515625 178.222656 346 180.175781 345.4375 182.113281 C 344.875 184.050781 344.269531 185.976562 343.617188 187.886719 C 342.964844 189.796875 342.273438 191.691406 341.535156 193.570312 C 340.792969 195.449219 340.011719 197.3125 339.1875 199.152344 C 338.363281 200.996094 337.5 202.820312 336.589844 204.621094 C 335.683594 206.425781 334.734375 208.203125 333.742188 209.964844 C 332.753906 211.722656 331.722656 213.457031 330.652344 215.167969 C 329.582031 216.878906 328.472656 218.566406 327.324219 220.226562 C 326.175781 221.886719 324.988281 223.519531 323.765625 225.125 C 322.542969 226.730469 321.285156 228.308594 319.988281 229.855469 C 318.691406 231.402344 317.359375 232.917969 315.996094 234.40625 C 314.628906 235.890625 313.230469 237.34375 311.796875 238.765625 C 310.363281 240.1875 308.898438 241.574219 307.402344 242.929688 C 305.902344 244.285156 304.375 245.601562 302.816406 246.886719 C 301.261719 248.167969 299.675781 249.417969 298.058594 250.628906 C 296.441406 251.835938 294.800781 253.011719 293.132812 254.144531 C 291.460938 255.28125 289.765625 256.375 288.046875 257.433594 C 286.328125 258.488281 284.585938 259.503906 282.816406 260.480469 C 281.050781 261.457031 279.261719 262.390625 277.453125 263.285156 C 275.640625 264.179688 273.8125 265.03125 271.964844 265.839844 C 270.113281 266.648438 268.246094 267.414062 266.363281 268.140625 C 264.480469 268.863281 262.578125 269.542969 260.664062 270.175781 C 258.746094 270.8125 256.816406 271.40625 254.875 271.949219 C 252.929688 272.496094 250.976562 273 249.011719 273.457031 C 247.042969 273.914062 245.070312 274.324219 243.082031 274.6875 C 241.097656 275.054688 239.105469 275.375 237.105469 275.648438 C 235.105469 275.921875 233.101562 276.148438 231.089844 276.328125 C 229.078125 276.511719 227.066406 276.644531 225.050781 276.734375 C 223.03125 276.824219 221.015625 276.863281 218.996094 276.859375 Z M 96.25 161.320312 C 96.941406 166.703125 97.984375 172.019531 99.378906 177.269531 C 100.773438 182.515625 102.503906 187.648438 104.578125 192.667969 C 106.648438 197.683594 109.042969 202.546875 111.757812 207.246094 C 114.472656 211.949219 117.484375 216.453125 120.792969 220.757812 C 124.058594 225.0625 127.609375 229.125 131.4375 232.941406 C 133.464844 234.972656 135.5625 236.929688 137.726562 238.816406 C 139.894531 240.699219 142.121094 242.507812 144.410156 244.238281 C 146.699219 245.96875 149.046875 247.617188 151.453125 249.183594 C 153.859375 250.75 156.316406 252.234375 158.824219 253.628906 C 161.332031 255.027344 163.882812 256.332031 166.484375 257.554688 C 169.082031 258.773438 171.71875 259.898438 174.398438 260.933594 C 177.074219 261.96875 179.785156 262.910156 182.527344 263.757812 C 185.269531 264.605469 188.039062 265.355469 190.835938 266.011719 C 193.628906 266.664062 196.445312 267.222656 199.277344 267.679688 C 202.109375 268.140625 204.957031 268.5 207.816406 268.761719 C 210.675781 269.019531 213.539062 269.183594 216.410156 269.246094 C 219.277344 269.304688 222.148438 269.269531 225.015625 269.128906 C 227.882812 268.992188 230.742188 268.757812 233.589844 268.417969 C 236.441406 268.082031 239.277344 267.648438 242.097656 267.113281 C 244.917969 266.582031 247.71875 265.949219 250.496094 265.222656 C 253.269531 264.492188 256.019531 263.671875 258.738281 262.75 C 261.457031 261.832031 264.140625 260.820312 266.789062 259.714844 C 269.441406 258.609375 272.046875 257.410156 274.613281 256.125 C 277.179688 254.835938 279.695312 253.460938 282.167969 252 C 284.636719 250.539062 287.054688 248.992188 289.417969 247.363281 C 291.78125 245.730469 294.082031 244.023438 296.328125 242.230469 C 298.570312 240.441406 300.75 238.574219 302.863281 236.632812 C 304.976562 234.691406 307.023438 232.679688 308.996094 230.59375 C 310.96875 228.511719 312.871094 226.359375 314.695312 224.144531 C 316.519531 221.929688 318.265625 219.652344 319.929688 217.316406 C 321.597656 214.976562 323.179688 212.585938 324.679688 210.136719 C 326.179688 207.691406 327.59375 205.195312 328.921875 202.648438 C 330.246094 200.101562 331.484375 197.515625 332.628906 194.882812 C 333.777344 192.25 334.832031 189.582031 335.792969 186.878906 C 336.753906 184.171875 337.617188 181.4375 338.390625 178.671875 C 339.160156 175.90625 339.835938 173.117188 340.410156 170.308594 C 340.988281 167.496094 341.46875 164.667969 341.847656 161.820312 L 311.796875 161.820312 L 297.636719 175.179688 C 296.492188 176.203125 295.1875 176.945312 293.726562 177.40625 C 292.261719 177.871094 290.769531 178.011719 289.246094 177.835938 C 288.441406 177.699219 287.660156 177.472656 286.910156 177.15625 C 286.15625 176.839844 285.449219 176.441406 284.789062 175.960938 C 284.128906 175.480469 283.53125 174.929688 283 174.308594 C 282.46875 173.6875 282.015625 173.015625 281.640625 172.289062 L 257.410156 125.359375 L 238.144531 157.125 C 237.691406 157.878906 237.152344 158.5625 236.523438 159.175781 C 235.894531 159.792969 235.195312 160.316406 234.429688 160.75 C 233.664062 161.183594 232.859375 161.511719 232.007812 161.738281 C 231.15625 161.960938 230.292969 162.074219 229.414062 162.074219 L 212.460938 162.074219 L 201.726562 174.402344 C 201.214844 175 200.644531 175.53125 200.007812 175.996094 C 199.375 176.460938 198.695312 176.84375 197.96875 177.148438 C 197.246094 177.453125 196.496094 177.671875 195.71875 177.800781 C 194.945312 177.929688 194.164062 177.964844 193.382812 177.910156 C 191.796875 177.777344 190.320312 177.304688 188.953125 176.488281 C 187.585938 175.675781 186.46875 174.601562 185.597656 173.269531 L 159.621094 133.773438 L 140.753906 157.46875 C 139.789062 158.683594 138.613281 159.628906 137.21875 160.304688 C 135.828125 160.984375 134.355469 161.324219 132.808594 161.332031 Z M 96.25 161.320312 " fill-opacity="1" fill-rule="nonzero"/><path fill="#014ba0" d="M 292.480469 160.34375 C 292.261719 160.34375 292.042969 160.324219 291.832031 160.285156 C 291.238281 160.1875 290.699219 159.957031 290.210938 159.601562 C 289.726562 159.25 289.347656 158.804688 289.070312 158.269531 L 260.375 102.710938 C 260.191406 102.273438 259.902344 101.917969 259.511719 101.644531 C 259.121094 101.375 258.6875 101.230469 258.210938 101.214844 C 257.734375 101.199219 257.292969 101.3125 256.882812 101.554688 C 256.472656 101.796875 256.160156 102.132812 255.949219 102.558594 L 229.191406 146.660156 C 228.84375 147.230469 228.375 147.683594 227.792969 148.011719 C 227.207031 148.339844 226.582031 148.507812 225.910156 148.507812 L 207.886719 148.507812 C 207.128906 148.519531 206.507812 148.816406 206.015625 149.390625 L 197.671875 158.957031 C 197.273438 159.402344 196.800781 159.742188 196.246094 159.972656 C 195.695312 160.199219 195.121094 160.296875 194.523438 160.265625 C 193.925781 160.222656 193.367188 160.050781 192.851562 159.75 C 192.335938 159.449219 191.910156 159.046875 191.582031 158.546875 L 162.496094 114.285156 C 162.289062 113.945312 162.019531 113.675781 161.679688 113.472656 C 161.339844 113.269531 160.972656 113.15625 160.578125 113.136719 C 160.179688 113.117188 159.800781 113.191406 159.4375 113.355469 C 159.078125 113.519531 158.769531 113.757812 158.523438 114.070312 L 132.832031 146.28125 C 132.464844 146.738281 132.023438 147.09375 131.496094 147.34375 C 130.972656 147.597656 130.417969 147.722656 129.835938 147.722656 L 91.339844 147.722656 C 91.085938 147.722656 90.832031 147.699219 90.585938 147.648438 C 90.335938 147.601562 90.09375 147.527344 89.859375 147.429688 C 89.625 147.332031 89.40625 147.210938 89.195312 147.070312 C 88.984375 146.925781 88.789062 146.765625 88.613281 146.585938 C 88.433594 146.40625 88.273438 146.210938 88.136719 146 C 87.996094 145.785156 87.878906 145.5625 87.78125 145.328125 C 87.6875 145.09375 87.617188 144.851562 87.570312 144.601562 C 87.523438 144.351562 87.5 144.101562 87.503906 143.847656 C 87.53125 141.710938 87.609375 139.574219 87.742188 137.4375 C 87.871094 135.304688 88.054688 133.171875 88.289062 131.046875 C 88.523438 128.921875 88.8125 126.804688 89.148438 124.691406 C 89.488281 122.582031 89.878906 120.480469 90.316406 118.386719 C 90.757812 116.292969 91.25 114.214844 91.792969 112.144531 C 92.335938 110.074219 92.925781 108.023438 93.570312 105.980469 C 94.210938 103.941406 94.902344 101.917969 95.644531 99.914062 C 96.386719 97.90625 97.175781 95.921875 98.011719 93.953125 C 98.851562 91.984375 99.738281 90.039062 100.667969 88.117188 C 101.601562 86.191406 102.582031 84.289062 103.605469 82.414062 C 104.632812 80.539062 105.703125 78.6875 106.820312 76.863281 C 107.933594 75.039062 109.09375 73.242188 110.296875 71.472656 C 111.5 69.707031 112.746094 67.96875 114.035156 66.261719 C 115.324219 64.554688 116.652344 62.878906 118.023438 61.238281 C 119.390625 59.597656 120.800781 57.988281 122.25 56.414062 C 123.695312 54.839844 125.183594 53.304688 126.707031 51.800781 C 128.226562 50.300781 129.785156 48.839844 131.382812 47.414062 C 132.976562 45.988281 134.605469 44.601562 136.265625 43.257812 C 137.929688 41.910156 139.621094 40.605469 141.347656 39.34375 C 143.074219 38.082031 144.828125 36.859375 146.613281 35.683594 C 148.398438 34.503906 150.210938 33.371094 152.050781 32.285156 C 153.890625 31.195312 155.757812 30.152344 157.648438 29.152344 C 159.539062 28.15625 161.457031 27.203125 163.394531 26.296875 C 165.332031 25.394531 167.289062 24.535156 169.269531 23.726562 C 171.25 22.917969 173.246094 22.15625 175.261719 21.445312 C 177.28125 20.734375 179.3125 20.070312 181.359375 19.460938 C 183.410156 18.847656 185.472656 18.285156 187.546875 17.773438 C 189.625 17.261719 191.710938 16.796875 193.8125 16.386719 C 195.910156 15.976562 198.019531 15.621094 200.132812 15.3125 C 202.25 15.003906 204.371094 14.75 206.5 14.542969 C 208.628906 14.339844 210.761719 14.1875 212.898438 14.089844 C 215.035156 13.988281 217.171875 13.941406 219.3125 13.945312 C 221.449219 13.949219 223.585938 14.003906 225.722656 14.113281 C 227.859375 14.222656 229.988281 14.382812 232.117188 14.59375 C 234.246094 14.808594 236.367188 15.070312 238.480469 15.386719 C 240.597656 15.703125 242.703125 16.070312 244.800781 16.488281 C 246.898438 16.90625 248.984375 17.375 251.058594 17.898438 C 253.132812 18.417969 255.191406 18.988281 257.238281 19.609375 C 259.285156 20.230469 261.316406 20.898438 263.328125 21.617188 C 265.34375 22.339844 267.335938 23.105469 269.3125 23.925781 C 271.289062 24.742188 273.246094 25.605469 275.179688 26.519531 C 277.113281 27.429688 279.023438 28.390625 280.910156 29.394531 C 282.800781 30.402344 284.660156 31.453125 286.496094 32.546875 C 288.332031 33.644531 290.140625 34.785156 291.921875 35.96875 C 293.703125 37.152344 295.453125 38.378906 297.171875 39.652344 C 298.894531 40.921875 300.582031 42.230469 302.238281 43.582031 C 303.894531 44.9375 305.519531 46.328125 307.109375 47.757812 C 308.695312 49.191406 310.25 50.660156 311.765625 52.167969 C 313.285156 53.671875 314.761719 55.21875 316.207031 56.796875 C 317.648438 58.375 319.050781 59.988281 320.414062 61.636719 C 321.777344 63.285156 323.097656 64.964844 324.378906 66.675781 C 325.660156 68.386719 326.898438 70.128906 328.097656 71.902344 C 329.292969 73.675781 330.445312 75.476562 331.554688 77.304688 C 332.664062 79.132812 333.726562 80.988281 334.742188 82.867188 C 335.761719 84.75 336.734375 86.652344 337.660156 88.582031 C 338.585938 90.507812 339.460938 92.460938 340.292969 94.429688 C 341.121094 96.402344 341.902344 98.390625 342.636719 100.398438 C 343.371094 102.410156 344.054688 104.433594 344.6875 106.476562 C 345.324219 108.519531 345.90625 110.574219 346.441406 112.644531 C 346.976562 114.714844 347.457031 116.796875 347.890625 118.894531 C 348.324219 120.988281 348.707031 123.089844 349.035156 125.203125 C 349.363281 127.316406 349.644531 129.4375 349.871094 131.5625 C 350.097656 133.6875 350.269531 135.820312 350.394531 137.953125 C 350.515625 140.089844 350.585938 142.226562 350.605469 144.363281 C 350.609375 144.875 350.515625 145.367188 350.324219 145.84375 C 350.128906 146.316406 349.851562 146.734375 349.492188 147.097656 C 349.132812 147.460938 348.71875 147.738281 348.246094 147.9375 C 347.773438 148.132812 347.28125 148.230469 346.769531 148.230469 L 307.820312 148.230469 C 307.171875 148.234375 306.613281 148.464844 306.144531 148.921875 L 295.105469 159.3125 C 294.367188 160.003906 293.488281 160.347656 292.480469 160.34375 Z M 258.15625 93.539062 L 258.480469 93.539062 C 259.390625 93.585938 260.28125 93.75 261.152344 94.03125 C 262.019531 94.3125 262.835938 94.703125 263.601562 95.203125 C 264.367188 95.699219 265.054688 96.289062 265.664062 96.96875 C 266.273438 97.648438 266.785156 98.394531 267.195312 99.210938 L 293.546875 150.214844 L 300.894531 143.308594 C 301.832031 142.425781 302.898438 141.742188 304.09375 141.265625 C 305.289062 140.785156 306.53125 140.546875 307.820312 140.542969 L 342.84375 140.542969 C 342.769531 138.566406 342.648438 136.597656 342.476562 134.628906 C 342.308594 132.660156 342.089844 130.695312 341.828125 128.738281 C 341.566406 126.78125 341.253906 124.828125 340.898438 122.886719 C 340.542969 120.941406 340.136719 119.007812 339.6875 117.085938 C 339.238281 115.160156 338.746094 113.25 338.203125 111.347656 C 337.664062 109.449219 337.078125 107.5625 336.445312 105.691406 C 335.816406 103.816406 335.140625 101.960938 334.421875 100.121094 C 333.699219 98.28125 332.9375 96.460938 332.128906 94.65625 C 331.324219 92.851562 330.472656 91.070312 329.582031 89.308594 C 328.6875 87.542969 327.753906 85.804688 326.78125 84.085938 C 325.804688 82.367188 324.789062 80.671875 323.730469 79.003906 C 322.675781 77.335938 321.578125 75.691406 320.445312 74.074219 C 319.308594 72.457031 318.136719 70.867188 316.925781 69.308594 C 315.714844 67.746094 314.464844 66.214844 313.179688 64.714844 C 311.898438 63.210938 310.578125 61.742188 309.222656 60.304688 C 307.867188 58.867188 306.480469 57.460938 305.058594 56.089844 C 303.636719 54.71875 302.179688 53.382812 300.695312 52.078125 C 299.210938 50.777344 297.691406 49.511719 296.144531 48.28125 C 294.601562 47.050781 293.023438 45.859375 291.421875 44.707031 C 289.816406 43.550781 288.1875 42.4375 286.53125 41.359375 C 284.875 40.285156 283.191406 39.25 281.484375 38.253906 C 279.777344 37.257812 278.050781 36.304688 276.296875 35.390625 C 274.546875 34.476562 272.773438 33.605469 270.980469 32.777344 C 269.183594 31.949219 267.371094 31.164062 265.542969 30.421875 C 263.710938 29.683594 261.863281 28.984375 259.996094 28.332031 C 258.132812 27.679688 256.253906 27.070312 254.359375 26.507812 C 252.464844 25.945312 250.558594 25.425781 248.640625 24.953125 C 246.722656 24.484375 244.792969 24.058594 242.855469 23.675781 C 240.917969 23.296875 238.96875 22.964844 237.015625 22.679688 C 235.058594 22.390625 233.097656 22.152344 231.132812 21.960938 C 229.167969 21.765625 227.195312 21.621094 225.222656 21.523438 C 223.25 21.421875 221.277344 21.371094 219.300781 21.367188 C 217.324219 21.363281 215.347656 21.40625 213.375 21.5 C 211.402344 21.589844 209.433594 21.726562 207.464844 21.910156 C 205.496094 22.097656 203.535156 22.328125 201.578125 22.605469 C 199.625 22.882812 197.675781 23.210938 195.734375 23.582031 C 193.792969 23.953125 191.863281 24.371094 189.945312 24.835938 C 188.023438 25.300781 186.117188 25.808594 184.21875 26.363281 C 182.324219 26.921875 180.441406 27.519531 178.574219 28.167969 C 176.707031 28.8125 174.855469 29.5 173.023438 30.234375 C 171.1875 30.96875 169.371094 31.746094 167.574219 32.566406 C 165.777344 33.390625 164 34.253906 162.246094 35.160156 C 160.488281 36.0625 158.757812 37.011719 157.046875 38 C 155.335938 38.988281 153.648438 40.019531 151.988281 41.085938 C 150.328125 42.15625 148.691406 43.265625 147.082031 44.414062 C 145.476562 45.5625 143.894531 46.746094 142.34375 47.96875 C 140.792969 49.191406 139.273438 50.453125 137.78125 51.75 C 136.289062 53.046875 134.828125 54.375 133.402344 55.742188 C 131.976562 57.109375 130.582031 58.507812 129.21875 59.941406 C 127.859375 61.371094 126.535156 62.835938 125.242188 64.332031 C 123.953125 65.828125 122.699219 67.355469 121.480469 68.910156 C 120.265625 70.464844 119.085938 72.050781 117.941406 73.664062 C 116.800781 75.277344 115.699219 76.914062 114.632812 78.578125 C 113.570312 80.246094 112.546875 81.933594 111.566406 83.648438 C 110.582031 85.363281 109.644531 87.097656 108.742188 88.859375 C 107.84375 90.617188 106.988281 92.398438 106.171875 94.199219 C 105.359375 95.996094 104.585938 97.816406 103.859375 99.652344 C 103.132812 101.492188 102.449219 103.34375 101.8125 105.214844 C 101.171875 107.082031 100.578125 108.96875 100.03125 110.863281 C 99.484375 112.761719 98.980469 114.671875 98.523438 116.59375 C 98.066406 118.519531 97.65625 120.449219 97.289062 122.390625 C 96.925781 124.332031 96.609375 126.28125 96.335938 128.238281 C 96.066406 130.195312 95.839844 132.160156 95.664062 134.125 C 95.484375 136.09375 95.355469 138.066406 95.273438 140.039062 L 127.96875 140.039062 L 152.511719 109.277344 C 152.757812 108.964844 153.023438 108.664062 153.308594 108.382812 C 153.589844 108.101562 153.890625 107.835938 154.207031 107.589844 C 154.519531 107.34375 154.847656 107.113281 155.191406 106.90625 C 155.53125 106.699219 155.886719 106.511719 156.25 106.347656 C 156.613281 106.183594 156.988281 106.039062 157.371094 105.917969 C 157.75 105.796875 158.136719 105.699219 158.53125 105.625 C 158.925781 105.550781 159.320312 105.5 159.71875 105.46875 C 160.117188 105.441406 160.519531 105.4375 160.917969 105.457031 C 161.316406 105.480469 161.714844 105.523438 162.109375 105.589844 C 162.503906 105.65625 162.890625 105.746094 163.277344 105.859375 C 163.660156 105.972656 164.035156 106.109375 164.402344 106.269531 C 164.769531 106.425781 165.125 106.605469 165.472656 106.808594 C 165.820312 107.007812 166.152344 107.230469 166.472656 107.46875 C 166.792969 107.710938 167.097656 107.96875 167.386719 108.246094 C 167.671875 108.523438 167.945312 108.816406 168.199219 109.125 C 168.453125 109.433594 168.6875 109.757812 168.902344 110.09375 L 195.226562 150.109375 L 200.285156 144.3125 C 201.246094 143.214844 202.390625 142.363281 203.71875 141.757812 C 205.046875 141.152344 206.441406 140.84375 207.898438 140.832031 L 223.738281 140.832031 L 249.429688 98.53125 C 249.878906 97.773438 250.414062 97.082031 251.042969 96.464844 C 251.671875 95.84375 252.367188 95.316406 253.132812 94.878906 C 253.898438 94.441406 254.707031 94.109375 255.558594 93.882812 C 256.410156 93.65625 257.277344 93.539062 258.15625 93.539062 Z M 258.15625 93.539062 " fill-opacity="1" fill-rule="nonzero"/><path fill="#014ba0" d="M 219.023438 244.082031 C 213.636719 244.09375 208.285156 243.660156 202.96875 242.789062 C 197.652344 241.917969 192.441406 240.613281 187.339844 238.882812 C 182.238281 237.152344 177.3125 235.019531 172.5625 232.476562 C 167.808594 229.933594 163.300781 227.019531 159.027344 223.738281 C 155.589844 221.097656 152.332031 218.25 149.253906 215.195312 C 146.21875 212.160156 143.40625 208.925781 140.816406 205.5 C 138.171875 202.058594 135.765625 198.457031 133.59375 194.699219 C 131.421875 190.941406 129.507812 187.054688 127.847656 183.042969 C 126.1875 179.035156 124.800781 174.929688 123.679688 170.738281 C 122.558594 166.542969 121.722656 162.292969 121.160156 157.988281 C 121.125 157.71875 121.117188 157.449219 121.140625 157.175781 C 121.164062 156.902344 121.214844 156.636719 121.292969 156.375 C 121.375 156.113281 121.480469 155.867188 121.613281 155.625 C 121.746094 155.386719 121.902344 155.167969 122.082031 154.960938 C 122.261719 154.757812 122.460938 154.574219 122.679688 154.410156 C 122.898438 154.246094 123.132812 154.109375 123.382812 153.996094 C 123.632812 153.886719 123.890625 153.800781 124.15625 153.742188 C 124.421875 153.683594 124.691406 153.65625 124.964844 153.65625 L 132.816406 153.65625 C 133.628906 153.636719 134.28125 153.304688 134.777344 152.660156 L 156.929688 124.851562 C 157.117188 124.613281 157.332031 124.402344 157.570312 124.214844 C 157.808594 124.03125 158.066406 123.875 158.339844 123.75 C 158.617188 123.625 158.902344 123.535156 159.199219 123.476562 C 159.5 123.417969 159.796875 123.398438 160.101562 123.410156 C 160.402344 123.425781 160.699219 123.472656 160.992188 123.558594 C 161.28125 123.640625 161.558594 123.757812 161.820312 123.910156 C 162.085938 124.058594 162.328125 124.238281 162.546875 124.445312 C 162.769531 124.652344 162.960938 124.882812 163.128906 125.132812 L 192.007812 169.066406 C 192.464844 169.785156 193.117188 170.1875 193.964844 170.273438 C 194.765625 170.304688 195.421875 170.011719 195.929688 169.394531 L 207.820312 155.730469 C 208.179688 155.3125 208.613281 154.988281 209.113281 154.757812 C 209.617188 154.523438 210.144531 154.40625 210.699219 154.40625 L 229.414062 154.40625 C 229.859375 154.398438 230.28125 154.28125 230.667969 154.058594 C 231.054688 153.832031 231.363281 153.527344 231.589844 153.140625 L 254.414062 115.53125 C 254.773438 114.9375 255.257812 114.476562 255.871094 114.144531 C 256.480469 113.816406 257.132812 113.664062 257.828125 113.6875 C 258.519531 113.710938 259.160156 113.90625 259.746094 114.28125 C 260.332031 114.652344 260.785156 115.144531 261.101562 115.761719 L 288.464844 168.789062 C 288.644531 169.164062 288.894531 169.476562 289.222656 169.734375 C 289.546875 169.992188 289.914062 170.164062 290.320312 170.25 C 290.203125 170.21875 290.488281 170.25 290.726562 170.25 C 291.367188 170.25 291.925781 170.035156 292.394531 169.59375 L 307.660156 155.195312 C 308.398438 154.496094 309.277344 154.148438 310.292969 154.148438 L 313.085938 154.148438 C 313.359375 154.148438 313.628906 154.175781 313.894531 154.234375 C 314.164062 154.289062 314.417969 154.375 314.667969 154.488281 C 314.917969 154.601562 315.152344 154.738281 315.371094 154.898438 C 315.589844 155.0625 315.789062 155.246094 315.96875 155.449219 C 316.148438 155.65625 316.304688 155.878906 316.4375 156.117188 C 316.570312 156.355469 316.675781 156.605469 316.757812 156.863281 C 316.835938 157.125 316.886719 157.390625 316.910156 157.664062 C 316.933594 157.933594 316.925781 158.207031 316.890625 158.476562 C 316.203125 163.820312 315.078125 169.066406 313.519531 174.222656 C 311.960938 179.378906 309.988281 184.371094 307.601562 189.199219 C 305.214844 194.027344 302.445312 198.625 299.296875 202.992188 C 296.144531 207.363281 292.65625 211.441406 288.832031 215.230469 C 286.546875 217.515625 284.152344 219.683594 281.65625 221.734375 C 279.15625 223.785156 276.5625 225.707031 273.871094 227.503906 C 271.183594 229.296875 268.414062 230.957031 265.5625 232.480469 C 262.710938 234 259.789062 235.378906 256.804688 236.613281 C 253.816406 237.851562 250.773438 238.933594 247.679688 239.871094 C 244.585938 240.804688 241.453125 241.585938 238.28125 242.214844 C 235.109375 242.839844 231.917969 243.308594 228.699219 243.621094 C 225.480469 243.933594 222.257812 244.089844 219.023438 244.082031 Z M 129.421875 161.320312 C 130.707031 168.511719 132.828125 175.445312 135.78125 182.128906 C 138.734375 188.808594 142.441406 195.046875 146.894531 200.835938 C 149.277344 203.988281 151.863281 206.957031 154.65625 209.75 C 157.503906 212.574219 160.519531 215.203125 163.699219 217.644531 C 165.867188 219.304688 168.105469 220.863281 170.414062 222.320312 C 172.71875 223.78125 175.089844 225.132812 177.519531 226.378906 C 179.945312 227.625 182.425781 228.757812 184.957031 229.78125 C 187.488281 230.804688 190.0625 231.710938 192.675781 232.503906 C 195.289062 233.292969 197.929688 233.96875 200.605469 234.519531 C 203.277344 235.074219 205.96875 235.507812 208.683594 235.820312 C 211.394531 236.132812 214.113281 236.320312 216.84375 236.386719 C 219.574219 236.457031 222.300781 236.398438 225.023438 236.222656 C 227.75 236.042969 230.460938 235.742188 233.15625 235.324219 C 235.855469 234.902344 238.527344 234.359375 241.175781 233.695312 C 243.824219 233.035156 246.4375 232.253906 249.015625 231.359375 C 251.59375 230.460938 254.128906 229.449219 256.613281 228.324219 C 259.101562 227.199219 261.535156 225.964844 263.910156 224.621094 C 266.289062 223.277344 268.597656 221.832031 270.847656 220.28125 C 273.09375 218.726562 275.265625 217.078125 277.363281 215.332031 C 279.460938 213.585938 281.476562 211.75 283.410156 209.820312 C 286.453125 206.804688 289.265625 203.589844 291.847656 200.175781 C 294.429688 196.757812 296.757812 193.175781 298.828125 189.425781 C 300.898438 185.679688 302.691406 181.800781 304.207031 177.796875 C 305.722656 173.789062 306.949219 169.699219 307.878906 165.515625 L 297.636719 175.179688 C 296.492188 176.203125 295.1875 176.945312 293.726562 177.40625 C 292.261719 177.871094 290.769531 178.011719 289.246094 177.835938 C 288.441406 177.699219 287.660156 177.472656 286.910156 177.15625 C 286.15625 176.839844 285.449219 176.441406 284.789062 175.960938 C 284.128906 175.480469 283.535156 174.929688 283 174.308594 C 282.46875 173.6875 282.015625 173.015625 281.640625 172.289062 L 257.410156 125.359375 L 238.144531 157.125 C 237.691406 157.878906 237.152344 158.5625 236.523438 159.175781 C 235.894531 159.792969 235.195312 160.316406 234.429688 160.75 C 233.664062 161.183594 232.859375 161.511719 232.007812 161.738281 C 231.15625 161.960938 230.292969 162.074219 229.414062 162.074219 L 212.460938 162.074219 L 201.726562 174.402344 C 201.21875 175.003906 200.648438 175.535156 200.011719 176.003906 C 199.378906 176.46875 198.699219 176.855469 197.972656 177.160156 C 197.25 177.464844 196.5 177.679688 195.722656 177.808594 C 194.945312 177.933594 194.164062 177.96875 193.382812 177.910156 C 191.796875 177.777344 190.320312 177.304688 188.953125 176.488281 C 187.585938 175.675781 186.46875 174.601562 185.597656 173.269531 L 159.621094 133.773438 L 140.753906 157.46875 C 139.789062 158.683594 138.613281 159.628906 137.21875 160.304688 C 135.828125 160.984375 134.355469 161.324219 132.808594 161.332031 Z M 129.421875 161.320312 " fill-opacity="1" fill-rule="nonzero"/><path fill="#014ba0" d="M 292.480469 160.34375 C 292.261719 160.34375 292.042969 160.324219 291.832031 160.285156 C 291.238281 160.1875 290.699219 159.957031 290.210938 159.601562 C 289.726562 159.25 289.347656 158.804688 289.070312 158.269531 L 260.375 102.710938 C 260.171875 102.28125 259.875 101.929688 259.480469 101.660156 C 259.089844 101.394531 258.65625 101.242188 258.179688 101.207031 C 257.714844 101.210938 257.28125 101.332031 256.878906 101.570312 C 256.480469 101.8125 256.167969 102.136719 255.949219 102.550781 L 229.191406 146.660156 C 228.84375 147.230469 228.375 147.683594 227.792969 148.011719 C 227.207031 148.339844 226.582031 148.507812 225.910156 148.507812 L 207.886719 148.507812 C 207.128906 148.519531 206.507812 148.816406 206.015625 149.390625 L 197.671875 158.957031 C 197.273438 159.402344 196.800781 159.742188 196.246094 159.972656 C 195.695312 160.199219 195.121094 160.296875 194.523438 160.265625 C 193.925781 160.222656 193.367188 160.050781 192.851562 159.75 C 192.335938 159.449219 191.910156 159.046875 191.582031 158.546875 L 162.496094 114.285156 C 162.289062 113.945312 162.019531 113.675781 161.679688 113.472656 C 161.339844 113.269531 160.972656 113.15625 160.578125 113.136719 C 160.179688 113.117188 159.800781 113.191406 159.4375 113.355469 C 159.078125 113.519531 158.769531 113.757812 158.523438 114.070312 L 132.832031 146.28125 C 132.464844 146.738281 132.023438 147.09375 131.496094 147.34375 C 130.972656 147.597656 130.417969 147.722656 129.835938 147.722656 L 124.1875 147.722656 C 123.933594 147.722656 123.679688 147.699219 123.433594 147.648438 C 123.183594 147.597656 122.941406 147.527344 122.707031 147.425781 C 122.472656 147.328125 122.25 147.210938 122.039062 147.066406 C 121.832031 146.925781 121.636719 146.765625 121.457031 146.582031 C 121.277344 146.402344 121.121094 146.207031 120.980469 145.996094 C 120.839844 145.78125 120.722656 145.558594 120.628906 145.324219 C 120.535156 145.085938 120.464844 144.84375 120.417969 144.59375 C 120.371094 144.34375 120.347656 144.09375 120.351562 143.839844 C 120.386719 140.671875 120.578125 137.511719 120.921875 134.359375 C 121.265625 131.210938 121.761719 128.082031 122.410156 124.980469 C 123.054688 121.878906 123.851562 118.816406 124.796875 115.789062 C 125.742188 112.765625 126.832031 109.792969 128.066406 106.875 C 129.296875 103.953125 130.671875 101.101562 132.183594 98.316406 C 133.691406 95.53125 135.335938 92.824219 137.109375 90.199219 C 138.882812 87.570312 140.78125 85.039062 142.800781 82.597656 C 144.820312 80.152344 146.953125 77.816406 149.199219 75.582031 C 150.90625 73.875 152.675781 72.234375 154.5 70.65625 C 156.328125 69.078125 158.210938 67.570312 160.148438 66.132812 C 162.085938 64.691406 164.074219 63.328125 166.113281 62.035156 C 168.148438 60.742188 170.234375 59.523438 172.359375 58.382812 C 174.488281 57.242188 176.652344 56.179688 178.859375 55.199219 C 181.0625 54.21875 183.300781 53.320312 185.570312 52.5 C 187.84375 51.683594 190.140625 50.949219 192.464844 50.300781 C 194.789062 49.652344 197.136719 49.089844 199.5 48.613281 C 201.867188 48.132812 204.246094 47.746094 206.640625 47.441406 C 209.035156 47.140625 211.4375 46.925781 213.847656 46.800781 C 216.257812 46.671875 218.671875 46.636719 221.085938 46.683594 C 223.496094 46.734375 225.90625 46.875 228.308594 47.101562 C 230.710938 47.328125 233.101562 47.644531 235.480469 48.046875 C 237.863281 48.449219 240.222656 48.9375 242.566406 49.511719 C 244.910156 50.089844 247.230469 50.75 249.527344 51.496094 C 251.824219 52.242188 254.085938 53.070312 256.324219 53.980469 C 258.558594 54.894531 260.753906 55.886719 262.917969 56.960938 C 265.078125 58.03125 267.199219 59.183594 269.277344 60.410156 C 271.355469 61.640625 273.382812 62.941406 275.367188 64.320312 C 277.347656 65.699219 279.277344 67.144531 281.152344 68.664062 C 283.027344 70.183594 284.847656 71.769531 286.605469 73.421875 C 288.363281 75.074219 290.0625 76.789062 291.695312 78.5625 C 293.328125 80.339844 294.894531 82.175781 296.394531 84.066406 C 297.894531 85.957031 299.324219 87.902344 300.679688 89.898438 C 302.035156 91.894531 303.320312 93.9375 304.527344 96.027344 C 305.734375 98.117188 306.859375 100.246094 307.910156 102.421875 C 308.960938 104.59375 309.933594 106.800781 310.820312 109.046875 C 311.710938 111.289062 312.515625 113.5625 313.238281 115.867188 C 313.960938 118.167969 314.597656 120.496094 315.148438 122.847656 C 315.699219 125.195312 316.164062 127.5625 316.542969 129.945312 C 316.917969 132.328125 317.210938 134.722656 317.410156 137.128906 C 317.613281 139.535156 317.726562 141.945312 317.753906 144.355469 C 317.757812 144.871094 317.664062 145.363281 317.472656 145.835938 C 317.28125 146.3125 317.003906 146.730469 316.644531 147.09375 C 316.285156 147.457031 315.867188 147.738281 315.394531 147.933594 C 314.921875 148.132812 314.429688 148.230469 313.917969 148.230469 L 307.820312 148.230469 C 307.171875 148.234375 306.613281 148.464844 306.144531 148.921875 L 295.105469 159.3125 C 294.367188 160.003906 293.488281 160.347656 292.480469 160.34375 Z M 258.15625 93.539062 L 258.480469 93.539062 C 259.390625 93.585938 260.28125 93.75 261.152344 94.03125 C 262.019531 94.3125 262.835938 94.703125 263.601562 95.203125 C 264.367188 95.699219 265.054688 96.289062 265.664062 96.96875 C 266.273438 97.648438 266.785156 98.394531 267.195312 99.210938 L 293.546875 150.214844 L 300.894531 143.308594 C 301.832031 142.425781 302.898438 141.742188 304.09375 141.265625 C 305.289062 140.785156 306.53125 140.546875 307.820312 140.542969 L 309.964844 140.542969 C 309.890625 139.109375 309.78125 137.675781 309.636719 136.246094 C 309.492188 134.816406 309.316406 133.394531 309.105469 131.972656 C 308.894531 130.550781 308.652344 129.136719 308.375 127.726562 C 308.097656 126.320312 307.785156 124.917969 307.441406 123.523438 C 307.097656 122.128906 306.722656 120.742188 306.3125 119.367188 C 305.902344 117.992188 305.460938 116.625 304.984375 115.269531 C 304.511719 113.914062 304.007812 112.570312 303.46875 111.238281 C 302.929688 109.90625 302.363281 108.589844 301.761719 107.285156 C 301.160156 105.980469 300.53125 104.6875 299.871094 103.414062 C 299.207031 102.140625 298.519531 100.878906 297.796875 99.636719 C 297.078125 98.394531 296.328125 97.171875 295.546875 95.964844 C 294.769531 94.757812 293.964844 93.570312 293.128906 92.402344 C 292.292969 91.234375 291.429688 90.085938 290.542969 88.957031 C 289.652344 87.828125 288.738281 86.722656 287.796875 85.640625 C 286.855469 84.554688 285.886719 83.492188 284.894531 82.453125 C 283.90625 81.417969 282.890625 80.402344 281.847656 79.410156 C 280.808594 78.421875 279.746094 77.453125 278.660156 76.515625 C 277.574219 75.574219 276.46875 74.660156 275.339844 73.773438 C 274.210938 72.882812 273.0625 72.023438 271.894531 71.1875 C 270.722656 70.355469 269.535156 69.550781 268.328125 68.773438 C 267.121094 67.996094 265.894531 67.246094 264.652344 66.527344 C 263.410156 65.808594 262.148438 65.117188 260.875 64.460938 C 259.597656 63.800781 258.308594 63.171875 257.003906 62.570312 C 255.695312 61.972656 254.378906 61.40625 253.046875 60.867188 C 251.714844 60.332031 250.371094 59.828125 249.015625 59.355469 C 247.65625 58.882812 246.292969 58.441406 244.914062 58.035156 C 243.539062 57.625 242.152344 57.25 240.757812 56.910156 C 239.363281 56.566406 237.960938 56.257812 236.550781 55.980469 C 235.140625 55.703125 233.726562 55.460938 232.304688 55.253906 C 230.886719 55.042969 229.460938 54.867188 228.03125 54.726562 C 226.601562 54.585938 225.171875 54.476562 223.734375 54.402344 C 222.300781 54.328125 220.867188 54.289062 219.429688 54.28125 C 217.996094 54.277344 216.558594 54.304688 215.125 54.367188 C 213.6875 54.429688 212.257812 54.523438 210.828125 54.652344 C 209.394531 54.785156 207.96875 54.945312 206.546875 55.144531 C 205.125 55.339844 203.707031 55.570312 202.296875 55.835938 C 200.882812 56.101562 199.480469 56.398438 198.082031 56.726562 C 196.683594 57.058594 195.296875 57.421875 193.914062 57.820312 C 192.535156 58.214844 191.164062 58.644531 189.804688 59.105469 C 188.445312 59.566406 187.097656 60.058594 185.761719 60.585938 C 184.421875 61.109375 183.101562 61.667969 181.789062 62.253906 C 180.480469 62.84375 179.183594 63.460938 177.902344 64.109375 C 176.621094 64.757812 175.355469 65.4375 174.105469 66.144531 C 172.859375 66.855469 171.625 67.59375 170.414062 68.359375 C 169.199219 69.128906 168.003906 69.921875 166.828125 70.746094 C 165.652344 71.570312 164.496094 72.421875 163.359375 73.300781 C 162.222656 74.179688 161.105469 75.082031 160.015625 76.015625 C 158.921875 76.945312 157.851562 77.902344 156.800781 78.882812 C 155.753906 79.863281 154.730469 80.871094 153.730469 81.902344 C 152.726562 82.933594 151.753906 83.984375 150.800781 85.0625 C 149.851562 86.136719 148.925781 87.234375 148.027344 88.355469 C 147.128906 89.476562 146.257812 90.617188 145.414062 91.777344 C 144.570312 92.941406 143.753906 94.121094 142.964844 95.320312 C 142.175781 96.523438 141.414062 97.738281 140.683594 98.976562 C 139.953125 100.210938 139.25 101.464844 138.578125 102.734375 C 137.90625 104.003906 137.265625 105.289062 136.65625 106.585938 C 136.042969 107.886719 135.464844 109.199219 134.914062 110.527344 C 134.367188 111.855469 133.847656 113.195312 133.363281 114.546875 C 132.878906 115.898438 132.425781 117.257812 132.003906 118.632812 C 131.582031 120.003906 131.195312 121.386719 130.839844 122.777344 C 130.480469 124.167969 130.160156 125.570312 129.871094 126.976562 C 129.582031 128.382812 129.324219 129.792969 129.101562 131.214844 C 128.878906 132.632812 128.691406 134.054688 128.535156 135.484375 C 128.378906 136.910156 128.257812 138.339844 128.171875 139.773438 L 152.527344 109.261719 C 152.773438 108.949219 153.039062 108.648438 153.324219 108.367188 C 153.605469 108.085938 153.90625 107.820312 154.21875 107.574219 C 154.535156 107.328125 154.863281 107.101562 155.207031 106.890625 C 155.546875 106.683594 155.902344 106.5 156.265625 106.332031 C 156.628906 106.167969 157.003906 106.023438 157.382812 105.902344 C 157.765625 105.78125 158.152344 105.683594 158.546875 105.609375 C 158.9375 105.535156 159.335938 105.484375 159.734375 105.457031 C 160.132812 105.425781 160.535156 105.421875 160.933594 105.445312 C 161.332031 105.464844 161.730469 105.507812 162.125 105.574219 C 162.519531 105.640625 162.90625 105.730469 163.292969 105.84375 C 163.675781 105.960938 164.050781 106.09375 164.417969 106.253906 C 164.785156 106.410156 165.140625 106.589844 165.488281 106.792969 C 165.835938 106.992188 166.167969 107.214844 166.488281 107.453125 C 166.808594 107.695312 167.109375 107.953125 167.398438 108.230469 C 167.6875 108.507812 167.960938 108.800781 168.214844 109.109375 C 168.46875 109.417969 168.703125 109.742188 168.917969 110.078125 L 195.226562 150.109375 L 200.285156 144.3125 C 201.246094 143.214844 202.390625 142.363281 203.71875 141.757812 C 205.046875 141.152344 206.441406 140.84375 207.898438 140.832031 L 223.738281 140.832031 L 249.429688 98.53125 C 249.878906 97.773438 250.414062 97.082031 251.042969 96.464844 C 251.671875 95.84375 252.367188 95.316406 253.132812 94.878906 C 253.898438 94.441406 254.707031 94.109375 255.558594 93.882812 C 256.410156 93.65625 257.277344 93.539062 258.15625 93.539062 Z M 258.15625 93.539062 " fill-opacity="1" fill-rule="nonzero"/><path fill="#014ba0" d="M 119.707031 272.167969 C 119.496094 272.167969 119.285156 272.152344 119.074219 272.117188 C 118.464844 272.011719 117.910156 271.777344 117.414062 271.40625 C 116.917969 271.035156 116.535156 270.570312 116.265625 270.015625 C 115.84375 269.152344 115.296875 268.378906 114.621094 267.695312 L 96.742188 249.8125 C 96.054688 249.140625 95.277344 248.589844 94.414062 248.167969 C 94.140625 248.035156 93.886719 247.871094 93.648438 247.675781 C 93.414062 247.480469 93.207031 247.261719 93.023438 247.015625 C 92.839844 246.773438 92.691406 246.507812 92.570312 246.226562 C 92.449219 245.949219 92.363281 245.65625 92.3125 245.355469 C 92.265625 245.054688 92.25 244.753906 92.269531 244.449219 C 92.292969 244.144531 92.351562 243.847656 92.445312 243.554688 C 92.535156 243.265625 92.660156 242.988281 92.820312 242.726562 C 92.980469 242.46875 93.167969 242.230469 93.382812 242.011719 L 115.015625 220.382812 C 115.410156 219.996094 115.867188 219.707031 116.382812 219.515625 C 116.898438 219.320312 117.429688 219.238281 117.980469 219.265625 C 118.535156 219.300781 119.054688 219.453125 119.542969 219.714844 C 120.03125 219.976562 120.441406 220.328125 120.777344 220.769531 C 127.378906 229.429688 135.007812 237.058594 143.667969 243.660156 C 143.882812 243.824219 144.082031 244.011719 144.257812 244.21875 C 144.433594 244.425781 144.585938 244.652344 144.714844 244.890625 C 144.84375 245.132812 144.945312 245.382812 145.023438 245.644531 C 145.097656 245.90625 145.144531 246.175781 145.160156 246.449219 C 145.179688 246.71875 145.167969 246.992188 145.128906 247.261719 C 145.089844 247.53125 145.023438 247.792969 144.925781 248.050781 C 144.832031 248.304688 144.707031 248.546875 144.5625 248.777344 C 144.414062 249.003906 144.242188 249.21875 144.050781 249.410156 L 122.417969 271.042969 C 121.671875 271.792969 120.765625 272.167969 119.707031 272.167969 Z M 102.007812 244.234375 C 102.058594 244.28125 102.109375 244.332031 102.15625 244.382812 L 120.042969 262.269531 L 120.195312 262.425781 L 135.578125 247.039062 C 132.25 244.320312 129.066406 241.4375 126.027344 238.398438 C 123 235.375 120.109375 232.171875 117.386719 228.847656 Z M 102.007812 244.234375 " fill-opacity="1" fill-rule="nonzero"/><g clip-path="url(#3e751f84ac)"><path fill="#014ba0" d="M 38.058594 360.804688 C 35.796875 360.8125 33.554688 360.597656 31.335938 360.15625 C 29.117188 359.71875 26.964844 359.066406 24.875 358.199219 C 22.789062 357.332031 20.804688 356.269531 18.925781 355.007812 C 17.050781 353.746094 15.316406 352.3125 13.722656 350.707031 C 12.042969 349.039062 10.554688 347.222656 9.25 345.246094 C 7.949219 343.273438 6.863281 341.1875 5.996094 338.988281 C 5.128906 336.789062 4.496094 334.523438 4.101562 332.191406 C 3.703125 329.859375 3.550781 327.511719 3.640625 325.152344 C 3.726562 322.785156 4.050781 320.453125 4.613281 318.152344 C 5.175781 315.851562 5.964844 313.632812 6.984375 311.496094 C 8 309.355469 9.222656 307.34375 10.652344 305.457031 C 12.082031 303.570312 13.6875 301.84375 15.46875 300.285156 L 80.484375 243.632812 C 81.066406 243.128906 81.679688 242.671875 82.328125 242.257812 C 82.972656 241.84375 83.648438 241.476562 84.347656 241.160156 C 85.046875 240.84375 85.765625 240.578125 86.503906 240.363281 C 87.238281 240.152344 87.988281 239.992188 88.75 239.886719 C 89.511719 239.78125 90.273438 239.730469 91.042969 239.738281 C 91.808594 239.742188 92.574219 239.800781 93.332031 239.917969 C 94.09375 240.03125 94.839844 240.199219 95.574219 240.421875 C 96.308594 240.644531 97.023438 240.921875 97.71875 241.246094 C 99.375 242.042969 100.855469 243.085938 102.15625 244.382812 L 120.042969 262.269531 C 121.324219 263.554688 122.363281 265.015625 123.15625 266.652344 C 123.484375 267.347656 123.761719 268.0625 123.984375 268.800781 C 124.210938 269.535156 124.382812 270.285156 124.5 271.046875 C 124.617188 271.804688 124.679688 272.570312 124.6875 273.339844 C 124.695312 274.113281 124.644531 274.878906 124.542969 275.640625 C 124.4375 276.402344 124.28125 277.15625 124.070312 277.894531 C 123.855469 278.636719 123.59375 279.355469 123.277344 280.058594 C 122.960938 280.761719 122.59375 281.4375 122.183594 282.085938 C 121.769531 282.734375 121.3125 283.351562 120.808594 283.933594 L 64.140625 348.957031 C 62.582031 350.738281 60.859375 352.34375 58.972656 353.773438 C 57.085938 355.203125 55.074219 356.425781 52.9375 357.445312 C 50.796875 358.460938 48.578125 359.25 46.28125 359.8125 C 43.980469 360.378906 41.648438 360.703125 39.28125 360.785156 C 38.871094 360.796875 38.464844 360.804688 38.058594 360.804688 Z M 19.144531 345.296875 C 19.792969 345.945312 20.476562 346.558594 21.1875 347.140625 C 21.898438 347.71875 22.640625 348.257812 23.40625 348.761719 C 24.175781 349.265625 24.964844 349.726562 25.78125 350.148438 C 26.59375 350.570312 27.429688 350.949219 28.285156 351.285156 C 29.136719 351.621094 30.007812 351.914062 30.890625 352.160156 C 31.773438 352.40625 32.667969 352.609375 33.570312 352.761719 C 34.476562 352.917969 35.386719 353.027344 36.300781 353.089844 C 37.21875 353.152344 38.132812 353.167969 39.050781 353.136719 C 39.96875 353.101562 40.882812 353.023438 41.789062 352.898438 C 42.699219 352.773438 43.597656 352.601562 44.492188 352.382812 C 45.382812 352.164062 46.257812 351.902344 47.125 351.59375 C 47.988281 351.285156 48.835938 350.9375 49.664062 350.539062 C 50.492188 350.144531 51.296875 349.710938 52.082031 349.234375 C 52.863281 348.753906 53.621094 348.238281 54.351562 347.683594 C 55.082031 347.128906 55.785156 346.539062 56.453125 345.910156 C 57.125 345.285156 57.761719 344.625 58.363281 343.933594 L 115.019531 278.902344 C 115.539062 278.296875 115.964844 277.628906 116.292969 276.898438 C 116.621094 276.167969 116.839844 275.40625 116.949219 274.613281 C 117.054688 273.820312 117.050781 273.027344 116.929688 272.234375 C 116.808594 271.445312 116.578125 270.6875 116.238281 269.960938 C 115.824219 269.117188 115.285156 268.363281 114.621094 267.695312 L 96.742188 249.8125 C 96.054688 249.140625 95.277344 248.589844 94.414062 248.167969 C 93.691406 247.832031 92.9375 247.609375 92.148438 247.492188 C 91.359375 247.375 90.570312 247.375 89.785156 247.484375 C 88.996094 247.59375 88.238281 247.816406 87.511719 248.144531 C 86.789062 248.472656 86.125 248.898438 85.519531 249.417969 L 20.496094 306.070312 C 19.804688 306.671875 19.144531 307.308594 18.515625 307.980469 C 17.890625 308.648438 17.296875 309.351562 16.742188 310.082031 C 16.1875 310.8125 15.671875 311.570312 15.195312 312.355469 C 14.71875 313.136719 14.28125 313.945312 13.886719 314.773438 C 13.492188 315.601562 13.140625 316.449219 12.832031 317.3125 C 12.523438 318.179688 12.261719 319.054688 12.042969 319.949219 C 11.828125 320.839844 11.65625 321.742188 11.53125 322.648438 C 11.40625 323.558594 11.328125 324.472656 11.296875 325.390625 C 11.261719 326.308594 11.277344 327.222656 11.339844 328.140625 C 11.402344 329.054688 11.511719 329.964844 11.667969 330.871094 C 11.824219 331.773438 12.027344 332.667969 12.273438 333.554688 C 12.523438 334.4375 12.8125 335.304688 13.152344 336.160156 C 13.488281 337.015625 13.867188 337.847656 14.289062 338.664062 C 14.710938 339.480469 15.175781 340.269531 15.679688 341.039062 C 16.179688 341.804688 16.722656 342.546875 17.300781 343.257812 C 17.882812 343.96875 18.496094 344.648438 19.144531 345.296875 Z M 19.144531 345.296875 " fill-opacity="1" fill-rule="nonzero"/></g><g clip-path="url(#29576cac5d)"><path fill="#014ba0" d="M 194.140625 177.941406 C 193.890625 177.941406 193.640625 177.941406 193.375 177.910156 C 191.789062 177.777344 190.3125 177.304688 188.945312 176.488281 C 187.578125 175.675781 186.460938 174.601562 185.589844 173.269531 L 159.613281 133.773438 L 140.746094 157.46875 C 139.78125 158.683594 138.605469 159.628906 137.210938 160.304688 C 135.820312 160.984375 134.347656 161.324219 132.800781 161.332031 L 70.980469 161.332031 C 70.296875 161.3125 69.621094 161.222656 68.953125 161.070312 C 68.285156 160.917969 67.640625 160.703125 67.015625 160.425781 C 66.390625 160.148438 65.796875 159.8125 65.234375 159.421875 C 64.671875 159.03125 64.15625 158.589844 63.679688 158.097656 C 63.203125 157.605469 62.777344 157.074219 62.40625 156.5 C 62.03125 155.925781 61.71875 155.320312 61.460938 154.6875 C 61.203125 154.054688 61.011719 153.398438 60.878906 152.726562 C 60.75 152.054688 60.683594 151.378906 60.683594 150.695312 C 60.683594 150.011719 60.75 149.332031 60.878906 148.660156 C 61.011719 147.988281 61.203125 147.335938 61.460938 146.703125 C 61.71875 146.066406 62.03125 145.464844 62.40625 144.890625 C 62.777344 144.316406 63.203125 143.785156 63.679688 143.292969 C 64.15625 142.800781 64.671875 142.359375 65.234375 141.964844 C 65.796875 141.574219 66.390625 141.238281 67.015625 140.960938 C 67.640625 140.683594 68.285156 140.46875 68.953125 140.316406 C 69.621094 140.164062 70.296875 140.078125 70.980469 140.054688 L 127.972656 140.054688 L 152.515625 109.292969 C 152.761719 108.976562 153.027344 108.679688 153.3125 108.398438 C 153.59375 108.117188 153.894531 107.851562 154.210938 107.605469 C 154.523438 107.359375 154.851562 107.128906 155.195312 106.921875 C 155.535156 106.714844 155.890625 106.527344 156.253906 106.363281 C 156.617188 106.199219 156.992188 106.054688 157.375 105.933594 C 157.753906 105.8125 158.140625 105.714844 158.535156 105.640625 C 158.929688 105.566406 159.324219 105.511719 159.722656 105.484375 C 160.121094 105.457031 160.523438 105.453125 160.921875 105.472656 C 161.320312 105.492188 161.71875 105.539062 162.113281 105.605469 C 162.507812 105.671875 162.894531 105.761719 163.28125 105.875 C 163.664062 105.988281 164.039062 106.125 164.40625 106.285156 C 164.773438 106.441406 165.128906 106.621094 165.476562 106.824219 C 165.824219 107.023438 166.15625 107.246094 166.476562 107.484375 C 166.796875 107.726562 167.101562 107.984375 167.390625 108.261719 C 167.675781 108.539062 167.949219 108.832031 168.203125 109.140625 C 168.457031 109.449219 168.691406 109.773438 168.90625 110.109375 L 195.226562 150.109375 L 200.285156 144.3125 C 201.246094 143.214844 202.390625 142.363281 203.71875 141.757812 C 205.046875 141.152344 206.441406 140.84375 207.898438 140.832031 L 223.738281 140.832031 L 249.429688 98.53125 C 249.90625 97.761719 250.472656 97.0625 251.128906 96.4375 C 251.785156 95.8125 252.507812 95.28125 253.304688 94.847656 C 254.097656 94.410156 254.933594 94.082031 255.8125 93.859375 C 256.691406 93.640625 257.585938 93.535156 258.492188 93.546875 C 259.402344 93.59375 260.292969 93.757812 261.160156 94.039062 C 262.03125 94.320312 262.847656 94.710938 263.613281 95.210938 C 264.378906 95.707031 265.066406 96.296875 265.675781 96.976562 C 266.285156 97.65625 266.796875 98.402344 267.207031 99.21875 L 293.558594 150.222656 L 300.90625 143.316406 C 301.84375 142.433594 302.910156 141.75 304.105469 141.273438 C 305.300781 140.792969 306.542969 140.554688 307.832031 140.550781 L 361.472656 140.550781 C 362.160156 140.566406 362.839844 140.652344 363.507812 140.800781 C 364.179688 140.953125 364.828125 141.164062 365.457031 141.441406 C 366.085938 141.714844 366.683594 142.046875 367.246094 142.441406 C 367.8125 142.832031 368.332031 143.273438 368.8125 143.765625 C 369.292969 144.257812 369.71875 144.789062 370.09375 145.363281 C 370.46875 145.9375 370.789062 146.542969 371.046875 147.179688 C 371.304688 147.816406 371.5 148.472656 371.632812 149.144531 C 371.761719 149.820312 371.828125 150.5 371.828125 151.1875 C 371.828125 151.875 371.761719 152.554688 371.632812 153.226562 C 371.5 153.902344 371.304688 154.558594 371.046875 155.191406 C 370.789062 155.828125 370.46875 156.433594 370.09375 157.007812 C 369.71875 157.585938 369.292969 158.117188 368.8125 158.609375 C 368.332031 159.101562 367.8125 159.542969 367.246094 159.933594 C 366.683594 160.324219 366.085938 160.660156 365.457031 160.933594 C 364.828125 161.210938 364.179688 161.421875 363.507812 161.574219 C 362.839844 161.722656 362.160156 161.804688 361.472656 161.824219 L 311.796875 161.824219 L 297.636719 175.183594 C 296.492188 176.207031 295.1875 176.949219 293.726562 177.410156 C 292.261719 177.875 290.769531 178.015625 289.246094 177.839844 C 288.441406 177.703125 287.660156 177.476562 286.90625 177.160156 C 286.15625 176.84375 285.449219 176.445312 284.789062 175.960938 C 284.128906 175.480469 283.53125 174.929688 283 174.308594 C 282.46875 173.6875 282.015625 173.015625 281.640625 172.289062 L 257.410156 125.359375 L 238.144531 157.125 C 237.691406 157.878906 237.152344 158.5625 236.523438 159.175781 C 235.894531 159.792969 235.195312 160.316406 234.429688 160.75 C 233.664062 161.183594 232.859375 161.511719 232.007812 161.738281 C 231.15625 161.960938 230.292969 162.074219 229.414062 162.074219 L 212.460938 162.074219 L 201.726562 174.402344 C 200.78125 175.519531 199.648438 176.386719 198.320312 177.007812 C 196.996094 177.625 195.601562 177.9375 194.140625 177.941406 Z M 159.925781 123.398438 L 160.097656 123.398438 C 160.714844 123.425781 161.289062 123.589844 161.820312 123.894531 C 162.355469 124.199219 162.792969 124.609375 163.128906 125.121094 L 192.007812 169.054688 C 192.464844 169.773438 193.117188 170.175781 193.964844 170.261719 C 194.765625 170.296875 195.417969 170.003906 195.925781 169.382812 L 207.816406 155.71875 C 208.179688 155.304688 208.613281 154.980469 209.113281 154.75 C 209.617188 154.519531 210.144531 154.40625 210.699219 154.40625 L 229.414062 154.40625 C 229.859375 154.398438 230.28125 154.28125 230.667969 154.058594 C 231.054688 153.832031 231.363281 153.527344 231.589844 153.140625 L 254.414062 115.53125 C 254.773438 114.9375 255.257812 114.476562 255.871094 114.144531 C 256.480469 113.816406 257.132812 113.664062 257.828125 113.6875 C 258.519531 113.710938 259.160156 113.90625 259.746094 114.28125 C 260.332031 114.652344 260.785156 115.144531 261.101562 115.761719 L 288.464844 168.789062 C 288.644531 169.164062 288.894531 169.476562 289.222656 169.734375 C 289.546875 169.992188 289.914062 170.164062 290.320312 170.25 C 290.203125 170.21875 290.488281 170.25 290.726562 170.25 C 291.367188 170.25 291.925781 170.035156 292.394531 169.59375 L 307.660156 155.195312 C 308.398438 154.496094 309.277344 154.148438 310.292969 154.148438 L 361.476562 154.148438 C 361.839844 154.101562 362.179688 153.996094 362.503906 153.824219 C 362.824219 153.652344 363.109375 153.433594 363.347656 153.160156 C 363.589844 152.886719 363.777344 152.578125 363.90625 152.238281 C 364.035156 151.898438 364.097656 151.542969 364.097656 151.179688 C 364.097656 150.816406 364.035156 150.460938 363.90625 150.121094 C 363.777344 149.78125 363.589844 149.472656 363.347656 149.199219 C 363.109375 148.925781 362.824219 148.703125 362.503906 148.535156 C 362.179688 148.363281 361.839844 148.257812 361.476562 148.210938 L 307.820312 148.210938 C 307.171875 148.21875 306.613281 148.445312 306.144531 148.902344 L 295.105469 159.3125 C 294.890625 159.515625 294.652344 159.691406 294.394531 159.839844 C 294.140625 159.988281 293.867188 160.105469 293.585938 160.191406 C 293.300781 160.277344 293.011719 160.332031 292.714844 160.347656 C 292.417969 160.367188 292.121094 160.351562 291.832031 160.300781 C 291.539062 160.25 291.253906 160.167969 290.980469 160.050781 C 290.707031 159.9375 290.453125 159.792969 290.210938 159.617188 C 289.972656 159.441406 289.757812 159.242188 289.5625 159.015625 C 289.371094 158.789062 289.207031 158.546875 289.070312 158.28125 L 260.375 102.710938 C 260.191406 102.273438 259.902344 101.917969 259.511719 101.644531 C 259.121094 101.375 258.6875 101.230469 258.210938 101.214844 C 257.734375 101.199219 257.292969 101.3125 256.882812 101.554688 C 256.472656 101.796875 256.160156 102.132812 255.949219 102.558594 L 229.191406 146.660156 C 228.84375 147.230469 228.375 147.683594 227.792969 148.011719 C 227.207031 148.339844 226.582031 148.507812 225.910156 148.507812 L 207.886719 148.507812 C 207.128906 148.519531 206.507812 148.816406 206.015625 149.390625 L 197.671875 158.957031 C 197.273438 159.402344 196.800781 159.742188 196.246094 159.972656 C 195.695312 160.199219 195.121094 160.296875 194.523438 160.265625 C 193.925781 160.222656 193.367188 160.050781 192.851562 159.75 C 192.335938 159.449219 191.910156 159.046875 191.582031 158.546875 L 162.496094 114.285156 C 162.289062 113.945312 162.019531 113.675781 161.679688 113.472656 C 161.339844 113.269531 160.972656 113.15625 160.578125 113.136719 C 160.179688 113.117188 159.800781 113.191406 159.4375 113.355469 C 159.078125 113.519531 158.769531 113.757812 158.523438 114.070312 L 132.832031 146.28125 C 132.464844 146.738281 132.023438 147.09375 131.496094 147.34375 C 130.972656 147.597656 130.417969 147.722656 129.835938 147.722656 L 70.980469 147.722656 C 70.617188 147.769531 70.273438 147.875 69.949219 148.042969 C 69.625 148.214844 69.339844 148.433594 69.097656 148.707031 C 68.855469 148.980469 68.667969 149.289062 68.539062 149.632812 C 68.40625 149.972656 68.34375 150.328125 68.34375 150.695312 C 68.34375 151.058594 68.40625 151.414062 68.539062 151.757812 C 68.667969 152.097656 68.855469 152.40625 69.097656 152.679688 C 69.339844 152.953125 69.625 153.175781 69.949219 153.34375 C 70.273438 153.515625 70.617188 153.621094 70.980469 153.664062 L 132.816406 153.664062 C 133.628906 153.644531 134.28125 153.3125 134.777344 152.667969 L 156.929688 124.859375 C 157.289062 124.398438 157.734375 124.039062 158.261719 123.785156 C 158.785156 123.527344 159.339844 123.398438 159.925781 123.398438 Z M 159.925781 123.398438 " fill-opacity="1" fill-rule="nonzero"/></g></svg>