<svg xmlns="http://www.w3.org/2000/svg" xmlns:xlink="http://www.w3.org/1999/xlink" width="500" zoomAndPan="magnify" viewBox="0 0 375 374.999991" height="500" preserveAspectRatio="xMidYMid meet" version="1.0"><defs><clipPath id="ffe1ecae52"><path d="M 64 7.800781 L 310.707031 7.800781 L 310.707031 367 L 64 367 Z M 64 7.800781 " clip-rule="nonzero"/></clipPath></defs><g clip-path="url(#ffe1ecae52)"><path fill="#34a853" d="M 109.042969 7.800781 C 104.929688 7.800781 101.570312 11.160156 101.570312 15.273438 L 101.570312 164.707031 C 101.570312 168.824219 104.929688 172.179688 109.042969 172.179688 L 198.703125 172.179688 L 198.703125 203.496094 C 192.515625 206.09375 187.585938 211.40625 186.152344 218.527344 L 186.152344 218.46875 L 175.707031 268.640625 L 144.710938 283.527344 L 99.324219 283.527344 C 99.121094 283.496094 98.945312 283.527344 98.769531 283.527344 C 93.488281 283.933594 85.199219 284.839844 77.636719 290.0625 C 70.050781 295.257812 64.210938 305.242188 64.210938 319.367188 L 64.210938 358.972656 C 64.183594 361.660156 65.585938 364.167969 67.917969 365.539062 C 70.253906 366.882812 73.113281 366.882812 75.449219 365.539062 C 77.785156 364.167969 79.183594 361.660156 79.15625 358.972656 L 79.15625 319.367188 C 79.15625 308.859375 82.277344 305.007812 86.101562 302.351562 C 89.898438 299.753906 95.382812 298.789062 99.820312 298.46875 L 146.402344 298.46875 C 147.511719 298.46875 148.621094 298.207031 149.640625 297.710938 L 185.511719 280.519531 C 187.585938 279.527344 189.101562 277.601562 189.597656 275.324219 L 200.804688 221.535156 C 200.804688 221.503906 200.804688 221.476562 200.804688 221.445312 C 201.476562 218.121094 204.746094 216.136719 208.453125 216.863281 C 211.78125 217.535156 213.792969 220.777344 213.0625 224.480469 C 213.0625 224.480469 213.0625 224.511719 213.0625 224.511719 L 200.367188 284.199219 C 200.367188 284.226562 200.339844 284.257812 200.339844 284.285156 C 200.074219 285.570312 197.476562 290.296875 195.550781 291.84375 C 195.550781 291.84375 195.550781 291.875 195.550781 291.875 L 164.207031 316.476562 C 162.394531 317.90625 161.34375 320.066406 161.34375 322.34375 L 161.34375 358.972656 C 161.316406 361.660156 162.71875 364.167969 165.050781 365.539062 C 167.386719 366.882812 170.246094 366.882812 172.582031 365.539062 C 174.917969 364.167969 176.316406 361.660156 176.289062 358.972656 L 176.289062 325.992188 L 204.804688 303.578125 C 204.832031 303.578125 204.863281 303.546875 204.863281 303.519531 C 210.40625 299.113281 213.765625 293.390625 214.988281 287.203125 L 227.6875 227.515625 C 227.6875 227.515625 227.6875 227.488281 227.6875 227.429688 C 229.789062 216.980469 223.832031 206.242188 213.648438 202.914062 L 213.648438 172.179688 L 303.308594 172.179688 C 307.421875 172.179688 310.78125 168.824219 310.78125 164.707031 L 310.78125 15.273438 C 310.78125 11.160156 307.421875 7.800781 303.308594 7.800781 Z M 116.515625 22.746094 L 295.835938 22.746094 L 295.835938 157.238281 L 116.515625 157.238281 Z M 198.703125 45.160156 L 198.703125 104.933594 L 213.648438 104.933594 L 213.648438 45.160156 Z M 206.175781 119.878906 C 202.0625 119.878906 198.703125 123.234375 198.703125 127.347656 C 198.703125 131.464844 202.0625 134.820312 206.175781 134.820312 C 210.292969 134.820312 213.648438 131.464844 213.648438 127.347656 C 213.648438 123.234375 210.292969 119.878906 206.175781 119.878906 Z M 120.25 194.59375 C 97.632812 194.59375 79.15625 213.070312 79.15625 235.691406 C 79.15625 258.308594 97.632812 276.785156 120.25 276.785156 C 142.871094 276.785156 161.34375 258.308594 161.34375 235.691406 C 161.34375 213.070312 142.871094 194.59375 120.25 194.59375 Z M 120.25 209.539062 C 134.785156 209.539062 146.402344 221.15625 146.402344 235.691406 C 146.402344 250.226562 134.785156 261.839844 120.25 261.839844 C 105.714844 261.839844 94.101562 250.226562 94.101562 235.691406 C 94.101562 221.15625 105.714844 209.539062 120.25 209.539062 Z M 120.25 209.539062 " fill-opacity="1" fill-rule="nonzero"/></g></svg>