<svg xmlns="http://www.w3.org/2000/svg" xmlns:xlink="http://www.w3.org/1999/xlink" width="500" zoomAndPan="magnify" viewBox="0 0 375 187.499995" height="250" preserveAspectRatio="xMidYMid meet" version="1.0"><defs><clipPath id="f58b450590"><path d="M 35.355469 15 L 172 15 L 172 100 L 35.355469 100 Z M 35.355469 15 " clip-rule="nonzero"/></clipPath><clipPath id="c7c1baf37c"><path d="M 203 103 L 339.792969 103 L 339.792969 172 L 203 172 Z M 203 103 " clip-rule="nonzero"/></clipPath></defs><path fill="#b10005" d="M 205.875 142.945312 L 216.160156 135.035156 C 218.535156 136.070312 221.089844 136.863281 223.644531 137.46875 L 227.296875 149.945312 C 229.425781 150.1875 231.558594 150.3125 233.75 150.3125 C 235.9375 150.3125 238.070312 150.1875 240.199219 149.945312 L 243.851562 137.46875 C 246.46875 136.863281 248.960938 136.070312 251.335938 135.035156 L 261.621094 142.945312 C 265.394531 140.816406 268.863281 138.261719 272.089844 135.339844 L 267.707031 123.046875 C 269.410156 121.039062 270.992188 118.96875 272.332031 116.65625 L 285.355469 117.023438 C 287.121094 113.128906 288.460938 109.050781 289.371094 104.730469 L 278.601562 97.363281 C 278.722656 96.085938 278.78125 94.75 278.78125 93.410156 C 278.78125 92.070312 278.722656 90.792969 278.601562 89.453125 L 289.371094 82.089844 C 288.519531 77.828125 287.121094 73.691406 285.355469 69.796875 L 272.332031 70.160156 C 270.992188 67.910156 269.410156 65.78125 267.707031 63.773438 L 272.089844 51.480469 C 268.925781 48.558594 265.394531 46 261.621094 43.871094 L 251.335938 51.78125 C 248.960938 50.75 246.40625 49.957031 243.851562 49.347656 L 240.199219 36.871094 C 238.070312 36.628906 235.9375 36.507812 233.75 36.507812 C 231.558594 36.507812 229.425781 36.628906 227.296875 36.871094 L 223.644531 49.347656 C 221.03125 49.957031 218.535156 50.75 216.160156 51.78125 L 205.875 43.871094 C 202.101562 46 198.632812 48.558594 195.410156 51.480469 L 199.789062 63.773438 C 198.085938 65.78125 196.503906 67.847656 195.164062 70.160156 L 182.140625 69.796875 C 180.375 73.691406 179.039062 77.769531 178.125 82.089844 L 188.898438 89.453125 C 188.773438 90.730469 188.714844 92.070312 188.714844 93.410156 C 188.714844 94.75 188.773438 96.027344 188.898438 97.363281 L 178.125 104.789062 C 178.976562 109.050781 180.375 113.1875 182.140625 117.082031 L 195.164062 116.71875 C 196.503906 118.96875 198.085938 121.097656 199.789062 123.109375 L 195.410156 135.402344 C 198.574219 138.261719 202.101562 140.816406 205.875 142.945312 Z M 233.808594 69.066406 C 247.320312 69.066406 258.214844 80.019531 258.214844 93.46875 C 258.214844 106.917969 247.257812 117.875 233.808594 117.875 C 220.300781 117.875 209.40625 106.917969 209.40625 93.46875 C 209.40625 80.019531 220.300781 69.066406 233.808594 69.066406 Z M 233.808594 69.066406 " fill-opacity="1" fill-rule="nonzero"/><path fill="#b10005" d="M 170.152344 99.980469 C 170.457031 97.851562 170.640625 95.722656 170.640625 93.53125 C 170.640625 91.339844 170.457031 89.148438 170.152344 87.082031 L 162.058594 84.464844 C 161.511719 82.332031 160.78125 80.324219 159.867188 78.378906 L 164.371094 71.195312 C 162.121094 67.484375 159.320312 64.136719 156.035156 61.277344 L 148.183594 64.503906 C 146.417969 63.285156 144.53125 62.191406 142.585938 61.277344 L 141.429688 52.878906 C 137.410156 51.539062 133.152344 50.75 128.707031 50.625 L 124.753906 58.113281 C 122.5625 58.292969 120.433594 58.660156 118.363281 59.207031 L 112.035156 53.488281 C 107.957031 55.070312 104.183594 57.261719 100.835938 59.9375 L 102.601562 68.214844 C 101.078125 69.734375 99.679688 71.378906 98.464844 73.144531 L 89.941406 72.839844 C 87.875 76.613281 86.414062 80.691406 85.5 85.011719 L 92.195312 90.246094 C 92.074219 91.339844 92.011719 92.375 92.011719 93.46875 C 92.011719 94.566406 92.074219 95.660156 92.195312 96.695312 L 85.5 101.929688 C 86.351562 106.25 87.875 110.328125 89.941406 114.101562 L 98.464844 113.796875 C 99.679688 115.5625 101.078125 117.203125 102.601562 118.726562 L 100.835938 127.003906 C 104.183594 129.679688 107.957031 131.871094 112.035156 133.453125 L 118.363281 127.734375 C 120.433594 128.28125 122.5625 128.644531 124.753906 128.828125 L 128.707031 136.3125 C 133.152344 136.191406 137.410156 135.460938 141.429688 134.0625 L 142.585938 125.664062 C 144.53125 124.75 146.417969 123.65625 148.183594 122.4375 L 156.035156 125.664062 C 159.257812 122.804688 162.121094 119.457031 164.371094 115.742188 L 159.867188 108.5625 C 160.78125 106.617188 161.511719 104.605469 162.058594 102.476562 Z M 128.101562 111.972656 C 117.875 111.972656 109.601562 103.695312 109.601562 93.46875 C 109.601562 83.246094 117.875 74.96875 128.101562 74.96875 C 138.324219 74.96875 146.601562 83.246094 146.601562 93.46875 C 146.601562 103.695312 138.324219 111.972656 128.101562 111.972656 Z M 128.101562 111.972656 " fill-opacity="1" fill-rule="nonzero"/><g clip-path="url(#f58b450590)"><path fill="#b10005" d="M 74.484375 77.707031 L 68.945312 72.65625 L 58.664062 83.855469 L 58.664062 43.6875 C 58.664062 32.550781 67.730469 23.421875 78.929688 23.421875 L 171.550781 23.421875 L 171.550781 15.9375 L 78.925781 15.9375 C 63.589844 15.9375 51.175781 28.351562 51.175781 43.6875 L 51.175781 83.855469 L 40.890625 72.65625 L 35.355469 77.707031 L 54.890625 99.070312 Z M 74.484375 77.707031 " fill-opacity="1" fill-rule="nonzero"/></g><path fill="#b10005" d="M 208.371094 33.707031 L 197.171875 23.421875 L 296.128906 23.421875 C 307.265625 23.421875 316.332031 32.492188 316.332031 43.6875 L 316.332031 93.53125 L 323.816406 93.53125 L 323.816406 43.6875 C 323.816406 28.414062 311.402344 15.9375 296.066406 15.9375 L 197.171875 15.9375 L 208.371094 5.652344 L 203.320312 0.113281 L 181.960938 19.652344 L 203.320312 39.246094 Z M 208.371094 33.707031 " fill-opacity="1" fill-rule="nonzero"/><g clip-path="url(#c7c1baf37c)"><path fill="#b10005" d="M 339.640625 125.296875 L 320.105469 103.9375 L 300.570312 125.296875 L 306.109375 130.351562 L 316.394531 119.152344 L 316.394531 143.375 C 316.394531 154.511719 307.324219 163.636719 296.1875 163.636719 L 203.503906 163.636719 L 203.503906 171.125 L 296.128906 171.125 C 311.402344 171.125 323.878906 158.710938 323.878906 143.375 L 323.878906 119.152344 L 334.164062 130.351562 Z M 339.640625 125.296875 " fill-opacity="1" fill-rule="nonzero"/></g><path fill="#b10005" d="M 166.621094 153.292969 L 177.820312 163.578125 L 78.925781 163.578125 C 67.789062 163.578125 58.664062 154.511719 58.664062 143.3125 L 58.664062 109.476562 L 51.175781 109.476562 L 51.175781 143.3125 C 51.175781 158.585938 63.589844 171.0625 78.925781 171.0625 L 177.882812 171.0625 L 166.683594 181.347656 L 171.734375 186.886719 L 193.097656 167.351562 L 171.675781 147.753906 Z M 166.621094 153.292969 " fill-opacity="1" fill-rule="nonzero"/></svg>