<svg xmlns="http://www.w3.org/2000/svg" xmlns:xlink="http://www.w3.org/1999/xlink" width="500" zoomAndPan="magnify" viewBox="0 0 375 374.999991" height="500" preserveAspectRatio="xMidYMid meet" version="1.0"><defs><clipPath id="87ef4bed04"><path d="M 180 72.273438 L 356 72.273438 L 356 188 L 180 188 Z M 180 72.273438 " clip-rule="nonzero"/></clipPath><clipPath id="7e0ebb9c7c"><path d="M 19 207 L 195 207 L 195 302.523438 L 19 302.523438 Z M 19 207 " clip-rule="nonzero"/></clipPath></defs><path fill="#b10005" d="M 210.148438 248.433594 L 222.824219 238.683594 C 225.75 239.960938 228.898438 240.933594 232.050781 241.683594 L 236.550781 257.058594 C 239.175781 257.359375 241.800781 257.511719 244.5 257.511719 C 247.199219 257.511719 249.824219 257.359375 252.449219 257.058594 L 256.949219 241.683594 C 260.175781 240.933594 263.25 239.960938 266.175781 238.683594 L 278.851562 248.433594 C 283.5 245.808594 287.773438 242.660156 291.75 239.058594 L 286.351562 223.910156 C 288.449219 221.433594 290.398438 218.886719 292.050781 216.035156 L 308.101562 216.484375 C 310.273438 211.683594 311.925781 206.660156 313.050781 201.335938 L 299.773438 192.261719 C 299.925781 190.683594 300 189.035156 300 187.386719 C 300 185.734375 299.925781 184.160156 299.773438 182.511719 L 313.050781 173.433594 C 312 168.183594 310.273438 163.085938 308.101562 158.285156 L 292.050781 158.734375 C 290.398438 155.960938 288.449219 153.335938 286.351562 150.859375 L 291.75 135.710938 C 287.851562 132.109375 283.5 128.960938 278.851562 126.335938 L 266.175781 136.085938 C 263.25 134.808594 260.101562 133.835938 256.949219 133.085938 L 252.449219 117.710938 C 249.824219 117.410156 247.199219 117.261719 244.5 117.261719 C 241.800781 117.261719 239.175781 117.410156 236.550781 117.710938 L 232.050781 133.085938 C 228.824219 133.835938 225.75 134.808594 222.824219 136.085938 L 210.148438 126.335938 C 205.5 128.960938 201.226562 132.109375 197.25 135.710938 L 202.648438 150.859375 C 200.550781 153.335938 198.601562 155.886719 196.949219 158.734375 L 180.898438 158.285156 C 178.726562 163.085938 177.074219 168.109375 175.949219 173.433594 L 189.226562 182.511719 C 189.074219 184.085938 189 185.734375 189 187.386719 C 189 189.035156 189.074219 190.609375 189.226562 192.261719 L 175.949219 201.410156 C 177 206.660156 178.726562 211.761719 180.898438 216.558594 L 196.949219 216.109375 C 198.601562 218.886719 200.550781 221.511719 202.648438 223.984375 L 197.25 239.136719 C 201.148438 242.660156 205.5 245.808594 210.148438 248.433594 Z M 244.574219 157.386719 C 261.226562 157.386719 274.648438 170.886719 274.648438 187.460938 C 274.648438 204.035156 261.148438 217.535156 244.574219 217.535156 C 227.925781 217.535156 214.5 204.035156 214.5 187.460938 C 214.5 170.886719 227.925781 157.386719 244.574219 157.386719 Z M 244.574219 157.386719 " fill-opacity="1" fill-rule="nonzero"/><path fill="#b10005" d="M 166.125 195.484375 C 166.5 192.859375 166.726562 190.234375 166.726562 187.535156 C 166.726562 184.835938 166.5 182.136719 166.125 179.585938 L 156.148438 176.359375 C 155.476562 173.734375 154.574219 171.261719 153.449219 168.859375 L 159 160.011719 C 156.226562 155.433594 152.773438 151.308594 148.726562 147.785156 L 139.050781 151.761719 C 136.875 150.261719 134.550781 148.910156 132.148438 147.785156 L 130.726562 137.433594 C 125.773438 135.785156 120.523438 134.808594 115.050781 134.660156 L 110.175781 143.886719 C 107.476562 144.109375 104.851562 144.558594 102.300781 145.234375 L 94.5 138.183594 C 89.476562 140.136719 84.824219 142.835938 80.699219 146.136719 L 82.875 156.335938 C 81 158.210938 79.273438 160.234375 77.773438 162.410156 L 67.273438 162.035156 C 64.726562 166.683594 62.925781 171.710938 61.800781 177.035156 L 70.050781 183.484375 C 69.898438 184.835938 69.824219 186.109375 69.824219 187.460938 C 69.824219 188.808594 69.898438 190.160156 70.050781 191.433594 L 61.800781 197.886719 C 62.851562 203.210938 64.726562 208.234375 67.273438 212.886719 L 77.773438 212.511719 C 79.273438 214.683594 81 216.710938 82.875 218.585938 L 80.699219 228.785156 C 84.824219 232.085938 89.476562 234.785156 94.5 236.734375 L 102.300781 229.683594 C 104.851562 230.359375 107.476562 230.808594 110.175781 231.035156 L 115.050781 240.261719 C 120.523438 240.109375 125.773438 239.210938 130.726562 237.484375 L 132.148438 227.136719 C 134.550781 226.011719 136.875 224.660156 139.050781 223.160156 L 148.726562 227.136719 C 152.699219 223.609375 156.226562 219.484375 159 214.910156 L 153.449219 206.058594 C 154.574219 203.660156 155.476562 201.183594 156.148438 198.558594 Z M 114.300781 210.261719 C 101.699219 210.261719 91.5 200.058594 91.5 187.460938 C 91.5 174.859375 101.699219 164.660156 114.300781 164.660156 C 126.898438 164.660156 137.101562 174.859375 137.101562 187.460938 C 137.101562 200.058594 126.898438 210.261719 114.300781 210.261719 Z M 114.300781 210.261719 " fill-opacity="1" fill-rule="nonzero"/><path fill="#b10005" d="M 48.226562 168.035156 L 41.398438 161.808594 L 28.726562 175.609375 L 28.726562 126.109375 C 28.726562 112.386719 39.898438 101.136719 53.699219 101.136719 L 167.851562 101.136719 L 167.851562 91.910156 L 53.699219 91.910156 C 34.800781 91.910156 19.5 107.210938 19.5 126.109375 L 19.5 175.609375 L 6.824219 161.808594 L 0 168.035156 L 24.074219 194.359375 Z M 48.226562 168.035156 " fill-opacity="1" fill-rule="nonzero"/><g clip-path="url(#87ef4bed04)"><path fill="#b10005" d="M 213.226562 113.808594 L 199.425781 101.136719 L 321.375 101.136719 C 335.101562 101.136719 346.273438 112.308594 346.273438 126.109375 L 346.273438 187.535156 L 355.5 187.535156 L 355.5 126.109375 C 355.5 107.285156 340.199219 91.910156 321.300781 91.910156 L 199.425781 91.910156 L 213.226562 79.234375 L 207 72.410156 L 180.675781 96.484375 L 207 120.636719 Z M 213.226562 113.808594 " fill-opacity="1" fill-rule="nonzero"/></g><path fill="#b10005" d="M 375 226.683594 L 350.925781 200.359375 L 326.851562 226.683594 L 333.675781 232.910156 L 346.351562 219.109375 L 346.351562 248.960938 C 346.351562 262.683594 335.175781 273.933594 321.449219 273.933594 L 207.226562 273.933594 L 207.226562 283.160156 L 321.375 283.160156 C 340.199219 283.160156 355.574219 267.859375 355.574219 248.960938 L 355.574219 219.109375 L 368.25 232.910156 Z M 375 226.683594 " fill-opacity="1" fill-rule="nonzero"/><g clip-path="url(#7e0ebb9c7c)"><path fill="#b10005" d="M 161.773438 261.183594 L 175.574219 273.859375 L 53.699219 273.859375 C 39.976562 273.859375 28.726562 262.683594 28.726562 248.886719 L 28.726562 207.183594 L 19.5 207.183594 L 19.5 248.886719 C 19.5 267.710938 34.800781 283.085938 53.699219 283.085938 L 175.648438 283.085938 L 161.851562 295.761719 L 168.074219 302.585938 L 194.398438 278.511719 L 168 254.359375 Z M 161.773438 261.183594 " fill-opacity="1" fill-rule="nonzero"/></g></svg>