<svg xmlns="http://www.w3.org/2000/svg" xmlns:xlink="http://www.w3.org/1999/xlink" width="1024" zoomAndPan="magnify" viewBox="0 0 768 767.999994" height="1024" preserveAspectRatio="xMidYMid meet" version="1.0"><defs><clipPath id="b04c7dfdcd"><path d="M 349 13.570312 L 419 13.570312 L 419 84 L 349 84 Z M 349 13.570312 " clip-rule="nonzero"/></clipPath><clipPath id="ad93390e7c"><path d="M 349 684 L 419 684 L 419 754.570312 L 349 754.570312 Z M 349 684 " clip-rule="nonzero"/></clipPath><clipPath id="b4921f2624"><path d="M 684 349 L 754.570312 349 L 754.570312 419 L 684 419 Z M 684 349 " clip-rule="nonzero"/></clipPath><clipPath id="07a1947967"><path d="M 13.570312 349 L 84 349 L 84 419 L 13.570312 419 Z M 13.570312 349 " clip-rule="nonzero"/></clipPath></defs><path fill="#092552" d="M 470.8125 383.996094 C 470.8125 336.121094 431.867188 297.175781 383.996094 297.175781 C 336.125 297.175781 297.175781 336.121094 297.175781 383.996094 C 297.175781 431.871094 336.125 470.8125 383.996094 470.8125 C 431.867188 470.8125 470.8125 431.871094 470.8125 383.996094 Z M 383.996094 447.660156 C 348.890625 447.660156 320.328125 419.101562 320.328125 383.996094 C 320.328125 348.890625 348.890625 320.328125 383.996094 320.328125 C 419.101562 320.328125 447.660156 348.890625 447.660156 383.996094 C 447.660156 419.101562 419.101562 447.660156 383.996094 447.660156 Z M 383.996094 447.660156 " fill-opacity="1" fill-rule="nonzero"/><path fill="#092552" d="M 345.660156 228.71875 L 374.574219 269.179688 C 376.75 272.222656 380.257812 274.027344 383.996094 274.027344 C 387.730469 274.027344 391.242188 272.222656 393.414062 269.179688 L 422.332031 228.71875 C 426.046875 223.511719 424.84375 216.28125 419.644531 212.570312 C 414.441406 208.855469 407.210938 210.054688 403.492188 215.253906 L 395.570312 226.34375 L 395.570312 117.753906 C 395.570312 111.359375 390.386719 106.175781 383.996094 106.175781 C 377.601562 106.175781 372.417969 111.359375 372.417969 117.753906 L 372.417969 226.34375 L 364.496094 215.253906 C 360.777344 210.054688 353.546875 208.855469 348.347656 212.570312 C 343.144531 216.28125 341.941406 223.511719 345.660156 228.71875 Z M 345.660156 228.71875 " fill-opacity="1" fill-rule="nonzero"/><g clip-path="url(#b04c7dfdcd)"><path fill="#092552" d="M 383.996094 83.027344 C 403.171875 83.027344 418.722656 67.476562 418.722656 48.296875 C 418.722656 29.121094 403.171875 13.570312 383.996094 13.570312 C 364.816406 13.570312 349.269531 29.121094 349.269531 48.296875 C 349.269531 67.476562 364.816406 83.027344 383.996094 83.027344 Z M 383.996094 36.722656 C 390.378906 36.722656 395.570312 41.917969 395.570312 48.296875 C 395.570312 54.679688 390.378906 59.875 383.996094 59.875 C 377.609375 59.875 372.417969 54.679688 372.417969 48.296875 C 372.417969 41.917969 377.609375 36.722656 383.996094 36.722656 Z M 383.996094 36.722656 " fill-opacity="1" fill-rule="nonzero"/></g><path fill="#092552" d="M 422.332031 539.273438 L 393.414062 498.808594 C 391.242188 495.765625 387.730469 493.964844 383.996094 493.964844 C 380.257812 493.964844 376.75 495.765625 374.574219 498.808594 L 345.660156 539.273438 C 341.941406 544.476562 343.144531 551.707031 348.347656 555.421875 C 353.546875 559.140625 360.777344 557.9375 364.496094 552.738281 L 372.417969 541.648438 L 372.417969 650.238281 C 372.417969 656.628906 377.601562 661.8125 383.996094 661.8125 C 390.386719 661.8125 395.570312 656.628906 395.570312 650.238281 L 395.570312 541.648438 L 403.492188 552.738281 C 405.753906 555.894531 409.3125 557.582031 412.921875 557.582031 C 415.25 557.582031 417.601562 556.878906 419.644531 555.421875 C 424.84375 551.707031 426.046875 544.476562 422.332031 539.273438 Z M 422.332031 539.273438 " fill-opacity="1" fill-rule="nonzero"/><g clip-path="url(#ad93390e7c)"><path fill="#092552" d="M 383.996094 684.964844 C 364.816406 684.964844 349.269531 700.511719 349.269531 719.691406 C 349.269531 738.871094 364.816406 754.417969 383.996094 754.417969 C 403.171875 754.417969 418.722656 738.871094 418.722656 719.691406 C 418.722656 700.511719 403.171875 684.964844 383.996094 684.964844 Z M 383.996094 731.265625 C 377.609375 731.265625 372.417969 726.074219 372.417969 719.691406 C 372.417969 713.308594 377.609375 708.117188 383.996094 708.117188 C 390.378906 708.117188 395.570312 713.308594 395.570312 719.691406 C 395.570312 726.074219 390.378906 731.265625 383.996094 731.265625 Z M 383.996094 731.265625 " fill-opacity="1" fill-rule="nonzero"/></g><path fill="#092552" d="M 650.238281 372.417969 L 541.648438 372.417969 L 552.734375 364.496094 C 557.9375 360.78125 559.140625 353.550781 555.425781 348.347656 C 551.699219 343.148438 544.46875 341.949219 539.273438 345.660156 L 498.808594 374.578125 C 495.769531 376.75 493.964844 380.257812 493.964844 383.996094 C 493.964844 387.730469 495.769531 391.242188 498.808594 393.410156 L 539.273438 422.328125 C 541.3125 423.785156 543.664062 424.488281 545.996094 424.488281 C 549.605469 424.488281 553.164062 422.804688 555.425781 419.644531 C 559.140625 414.4375 557.9375 407.207031 552.734375 403.496094 L 541.648438 395.570312 L 650.238281 395.570312 C 656.628906 395.570312 661.8125 390.386719 661.8125 383.996094 C 661.8125 377.601562 656.628906 372.417969 650.238281 372.417969 Z M 650.238281 372.417969 " fill-opacity="1" fill-rule="nonzero"/><g clip-path="url(#b4921f2624)"><path fill="#092552" d="M 719.691406 349.269531 C 700.511719 349.269531 684.964844 364.816406 684.964844 383.996094 C 684.964844 403.171875 700.511719 418.722656 719.691406 418.722656 C 738.871094 418.722656 754.417969 403.171875 754.417969 383.996094 C 754.417969 364.816406 738.871094 349.269531 719.691406 349.269531 Z M 719.691406 395.570312 C 713.308594 395.570312 708.117188 390.375 708.117188 383.996094 C 708.117188 377.613281 713.308594 372.417969 719.691406 372.417969 C 726.074219 372.417969 731.265625 377.613281 731.265625 383.996094 C 731.265625 390.375 726.074219 395.570312 719.691406 395.570312 Z M 719.691406 395.570312 " fill-opacity="1" fill-rule="nonzero"/></g><path fill="#092552" d="M 226.34375 395.570312 L 215.253906 403.496094 C 210.054688 407.207031 208.851562 414.4375 212.566406 419.644531 C 214.828125 422.804688 218.386719 424.488281 221.996094 424.488281 C 224.324219 424.488281 226.675781 423.785156 228.71875 422.328125 L 269.179688 393.410156 C 272.21875 391.242188 274.027344 387.730469 274.027344 383.996094 C 274.027344 380.257812 272.21875 376.75 269.179688 374.578125 L 228.71875 345.660156 C 223.515625 341.949219 216.289062 343.148438 212.566406 348.347656 C 208.851562 353.550781 210.054688 360.78125 215.253906 364.496094 L 226.34375 372.417969 L 117.753906 372.417969 C 111.359375 372.417969 106.175781 377.601562 106.175781 383.996094 C 106.175781 390.386719 111.359375 395.570312 117.753906 395.570312 Z M 226.34375 395.570312 " fill-opacity="1" fill-rule="nonzero"/><g clip-path="url(#07a1947967)"><path fill="#092552" d="M 48.296875 349.269531 C 29.121094 349.269531 13.570312 364.816406 13.570312 383.996094 C 13.570312 403.171875 29.121094 418.722656 48.296875 418.722656 C 67.476562 418.722656 83.027344 403.171875 83.027344 383.996094 C 83.027344 364.816406 67.476562 349.269531 48.296875 349.269531 Z M 48.296875 395.570312 C 41.914062 395.570312 36.722656 390.375 36.722656 383.996094 C 36.722656 377.613281 41.914062 372.417969 48.296875 372.417969 C 54.683594 372.417969 59.875 377.613281 59.875 383.996094 C 59.875 390.375 54.683594 395.570312 48.296875 395.570312 Z M 48.296875 395.570312 " fill-opacity="1" fill-rule="nonzero"/></g><path fill="#092552" d="M 530.417969 480.003906 C 531.46875 473.695312 527.207031 467.734375 520.898438 466.6875 L 471.839844 458.527344 C 468.144531 457.898438 464.398438 459.117188 461.753906 461.757812 C 459.113281 464.398438 457.90625 468.15625 458.523438 471.839844 L 466.6875 520.898438 C 467.628906 526.5625 472.535156 530.574219 478.089844 530.574219 C 478.71875 530.574219 479.363281 530.523438 480.003906 530.417969 C 486.3125 529.371094 490.574219 523.402344 489.523438 517.097656 L 487.285156 503.652344 L 564.070312 580.445312 C 566.332031 582.703125 569.292969 583.835938 572.257812 583.835938 C 575.21875 583.835938 578.183594 582.703125 580.441406 580.445312 C 584.960938 575.921875 584.960938 568.597656 580.441406 564.074219 L 503.652344 487.285156 L 517.101562 489.523438 C 523.394531 490.554688 529.371094 486.3125 530.417969 480.003906 Z M 530.417969 480.003906 " fill-opacity="1" fill-rule="nonzero"/><path fill="#092552" d="M 621.367188 586.644531 C 612.480469 586.644531 603.59375 590.03125 596.8125 596.8125 C 583.253906 610.371094 583.253906 632.363281 596.8125 645.925781 C 603.59375 652.703125 612.480469 656.09375 621.367188 656.09375 C 630.257812 656.09375 639.140625 652.703125 645.925781 645.925781 C 659.484375 632.363281 659.484375 610.371094 645.925781 596.8125 C 639.140625 590.03125 630.257812 586.644531 621.367188 586.644531 Z M 629.554688 629.550781 C 626.605469 632.5 623.15625 632.941406 621.367188 632.941406 C 619.578125 632.941406 616.132812 632.5 613.183594 629.554688 C 610.234375 626.605469 609.796875 623.15625 609.796875 621.367188 C 609.796875 619.578125 610.234375 616.132812 613.183594 613.179688 C 616.132812 610.238281 619.578125 609.796875 621.367188 609.796875 C 623.15625 609.796875 626.605469 610.238281 629.554688 613.179688 C 632.503906 616.132812 632.941406 619.578125 632.941406 621.367188 C 632.941406 623.15625 632.503906 626.605469 629.554688 629.550781 Z M 629.554688 629.550781 " fill-opacity="1" fill-rule="nonzero"/><path fill="#092552" d="M 237.570312 287.988281 C 236.519531 294.292969 240.78125 300.257812 247.089844 301.304688 L 296.152344 309.464844 C 296.785156 309.574219 297.421875 309.625 298.050781 309.625 C 301.09375 309.625 304.046875 308.417969 306.234375 306.230469 C 308.878906 303.59375 310.082031 299.832031 309.46875 296.148438 L 301.304688 247.09375 C 300.253906 240.785156 294.273438 236.5 287.988281 237.574219 C 281.679688 238.621094 277.417969 244.589844 278.46875 250.890625 L 280.707031 264.335938 L 203.917969 187.546875 C 199.402344 183.023438 192.066406 183.023438 187.550781 187.546875 C 183.027344 192.066406 183.027344 199.394531 187.550781 203.914062 L 264.335938 280.707031 L 250.886719 278.46875 C 244.59375 277.394531 238.617188 281.679688 237.570312 287.988281 Z M 237.570312 287.988281 " fill-opacity="1" fill-rule="nonzero"/><path fill="#092552" d="M 122.066406 122.066406 C 108.503906 135.625 108.503906 157.617188 122.066406 171.179688 C 128.84375 177.960938 137.734375 181.347656 146.621094 181.347656 C 155.507812 181.347656 164.398438 177.960938 171.175781 171.179688 C 184.738281 157.617188 184.738281 135.625 171.175781 122.066406 C 164.398438 115.289062 155.507812 111.898438 146.621094 111.898438 C 137.734375 111.898438 128.84375 115.289062 122.066406 122.066406 Z M 158.195312 146.625 C 158.195312 148.410156 157.757812 151.859375 154.804688 154.808594 C 151.859375 157.753906 148.414062 158.195312 146.621094 158.195312 C 144.828125 158.195312 141.386719 157.753906 138.4375 154.808594 C 135.488281 151.859375 135.046875 148.410156 135.046875 146.625 C 135.046875 144.832031 135.488281 141.386719 138.4375 138.433594 C 141.386719 135.488281 144.828125 135.046875 146.621094 135.046875 C 148.414062 135.046875 151.859375 135.488281 154.804688 138.433594 C 157.757812 141.386719 158.195312 144.832031 158.195312 146.625 Z M 158.195312 146.625 " fill-opacity="1" fill-rule="nonzero"/><path fill="#092552" d="M 287.988281 530.421875 C 288.628906 530.527344 289.269531 530.578125 289.898438 530.578125 C 295.457031 530.578125 300.363281 526.566406 301.304688 520.902344 L 309.464844 471.839844 C 310.078125 468.15625 308.875 464.398438 306.230469 461.757812 C 303.59375 459.117188 299.835938 457.898438 296.148438 458.527344 L 247.09375 466.6875 C 240.785156 467.734375 236.523438 473.695312 237.574219 480.003906 C 238.621094 486.3125 244.601562 490.574219 250.890625 489.523438 L 264.335938 487.289062 L 187.546875 564.074219 C 183.023438 568.597656 183.023438 575.921875 187.546875 580.445312 C 189.804688 582.703125 192.769531 583.835938 195.730469 583.835938 C 198.691406 583.835938 201.65625 582.703125 203.914062 580.445312 L 280.707031 503.652344 L 278.46875 517.105469 C 277.417969 523.414062 281.679688 529.375 287.988281 530.421875 Z M 287.988281 530.421875 " fill-opacity="1" fill-rule="nonzero"/><path fill="#092552" d="M 171.175781 596.8125 C 164.398438 590.03125 155.507812 586.644531 146.621094 586.644531 C 137.734375 586.644531 128.84375 590.03125 122.066406 596.8125 C 108.503906 610.371094 108.503906 632.363281 122.066406 645.925781 C 128.84375 652.703125 137.734375 656.09375 146.621094 656.09375 C 155.507812 656.09375 164.398438 652.703125 171.175781 645.925781 C 184.738281 632.363281 184.738281 610.371094 171.175781 596.8125 Z M 154.804688 629.554688 C 151.859375 632.5 148.414062 632.941406 146.621094 632.941406 C 144.828125 632.941406 141.386719 632.5 138.4375 629.554688 C 135.488281 626.605469 135.046875 623.15625 135.046875 621.367188 C 135.046875 619.578125 135.488281 616.132812 138.4375 613.179688 C 141.386719 610.238281 144.828125 609.796875 146.621094 609.796875 C 148.414062 609.796875 151.859375 610.238281 154.804688 613.179688 C 157.757812 616.132812 158.195312 619.578125 158.195312 621.367188 C 158.195312 623.15625 157.757812 626.605469 154.804688 629.554688 Z M 154.804688 629.554688 " fill-opacity="1" fill-rule="nonzero"/><path fill="#092552" d="M 480.003906 237.570312 C 473.707031 236.5 467.734375 240.777344 466.6875 247.085938 L 458.527344 296.148438 C 457.910156 299.832031 459.117188 303.59375 461.757812 306.230469 C 463.945312 308.417969 466.898438 309.625 469.941406 309.625 C 470.574219 309.625 471.210938 309.574219 471.839844 309.464844 L 520.898438 301.304688 C 527.207031 300.257812 531.46875 294.292969 530.417969 287.988281 C 529.371094 281.679688 523.390625 277.421875 517.097656 278.46875 L 503.648438 280.707031 L 580.445312 203.914062 C 584.964844 199.394531 584.964844 192.066406 580.445312 187.546875 C 575.925781 183.023438 568.589844 183.023438 564.074219 187.546875 L 487.285156 264.332031 L 489.523438 250.886719 C 490.574219 244.578125 486.3125 238.613281 480.003906 237.570312 Z M 480.003906 237.570312 " fill-opacity="1" fill-rule="nonzero"/><path fill="#092552" d="M 645.925781 171.179688 C 659.484375 157.617188 659.484375 135.625 645.925781 122.066406 C 639.144531 115.289062 630.257812 111.898438 621.367188 111.898438 C 612.480469 111.898438 603.59375 115.289062 596.8125 122.066406 C 583.253906 135.625 583.253906 157.617188 596.8125 171.179688 C 603.59375 177.960938 612.480469 181.347656 621.367188 181.347656 C 630.257812 181.347656 639.144531 177.960938 645.925781 171.179688 Z M 609.796875 146.625 C 609.796875 144.832031 610.234375 141.386719 613.183594 138.433594 C 616.132812 135.488281 619.578125 135.046875 621.367188 135.046875 C 623.160156 135.046875 626.605469 135.488281 629.554688 138.433594 C 632.503906 141.386719 632.941406 144.832031 632.941406 146.625 C 632.941406 148.410156 632.503906 151.859375 629.554688 154.808594 C 626.605469 157.753906 623.160156 158.195312 621.367188 158.195312 C 619.578125 158.195312 616.132812 157.753906 613.183594 154.808594 C 610.234375 151.859375 609.796875 148.410156 609.796875 146.625 Z M 609.796875 146.625 " fill-opacity="1" fill-rule="nonzero"/></svg>