<svg xmlns="http://www.w3.org/2000/svg" xmlns:xlink="http://www.w3.org/1999/xlink" width="1024" zoomAndPan="magnify" viewBox="0 0 768 767.999994" height="1024" preserveAspectRatio="xMidYMid meet" version="1.0"><defs><clipPath id="a1f3929398"><path d="M 45 35 L 723 35 L 723 713.335938 L 45 713.335938 Z M 45 35 " clip-rule="nonzero"/></clipPath></defs><g clip-path="url(#a1f3929398)"><path fill="#092552" d="M 56.878906 584.519531 L 313.902344 584.519531 L 313.902344 666.300781 L 185.390625 666.300781 L 185.390625 713.03125 L 582.609375 713.03125 L 582.609375 666.300781 L 454.097656 666.300781 L 454.097656 584.519531 L 711.121094 584.519531 C 711.886719 584.519531 712.648438 584.445312 713.398438 584.292969 C 714.152344 584.144531 714.882812 583.921875 715.589844 583.628906 C 716.300781 583.335938 716.972656 582.976562 717.609375 582.550781 C 718.25 582.125 718.839844 581.640625 719.382812 581.097656 C 719.921875 580.554688 720.40625 579.964844 720.832031 579.328125 C 721.261719 578.6875 721.621094 578.015625 721.914062 577.308594 C 722.207031 576.597656 722.429688 575.867188 722.578125 575.113281 C 722.726562 574.363281 722.804688 573.601562 722.804688 572.835938 L 722.804688 128.886719 C 722.804688 128.117188 722.726562 127.359375 722.578125 126.605469 C 722.429688 125.855469 722.207031 125.125 721.914062 124.414062 C 721.621094 123.707031 721.261719 123.03125 720.832031 122.394531 C 720.40625 121.757812 719.921875 121.167969 719.382812 120.625 C 718.839844 120.082031 718.25 119.597656 717.609375 119.171875 C 716.972656 118.746094 716.300781 118.386719 715.589844 118.09375 C 714.882812 117.796875 714.152344 117.578125 713.398438 117.425781 C 712.648438 117.277344 711.886719 117.203125 711.121094 117.203125 L 454.097656 117.203125 L 454.097656 82.152344 L 561.34375 82.152344 C 561.574219 82.796875 561.820312 83.433594 562.082031 84.0625 C 562.347656 84.691406 562.628906 85.3125 562.929688 85.921875 C 563.230469 86.535156 563.550781 87.136719 563.886719 87.730469 C 564.222656 88.324219 564.574219 88.910156 564.945312 89.480469 C 565.316406 90.054688 565.699219 90.617188 566.105469 91.167969 C 566.507812 91.71875 566.925781 92.257812 567.359375 92.78125 C 567.792969 93.308594 568.242188 93.820312 568.707031 94.320312 C 569.171875 94.820312 569.648438 95.308594 570.140625 95.777344 C 570.632812 96.25 571.140625 96.707031 571.660156 97.148438 C 572.179688 97.59375 572.710938 98.019531 573.253906 98.429688 C 573.800781 98.84375 574.355469 99.238281 574.921875 99.617188 C 575.488281 99.996094 576.066406 100.355469 576.65625 100.703125 C 577.242188 101.046875 577.839844 101.375 578.449219 101.683594 C 579.058594 101.996094 579.671875 102.289062 580.296875 102.5625 C 580.921875 102.835938 581.554688 103.09375 582.191406 103.328125 C 582.832031 103.566406 583.480469 103.785156 584.132812 103.984375 C 584.78125 104.183594 585.441406 104.363281 586.101562 104.527344 C 586.765625 104.6875 587.433594 104.828125 588.105469 104.953125 C 588.773438 105.074219 589.449219 105.175781 590.125 105.257812 C 590.804688 105.34375 591.484375 105.40625 592.164062 105.449219 C 592.84375 105.492188 593.523438 105.515625 594.207031 105.519531 C 594.890625 105.523438 595.570312 105.507812 596.253906 105.46875 C 596.933594 105.433594 597.613281 105.378906 598.289062 105.300781 C 598.96875 105.226562 599.644531 105.128906 600.316406 105.015625 C 600.988281 104.898438 601.65625 104.765625 602.320312 104.609375 C 602.984375 104.457031 603.644531 104.28125 604.300781 104.089844 C 604.953125 103.898438 605.601562 103.683594 606.242188 103.453125 C 606.886719 103.222656 607.519531 102.972656 608.148438 102.707031 C 608.773438 102.4375 609.394531 102.152344 610.003906 101.847656 C 610.617188 101.546875 611.214844 101.222656 611.808594 100.882812 C 612.402344 100.546875 612.980469 100.191406 613.554688 99.816406 C 614.125 99.445312 614.683594 99.054688 615.234375 98.648438 C 615.78125 98.242188 616.316406 97.820312 616.839844 97.382812 C 617.363281 96.949219 617.875 96.496094 618.371094 96.027344 C 618.871094 95.5625 619.351562 95.082031 619.824219 94.585938 C 620.292969 94.089844 620.746094 93.582031 621.1875 93.0625 C 621.625 92.539062 622.050781 92.007812 622.457031 91.460938 C 622.867188 90.914062 623.257812 90.355469 623.636719 89.785156 C 624.011719 89.21875 624.371094 88.636719 624.710938 88.046875 C 625.054688 87.457031 625.378906 86.859375 625.6875 86.25 C 625.992188 85.640625 626.28125 85.023438 626.554688 84.394531 C 626.824219 83.769531 627.078125 83.136719 627.308594 82.496094 C 627.542969 81.855469 627.757812 81.207031 627.957031 80.554688 C 628.152344 79.902344 628.328125 79.242188 628.488281 78.578125 C 628.644531 77.917969 628.785156 77.25 628.902344 76.578125 C 629.019531 75.90625 629.121094 75.230469 629.199219 74.554688 C 629.277344 73.875 629.339844 73.195312 629.378906 72.515625 C 629.417969 71.835938 629.4375 71.152344 629.4375 70.472656 C 629.4375 69.789062 629.417969 69.105469 629.378906 68.425781 C 629.339844 67.746094 629.277344 67.066406 629.199219 66.390625 C 629.121094 65.710938 629.019531 65.035156 628.902344 64.363281 C 628.785156 63.691406 628.644531 63.027344 628.488281 62.363281 C 628.328125 61.699219 628.152344 61.039062 627.957031 60.386719 C 627.761719 59.734375 627.542969 59.085938 627.3125 58.445312 C 627.078125 57.804688 626.824219 57.171875 626.554688 56.546875 C 626.28125 55.917969 625.992188 55.300781 625.6875 54.691406 C 625.378906 54.082031 625.054688 53.484375 624.710938 52.894531 C 624.371094 52.304688 624.011719 51.722656 623.636719 51.15625 C 623.257812 50.585938 622.867188 50.027344 622.457031 49.480469 C 622.050781 48.9375 621.625 48.402344 621.1875 47.878906 C 620.746094 47.359375 620.292969 46.851562 619.824219 46.355469 C 619.351562 45.859375 618.871094 45.378906 618.371094 44.914062 C 617.875 44.445312 617.363281 43.996094 616.839844 43.558594 C 616.316406 43.121094 615.78125 42.699219 615.234375 42.292969 C 614.683594 41.886719 614.125 41.5 613.554688 41.125 C 612.980469 40.753906 612.402344 40.394531 611.808594 40.058594 C 611.214844 39.71875 610.617188 39.398438 610.003906 39.09375 C 609.394531 38.789062 608.773438 38.503906 608.148438 38.234375 C 607.519531 37.96875 606.886719 37.71875 606.242188 37.488281 C 605.601562 37.257812 604.953125 37.046875 604.300781 36.851562 C 603.644531 36.660156 602.984375 36.484375 602.320312 36.332031 C 601.65625 36.175781 600.988281 36.042969 600.316406 35.925781 C 599.644531 35.8125 598.96875 35.714844 598.289062 35.640625 C 597.613281 35.5625 596.933594 35.507812 596.253906 35.472656 C 595.570312 35.4375 594.890625 35.417969 594.207031 35.421875 C 593.523438 35.425781 592.84375 35.449219 592.164062 35.492188 C 591.480469 35.535156 590.804688 35.597656 590.125 35.683594 C 589.449219 35.765625 588.773438 35.867188 588.105469 35.992188 C 587.433594 36.113281 586.765625 36.253906 586.101562 36.414062 C 585.441406 36.578125 584.78125 36.757812 584.132812 36.957031 C 583.480469 37.15625 582.832031 37.375 582.191406 37.613281 C 581.554688 37.851562 580.921875 38.105469 580.296875 38.378906 C 579.671875 38.65625 579.054688 38.945312 578.449219 39.257812 C 577.839844 39.566406 577.242188 39.894531 576.65625 40.238281 C 576.066406 40.585938 575.488281 40.945312 574.921875 41.324219 C 574.355469 41.703125 573.800781 42.101562 573.253906 42.511719 C 572.710938 42.921875 572.179688 43.347656 571.660156 43.792969 C 571.140625 44.234375 570.632812 44.691406 570.140625 45.164062 C 569.648438 45.636719 569.171875 46.121094 568.707031 46.621094 C 568.242188 47.121094 567.792969 47.632812 567.359375 48.160156 C 566.925781 48.6875 566.507812 49.222656 566.105469 49.773438 C 565.699219 50.324219 565.316406 50.886719 564.945312 51.460938 C 564.574219 52.03125 564.222656 52.617188 563.886719 53.210938 C 563.550781 53.804688 563.230469 54.40625 562.929688 55.019531 C 562.628906 55.632812 562.347656 56.25 562.082031 56.878906 C 561.820312 57.507812 561.574219 58.144531 561.34375 58.789062 L 442.414062 58.789062 C 441.644531 58.789062 440.886719 58.863281 440.132812 59.011719 C 439.382812 59.164062 438.652344 59.382812 437.941406 59.675781 C 437.234375 59.972656 436.558594 60.332031 435.921875 60.757812 C 435.285156 61.183594 434.695312 61.667969 434.152344 62.210938 C 433.609375 62.753906 433.125 63.34375 432.699219 63.980469 C 432.273438 64.617188 431.914062 65.292969 431.621094 66 C 431.324219 66.707031 431.105469 67.4375 430.953125 68.191406 C 430.804688 68.945312 430.730469 69.703125 430.730469 70.472656 L 430.730469 117.203125 L 337.265625 117.203125 L 337.265625 70.472656 C 337.265625 69.703125 337.191406 68.945312 337.042969 68.191406 C 336.894531 67.4375 336.671875 66.707031 336.378906 66 C 336.085938 65.292969 335.722656 64.617188 335.296875 63.980469 C 334.871094 63.34375 334.386719 62.753906 333.84375 62.210938 C 333.300781 61.667969 332.710938 61.183594 332.074219 60.757812 C 331.4375 60.332031 330.761719 59.972656 330.054688 59.675781 C 329.347656 59.382812 328.617188 59.164062 327.863281 59.011719 C 327.109375 58.863281 326.351562 58.789062 325.585938 58.789062 L 206.652344 58.789062 C 206.425781 58.144531 206.179688 57.507812 205.914062 56.878906 C 205.648438 56.25 205.367188 55.632812 205.066406 55.019531 C 204.765625 54.40625 204.449219 53.804688 204.113281 53.210938 C 203.777344 52.617188 203.421875 52.03125 203.050781 51.460938 C 202.683594 50.886719 202.296875 50.324219 201.894531 49.773438 C 201.492188 49.222656 201.070312 48.6875 200.636719 48.160156 C 200.203125 47.632812 199.753906 47.121094 199.289062 46.621094 C 198.824219 46.121094 198.347656 45.636719 197.855469 45.164062 C 197.363281 44.691406 196.855469 44.234375 196.335938 43.792969 C 195.816406 43.347656 195.285156 42.921875 194.742188 42.511719 C 194.199219 42.101562 193.640625 41.703125 193.074219 41.324219 C 192.507812 40.945312 191.929688 40.585938 191.34375 40.238281 C 190.753906 39.894531 190.15625 39.566406 189.546875 39.257812 C 188.941406 38.945312 188.324219 38.65625 187.699219 38.378906 C 187.074219 38.105469 186.441406 37.851562 185.804688 37.613281 C 185.164062 37.375 184.519531 37.15625 183.867188 36.957031 C 183.214844 36.757812 182.554688 36.578125 181.894531 36.414062 C 181.230469 36.253906 180.5625 36.113281 179.894531 35.992188 C 179.222656 35.867188 178.546875 35.765625 177.871094 35.683594 C 177.195312 35.597656 176.515625 35.535156 175.835938 35.492188 C 175.152344 35.449219 174.472656 35.425781 173.789062 35.421875 C 173.109375 35.417969 172.425781 35.4375 171.746094 35.472656 C 171.0625 35.507812 170.382812 35.5625 169.707031 35.640625 C 169.027344 35.714844 168.351562 35.8125 167.679688 35.925781 C 167.007812 36.042969 166.339844 36.175781 165.675781 36.332031 C 165.011719 36.484375 164.351562 36.660156 163.699219 36.851562 C 163.042969 37.046875 162.394531 37.257812 161.753906 37.488281 C 161.113281 37.71875 160.476562 37.96875 159.847656 38.234375 C 159.222656 38.503906 158.601562 38.789062 157.992188 39.09375 C 157.382812 39.398438 156.78125 39.71875 156.1875 40.058594 C 155.597656 40.394531 155.015625 40.753906 154.445312 41.125 C 153.871094 41.5 153.3125 41.886719 152.765625 42.292969 C 152.214844 42.699219 151.679688 43.121094 151.15625 43.558594 C 150.632812 43.996094 150.121094 44.445312 149.625 44.914062 C 149.128906 45.378906 148.644531 45.859375 148.175781 46.355469 C 147.707031 46.851562 147.25 47.359375 146.8125 47.878906 C 146.371094 48.402344 145.945312 48.9375 145.539062 49.480469 C 145.128906 50.027344 144.738281 50.585938 144.363281 51.15625 C 143.984375 51.722656 143.628906 52.304688 143.285156 52.894531 C 142.941406 53.484375 142.617188 54.082031 142.3125 54.691406 C 142.003906 55.300781 141.714844 55.917969 141.445312 56.546875 C 141.171875 57.171875 140.921875 57.804688 140.6875 58.445312 C 140.453125 59.085938 140.238281 59.734375 140.042969 60.386719 C 139.84375 61.039062 139.667969 61.699219 139.511719 62.363281 C 139.351562 63.027344 139.214844 63.691406 139.09375 64.363281 C 138.976562 65.035156 138.878906 65.710938 138.796875 66.390625 C 138.71875 67.066406 138.660156 67.746094 138.617188 68.425781 C 138.578125 69.105469 138.558594 69.789062 138.558594 70.472656 C 138.558594 71.152344 138.578125 71.835938 138.617188 72.515625 C 138.660156 73.195312 138.71875 73.875 138.796875 74.554688 C 138.878906 75.230469 138.976562 75.90625 139.09375 76.578125 C 139.214844 77.25 139.351562 77.917969 139.511719 78.578125 C 139.667969 79.242188 139.84375 79.902344 140.042969 80.554688 C 140.238281 81.207031 140.453125 81.855469 140.6875 82.496094 C 140.921875 83.136719 141.171875 83.769531 141.445312 84.394531 C 141.714844 85.023438 142.003906 85.640625 142.3125 86.25 C 142.617188 86.859375 142.941406 87.457031 143.285156 88.046875 C 143.628906 88.636719 143.984375 89.21875 144.363281 89.785156 C 144.738281 90.355469 145.128906 90.914062 145.539062 91.460938 C 145.945312 92.007812 146.371094 92.539062 146.8125 93.0625 C 147.25 93.582031 147.707031 94.089844 148.175781 94.585938 C 148.644531 95.082031 149.128906 95.5625 149.625 96.027344 C 150.121094 96.496094 150.632812 96.949219 151.15625 97.382812 C 151.679688 97.820312 152.214844 98.242188 152.765625 98.648438 C 153.3125 99.054688 153.871094 99.445312 154.445312 99.816406 C 155.015625 100.191406 155.597656 100.546875 156.1875 100.882812 C 156.78125 101.222656 157.382812 101.546875 157.992188 101.847656 C 158.601562 102.152344 159.222656 102.4375 159.847656 102.707031 C 160.476562 102.972656 161.113281 103.222656 161.753906 103.453125 C 162.394531 103.683594 163.042969 103.898438 163.699219 104.089844 C 164.351562 104.28125 165.011719 104.457031 165.675781 104.609375 C 166.339844 104.765625 167.007812 104.898438 167.679688 105.015625 C 168.351562 105.128906 169.027344 105.226562 169.707031 105.300781 C 170.382812 105.378906 171.0625 105.433594 171.746094 105.46875 C 172.425781 105.507812 173.109375 105.523438 173.789062 105.519531 C 174.472656 105.515625 175.152344 105.492188 175.835938 105.449219 C 176.515625 105.40625 177.195312 105.34375 177.871094 105.257812 C 178.546875 105.175781 179.222656 105.074219 179.894531 104.953125 C 180.5625 104.828125 181.230469 104.6875 181.894531 104.527344 C 182.554688 104.363281 183.214844 104.183594 183.867188 103.984375 C 184.519531 103.785156 185.164062 103.566406 185.804688 103.328125 C 186.441406 103.09375 187.074219 102.835938 187.699219 102.5625 C 188.324219 102.289062 188.941406 101.996094 189.546875 101.683594 C 190.15625 101.375 190.753906 101.046875 191.34375 100.703125 C 191.929688 100.355469 192.507812 99.996094 193.074219 99.617188 C 193.640625 99.238281 194.199219 98.84375 194.742188 98.429688 C 195.285156 98.019531 195.816406 97.59375 196.335938 97.148438 C 196.855469 96.707031 197.363281 96.25 197.855469 95.777344 C 198.347656 95.308594 198.824219 94.820312 199.289062 94.320312 C 199.753906 93.820312 200.203125 93.308594 200.636719 92.78125 C 201.070312 92.257812 201.492188 91.71875 201.894531 91.167969 C 202.296875 90.617188 202.683594 90.054688 203.050781 89.480469 C 203.421875 88.910156 203.777344 88.324219 204.113281 87.730469 C 204.449219 87.136719 204.765625 86.535156 205.066406 85.921875 C 205.367188 85.3125 205.648438 84.691406 205.914062 84.0625 C 206.179688 83.433594 206.425781 82.796875 206.652344 82.152344 L 313.902344 82.152344 L 313.902344 117.203125 L 56.878906 117.203125 C 56.109375 117.203125 55.351562 117.277344 54.597656 117.425781 C 53.84375 117.578125 53.113281 117.796875 52.40625 118.09375 C 51.699219 118.386719 51.023438 118.746094 50.386719 119.171875 C 49.75 119.597656 49.160156 120.082031 48.617188 120.625 C 48.074219 121.167969 47.589844 121.757812 47.164062 122.394531 C 46.738281 123.03125 46.378906 123.707031 46.082031 124.414062 C 45.789062 125.125 45.570312 125.855469 45.417969 126.605469 C 45.269531 127.359375 45.195312 128.117188 45.195312 128.886719 L 45.195312 572.835938 C 45.195312 573.601562 45.269531 574.363281 45.417969 575.113281 C 45.570312 575.867188 45.789062 576.597656 46.082031 577.308594 C 46.378906 578.015625 46.738281 578.6875 47.164062 579.328125 C 47.589844 579.964844 48.074219 580.554688 48.617188 581.097656 C 49.160156 581.640625 49.75 582.125 50.386719 582.550781 C 51.023438 582.976562 51.699219 583.335938 52.40625 583.628906 C 53.113281 583.921875 53.84375 584.144531 54.597656 584.292969 C 55.351562 584.445312 56.109375 584.519531 56.878906 584.519531 Z M 337.265625 140.570312 L 430.730469 140.570312 L 430.730469 271.066406 L 422.902344 278.894531 C 417.953125 276.199219 412.773438 274.058594 407.363281 272.46875 L 407.363281 245.714844 L 360.632812 245.714844 L 360.632812 272.46875 C 355.222656 274.058594 350.046875 276.199219 345.09375 278.894531 L 337.265625 271.066406 Z M 384 304.128906 C 385.527344 304.128906 387.054688 304.203125 388.578125 304.355469 C 390.101562 304.503906 391.613281 304.726562 393.117188 305.027344 C 394.617188 305.324219 396.097656 305.695312 397.5625 306.140625 C 399.027344 306.585938 400.46875 307.101562 401.882812 307.6875 C 403.296875 308.273438 404.679688 308.925781 406.027344 309.648438 C 407.378906 310.367188 408.6875 311.15625 409.960938 312.003906 C 411.234375 312.855469 412.460938 313.765625 413.644531 314.738281 C 414.828125 315.707031 415.960938 316.734375 417.042969 317.816406 C 418.125 318.898438 419.152344 320.03125 420.121094 321.214844 C 421.09375 322.398438 422.003906 323.625 422.855469 324.898438 C 423.703125 326.171875 424.492188 327.480469 425.210938 328.832031 C 425.933594 330.179688 426.585938 331.5625 427.171875 332.976562 C 427.757812 334.390625 428.273438 335.832031 428.71875 337.296875 C 429.164062 338.761719 429.535156 340.242188 429.832031 341.742188 C 430.132812 343.246094 430.355469 344.757812 430.503906 346.28125 C 430.65625 347.804688 430.730469 349.332031 430.730469 350.859375 C 430.730469 352.390625 430.65625 353.917969 430.503906 355.441406 C 430.355469 356.964844 430.132812 358.476562 429.832031 359.976562 C 429.535156 361.480469 429.164062 362.960938 428.71875 364.425781 C 428.273438 365.890625 427.757812 367.332031 427.171875 368.746094 C 426.585938 370.15625 425.933594 371.539062 425.210938 372.890625 C 424.492188 374.238281 423.703125 375.550781 422.855469 376.824219 C 422.003906 378.097656 421.09375 379.324219 420.121094 380.507812 C 419.152344 381.691406 418.125 382.824219 417.042969 383.90625 C 415.960938 384.988281 414.828125 386.015625 413.644531 386.984375 C 412.460938 387.957031 411.234375 388.867188 409.960938 389.714844 C 408.6875 390.566406 407.378906 391.351562 406.027344 392.074219 C 404.679688 392.796875 403.296875 393.449219 401.882812 394.035156 C 400.46875 394.621094 399.027344 395.136719 397.5625 395.582031 C 396.097656 396.023438 394.617188 396.394531 393.117188 396.695312 C 391.613281 396.992188 390.101562 397.21875 388.578125 397.367188 C 387.054688 397.515625 385.527344 397.59375 384 397.59375 C 382.46875 397.59375 380.941406 397.515625 379.417969 397.367188 C 377.894531 397.21875 376.382812 396.992188 374.882812 396.695312 C 373.378906 396.394531 371.898438 396.023438 370.433594 395.582031 C 368.96875 395.136719 367.527344 394.621094 366.113281 394.035156 C 364.699219 393.449219 363.320312 392.796875 361.96875 392.074219 C 360.621094 391.351562 359.308594 390.566406 358.035156 389.714844 C 356.761719 388.867188 355.535156 387.957031 354.351562 386.984375 C 353.167969 386.015625 352.035156 384.988281 350.953125 383.90625 C 349.871094 382.824219 348.84375 381.691406 347.875 380.507812 C 346.902344 379.324219 345.992188 378.097656 345.144531 376.824219 C 344.292969 375.550781 343.507812 374.238281 342.785156 372.890625 C 342.0625 371.539062 341.410156 370.15625 340.824219 368.746094 C 340.238281 367.332031 339.722656 365.890625 339.277344 364.425781 C 338.835938 362.960938 338.464844 361.480469 338.164062 359.976562 C 337.867188 358.476562 337.640625 356.964844 337.492188 355.441406 C 337.34375 353.917969 337.265625 352.390625 337.265625 350.859375 C 337.265625 349.332031 337.34375 347.804688 337.492188 346.28125 C 337.640625 344.757812 337.867188 343.246094 338.164062 341.742188 C 338.464844 340.242188 338.835938 338.761719 339.277344 337.296875 C 339.722656 335.832031 340.238281 334.390625 340.824219 332.976562 C 341.410156 331.5625 342.0625 330.179688 342.785156 328.832031 C 343.507812 327.480469 344.292969 326.171875 345.144531 324.898438 C 345.992188 323.625 346.902344 322.398438 347.875 321.214844 C 348.84375 320.03125 349.871094 318.898438 350.953125 317.816406 C 352.035156 316.734375 353.167969 315.707031 354.351562 314.738281 C 355.535156 313.765625 356.761719 312.855469 358.035156 312.003906 C 359.308594 311.15625 360.621094 310.367188 361.96875 309.648438 C 363.320312 308.925781 364.703125 308.273438 366.113281 307.6875 C 367.527344 307.101562 368.96875 306.585938 370.433594 306.140625 C 371.898438 305.695312 373.378906 305.324219 374.882812 305.027344 C 376.382812 304.726562 377.894531 304.503906 379.417969 304.355469 C 380.941406 304.203125 382.46875 304.128906 384 304.128906 Z M 68.558594 140.570312 L 313.902344 140.570312 L 313.902344 272.234375 L 293.105469 293.03125 L 312.03125 311.957031 C 309.335938 316.90625 307.195312 322.085938 305.605469 327.496094 L 278.851562 327.496094 L 278.851562 339.179688 L 159.921875 339.179688 C 159.691406 338.535156 159.445312 337.898438 159.183594 337.269531 C 158.917969 336.640625 158.636719 336.019531 158.335938 335.410156 C 158.035156 334.796875 157.714844 334.191406 157.378906 333.601562 C 157.042969 333.007812 156.691406 332.421875 156.320312 331.851562 C 155.949219 331.277344 155.5625 330.714844 155.160156 330.164062 C 154.757812 329.613281 154.339844 329.074219 153.90625 328.550781 C 153.472656 328.023438 153.023438 327.511719 152.558594 327.011719 C 152.09375 326.511719 151.617188 326.023438 151.125 325.554688 C 150.632812 325.082031 150.125 324.625 149.605469 324.179688 C 149.085938 323.738281 148.554688 323.3125 148.011719 322.902344 C 147.464844 322.488281 146.910156 322.09375 146.34375 321.714844 C 145.777344 321.335938 145.199219 320.976562 144.609375 320.628906 C 144.023438 320.285156 143.425781 319.957031 142.816406 319.648438 C 142.207031 319.335938 141.59375 319.042969 140.96875 318.769531 C 140.34375 318.496094 139.710938 318.238281 139.070312 318.003906 C 138.433594 317.765625 137.785156 317.546875 137.132812 317.347656 C 136.480469 317.148438 135.824219 316.96875 135.160156 316.804688 C 134.5 316.644531 133.832031 316.503906 133.160156 316.378906 C 132.488281 316.257812 131.816406 316.15625 131.140625 316.074219 C 130.460938 315.988281 129.78125 315.925781 129.101562 315.882812 C 128.421875 315.839844 127.738281 315.816406 127.058594 315.8125 C 126.375 315.808594 125.695312 315.824219 125.011719 315.863281 C 124.332031 315.898438 123.652344 315.953125 122.976562 316.03125 C 122.296875 316.105469 121.621094 316.203125 120.949219 316.316406 C 120.277344 316.433594 119.609375 316.566406 118.945312 316.722656 C 118.28125 316.875 117.621094 317.050781 116.964844 317.242188 C 116.3125 317.433594 115.664062 317.648438 115.023438 317.878906 C 114.378906 318.109375 113.746094 318.359375 113.117188 318.625 C 112.492188 318.894531 111.871094 319.179688 111.261719 319.484375 C 110.648438 319.785156 110.050781 320.109375 109.457031 320.445312 C 108.863281 320.785156 108.285156 321.140625 107.710938 321.515625 C 107.140625 321.886719 106.582031 322.277344 106.03125 322.683594 C 105.484375 323.089844 104.949219 323.511719 104.425781 323.945312 C 103.902344 324.382812 103.390625 324.835938 102.894531 325.300781 C 102.394531 325.769531 101.914062 326.25 101.441406 326.746094 C 100.972656 327.238281 100.519531 327.75 100.078125 328.269531 C 99.640625 328.792969 99.214844 329.324219 98.808594 329.871094 C 98.398438 330.417969 98.007812 330.976562 97.628906 331.542969 C 97.253906 332.113281 96.894531 332.695312 96.554688 333.285156 C 96.210938 333.875 95.886719 334.472656 95.578125 335.082031 C 95.273438 335.691406 94.984375 336.308594 94.710938 336.933594 C 94.441406 337.5625 94.1875 338.195312 93.953125 338.835938 C 93.722656 339.476562 93.503906 340.125 93.308594 340.777344 C 93.113281 341.429688 92.9375 342.089844 92.777344 342.75 C 92.621094 343.414062 92.480469 344.082031 92.363281 344.753906 C 92.246094 345.425781 92.144531 346.101562 92.066406 346.777344 C 91.988281 347.457031 91.925781 348.136719 91.886719 348.816406 C 91.847656 349.496094 91.828125 350.179688 91.828125 350.859375 C 91.828125 351.542969 91.847656 352.222656 91.886719 352.90625 C 91.925781 353.585938 91.988281 354.265625 92.066406 354.941406 C 92.144531 355.621094 92.246094 356.296875 92.363281 356.96875 C 92.480469 357.636719 92.621094 358.304688 92.777344 358.96875 C 92.9375 359.632812 93.113281 360.292969 93.308594 360.945312 C 93.503906 361.597656 93.722656 362.246094 93.953125 362.886719 C 94.1875 363.527344 94.441406 364.160156 94.710938 364.785156 C 94.984375 365.414062 95.273438 366.03125 95.578125 366.640625 C 95.886719 367.246094 96.210938 367.847656 96.554688 368.4375 C 96.894531 369.027344 97.253906 369.609375 97.628906 370.175781 C 98.007812 370.746094 98.398438 371.304688 98.808594 371.851562 C 99.214844 372.394531 99.640625 372.929688 100.078125 373.453125 C 100.519531 373.972656 100.972656 374.480469 101.441406 374.976562 C 101.914062 375.472656 102.394531 375.953125 102.894531 376.417969 C 103.390625 376.886719 103.902344 377.335938 104.425781 377.773438 C 104.949219 378.210938 105.484375 378.632812 106.03125 379.039062 C 106.582031 379.445312 107.140625 379.832031 107.710938 380.207031 C 108.285156 380.578125 108.863281 380.933594 109.457031 381.273438 C 110.046875 381.613281 110.648438 381.933594 111.261719 382.238281 C 111.871094 382.542969 112.492188 382.828125 113.117188 383.097656 C 113.746094 383.363281 114.378906 383.613281 115.023438 383.84375 C 115.664062 384.074219 116.3125 384.285156 116.964844 384.480469 C 117.621094 384.671875 118.28125 384.847656 118.945312 385 C 119.609375 385.15625 120.277344 385.289062 120.949219 385.40625 C 121.621094 385.519531 122.296875 385.617188 122.972656 385.691406 C 123.652344 385.769531 124.332031 385.824219 125.011719 385.859375 C 125.695312 385.894531 126.375 385.914062 127.058594 385.910156 C 127.738281 385.90625 128.421875 385.882812 129.101562 385.839844 C 129.78125 385.796875 130.460938 385.730469 131.140625 385.648438 C 131.816406 385.566406 132.488281 385.464844 133.160156 385.339844 C 133.832031 385.21875 134.5 385.078125 135.160156 384.914062 C 135.824219 384.753906 136.480469 384.574219 137.132812 384.375 C 137.785156 384.175781 138.433594 383.957031 139.070312 383.71875 C 139.710938 383.480469 140.34375 383.226562 140.96875 382.953125 C 141.59375 382.675781 142.207031 382.386719 142.816406 382.074219 C 143.425781 381.765625 144.023438 381.4375 144.609375 381.09375 C 145.199219 380.746094 145.777344 380.382812 146.34375 380.003906 C 146.910156 379.625 147.464844 379.230469 148.011719 378.820312 C 148.554688 378.410156 149.085938 377.980469 149.605469 377.539062 C 150.125 377.097656 150.628906 376.640625 151.125 376.167969 C 151.617188 375.695312 152.09375 375.210938 152.558594 374.710938 C 153.023438 374.210938 153.472656 373.699219 153.90625 373.171875 C 154.339844 372.644531 154.757812 372.109375 155.160156 371.558594 C 155.5625 371.007812 155.949219 370.445312 156.320312 369.871094 C 156.691406 369.300781 157.042969 368.714844 157.378906 368.121094 C 157.714844 367.527344 158.035156 366.925781 158.335938 366.3125 C 158.636719 365.699219 158.917969 365.082031 159.183594 364.453125 C 159.445312 363.824219 159.691406 363.1875 159.921875 362.542969 L 278.851562 362.542969 L 278.851562 374.226562 L 305.605469 374.226562 C 307.195312 379.636719 309.335938 384.816406 312.03125 389.765625 L 293.105469 409.273438 L 326.167969 442.339844 L 345.09375 423.410156 C 350.046875 426.105469 355.222656 428.25 360.632812 429.835938 L 360.632812 456.007812 L 407.363281 456.007812 L 407.363281 429.253906 C 412.773438 427.664062 417.953125 425.523438 422.902344 422.828125 L 442.414062 441.753906 L 474.890625 409.273438 L 455.964844 390.347656 C 458.699219 385.210938 460.84375 379.835938 462.390625 374.226562 L 489.144531 374.226562 L 489.144531 362.542969 L 608.078125 362.542969 C 608.304688 363.1875 608.550781 363.824219 608.816406 364.453125 C 609.078125 365.082031 609.363281 365.699219 609.664062 366.3125 C 609.964844 366.925781 610.28125 367.527344 610.617188 368.121094 C 610.953125 368.714844 611.304688 369.300781 611.675781 369.871094 C 612.046875 370.445312 612.433594 371.007812 612.835938 371.558594 C 613.238281 372.109375 613.65625 372.644531 614.089844 373.171875 C 614.523438 373.699219 614.972656 374.210938 615.4375 374.710938 C 615.902344 375.210938 616.382812 375.695312 616.875 376.167969 C 617.367188 376.640625 617.871094 377.097656 618.390625 377.539062 C 618.910156 377.980469 619.441406 378.410156 619.988281 378.820312 C 620.53125 379.230469 621.085938 379.625 621.652344 380.003906 C 622.222656 380.382812 622.796875 380.746094 623.386719 381.09375 C 623.976562 381.4375 624.574219 381.765625 625.179688 382.074219 C 625.789062 382.386719 626.402344 382.675781 627.027344 382.953125 C 627.652344 383.226562 628.285156 383.480469 628.925781 383.71875 C 629.5625 383.957031 630.210938 384.175781 630.863281 384.375 C 631.515625 384.574219 632.171875 384.753906 632.835938 384.914062 C 633.496094 385.078125 634.164062 385.21875 634.835938 385.339844 C 635.507812 385.464844 636.179688 385.566406 636.859375 385.648438 C 637.535156 385.730469 638.214844 385.796875 638.894531 385.839844 C 639.574219 385.882812 640.257812 385.90625 640.9375 385.910156 C 641.621094 385.914062 642.304688 385.894531 642.984375 385.859375 C 643.664062 385.824219 644.34375 385.769531 645.023438 385.691406 C 645.699219 385.617188 646.375 385.519531 647.046875 385.40625 C 647.71875 385.289062 648.386719 385.15625 649.054688 385 C 649.71875 384.847656 650.375 384.671875 651.03125 384.480469 C 651.683594 384.285156 652.332031 384.074219 652.976562 383.84375 C 653.617188 383.613281 654.25 383.363281 654.878906 383.097656 C 655.507812 382.828125 656.125 382.542969 656.738281 382.238281 C 657.347656 381.933594 657.949219 381.613281 658.539062 381.273438 C 659.132812 380.933594 659.714844 380.578125 660.285156 380.207031 C 660.855469 379.832031 661.414062 379.445312 661.964844 379.039062 C 662.511719 378.632812 663.046875 378.210938 663.574219 377.773438 C 664.097656 377.335938 664.605469 376.886719 665.105469 376.417969 C 665.601562 375.953125 666.085938 375.472656 666.554688 374.976562 C 667.023438 374.480469 667.476562 373.972656 667.917969 373.453125 C 668.359375 372.929688 668.78125 372.394531 669.191406 371.851562 C 669.597656 371.304688 669.992188 370.746094 670.367188 370.175781 C 670.742188 369.609375 671.101562 369.027344 671.445312 368.4375 C 671.785156 367.847656 672.109375 367.246094 672.417969 366.640625 C 672.722656 366.03125 673.011719 365.414062 673.285156 364.785156 C 673.554688 364.160156 673.808594 363.527344 674.042969 362.886719 C 674.277344 362.246094 674.492188 361.597656 674.6875 360.945312 C 674.882812 360.292969 675.0625 359.632812 675.21875 358.96875 C 675.375 358.304688 675.515625 357.636719 675.632812 356.964844 C 675.753906 356.296875 675.851562 355.621094 675.929688 354.941406 C 676.011719 354.265625 676.070312 353.585938 676.109375 352.90625 C 676.148438 352.222656 676.167969 351.542969 676.167969 350.859375 C 676.167969 350.179688 676.148438 349.496094 676.109375 348.816406 C 676.070312 348.136719 676.011719 347.457031 675.929688 346.777344 C 675.851562 346.101562 675.753906 345.425781 675.632812 344.753906 C 675.515625 344.082031 675.375 343.414062 675.21875 342.75 C 675.0625 342.089844 674.882812 341.429688 674.6875 340.777344 C 674.492188 340.125 674.277344 339.476562 674.042969 338.835938 C 673.808594 338.195312 673.554688 337.5625 673.285156 336.933594 C 673.011719 336.308594 672.722656 335.691406 672.417969 335.082031 C 672.109375 334.472656 671.785156 333.875 671.445312 333.285156 C 671.101562 332.695312 670.742188 332.113281 670.367188 331.542969 C 669.992188 330.976562 669.597656 330.417969 669.191406 329.871094 C 668.78125 329.324219 668.359375 328.792969 667.917969 328.269531 C 667.476562 327.75 667.023438 327.238281 666.554688 326.746094 C 666.085938 326.25 665.601562 325.769531 665.105469 325.300781 C 664.605469 324.835938 664.097656 324.382812 663.574219 323.945312 C 663.046875 323.511719 662.511719 323.089844 661.964844 322.683594 C 661.414062 322.277344 660.855469 321.886719 660.285156 321.515625 C 659.714844 321.140625 659.132812 320.785156 658.539062 320.445312 C 657.949219 320.109375 657.347656 319.785156 656.738281 319.484375 C 656.125 319.179688 655.507812 318.894531 654.878906 318.625 C 654.25 318.359375 653.617188 318.109375 652.976562 317.878906 C 652.332031 317.648438 651.683594 317.433594 651.03125 317.242188 C 650.375 317.050781 649.71875 316.875 649.054688 316.722656 C 648.386719 316.566406 647.71875 316.433594 647.046875 316.316406 C 646.375 316.203125 645.699219 316.105469 645.023438 316.03125 C 644.34375 315.953125 643.664062 315.898438 642.984375 315.863281 C 642.304688 315.824219 641.621094 315.808594 640.9375 315.8125 C 640.257812 315.816406 639.574219 315.839844 638.894531 315.882812 C 638.214844 315.925781 637.535156 315.988281 636.859375 316.074219 C 636.179688 316.15625 635.507812 316.257812 634.835938 316.378906 C 634.164062 316.503906 633.496094 316.644531 632.835938 316.804688 C 632.171875 316.96875 631.515625 317.148438 630.863281 317.347656 C 630.210938 317.546875 629.5625 317.765625 628.925781 318.003906 C 628.285156 318.238281 627.652344 318.496094 627.027344 318.769531 C 626.402344 319.042969 625.789062 319.335938 625.179688 319.648438 C 624.574219 319.957031 623.976562 320.285156 623.386719 320.628906 C 622.796875 320.976562 622.222656 321.335938 621.652344 321.714844 C 621.085938 322.09375 620.53125 322.488281 619.988281 322.902344 C 619.441406 323.3125 618.910156 323.738281 618.390625 324.179688 C 617.871094 324.625 617.367188 325.082031 616.875 325.554688 C 616.382812 326.023438 615.902344 326.511719 615.4375 327.011719 C 614.972656 327.511719 614.523438 328.023438 614.089844 328.550781 C 613.65625 329.074219 613.238281 329.613281 612.835938 330.164062 C 612.433594 330.714844 612.046875 331.277344 611.675781 331.851562 C 611.304688 332.421875 610.953125 333.007812 610.617188 333.601562 C 610.28125 334.191406 609.964844 334.796875 609.664062 335.410156 C 609.363281 336.019531 609.078125 336.640625 608.816406 337.269531 C 608.550781 337.898438 608.304688 338.535156 608.078125 339.179688 L 489.144531 339.179688 L 489.144531 327.496094 L 462.390625 327.496094 C 460.800781 322.085938 458.660156 316.90625 455.964844 311.957031 L 474.890625 293.03125 L 454.097656 272.234375 L 454.097656 140.570312 L 699.4375 140.570312 L 699.4375 514.421875 L 68.558594 514.421875 Z M 68.558594 140.570312 " fill-opacity="1" fill-rule="nonzero"/></g><path fill="#092552" d="M 103.609375 198.984375 L 162.023438 198.984375 L 162.023438 292.445312 C 162.023438 293.214844 162.097656 293.972656 162.246094 294.726562 C 162.398438 295.476562 162.617188 296.207031 162.914062 296.917969 C 163.207031 297.625 163.566406 298.300781 163.992188 298.9375 C 164.417969 299.574219 164.902344 300.164062 165.445312 300.707031 C 165.988281 301.25 166.578125 301.734375 167.214844 302.160156 C 167.851562 302.585938 168.527344 302.945312 169.234375 303.238281 C 169.945312 303.535156 170.675781 303.753906 171.425781 303.90625 C 172.179688 304.054688 172.9375 304.128906 173.707031 304.128906 L 243.804688 304.128906 C 244.570312 304.128906 245.332031 304.054688 246.082031 303.90625 C 246.835938 303.753906 247.566406 303.535156 248.273438 303.238281 C 248.984375 302.945312 249.65625 302.585938 250.292969 302.160156 C 250.933594 301.734375 251.523438 301.25 252.066406 300.707031 C 252.605469 300.164062 253.089844 299.574219 253.519531 298.9375 C 253.945312 298.300781 254.304688 297.625 254.597656 296.917969 C 254.890625 296.207031 255.113281 295.476562 255.261719 294.726562 C 255.410156 293.972656 255.488281 293.214844 255.488281 292.445312 C 255.488281 291.679688 255.410156 290.917969 255.261719 290.167969 C 255.113281 289.414062 254.890625 288.683594 254.597656 287.976562 C 254.304688 287.265625 253.945312 286.59375 253.519531 285.957031 C 253.089844 285.316406 252.605469 284.726562 252.066406 284.183594 C 251.523438 283.644531 250.933594 283.160156 250.292969 282.730469 C 249.65625 282.304688 248.984375 281.945312 248.273438 281.652344 C 247.566406 281.359375 246.835938 281.136719 246.082031 280.988281 C 245.332031 280.839844 244.570312 280.761719 243.804688 280.761719 L 185.390625 280.761719 L 185.390625 187.300781 C 185.390625 186.53125 185.3125 185.773438 185.164062 185.019531 C 185.015625 184.269531 184.792969 183.539062 184.5 182.828125 C 184.207031 182.121094 183.847656 181.445312 183.421875 180.808594 C 182.992188 180.171875 182.507812 179.582031 181.96875 179.039062 C 181.425781 178.496094 180.835938 178.011719 180.195312 177.585938 C 179.558594 177.160156 178.886719 176.800781 178.175781 176.507812 C 177.46875 176.214844 176.738281 175.992188 175.984375 175.839844 C 175.234375 175.691406 174.472656 175.617188 173.707031 175.617188 L 103.609375 175.617188 C 102.839844 175.617188 102.082031 175.691406 101.328125 175.839844 C 100.578125 175.992188 99.847656 176.214844 99.136719 176.507812 C 98.429688 176.800781 97.757812 177.160156 97.117188 177.585938 C 96.480469 178.011719 95.890625 178.496094 95.347656 179.039062 C 94.804688 179.582031 94.320312 180.171875 93.894531 180.808594 C 93.46875 181.445312 93.109375 182.121094 92.816406 182.828125 C 92.523438 183.539062 92.300781 184.269531 92.148438 185.019531 C 92 185.773438 91.925781 186.53125 91.925781 187.300781 C 91.925781 188.066406 92 188.828125 92.148438 189.578125 C 92.300781 190.332031 92.523438 191.0625 92.816406 191.769531 C 93.109375 192.480469 93.46875 193.152344 93.894531 193.789062 C 94.320312 194.429688 94.804688 195.019531 95.347656 195.5625 C 95.890625 196.105469 96.480469 196.585938 97.117188 197.015625 C 97.757812 197.441406 98.429688 197.800781 99.136719 198.09375 C 99.847656 198.386719 100.578125 198.609375 101.328125 198.757812 C 102.082031 198.90625 102.839844 198.984375 103.609375 198.984375 Z M 103.609375 198.984375 " fill-opacity="1" fill-rule="nonzero"/><path fill="#092552" d="M 652.707031 175.617188 L 582.609375 175.617188 C 581.839844 175.617188 581.082031 175.691406 580.328125 175.839844 C 579.578125 175.992188 578.847656 176.214844 578.136719 176.507812 C 577.429688 176.800781 576.753906 177.160156 576.117188 177.585938 C 575.480469 178.011719 574.890625 178.496094 574.347656 179.039062 C 573.804688 179.582031 573.320312 180.171875 572.894531 180.808594 C 572.46875 181.445312 572.109375 182.121094 571.8125 182.828125 C 571.519531 183.539062 571.300781 184.269531 571.148438 185.019531 C 571 185.773438 570.925781 186.53125 570.925781 187.300781 L 570.925781 280.761719 L 512.511719 280.761719 C 511.742188 280.761719 510.984375 280.839844 510.230469 280.988281 C 509.480469 281.136719 508.75 281.359375 508.039062 281.652344 C 507.332031 281.945312 506.65625 282.304688 506.019531 282.730469 C 505.382812 283.160156 504.792969 283.644531 504.25 284.183594 C 503.707031 284.726562 503.222656 285.316406 502.796875 285.957031 C 502.371094 286.59375 502.011719 287.265625 501.71875 287.976562 C 501.421875 288.683594 501.203125 289.414062 501.050781 290.167969 C 500.902344 290.917969 500.828125 291.679688 500.828125 292.445312 C 500.828125 293.214844 500.902344 293.972656 501.050781 294.726562 C 501.203125 295.476562 501.421875 296.207031 501.71875 296.917969 C 502.011719 297.625 502.371094 298.300781 502.796875 298.9375 C 503.222656 299.574219 503.707031 300.164062 504.25 300.707031 C 504.792969 301.25 505.382812 301.734375 506.019531 302.160156 C 506.65625 302.585938 507.332031 302.945312 508.039062 303.238281 C 508.75 303.535156 509.480469 303.753906 510.230469 303.90625 C 510.984375 304.054688 511.742188 304.128906 512.511719 304.128906 L 582.609375 304.128906 C 583.375 304.128906 584.136719 304.054688 584.886719 303.90625 C 585.640625 303.753906 586.371094 303.535156 587.078125 303.238281 C 587.789062 302.945312 588.460938 302.585938 589.097656 302.160156 C 589.738281 301.734375 590.328125 301.25 590.867188 300.707031 C 591.410156 300.164062 591.894531 299.574219 592.320312 298.9375 C 592.75 298.300781 593.109375 297.625 593.402344 296.917969 C 593.695312 296.207031 593.917969 295.476562 594.066406 294.726562 C 594.214844 293.972656 594.289062 293.214844 594.289062 292.445312 L 594.289062 198.984375 L 652.707031 198.984375 C 653.472656 198.984375 654.230469 198.90625 654.984375 198.757812 C 655.738281 198.609375 656.46875 198.386719 657.175781 198.09375 C 657.886719 197.800781 658.558594 197.441406 659.195312 197.015625 C 659.832031 196.585938 660.425781 196.105469 660.964844 195.5625 C 661.507812 195.019531 661.992188 194.429688 662.417969 193.789062 C 662.84375 193.152344 663.207031 192.480469 663.5 191.769531 C 663.792969 191.0625 664.015625 190.332031 664.164062 189.578125 C 664.3125 188.828125 664.386719 188.066406 664.386719 187.300781 C 664.386719 186.53125 664.3125 185.773438 664.164062 185.019531 C 664.015625 184.269531 663.792969 183.539062 663.5 182.828125 C 663.207031 182.121094 662.84375 181.445312 662.417969 180.808594 C 661.992188 180.171875 661.507812 179.582031 660.964844 179.039062 C 660.425781 178.496094 659.832031 178.011719 659.195312 177.585938 C 658.558594 177.160156 657.886719 176.800781 657.175781 176.507812 C 656.46875 176.214844 655.738281 175.992188 654.984375 175.839844 C 654.230469 175.691406 653.472656 175.617188 652.707031 175.617188 Z M 652.707031 175.617188 " fill-opacity="1" fill-rule="nonzero"/></svg>