<svg xmlns="http://www.w3.org/2000/svg" xmlns:xlink="http://www.w3.org/1999/xlink" width="1024" zoomAndPan="magnify" viewBox="0 0 768 767.999994" height="1024" preserveAspectRatio="xMidYMid meet" version="1.0"><defs><clipPath id="89a408fd4b"><path d="M 39.578125 10.644531 L 728 10.644531 L 728 757.644531 L 39.578125 757.644531 Z M 39.578125 10.644531 " clip-rule="nonzero"/></clipPath></defs><g clip-path="url(#89a408fd4b)"><path fill="#092552" d="M 706.675781 550.679688 C 706.675781 560.503906 698.679688 568.5 688.855469 568.5 L 79.078125 568.5 C 69.25 568.5 61.257812 560.503906 61.257812 550.679688 L 61.257812 167.054688 C 61.257812 157.230469 69.25 149.238281 79.078125 149.238281 L 203.359375 149.238281 L 203.359375 451.855469 C 203.359375 457.746094 208.140625 462.523438 214.015625 462.523438 L 553.917969 462.523438 C 559.808594 462.523438 564.585938 457.746094 564.585938 451.855469 L 564.585938 149.238281 L 688.855469 149.242188 C 698.679688 149.242188 706.675781 157.238281 706.675781 167.0625 Z M 458.121094 659.382812 L 309.828125 659.382812 L 309.828125 589.824219 L 458.121094 589.824219 Z M 575.171875 708.367188 C 575.171875 723.617188 562.761719 736.011719 547.511719 736.011719 L 220.421875 736.011719 C 205.175781 736.011719 192.769531 723.617188 192.769531 708.367188 C 192.769531 693.117188 205.175781 680.707031 220.421875 680.707031 L 547.511719 680.707031 C 562.761719 680.707031 575.171875 693.117188 575.171875 708.367188 Z M 224.683594 31.984375 L 459.832031 31.984375 L 459.832031 104.730469 C 459.832031 110.621094 464.609375 115.394531 470.5 115.394531 L 543.246094 115.394531 L 543.246094 441.1875 L 224.683594 441.1875 Z M 481.171875 47.0625 L 528.164062 94.066406 L 481.171875 94.066406 Z M 688.855469 127.921875 L 564.585938 127.921875 L 564.585938 104.730469 C 564.585938 104.613281 564.570312 104.496094 564.554688 104.378906 C 564.554688 104.25 564.554688 104.132812 564.535156 104.003906 C 564.519531 103.5625 564.46875 103.117188 564.371094 102.683594 L 564.371094 102.644531 C 564.289062 102.195312 564.15625 101.753906 564.003906 101.328125 C 563.972656 101.210938 563.9375 101.101562 563.890625 100.984375 C 563.738281 100.582031 563.574219 100.191406 563.375 99.808594 C 563.359375 99.777344 563.34375 99.746094 563.324219 99.714844 C 563.109375 99.3125 562.859375 98.929688 562.59375 98.558594 C 562.527344 98.457031 562.445312 98.359375 562.378906 98.261719 C 562.097656 97.886719 561.78125 97.527344 561.449219 97.191406 L 478.035156 13.777344 C 477.703125 13.441406 477.335938 13.136719 476.972656 12.851562 C 476.875 12.777344 476.789062 12.714844 476.691406 12.644531 C 476.308594 12.371094 475.910156 12.125 475.511719 11.902344 C 475.496094 11.898438 475.480469 11.890625 475.460938 11.882812 C 475.066406 11.671875 474.648438 11.496094 474.234375 11.339844 C 474.136719 11.300781 474.019531 11.261719 473.917969 11.230469 C 473.058594 10.9375 472.144531 10.75 471.214844 10.683594 C 471.097656 10.679688 470.984375 10.671875 470.851562 10.671875 C 470.734375 10.664062 470.617188 10.652344 470.5 10.652344 L 214.015625 10.652344 C 208.140625 10.652344 203.359375 15.429688 203.359375 21.316406 L 203.359375 127.921875 L 79.078125 127.921875 C 57.492188 127.921875 39.933594 145.480469 39.933594 167.066406 L 39.933594 550.691406 C 39.933594 572.277344 57.492188 589.835938 79.078125 589.835938 L 288.503906 589.835938 L 288.503906 659.394531 L 220.421875 659.394531 C 193.417969 659.394531 171.445312 681.363281 171.445312 708.378906 C 171.445312 735.394531 193.417969 757.363281 220.421875 757.363281 L 547.511719 757.363281 C 574.527344 757.363281 596.496094 735.394531 596.496094 708.378906 C 596.496094 681.363281 574.527344 659.394531 547.511719 659.394531 L 479.445312 659.394531 L 479.445312 589.835938 L 688.855469 589.835938 C 710.441406 589.835938 728 572.277344 728 550.691406 L 728 167.066406 C 728 145.484375 710.441406 127.925781 688.855469 127.925781 " fill-opacity="1" fill-rule="nonzero"/></g><path fill="#092552" d="M 649.496094 319.765625 C 643.605469 319.765625 638.824219 324.542969 638.824219 330.433594 L 638.824219 501.480469 L 129.105469 501.480469 L 129.109375 330.433594 C 129.109375 324.542969 124.332031 319.765625 118.445312 319.765625 C 112.554688 319.765625 107.777344 324.542969 107.777344 330.433594 L 107.777344 512.148438 C 107.777344 518.058594 112.554688 522.820312 118.445312 522.820312 L 649.488281 522.820312 C 655.378906 522.820312 660.160156 518.058594 660.160156 512.148438 L 660.160156 330.433594 C 660.160156 324.542969 655.378906 319.765625 649.488281 319.765625 " fill-opacity="1" fill-rule="nonzero"/><path fill="#092552" d="M 649.496094 244.878906 C 643.605469 244.878906 638.824219 249.65625 638.824219 255.546875 L 638.824219 293 C 638.824219 298.890625 643.605469 303.652344 649.496094 303.652344 C 655.386719 303.652344 660.164062 298.890625 660.164062 293 L 660.164062 255.546875 C 660.164062 249.65625 655.386719 244.878906 649.496094 244.878906 " fill-opacity="1" fill-rule="nonzero"/><path fill="#092552" d="M 649.496094 179.003906 C 643.605469 179.003906 638.824219 183.78125 638.824219 189.671875 L 638.824219 218.113281 C 638.824219 224.003906 643.605469 228.765625 649.496094 228.765625 C 655.386719 228.765625 660.164062 224.003906 660.164062 218.113281 L 660.164062 189.671875 C 660.164062 183.78125 655.386719 179.003906 649.496094 179.003906 " fill-opacity="1" fill-rule="nonzero"/><path fill="#092552" d="M 118.445312 228.765625 C 124.332031 228.765625 129.109375 224.003906 129.109375 218.113281 L 129.109375 189.671875 C 129.109375 183.78125 124.332031 179.003906 118.445312 179.003906 C 112.554688 179.003906 107.777344 183.78125 107.777344 189.671875 L 107.777344 218.113281 C 107.777344 224.003906 112.554688 228.765625 118.445312 228.765625 " fill-opacity="1" fill-rule="nonzero"/><path fill="#092552" d="M 118.445312 303.652344 C 124.332031 303.652344 129.109375 298.890625 129.109375 293 L 129.109375 255.546875 C 129.109375 249.65625 124.332031 244.878906 118.445312 244.878906 C 112.554688 244.878906 107.777344 249.65625 107.777344 255.546875 L 107.777344 293 C 107.777344 298.890625 112.554688 303.652344 118.445312 303.652344 " fill-opacity="1" fill-rule="nonzero"/><path fill="#092552" d="M 310.109375 378.953125 C 312.132812 381.476562 315.1875 382.9375 318.421875 382.9375 L 318.636719 382.9375 C 322.667969 382.9375 326.171875 380.710938 327.980469 377.410156 L 368.1875 327.449219 C 371.886719 322.851562 371.15625 316.148438 366.578125 312.445312 C 361.980469 308.761719 355.277344 309.476562 351.574219 314.074219 L 329.308594 341.75 L 329.308594 179.617188 C 329.308594 173.726562 324.527344 168.957031 318.636719 168.957031 C 312.746094 168.957031 307.96875 173.726562 307.96875 179.617188 L 307.96875 342.230469 L 285.699219 314.503906 C 282.015625 309.925781 275.296875 309.179688 270.699219 312.863281 C 266.101562 316.5625 265.371094 323.265625 269.074219 327.863281 L 310.109375 378.953125 " fill-opacity="1" fill-rule="nonzero"/><path fill="#092552" d="M 401.371094 239.433594 C 403.332031 241.027344 405.703125 241.792969 408.042969 241.792969 C 411.164062 241.792969 414.25 240.429688 416.355469 237.824219 L 438.640625 210.132812 L 438.640625 372.265625 C 438.640625 378.15625 443.421875 382.9375 449.292969 382.9375 C 455.203125 382.9375 459.964844 378.15625 459.964844 372.265625 L 459.964844 209.667969 L 482.234375 237.394531 C 485.933594 241.992188 492.636719 242.722656 497.234375 239.019531 C 501.828125 235.335938 502.558594 228.632812 498.859375 224.035156 L 457.824219 172.945312 C 455.800781 170.421875 452.746094 168.957031 449.511719 168.957031 C 449.476562 168.957031 449.445312 168.964844 449.410156 168.964844 C 449.378906 168.964844 449.34375 168.957031 449.292969 168.957031 C 445.277344 168.957031 441.777344 171.1875 439.953125 174.480469 L 399.746094 224.453125 C 396.046875 229.03125 396.777344 235.75 401.371094 239.433594 " fill-opacity="1" fill-rule="nonzero"/></svg>