<svg xmlns="http://www.w3.org/2000/svg" xmlns:xlink="http://www.w3.org/1999/xlink" width="1024" zoomAndPan="magnify" viewBox="0 0 768 767.999994" height="1024" preserveAspectRatio="xMidYMid meet" version="1.0"><defs><clipPath id="0c42575ae6"><path d="M 357 12.703125 L 411 12.703125 L 411 66 L 357 66 Z M 357 12.703125 " clip-rule="nonzero"/></clipPath><clipPath id="5d431cd026"><path d="M 357 702 L 411 702 L 411 755.203125 L 357 755.203125 Z M 357 702 " clip-rule="nonzero"/></clipPath><clipPath id="b2ef4582c1"><path d="M 702 357 L 755.203125 357 L 755.203125 411 L 702 411 Z M 702 357 " clip-rule="nonzero"/></clipPath><clipPath id="0d777c7cf6"><path d="M 12.703125 357 L 66 357 L 66 411 L 12.703125 411 Z M 12.703125 357 " clip-rule="nonzero"/></clipPath></defs><path fill="#092552" d="M 416.839844 653.925781 L 350.714844 653.925781 C 342.015625 653.925781 334.621094 646.53125 334.621094 637.394531 L 334.621094 592.589844 C 312 587.367188 291.117188 578.667969 271.542969 566.488281 L 239.785156 598.246094 C 233.261719 604.335938 222.386719 604.335938 216.296875 598.246094 L 169.746094 551.695312 C 163.222656 545.171875 163.222656 534.730469 169.746094 528.207031 L 201.503906 496.449219 C 189.324219 476.875 180.625 455.558594 175.402344 433.371094 L 130.160156 433.371094 C 121.460938 433.371094 114.066406 425.976562 114.066406 416.839844 L 114.066406 350.71875 C 114.066406 342.015625 121.460938 334.621094 130.160156 334.621094 L 175.402344 334.621094 C 180.625 312 189.324219 291.117188 201.503906 271.542969 L 169.746094 239.785156 C 163.222656 233.261719 163.222656 222.820312 169.746094 216.296875 L 216.296875 169.746094 C 222.386719 163.222656 233.261719 163.222656 239.785156 169.746094 L 271.542969 201.503906 C 291.117188 189.324219 312 180.625 334.621094 175.402344 L 334.621094 130.160156 C 334.621094 121.460938 342.015625 114.066406 350.714844 114.066406 L 416.839844 114.066406 C 425.976562 114.066406 433.371094 121.460938 433.371094 130.160156 L 433.371094 175.402344 C 455.558594 180.625 476.871094 189.324219 496.449219 201.503906 L 528.207031 169.746094 C 534.296875 163.222656 545.171875 163.222656 551.695312 169.746094 L 598.242188 216.296875 C 604.769531 222.820312 604.769531 233.261719 598.242188 239.785156 L 566.488281 271.542969 C 578.667969 291.117188 587.367188 312 592.589844 334.621094 L 637.394531 334.621094 C 646.53125 334.621094 653.925781 342.015625 653.925781 350.71875 L 653.925781 416.839844 C 653.925781 425.976562 646.53125 433.371094 637.394531 433.371094 L 592.589844 433.371094 C 587.367188 455.558594 578.667969 476.875 566.488281 496.449219 L 598.242188 528.207031 C 601.289062 531.25 603.027344 535.601562 603.027344 539.953125 C 603.027344 544.300781 601.289062 548.652344 598.242188 551.695312 L 551.695312 598.246094 C 545.171875 604.335938 534.296875 604.335938 528.207031 598.246094 L 496.449219 566.488281 C 476.871094 578.667969 455.558594 587.367188 433.371094 592.589844 L 433.371094 637.394531 C 433.371094 646.53125 425.976562 653.925781 416.839844 653.925781 Z M 352.023438 636.527344 L 415.96875 636.527344 L 415.96875 585.628906 C 415.96875 581.277344 419.015625 577.796875 422.929688 576.929688 C 448.160156 572.144531 471.652344 562.136719 492.96875 548.214844 C 496.449219 545.605469 500.800781 546.042969 503.84375 549.085938 L 539.949219 585.195312 L 585.191406 539.953125 L 549.085938 503.84375 C 546.042969 500.800781 545.605469 496.449219 548.214844 492.96875 C 562.136719 471.652344 572.144531 448.160156 576.929688 422.929688 C 577.796875 419.015625 581.277344 415.96875 585.628906 415.96875 L 636.527344 415.96875 L 636.527344 352.023438 L 585.628906 352.023438 C 581.277344 352.023438 577.796875 348.976562 576.929688 345.0625 C 572.144531 319.832031 562.136719 296.339844 548.214844 275.023438 C 545.605469 271.542969 546.042969 267.191406 549.085938 264.148438 L 585.191406 228.039062 L 539.949219 182.363281 L 503.84375 218.90625 C 500.800781 221.515625 496.449219 221.949219 492.96875 219.773438 C 471.652344 205.417969 448.160156 195.847656 422.929688 191.0625 C 419.015625 190.195312 415.96875 186.277344 415.96875 182.363281 L 415.96875 131.464844 L 352.023438 131.464844 L 352.023438 182.363281 C 352.023438 186.277344 348.976562 190.195312 345.0625 191.0625 C 319.832031 195.847656 296.339844 205.417969 275.023438 219.773438 C 271.542969 221.949219 267.191406 221.515625 264.148438 218.90625 L 228.039062 182.796875 L 182.363281 228.039062 L 218.90625 264.148438 C 221.515625 267.191406 221.949219 271.542969 219.773438 275.023438 C 205.417969 296.339844 195.847656 319.832031 190.628906 345.0625 C 190.195312 348.976562 186.277344 352.023438 182.363281 352.023438 L 131.464844 352.023438 L 131.464844 415.96875 L 182.363281 415.96875 C 186.277344 415.96875 190.195312 419.015625 191.0625 422.929688 C 195.847656 448.160156 205.417969 471.652344 219.773438 492.96875 C 221.949219 496.449219 221.515625 500.800781 218.90625 503.84375 L 182.363281 539.953125 L 228.039062 585.195312 L 264.148438 549.085938 C 267.191406 546.042969 271.542969 545.605469 275.023438 548.214844 C 296.339844 562.136719 319.832031 572.144531 345.0625 576.929688 C 348.976562 577.796875 352.023438 581.277344 352.023438 585.628906 Z M 352.023438 636.527344 " fill-opacity="1" fill-rule="evenodd"/><path fill="#092552" d="M 383.777344 540.820312 C 297.207031 540.820312 226.300781 470.347656 226.300781 383.34375 C 226.300781 305.910156 281.984375 240.65625 358.113281 228.039062 C 362.898438 227.171875 367.246094 230.214844 368.117188 235 C 368.988281 239.785156 365.507812 244.136719 361.15625 245.007812 C 293.292969 256.316406 243.703125 314.175781 243.703125 383.34375 C 243.703125 460.777344 306.78125 523.421875 383.777344 523.421875 C 461.210938 523.421875 523.855469 460.777344 523.855469 383.34375 C 523.855469 312.871094 471.652344 253.273438 402.050781 244.136719 C 397.265625 243.703125 393.785156 239.351562 394.652344 234.566406 C 395.089844 229.78125 399.4375 226.300781 404.222656 227.171875 C 482.527344 237.175781 541.257812 304.167969 541.257812 383.34375 C 541.257812 470.347656 470.78125 540.820312 383.777344 540.820312 Z M 383.777344 540.820312 " fill-opacity="1" fill-rule="evenodd"/><path fill="#092552" d="M 424.671875 164.527344 L 343.320312 164.527344 C 338.535156 164.527344 334.621094 160.613281 334.621094 155.828125 C 334.621094 151.042969 338.535156 147.125 343.320312 147.125 L 424.671875 147.125 C 429.457031 147.125 433.371094 151.042969 433.371094 155.828125 C 433.371094 160.613281 429.457031 164.527344 424.671875 164.527344 Z M 424.671875 164.527344 " fill-opacity="1" fill-rule="evenodd"/><path fill="#092552" d="M 574.316406 260.230469 C 571.707031 260.230469 569.53125 259.363281 567.792969 257.621094 L 510.371094 199.765625 C 506.890625 196.285156 506.890625 191.0625 510.371094 187.582031 C 513.851562 184.105469 519.070312 184.105469 522.550781 187.582031 L 580.40625 245.441406 C 583.453125 248.488281 583.453125 254.140625 580.40625 257.621094 C 578.667969 259.363281 576.492188 260.230469 574.316406 260.230469 Z M 574.316406 260.230469 " fill-opacity="1" fill-rule="evenodd"/><path fill="#092552" d="M 612.164062 433.371094 C 607.378906 433.371094 603.464844 429.457031 603.464844 424.671875 L 603.464844 343.320312 C 603.464844 338.535156 607.378906 334.621094 612.164062 334.621094 C 616.949219 334.621094 620.863281 338.535156 620.863281 343.320312 L 620.863281 424.671875 C 620.863281 429.457031 616.949219 433.371094 612.164062 433.371094 Z M 612.164062 433.371094 " fill-opacity="1" fill-rule="evenodd"/><path fill="#092552" d="M 516.460938 583.019531 C 514.285156 583.019531 512.109375 582.148438 510.371094 580.410156 C 506.890625 576.929688 506.890625 571.273438 510.371094 567.792969 L 567.792969 510.371094 C 571.273438 506.890625 576.929688 506.890625 580.40625 510.371094 C 583.453125 513.851562 583.453125 519.070312 580.40625 522.550781 L 522.550781 580.410156 C 520.808594 582.148438 518.636719 583.019531 516.460938 583.019531 Z M 516.460938 583.019531 " fill-opacity="1" fill-rule="evenodd"/><path fill="#092552" d="M 424.671875 620.867188 L 343.320312 620.867188 C 338.535156 620.867188 334.621094 616.949219 334.621094 612.164062 C 334.621094 607.378906 338.535156 603.464844 343.320312 603.464844 L 424.671875 603.464844 C 429.457031 603.464844 433.371094 607.378906 433.371094 612.164062 C 433.371094 616.949219 429.457031 620.867188 424.671875 620.867188 Z M 424.671875 620.867188 " fill-opacity="1" fill-rule="evenodd"/><path fill="#092552" d="M 251.53125 583.019531 C 249.355469 583.019531 246.746094 582.148438 245.441406 580.410156 L 187.582031 522.550781 C 184.101562 519.070312 184.101562 513.851562 187.582031 510.371094 C 191.0625 506.890625 196.285156 506.890625 199.765625 510.371094 L 257.621094 567.792969 C 261.101562 571.273438 261.101562 576.929688 257.621094 580.410156 C 255.882812 582.148438 253.707031 583.019531 251.53125 583.019531 Z M 251.53125 583.019531 " fill-opacity="1" fill-rule="evenodd"/><path fill="#092552" d="M 155.828125 433.371094 C 151.042969 433.371094 147.125 429.457031 147.125 424.671875 L 147.125 343.320312 C 147.125 338.535156 151.042969 334.621094 155.828125 334.621094 C 160.613281 334.621094 164.527344 338.535156 164.527344 343.320312 L 164.527344 424.671875 C 164.527344 429.457031 160.613281 433.371094 155.828125 433.371094 Z M 155.828125 433.371094 " fill-opacity="1" fill-rule="evenodd"/><path fill="#092552" d="M 193.671875 260.230469 C 191.5 260.230469 189.324219 259.363281 187.582031 257.621094 C 184.101562 254.140625 184.101562 248.488281 187.582031 245.441406 L 245.441406 187.582031 C 248.488281 184.105469 254.140625 184.105469 257.621094 187.582031 C 261.101562 191.0625 261.101562 196.285156 257.621094 199.765625 L 199.765625 257.621094 C 198.023438 259.363281 195.847656 260.230469 193.671875 260.230469 Z M 193.671875 260.230469 " fill-opacity="1" fill-rule="evenodd"/><path fill="#092552" d="M 383.777344 131.464844 C 378.992188 131.464844 375.078125 127.550781 375.078125 122.765625 L 375.078125 57.078125 C 375.078125 52.292969 378.992188 48.375 383.777344 48.375 C 388.5625 48.375 392.480469 52.292969 392.480469 57.078125 L 392.480469 122.765625 C 392.480469 127.550781 388.5625 131.464844 383.777344 131.464844 Z M 383.777344 131.464844 " fill-opacity="1" fill-rule="evenodd"/><g clip-path="url(#0c42575ae6)"><path fill="#092552" d="M 383.777344 65.777344 C 369.421875 65.777344 357.242188 53.597656 357.242188 39.242188 C 357.242188 24.449219 369.421875 12.703125 383.777344 12.703125 C 398.570312 12.703125 410.316406 24.449219 410.316406 39.242188 C 410.316406 53.597656 398.570312 65.777344 383.777344 65.777344 Z M 383.777344 30.105469 C 378.992188 30.105469 374.644531 34.019531 374.644531 39.242188 C 374.644531 44.027344 378.992188 48.375 383.777344 48.375 C 389 48.375 392.914062 44.027344 392.914062 39.242188 C 392.914062 34.019531 389 30.105469 383.777344 30.105469 Z M 383.777344 30.105469 " fill-opacity="1" fill-rule="evenodd"/></g><path fill="#092552" d="M 199.328125 207.59375 C 197.152344 207.59375 194.980469 206.726562 193.238281 204.984375 L 135.816406 147.5625 C 132.335938 144.082031 132.335938 138.859375 135.816406 135.382812 L 169.3125 101.449219 C 172.792969 97.96875 178.449219 97.96875 181.929688 101.449219 C 185.410156 104.929688 185.410156 110.585938 181.929688 114.066406 L 154.085938 141.472656 L 205.417969 192.804688 C 208.898438 196.285156 208.898438 201.503906 205.417969 204.984375 C 203.679688 206.726562 201.503906 207.59375 199.328125 207.59375 Z M 199.328125 207.59375 " fill-opacity="1" fill-rule="evenodd"/><path fill="#092552" d="M 189.324219 122.765625 C 174.96875 122.765625 162.789062 111.019531 162.789062 96.230469 C 162.789062 81.875 174.96875 69.691406 189.324219 69.691406 C 204.113281 69.691406 215.859375 81.875 215.859375 96.230469 C 215.859375 111.019531 204.113281 122.765625 189.324219 122.765625 Z M 189.324219 87.09375 C 184.539062 87.09375 180.1875 91.445312 180.1875 96.230469 C 180.1875 101.449219 184.539062 105.363281 189.324219 105.363281 C 194.542969 105.363281 198.460938 101.449219 198.460938 96.230469 C 198.460938 91.445312 194.542969 87.09375 189.324219 87.09375 Z M 189.324219 87.09375 " fill-opacity="1" fill-rule="evenodd"/><path fill="#092552" d="M 383.777344 719.617188 C 378.992188 719.617188 375.078125 715.699219 375.078125 710.914062 L 375.078125 645.226562 C 375.078125 640.441406 378.992188 636.527344 383.777344 636.527344 C 388.5625 636.527344 392.480469 640.441406 392.480469 645.226562 L 392.480469 710.914062 C 392.480469 715.699219 388.5625 719.617188 383.777344 719.617188 Z M 383.777344 719.617188 " fill-opacity="1" fill-rule="evenodd"/><g clip-path="url(#5d431cd026)"><path fill="#092552" d="M 383.777344 755.285156 C 369.421875 755.285156 357.242188 743.105469 357.242188 728.75 C 357.242188 713.960938 369.421875 702.214844 383.777344 702.214844 C 398.570312 702.214844 410.316406 713.960938 410.316406 728.75 C 410.316406 743.105469 398.570312 755.285156 383.777344 755.285156 Z M 383.777344 719.617188 C 378.992188 719.617188 374.644531 723.53125 374.644531 728.75 C 374.644531 733.535156 378.992188 737.886719 383.777344 737.886719 C 389 737.886719 392.914062 733.535156 392.914062 728.75 C 392.914062 723.53125 389 719.617188 383.777344 719.617188 Z M 383.777344 719.617188 " fill-opacity="1" fill-rule="evenodd"/></g><path fill="#092552" d="M 568.664062 208.03125 C 566.488281 208.03125 564.3125 207.160156 562.570312 205.417969 C 559.09375 201.941406 559.09375 196.285156 562.570312 192.804688 L 613.90625 141.472656 L 586.0625 114.066406 C 582.582031 110.585938 582.582031 104.929688 586.0625 101.882812 C 589.542969 98.402344 595.199219 98.402344 598.679688 101.882812 L 632.175781 135.382812 C 633.914062 137.121094 634.785156 139.296875 634.785156 141.472656 C 634.785156 144.082031 633.914062 146.257812 632.175781 147.996094 L 574.753906 205.417969 C 573.011719 207.160156 570.835938 208.03125 568.664062 208.03125 Z M 568.664062 208.03125 " fill-opacity="1" fill-rule="evenodd"/><path fill="#092552" d="M 578.667969 123.199219 C 563.878906 123.199219 552.132812 111.019531 552.132812 96.664062 C 552.132812 81.875 563.878906 70.128906 578.667969 70.128906 C 593.457031 70.128906 605.203125 81.875 605.203125 96.664062 C 605.203125 111.019531 593.023438 123.199219 578.667969 123.199219 Z M 578.667969 87.527344 C 573.449219 87.527344 569.53125 91.445312 569.53125 96.664062 C 569.53125 101.449219 573.449219 105.800781 578.667969 105.800781 C 583.453125 105.800781 587.804688 101.449219 587.804688 96.664062 C 587.804688 91.445312 583.453125 87.527344 578.667969 87.527344 Z M 578.667969 87.527344 " fill-opacity="1" fill-rule="evenodd"/><path fill="#092552" d="M 710.914062 392.480469 L 645.226562 392.480469 C 640.441406 392.480469 636.527344 388.5625 636.527344 383.777344 C 636.527344 378.992188 640.441406 375.078125 645.226562 375.078125 L 710.914062 375.078125 C 715.699219 375.078125 719.613281 378.992188 719.613281 383.777344 C 719.613281 388.5625 715.699219 392.480469 710.914062 392.480469 Z M 710.914062 392.480469 " fill-opacity="1" fill-rule="evenodd"/><g clip-path="url(#b2ef4582c1)"><path fill="#092552" d="M 728.75 410.316406 C 713.960938 410.316406 702.214844 398.570312 702.214844 383.777344 C 702.214844 369.421875 713.960938 357.242188 728.75 357.242188 C 743.105469 357.242188 755.285156 369.421875 755.285156 383.777344 C 755.285156 398.570312 743.105469 410.316406 728.75 410.316406 Z M 728.75 374.644531 C 723.53125 374.644531 719.613281 378.992188 719.613281 383.777344 C 719.613281 389 723.53125 392.914062 728.75 392.914062 C 733.535156 392.914062 737.886719 389 737.886719 383.777344 C 737.886719 378.992188 733.535156 374.644531 728.75 374.644531 Z M 728.75 374.644531 " fill-opacity="1" fill-rule="evenodd"/></g><path fill="#092552" d="M 122.765625 392.480469 L 57.078125 392.480469 C 52.292969 392.480469 48.375 388.5625 48.375 383.777344 C 48.375 378.992188 52.292969 375.078125 57.078125 375.078125 L 122.765625 375.078125 C 127.550781 375.078125 131.464844 378.992188 131.464844 383.777344 C 131.464844 388.5625 127.550781 392.480469 122.765625 392.480469 Z M 122.765625 392.480469 " fill-opacity="1" fill-rule="evenodd"/><g clip-path="url(#0d777c7cf6)"><path fill="#092552" d="M 39.242188 410.316406 C 24.449219 410.316406 12.703125 398.570312 12.703125 383.777344 C 12.703125 369.421875 24.449219 357.242188 39.242188 357.242188 C 53.597656 357.242188 65.777344 369.421875 65.777344 383.777344 C 65.777344 398.570312 53.597656 410.316406 39.242188 410.316406 Z M 39.242188 374.644531 C 34.019531 374.644531 30.105469 378.992188 30.105469 383.777344 C 30.105469 389 34.019531 392.914062 39.242188 392.914062 C 44.027344 392.914062 48.375 389 48.375 383.777344 C 48.375 378.992188 44.027344 374.644531 39.242188 374.644531 Z M 39.242188 374.644531 " fill-opacity="1" fill-rule="evenodd"/></g><path fill="#092552" d="M 175.402344 668.71875 C 173.226562 668.71875 171.050781 667.847656 169.3125 666.109375 L 135.382812 632.175781 C 134.074219 630.871094 133.207031 628.261719 133.207031 626.085938 C 133.207031 623.910156 134.074219 621.734375 135.382812 619.996094 L 192.804688 562.574219 C 196.285156 559.09375 201.9375 559.09375 205.417969 562.574219 C 208.464844 566.050781 208.464844 571.273438 205.417969 574.753906 L 154.085938 626.085938 L 181.492188 653.925781 C 184.972656 657.40625 184.972656 662.628906 181.492188 666.109375 C 180.1875 667.847656 177.578125 668.71875 175.402344 668.71875 Z M 175.402344 668.71875 " fill-opacity="1" fill-rule="evenodd"/><path fill="#092552" d="M 189.324219 697.863281 C 174.53125 697.863281 162.789062 686.117188 162.789062 671.328125 C 162.789062 656.539062 174.53125 644.792969 189.324219 644.792969 C 203.679688 644.792969 215.859375 656.539062 215.859375 671.328125 C 215.859375 686.117188 203.679688 697.863281 189.324219 697.863281 Z M 189.324219 662.191406 C 184.101562 662.191406 180.1875 666.109375 180.1875 671.328125 C 180.1875 676.113281 184.101562 680.464844 189.324219 680.464844 C 194.109375 680.464844 198.460938 676.113281 198.460938 671.328125 C 198.460938 666.109375 194.109375 662.191406 189.324219 662.191406 Z M 189.324219 662.191406 " fill-opacity="1" fill-rule="evenodd"/><path fill="#092552" d="M 592.152344 668.71875 C 589.980469 668.71875 587.804688 667.847656 586.0625 666.109375 C 582.582031 662.628906 582.582031 657.40625 586.0625 653.925781 L 613.90625 626.085938 L 562.570312 574.753906 C 559.09375 571.273438 559.09375 566.050781 562.570312 562.574219 C 566.050781 559.09375 571.707031 559.09375 574.753906 562.574219 L 632.175781 619.996094 C 635.65625 623.476562 635.65625 629.128906 632.175781 632.175781 L 598.679688 666.109375 C 596.9375 667.847656 594.765625 668.71875 592.152344 668.71875 Z M 592.152344 668.71875 " fill-opacity="1" fill-rule="evenodd"/><path fill="#092552" d="M 578.667969 697.863281 C 563.878906 697.863281 552.132812 686.117188 552.132812 671.328125 C 552.132812 656.539062 563.878906 644.792969 578.667969 644.792969 C 593.023438 644.792969 605.203125 656.539062 605.203125 671.328125 C 605.203125 686.117188 593.023438 697.863281 578.667969 697.863281 Z M 578.667969 662.191406 C 573.449219 662.191406 569.53125 666.109375 569.53125 671.328125 C 569.53125 676.113281 573.449219 680.464844 578.667969 680.464844 C 583.453125 680.464844 587.804688 676.113281 587.804688 671.328125 C 587.804688 666.109375 583.453125 662.191406 578.667969 662.191406 Z M 578.667969 662.191406 " fill-opacity="1" fill-rule="evenodd"/><path fill="#092552" d="M 324.179688 429.019531 L 290.683594 429.019531 C 285.898438 429.019531 281.984375 425.105469 281.984375 420.320312 L 281.984375 347.671875 C 281.984375 342.886719 285.898438 338.972656 290.683594 338.972656 L 324.179688 338.972656 C 328.964844 338.972656 332.878906 342.886719 332.878906 347.671875 C 332.878906 352.457031 328.964844 356.371094 324.179688 356.371094 L 299.382812 356.371094 L 299.382812 375.078125 L 324.179688 375.078125 C 328.964844 375.078125 332.878906 378.992188 332.878906 383.777344 C 332.878906 388.5625 328.964844 392.480469 324.179688 392.480469 L 299.382812 392.480469 L 299.382812 411.621094 L 324.179688 411.621094 C 328.964844 411.621094 332.878906 415.535156 332.878906 420.320312 C 332.878906 425.105469 328.964844 429.019531 324.179688 429.019531 Z M 324.179688 429.019531 " fill-opacity="1" fill-rule="evenodd"/><path fill="#092552" d="M 400.308594 429.019531 C 399.875 429.019531 399.4375 429.019531 399.003906 429.019531 C 394.21875 428.152344 391.171875 423.800781 391.609375 419.015625 C 393.347656 405.53125 390.304688 399.003906 387.695312 395.960938 C 385.519531 393.347656 382.472656 392.480469 382.039062 392.480469 L 372.902344 392.480469 L 372.902344 420.320312 C 372.902344 425.105469 368.988281 429.019531 364.203125 429.019531 C 359.417969 429.019531 355.5 425.105469 355.5 420.320312 L 355.5 347.671875 C 355.5 342.886719 359.417969 338.972656 364.203125 338.972656 L 382.472656 338.972656 C 397.265625 338.972656 409.007812 351.152344 409.007812 365.941406 C 409.007812 373.339844 405.964844 379.863281 401.179688 385.082031 C 408.140625 392.914062 410.75 405.53125 409.007812 421.191406 C 408.140625 425.539062 404.660156 429.019531 400.308594 429.019531 Z M 372.902344 375.078125 L 382.472656 375.078125 C 387.695312 375.078125 391.609375 371.164062 391.609375 365.941406 C 391.609375 360.722656 387.695312 356.371094 382.472656 356.371094 L 372.902344 356.371094 Z M 372.902344 375.078125 " fill-opacity="1" fill-rule="evenodd"/><path fill="#092552" d="M 440.765625 429.019531 C 435.980469 429.019531 432.066406 425.105469 432.066406 420.320312 L 432.066406 347.671875 C 432.066406 342.886719 435.980469 338.972656 440.765625 338.972656 L 459.035156 338.972656 C 473.828125 338.972656 486.007812 351.152344 486.007812 365.941406 C 486.007812 380.734375 473.828125 392.480469 459.035156 392.480469 L 449.464844 392.480469 L 449.464844 420.320312 C 449.464844 425.105469 445.550781 429.019531 440.765625 429.019531 Z M 449.464844 375.078125 L 459.035156 375.078125 C 464.257812 375.078125 468.609375 371.164062 468.609375 365.941406 C 468.609375 360.722656 464.257812 356.371094 459.035156 356.371094 L 449.464844 356.371094 Z M 449.464844 375.078125 " fill-opacity="1" fill-rule="evenodd"/></svg>