<svg xmlns="http://www.w3.org/2000/svg" xmlns:xlink="http://www.w3.org/1999/xlink" width="500" zoomAndPan="magnify" viewBox="0 0 375 374.999991" height="500" preserveAspectRatio="xMidYMid meet" version="1.0"><defs><clipPath id="3314967dcf"><path d="M 9.417969 9.417969 L 365.667969 9.417969 L 365.667969 365.667969 L 9.417969 365.667969 Z M 9.417969 9.417969 " clip-rule="nonzero"/></clipPath></defs><rect x="-37.5" width="450" fill="#ffffff" y="-37.499999" height="449.999989" fill-opacity="1"/><rect x="-37.5" width="450" fill="#ffffff" y="-37.499999" height="449.999989" fill-opacity="1"/><g clip-path="url(#3314967dcf)"><path fill="#fabc05" d="M 172.257812 177.882812 C 175.429688 177.882812 178.003906 180.457031 178.003906 183.628906 C 178.003906 186.800781 175.429688 189.371094 172.257812 189.371094 L 138.011719 189.371094 C 134.839844 189.371094 132.265625 186.800781 132.265625 183.628906 C 132.265625 180.457031 134.839844 177.882812 138.011719 177.882812 Z M 197.53125 189.371094 C 194.359375 189.371094 191.785156 186.800781 191.785156 183.628906 C 191.785156 180.457031 194.359375 177.882812 197.53125 177.882812 L 231.777344 177.882812 C 234.949219 177.882812 237.523438 180.457031 237.523438 183.628906 C 237.523438 186.800781 234.949219 189.371094 231.777344 189.371094 Z M 115.515625 107.433594 C 112.34375 107.433594 109.769531 104.863281 109.769531 101.6875 C 109.769531 98.515625 112.34375 95.945312 115.515625 95.945312 L 209.566406 95.945312 C 212.738281 95.945312 215.3125 98.515625 215.3125 101.6875 C 215.3125 104.863281 212.738281 107.433594 209.566406 107.433594 Z M 115.515625 137.195312 C 112.34375 137.195312 109.769531 134.621094 109.769531 131.449219 C 109.769531 128.277344 112.34375 125.703125 115.515625 125.703125 L 254.273438 125.703125 C 257.445312 125.703125 260.019531 128.277344 260.019531 131.449219 C 260.019531 134.621094 257.445312 137.195312 254.273438 137.195312 Z M 115.515625 166.953125 C 112.34375 166.953125 109.769531 164.382812 109.769531 161.207031 C 109.769531 158.035156 112.34375 155.464844 115.515625 155.464844 L 254.273438 155.464844 C 257.445312 155.464844 260.019531 158.035156 260.019531 161.207031 C 260.019531 164.382812 257.445312 166.953125 254.273438 166.953125 Z M 115.515625 211.59375 C 112.34375 211.59375 109.769531 209.019531 109.769531 205.847656 C 109.769531 202.675781 112.34375 200.105469 115.515625 200.105469 L 254.273438 200.105469 C 257.445312 200.105469 260.019531 202.675781 260.019531 205.847656 C 260.019531 209.019531 257.445312 211.59375 254.273438 211.59375 Z M 115.515625 241.351562 C 112.34375 241.351562 109.769531 238.78125 109.769531 235.609375 C 109.769531 232.4375 112.34375 229.863281 115.515625 229.863281 L 254.273438 229.863281 C 257.445312 229.863281 260.019531 232.4375 260.019531 235.609375 C 260.019531 238.78125 257.445312 241.351562 254.273438 241.351562 Z M 115.515625 271.113281 C 112.34375 271.113281 109.769531 268.542969 109.769531 265.367188 C 109.769531 262.195312 112.34375 259.625 115.515625 259.625 L 192.082031 259.625 C 195.257812 259.625 197.828125 262.195312 197.828125 265.367188 C 197.828125 268.542969 195.257812 271.113281 192.082031 271.113281 Z M 115.515625 300.875 C 112.34375 300.875 109.769531 298.300781 109.769531 295.128906 C 109.769531 291.957031 112.34375 289.386719 115.515625 289.386719 L 192.082031 289.386719 C 195.257812 289.386719 197.828125 291.957031 197.828125 295.128906 C 197.828125 298.300781 195.257812 300.875 192.082031 300.875 Z M 115.515625 77.671875 C 112.34375 77.671875 109.769531 75.101562 109.769531 71.929688 C 109.769531 68.757812 112.34375 66.183594 115.515625 66.183594 L 209.566406 66.183594 C 212.738281 66.183594 215.3125 68.757812 215.3125 71.929688 C 215.3125 75.101562 212.738281 77.671875 209.566406 77.671875 Z M 250.890625 327.429688 C 251.433594 327.148438 251.933594 326.746094 252.386719 326.230469 L 281.035156 293.558594 C 281.488281 293.042969 281.839844 292.472656 282.085938 291.855469 L 253.441406 291.855469 C 252.039062 291.855469 250.890625 293.164062 250.890625 294.765625 Z M 316.570312 189.371094 C 313.398438 189.371094 310.824219 186.800781 310.824219 183.628906 C 310.824219 180.457031 313.398438 177.882812 316.570312 177.882812 L 350.820312 177.882812 C 353.992188 177.882812 356.5625 180.457031 356.5625 183.628906 C 356.5625 186.800781 353.992188 189.371094 350.820312 189.371094 Z M 53.21875 177.882812 C 56.390625 177.882812 58.964844 180.457031 58.964844 183.628906 C 58.964844 186.800781 56.390625 189.371094 53.21875 189.371094 L 18.96875 189.371094 C 15.796875 189.371094 13.226562 186.800781 13.226562 183.628906 C 13.226562 180.457031 15.796875 177.882812 18.96875 177.882812 Z M 20.910156 83.335938 C 20.910156 86.507812 18.335938 89.082031 15.164062 89.082031 C 11.992188 89.082031 9.417969 86.507812 9.417969 83.335938 L 9.417969 15.164062 C 9.417969 11.992188 11.992188 9.417969 15.164062 9.417969 L 83.335938 9.417969 C 86.507812 9.417969 89.082031 11.992188 89.082031 15.164062 C 89.082031 18.335938 86.507812 20.910156 83.335938 20.910156 L 20.910156 20.910156 Z M 291.65625 20.910156 C 288.484375 20.910156 285.914062 18.335938 285.914062 15.164062 C 285.914062 11.992188 288.484375 9.417969 291.65625 9.417969 L 359.828125 9.417969 C 363.003906 9.417969 365.574219 11.992188 365.574219 15.164062 L 365.574219 83.335938 C 365.574219 86.507812 363.003906 89.082031 359.828125 89.082031 C 356.65625 89.082031 354.085938 86.507812 354.085938 83.335938 L 354.085938 20.910156 Z M 291.65625 365.574219 C 288.484375 365.574219 285.914062 363.003906 285.914062 359.828125 C 285.914062 356.65625 288.484375 354.085938 291.65625 354.085938 L 354.085938 354.085938 L 354.085938 291.65625 C 354.085938 288.484375 356.65625 285.914062 359.828125 285.914062 C 363.003906 285.914062 365.574219 288.484375 365.574219 291.65625 L 365.574219 359.828125 C 365.574219 363.003906 363.003906 365.574219 359.828125 365.574219 Z M 9.417969 291.65625 C 9.417969 288.484375 11.992188 285.914062 15.164062 285.914062 C 18.335938 285.914062 20.910156 288.484375 20.910156 291.65625 L 20.910156 354.085938 L 83.335938 354.085938 C 86.507812 354.085938 89.082031 356.65625 89.082031 359.828125 C 89.082031 363.003906 86.507812 365.574219 83.335938 365.574219 L 15.164062 365.574219 C 11.992188 365.574219 9.417969 363.003906 9.417969 359.828125 Z M 92.363281 327.933594 L 239.402344 327.933594 L 239.402344 294.765625 C 239.402344 286.957031 245.550781 280.367188 253.441406 280.367188 L 282.527344 280.367188 L 282.527344 189.371094 L 257.050781 189.371094 C 253.878906 189.371094 251.304688 186.800781 251.304688 183.628906 C 251.304688 180.457031 253.878906 177.882812 257.050781 177.882812 L 282.527344 177.882812 L 282.527344 45.140625 C 282.527344 41.9375 280.238281 39.324219 277.425781 39.324219 L 92.363281 39.324219 C 89.550781 39.324219 87.257812 41.9375 87.257812 45.140625 L 87.257812 177.882812 L 112.738281 177.882812 C 115.910156 177.882812 118.480469 180.457031 118.480469 183.628906 C 118.480469 186.800781 115.910156 189.371094 112.738281 189.371094 L 87.257812 189.371094 L 87.257812 322.113281 C 87.257812 325.320312 89.550781 327.933594 92.363281 327.933594 Z M 282.765625 177.882812 L 291.53125 177.882812 C 294.703125 177.882812 297.277344 180.457031 297.277344 183.628906 C 297.277344 186.800781 294.703125 189.371094 291.53125 189.371094 L 282.765625 189.371094 Z M 87.039062 177.882812 L 78.269531 177.882812 C 75.097656 177.882812 72.527344 180.457031 72.527344 183.628906 C 72.527344 186.800781 75.097656 189.371094 78.269531 189.371094 L 87.039062 189.371094 Z M 87.039062 177.882812 " fill-opacity="1" fill-rule="evenodd"/></g></svg>