<svg xmlns="http://www.w3.org/2000/svg" xmlns:xlink="http://www.w3.org/1999/xlink" width="500" zoomAndPan="magnify" viewBox="0 0 375 374.999991" height="500" preserveAspectRatio="xMidYMid meet" version="1.0"><defs><clipPath id="db9feac378"><path d="M 19 7.453125 L 356 7.453125 L 356 367.453125 L 19 367.453125 Z M 19 7.453125 " clip-rule="nonzero"/></clipPath></defs><g clip-path="url(#db9feac378)"><path fill="#b10005" d="M 111.992188 239.765625 L 77.148438 239.765625 C 76.765625 239.765625 76.386719 239.800781 76.011719 239.875 C 75.640625 239.949219 75.277344 240.0625 74.925781 240.207031 C 74.570312 240.351562 74.238281 240.53125 73.921875 240.742188 C 73.601562 240.957031 73.308594 241.195312 73.039062 241.464844 C 72.769531 241.734375 72.53125 242.027344 72.316406 242.347656 C 72.105469 242.664062 71.925781 242.996094 71.78125 243.351562 C 71.636719 243.703125 71.523438 244.066406 71.449219 244.441406 C 71.375 244.8125 71.339844 245.191406 71.339844 245.574219 L 71.339844 264.871094 L 45.953125 275.023438 C 45.414062 275.238281 44.917969 275.527344 44.464844 275.894531 C 44.011719 276.257812 43.625 276.679688 43.296875 277.160156 C 42.972656 277.640625 42.726562 278.160156 42.554688 278.714844 C 42.382812 279.269531 42.300781 279.839844 42.300781 280.417969 L 42.300781 316.960938 C 23.234375 323.570312 19.070312 332.21875 19.070312 338.496094 C 19.070312 357.5625 57.050781 367.535156 94.570312 367.535156 C 132.089844 367.535156 170.070312 357.5625 170.070312 338.496094 C 170.070312 332.21875 165.90625 323.570312 146.839844 316.960938 L 146.839844 295.867188 L 238.445312 239.695312 C 254.007812 244.527344 269.933594 246.816406 286.226562 246.558594 C 320.859375 246.558594 355.917969 237.265625 355.917969 219.4375 C 355.917969 213.542969 352.082031 205.464844 334.621094 199.3125 L 334.621094 166.210938 C 334.621094 165.628906 334.535156 165.0625 334.367188 164.507812 C 334.195312 163.953125 333.949219 163.433594 333.621094 162.953125 C 333.296875 162.472656 332.90625 162.050781 332.457031 161.6875 C 332.003906 161.324219 331.507812 161.035156 330.96875 160.820312 L 308.003906 151.621094 L 308.003906 134.253906 C 308.003906 133.875 307.96875 133.496094 307.894531 133.121094 C 307.820312 132.746094 307.710938 132.382812 307.5625 132.03125 C 307.417969 131.679688 307.238281 131.34375 307.027344 131.027344 C 306.816406 130.710938 306.574219 130.417969 306.304688 130.148438 C 306.035156 129.878906 305.742188 129.636719 305.425781 129.425781 C 305.105469 129.214844 304.773438 129.035156 304.421875 128.890625 C 304.066406 128.742188 303.703125 128.632812 303.332031 128.558594 C 302.957031 128.484375 302.578125 128.445312 302.199219 128.445312 L 270.253906 128.445312 C 269.875 128.445312 269.496094 128.484375 269.121094 128.558594 C 268.746094 128.632812 268.386719 128.742188 268.03125 128.890625 C 267.679688 129.035156 267.34375 129.214844 267.027344 129.425781 C 266.710938 129.636719 266.417969 129.878906 266.148438 130.148438 C 265.878906 130.417969 265.636719 130.710938 265.425781 131.027344 C 265.214844 131.34375 265.035156 131.679688 264.890625 132.03125 C 264.742188 132.386719 264.632812 132.746094 264.558594 133.121094 C 264.484375 133.496094 264.449219 133.875 264.449219 134.253906 L 264.449219 151.621094 L 241.507812 160.808594 C 240.96875 161.023438 240.472656 161.3125 240.019531 161.675781 C 239.566406 162.039062 239.179688 162.460938 238.855469 162.941406 C 238.527344 163.421875 238.28125 163.941406 238.109375 164.496094 C 237.9375 165.050781 237.855469 165.617188 237.851562 166.199219 L 237.851562 169.832031 L 140.65625 146.40625 C 140.898438 145.257812 141.023438 144.09375 141.03125 142.921875 C 141.03125 132.40625 131.652344 123.488281 116.347656 118.929688 L 116.347656 107.347656 L 251.738281 77.726562 C 254.15625 79.660156 256.726562 81.355469 259.457031 82.816406 C 262.183594 84.28125 265.019531 85.480469 267.964844 86.425781 C 270.914062 87.367188 273.921875 88.035156 276.988281 88.429688 C 280.058594 88.820312 283.136719 88.933594 286.226562 88.761719 C 309.398438 88.761719 326.882812 78.402344 326.882812 64.660156 C 326.882812 56.070312 319.742188 48.503906 308.003906 44.242188 L 308.003906 13.261719 C 308.003906 12.878906 307.96875 12.503906 307.894531 12.128906 C 307.820312 11.753906 307.710938 11.390625 307.5625 11.039062 C 307.417969 10.6875 307.238281 10.351562 307.027344 10.035156 C 306.816406 9.71875 306.574219 9.425781 306.304688 9.15625 C 306.035156 8.886719 305.742188 8.644531 305.425781 8.433594 C 305.105469 8.222656 304.773438 8.042969 304.421875 7.894531 C 304.066406 7.75 303.703125 7.640625 303.332031 7.566406 C 302.957031 7.492188 302.578125 7.453125 302.199219 7.453125 L 270.253906 7.453125 C 269.875 7.453125 269.496094 7.492188 269.121094 7.566406 C 268.746094 7.640625 268.386719 7.75 268.03125 7.894531 C 267.679688 8.042969 267.34375 8.222656 267.027344 8.433594 C 266.710938 8.644531 266.417969 8.886719 266.148438 9.15625 C 265.878906 9.425781 265.636719 9.71875 265.425781 10.035156 C 265.214844 10.351562 265.035156 10.6875 264.890625 11.039062 C 264.742188 11.390625 264.632812 11.753906 264.558594 12.128906 C 264.484375 12.503906 264.449219 12.878906 264.449219 13.261719 L 264.449219 44.242188 C 252.710938 48.503906 245.570312 56.070312 245.570312 64.660156 C 245.574219 65.496094 245.640625 66.328125 245.769531 67.152344 L 116.347656 95.480469 L 116.347656 77.148438 C 116.347656 76.765625 116.3125 76.386719 116.238281 76.015625 C 116.164062 75.640625 116.054688 75.277344 115.90625 74.925781 C 115.761719 74.574219 115.582031 74.238281 115.371094 73.921875 C 115.160156 73.601562 114.917969 73.308594 114.648438 73.039062 C 114.378906 72.769531 114.085938 72.53125 113.769531 72.316406 C 113.449219 72.105469 113.117188 71.925781 112.765625 71.78125 C 112.410156 71.636719 112.046875 71.523438 111.675781 71.449219 C 111.300781 71.375 110.921875 71.339844 110.542969 71.339844 L 78.597656 71.339844 C 78.21875 71.339844 77.839844 71.375 77.464844 71.449219 C 77.089844 71.523438 76.726562 71.636719 76.375 71.78125 C 76.023438 71.925781 75.6875 72.105469 75.371094 72.316406 C 75.054688 72.53125 74.761719 72.769531 74.492188 73.039062 C 74.222656 73.308594 73.980469 73.601562 73.769531 73.921875 C 73.558594 74.238281 73.378906 74.574219 73.234375 74.925781 C 73.085938 75.277344 72.976562 75.640625 72.902344 76.015625 C 72.828125 76.386719 72.789062 76.765625 72.789062 77.148438 L 72.789062 118.964844 C 57.488281 123.515625 48.109375 132.4375 48.109375 142.949219 C 48.109375 158.410156 68.082031 170.070312 94.570312 170.070312 C 112.160156 170.070312 126.832031 164.914062 134.738281 156.929688 L 237.832031 181.785156 L 237.832031 199.3125 C 220.371094 205.464844 216.53125 213.542969 216.53125 219.4375 C 216.644531 220.929688 216.945312 222.386719 217.425781 223.800781 C 217.910156 225.21875 218.5625 226.554688 219.382812 227.804688 C 220.203125 229.054688 221.171875 230.183594 222.277344 231.1875 C 223.386719 232.195312 224.605469 233.046875 225.929688 233.742188 L 146.839844 282.242188 L 146.839844 280.417969 C 146.839844 279.839844 146.753906 279.269531 146.585938 278.714844 C 146.414062 278.160156 146.167969 277.640625 145.839844 277.160156 C 145.515625 276.679688 145.125 276.257812 144.675781 275.894531 C 144.222656 275.527344 143.726562 275.238281 143.1875 275.023438 L 117.800781 264.871094 L 117.800781 245.574219 C 117.800781 245.191406 117.765625 244.8125 117.6875 244.441406 C 117.613281 244.066406 117.503906 243.703125 117.359375 243.351562 C 117.214844 242.996094 117.035156 242.664062 116.820312 242.347656 C 116.609375 242.027344 116.371094 241.734375 116.101562 241.464844 C 115.832031 241.195312 115.535156 240.957031 115.21875 240.742188 C 114.902344 240.53125 114.566406 240.351562 114.214844 240.207031 C 113.863281 240.0625 113.5 239.949219 113.125 239.875 C 112.753906 239.800781 112.375 239.765625 111.992188 239.765625 Z M 276.0625 19.070312 L 296.390625 19.070312 L 296.390625 56.9375 L 276.0625 56.9375 Z M 264.449219 56.878906 L 264.449219 62.742188 C 264.449219 63.125 264.484375 63.503906 264.558594 63.875 C 264.632812 64.25 264.742188 64.613281 264.890625 64.964844 C 265.035156 65.320312 265.214844 65.652344 265.425781 65.96875 C 265.636719 66.289062 265.878906 66.582031 266.148438 66.851562 C 266.417969 67.121094 266.710938 67.359375 267.027344 67.574219 C 267.34375 67.785156 267.679688 67.964844 268.03125 68.109375 C 268.386719 68.253906 268.746094 68.367188 269.121094 68.441406 C 269.496094 68.515625 269.875 68.550781 270.253906 68.550781 L 302.199219 68.550781 C 302.578125 68.550781 302.957031 68.515625 303.332031 68.441406 C 303.703125 68.367188 304.066406 68.253906 304.421875 68.109375 C 304.773438 67.964844 305.105469 67.785156 305.425781 67.574219 C 305.742188 67.359375 306.035156 67.121094 306.304688 66.851562 C 306.574219 66.582031 306.816406 66.289062 307.027344 65.96875 C 307.238281 65.652344 307.417969 65.320312 307.5625 64.964844 C 307.710938 64.613281 307.820312 64.25 307.894531 63.875 C 307.96875 63.503906 308.003906 63.125 308.003906 62.742188 L 308.003906 56.878906 C 312.757812 59.351562 315.265625 62.34375 315.265625 64.660156 C 315.265625 69.753906 303.953125 77.148438 286.226562 77.148438 C 268.5 77.148438 257.1875 69.753906 257.1875 64.660156 C 257.1875 62.34375 259.695312 59.351562 264.449219 56.878906 Z M 84.40625 82.953125 L 104.734375 82.953125 L 104.734375 137.160156 L 84.40625 137.160156 Z M 94.570312 158.457031 C 74.625 158.457031 59.722656 150.265625 59.722656 142.949219 C 59.722656 138.691406 64.949219 134.238281 72.789062 131.199219 L 72.789062 142.964844 C 72.789062 143.347656 72.828125 143.726562 72.902344 144.101562 C 72.976562 144.472656 73.085938 144.835938 73.234375 145.1875 C 73.378906 145.542969 73.558594 145.875 73.769531 146.191406 C 73.980469 146.511719 74.222656 146.804688 74.492188 147.074219 C 74.761719 147.34375 75.054688 147.582031 75.371094 147.796875 C 75.6875 148.007812 76.023438 148.1875 76.375 148.332031 C 76.726562 148.476562 77.089844 148.589844 77.464844 148.664062 C 77.839844 148.738281 78.21875 148.773438 78.597656 148.773438 L 110.542969 148.773438 C 110.921875 148.773438 111.300781 148.738281 111.675781 148.664062 C 112.046875 148.589844 112.410156 148.476562 112.765625 148.332031 C 113.117188 148.1875 113.449219 148.007812 113.769531 147.796875 C 114.085938 147.582031 114.378906 147.34375 114.648438 147.074219 C 114.917969 146.804688 115.160156 146.511719 115.371094 146.191406 C 115.582031 145.875 115.761719 145.542969 115.90625 145.1875 C 116.054688 144.835938 116.164062 144.472656 116.238281 144.101562 C 116.3125 143.726562 116.347656 143.347656 116.347656 142.964844 L 116.347656 131.199219 C 124.191406 134.207031 129.417969 138.710938 129.417969 142.949219 C 129.417969 150.265625 114.515625 158.457031 94.570312 158.457031 Z M 308.003906 164.128906 L 323.007812 170.128906 L 323.007812 213.628906 L 308.003906 213.628906 Z M 276.0625 140.0625 L 296.390625 140.0625 L 296.390625 213.628906 L 276.0625 213.628906 Z M 249.445312 170.128906 L 264.449219 164.128906 L 264.449219 213.628906 L 249.445312 213.628906 Z M 237.832031 211.800781 L 237.832031 219.4375 C 237.832031 219.820312 237.867188 220.195312 237.941406 220.570312 C 238.015625 220.945312 238.125 221.308594 238.273438 221.660156 C 238.417969 222.011719 238.597656 222.347656 238.808594 222.664062 C 239.019531 222.980469 239.261719 223.273438 239.53125 223.542969 C 239.800781 223.8125 240.09375 224.054688 240.410156 224.265625 C 240.726562 224.476562 241.0625 224.65625 241.414062 224.804688 C 241.769531 224.949219 242.132812 225.058594 242.503906 225.132812 C 242.878906 225.207031 243.257812 225.246094 243.636719 225.246094 L 328.816406 225.246094 C 329.195312 225.246094 329.574219 225.207031 329.949219 225.132812 C 330.320312 225.058594 330.683594 224.949219 331.039062 224.804688 C 331.390625 224.65625 331.722656 224.476562 332.042969 224.265625 C 332.359375 224.054688 332.652344 223.8125 332.921875 223.542969 C 333.191406 223.273438 333.433594 222.980469 333.644531 222.664062 C 333.855469 222.347656 334.035156 222.011719 334.179688 221.660156 C 334.328125 221.308594 334.4375 220.945312 334.511719 220.570312 C 334.585938 220.195312 334.621094 219.820312 334.621094 219.4375 L 334.621094 211.800781 C 341.527344 214.828125 344.304688 217.886719 344.304688 219.4375 C 344.304688 224.902344 322.234375 234.945312 286.226562 234.945312 C 250.21875 234.945312 228.148438 224.902344 228.148438 219.4375 C 228.148438 217.886719 230.925781 214.828125 237.832031 211.800781 Z M 82.953125 251.378906 L 106.183594 251.378906 L 106.183594 332.6875 L 82.953125 332.6875 Z M 53.914062 284.351562 L 71.339844 277.382812 L 71.339844 332.6875 L 53.914062 332.6875 Z M 146.839844 338.496094 L 146.839844 329.417969 C 155.75 333.128906 158.457031 336.808594 158.457031 338.496094 C 158.457031 344.410156 135.902344 355.921875 94.570312 355.921875 C 53.234375 355.921875 30.683594 344.410156 30.683594 338.496094 C 30.683594 336.808594 33.390625 333.128906 42.300781 329.417969 L 42.300781 338.496094 C 42.300781 338.878906 42.335938 339.257812 42.410156 339.628906 C 42.484375 340.003906 42.597656 340.367188 42.742188 340.71875 C 42.886719 341.070312 43.066406 341.40625 43.277344 341.722656 C 43.492188 342.039062 43.730469 342.335938 44 342.605469 C 44.269531 342.875 44.5625 343.113281 44.882812 343.324219 C 45.199219 343.539062 45.53125 343.714844 45.886719 343.863281 C 46.238281 344.007812 46.601562 344.117188 46.976562 344.191406 C 47.347656 344.265625 47.726562 344.304688 48.109375 344.304688 L 141.03125 344.304688 C 141.414062 344.304688 141.792969 344.265625 142.164062 344.191406 C 142.539062 344.117188 142.902344 344.007812 143.253906 343.863281 C 143.605469 343.714844 143.941406 343.539062 144.257812 343.324219 C 144.574219 343.113281 144.871094 342.875 145.140625 342.605469 C 145.410156 342.335938 145.648438 342.039062 145.859375 341.722656 C 146.074219 341.40625 146.25 341.070312 146.398438 340.71875 C 146.542969 340.367188 146.652344 340.003906 146.726562 339.628906 C 146.800781 339.257812 146.839844 338.878906 146.839844 338.496094 Z M 135.222656 284.351562 L 135.222656 332.6875 L 117.800781 332.6875 L 117.800781 277.382812 Z M 135.222656 284.351562 " fill-opacity="1" fill-rule="nonzero"/></g></svg>