<svg xmlns="http://www.w3.org/2000/svg" xmlns:xlink="http://www.w3.org/1999/xlink" width="500" zoomAndPan="magnify" viewBox="0 0 375 374.999991" height="500" preserveAspectRatio="xMidYMid meet" version="1.0"><defs><clipPath id="dae86937b7"><path d="M 8.585938 7.914062 L 366.335938 7.914062 L 366.335938 367.164062 L 8.585938 367.164062 Z M 8.585938 7.914062 " clip-rule="nonzero"/></clipPath></defs><rect x="-37.5" width="450" fill="#ffffff" y="-37.499999" height="449.999989" fill-opacity="1"/><rect x="-37.5" width="450" fill="#ffffff" y="-37.499999" height="449.999989" fill-opacity="1"/><g clip-path="url(#dae86937b7)"><path fill="#fabc05" d="M 8.707031 300.835938 L 8.707031 202.46875 C 8.707031 195.976562 14.019531 190.660156 20.511719 190.660156 L 147.140625 190.660156 C 153.632812 190.660156 158.941406 195.972656 158.941406 202.46875 L 158.941406 245.113281 L 216.050781 245.113281 L 216.050781 202.46875 C 216.050781 195.976562 221.367188 190.660156 227.859375 190.660156 L 354.488281 190.660156 C 360.980469 190.660156 366.285156 195.972656 366.285156 202.46875 L 366.285156 300.835938 C 366.285156 307.320312 360.984375 312.636719 354.488281 312.636719 L 266.046875 312.636719 L 266.046875 355.289062 C 266.046875 361.769531 260.746094 367.089844 254.25 367.089844 L 127.621094 367.089844 C 121.125 367.089844 115.8125 361.769531 115.8125 355.289062 L 115.8125 312.636719 L 20.511719 312.636719 C 14.019531 312.636719 8.707031 307.316406 8.707031 300.835938 Z M 147.40625 212.214844 L 147.40625 202.46875 C 147.40625 202.320312 147.289062 202.195312 147.140625 202.195312 L 20.511719 202.195312 C 20.363281 202.195312 20.238281 202.320312 20.238281 202.46875 L 20.238281 212.214844 Z M 147.40625 245.113281 L 147.40625 223.75 L 20.238281 223.75 L 20.238281 300.835938 C 20.238281 300.984375 20.363281 301.101562 20.511719 301.101562 L 115.8125 301.101562 L 115.8125 256.921875 C 115.8125 250.429688 121.128906 245.113281 127.621094 245.113281 Z M 254.25 256.648438 L 127.621094 256.648438 C 127.472656 256.648438 127.347656 256.769531 127.347656 256.921875 L 127.347656 266.664062 L 254.511719 266.664062 L 254.511719 256.921875 C 254.511719 256.773438 254.394531 256.648438 254.25 256.648438 Z M 227.585938 223.75 L 227.585938 245.113281 L 254.25 245.113281 C 260.742188 245.113281 266.046875 250.425781 266.046875 256.921875 L 266.046875 301.101562 L 354.488281 301.101562 C 354.632812 301.101562 354.753906 300.984375 354.753906 300.835938 L 354.753906 223.75 Z M 354.753906 212.214844 L 354.753906 202.46875 C 354.753906 202.320312 354.636719 202.195312 354.488281 202.195312 L 227.859375 202.195312 C 227.710938 202.195312 227.585938 202.320312 227.585938 202.46875 L 227.585938 212.214844 Z M 127.347656 278.199219 L 127.347656 355.289062 C 127.347656 355.4375 127.472656 355.554688 127.621094 355.554688 L 254.25 355.554688 C 254.394531 355.554688 254.511719 355.433594 254.511719 355.289062 L 254.511719 278.199219 Z M 251.773438 210.726562 C 249.832031 210.726562 248.246094 209.152344 248.246094 207.207031 C 248.246094 205.265625 249.832031 203.679688 251.773438 203.679688 C 253.714844 203.679688 255.292969 205.265625 255.292969 207.207031 C 255.292969 209.152344 253.714844 210.726562 251.773438 210.726562 Z M 265.304688 210.726562 C 263.363281 210.726562 261.777344 209.152344 261.777344 207.207031 C 261.777344 205.265625 263.363281 203.679688 265.304688 203.679688 C 267.246094 203.679688 268.832031 205.265625 268.832031 207.207031 C 268.832031 209.152344 267.246094 210.726562 265.304688 210.726562 Z M 238.234375 210.726562 C 236.292969 210.726562 234.707031 209.152344 234.707031 207.207031 C 234.707031 205.265625 236.292969 203.679688 238.234375 203.679688 C 240.179688 203.679688 241.761719 205.265625 241.761719 207.207031 C 241.761719 209.152344 240.179688 210.726562 238.234375 210.726562 Z M 44.425781 210.726562 C 42.484375 210.726562 40.898438 209.152344 40.898438 207.207031 C 40.898438 205.265625 42.484375 203.679688 44.425781 203.679688 C 46.371094 203.679688 47.945312 205.265625 47.945312 207.207031 C 47.945312 209.152344 46.371094 210.726562 44.425781 210.726562 Z M 30.890625 210.726562 C 28.945312 210.726562 27.363281 209.152344 27.363281 207.207031 C 27.363281 205.265625 28.945312 203.679688 30.890625 203.679688 C 32.832031 203.679688 34.414062 205.265625 34.414062 207.207031 C 34.414062 209.152344 32.832031 210.726562 30.890625 210.726562 Z M 57.957031 210.726562 C 56.015625 210.726562 54.429688 209.152344 54.429688 207.207031 C 54.429688 205.265625 56.015625 203.679688 57.957031 203.679688 C 59.898438 203.679688 61.484375 205.265625 61.484375 207.207031 C 61.484375 209.152344 59.898438 210.726562 57.957031 210.726562 Z M 165.066406 265.179688 C 163.125 265.179688 161.539062 263.601562 161.539062 261.660156 C 161.539062 259.71875 163.125 258.132812 165.066406 258.132812 C 167.007812 258.132812 168.59375 259.71875 168.59375 261.660156 C 168.59375 263.601562 167.007812 265.179688 165.066406 265.179688 Z M 137.996094 265.179688 C 136.054688 265.179688 134.46875 263.601562 134.46875 261.660156 C 134.46875 259.71875 136.054688 258.132812 137.996094 258.132812 C 139.9375 258.132812 141.523438 259.71875 141.523438 261.660156 C 141.523438 263.601562 139.9375 265.179688 137.996094 265.179688 Z M 151.535156 265.179688 C 149.59375 265.179688 148.007812 263.601562 148.007812 261.660156 C 148.007812 259.71875 149.59375 258.132812 151.535156 258.132812 C 153.476562 258.132812 155.054688 259.71875 155.054688 261.660156 C 155.054688 263.601562 153.476562 265.179688 151.535156 265.179688 Z M 134.636719 120.195312 C 116.453125 119.816406 101.703125 104.832031 101.703125 86.578125 C 101.703125 73.988281 108.714844 62.957031 119.019531 57.195312 C 119.554688 29.878906 141.863281 7.902344 169.308594 7.902344 C 181.640625 7.902344 192.925781 12.351562 201.671875 19.707031 C 205.546875 18.652344 209.625 18.078125 213.824219 18.078125 C 236.234375 18.078125 254.898438 34.125 258.972656 55.34375 C 271.351562 60.3125 280.15625 72.464844 280.15625 86.578125 C 280.15625 105.066406 265.027344 120.199219 246.519531 120.199219 L 240.355469 120.199219 L 240.355469 120.8125 C 240.355469 123.199219 238.886719 125.335938 236.660156 126.195312 C 236.660156 126.195312 231.574219 128.152344 231.574219 128.152344 C 230.738281 130.824219 229.660156 133.417969 228.359375 135.898438 L 230.570312 140.890625 C 231.535156 143.070312 231.058594 145.621094 229.375 147.304688 L 220.367188 156.3125 C 218.683594 158 216.132812 158.472656 213.953125 157.507812 C 213.953125 157.507812 208.96875 155.300781 208.96875 155.300781 C 206.488281 156.605469 203.890625 157.679688 201.210938 158.511719 L 199.257812 163.597656 C 198.398438 165.824219 196.257812 167.292969 193.875 167.292969 L 181.132812 167.292969 C 178.746094 167.292969 176.605469 165.824219 175.75 163.597656 C 175.75 163.597656 173.792969 158.511719 173.792969 158.511719 C 171.109375 157.679688 168.515625 156.601562 166.03125 155.296875 L 161.039062 157.507812 C 158.859375 158.472656 156.308594 158 154.625 156.3125 L 145.617188 147.304688 C 143.929688 145.617188 143.457031 143.066406 144.425781 140.882812 C 144.425781 140.882812 146.640625 135.902344 146.640625 135.902344 C 145.335938 133.425781 144.261719 130.828125 143.425781 128.152344 L 138.332031 126.195312 C 136.105469 125.335938 134.636719 123.199219 134.636719 120.8125 Z M 240.355469 108.667969 L 246.519531 108.667969 C 258.679688 108.667969 268.621094 98.726562 268.621094 86.578125 C 268.621094 76.410156 261.660156 67.796875 252.285156 65.246094 C 249.996094 64.625 248.320312 62.664062 248.0625 60.300781 C 246.195312 43.050781 231.574219 29.613281 213.824219 29.613281 C 209.75 29.613281 205.828125 30.332031 202.1875 31.628906 C 200.125 32.363281 197.824219 31.863281 196.246094 30.339844 C 189.273438 23.601562 179.78125 19.4375 169.308594 19.4375 C 147.898438 19.4375 130.542969 36.789062 130.542969 58.203125 C 130.542969 58.964844 130.570312 59.71875 130.609375 60.46875 C 130.738281 62.917969 129.308594 65.175781 127.039062 66.109375 C 118.976562 69.417969 113.238281 77.355469 113.238281 86.578125 C 113.238281 98.492188 122.800781 108.28125 134.636719 108.65625 L 134.636719 108.070312 C 134.636719 105.683594 136.105469 103.542969 138.332031 102.6875 C 138.332031 102.6875 143.421875 100.730469 143.421875 100.730469 C 144.257812 98.046875 145.335938 95.453125 146.640625 92.96875 L 144.425781 87.984375 C 143.457031 85.804688 143.929688 83.25 145.617188 81.5625 L 154.625 72.554688 C 156.3125 70.867188 158.863281 70.394531 161.046875 71.363281 C 161.046875 71.363281 166.03125 73.578125 166.03125 73.578125 C 168.511719 72.273438 171.105469 71.199219 173.78125 70.367188 L 175.75 65.265625 C 176.609375 63.042969 178.746094 61.574219 181.132812 61.574219 L 193.875 61.574219 C 196.261719 61.574219 198.402344 63.046875 199.257812 65.273438 L 201.214844 70.367188 C 203.886719 71.199219 206.480469 72.273438 208.960938 73.578125 L 213.945312 71.363281 C 216.128906 70.394531 218.679688 70.867188 220.367188 72.554688 L 229.375 81.5625 C 231.058594 83.25 231.535156 85.796875 230.570312 87.976562 C 230.570312 87.976562 228.359375 92.964844 228.359375 92.964844 C 229.667969 95.449219 230.746094 98.046875 231.578125 100.730469 L 236.660156 102.6875 C 238.886719 103.542969 240.355469 105.683594 240.355469 108.070312 Z M 191.492188 77.226562 C 191.492188 77.226562 189.910156 73.109375 189.910156 73.109375 C 189.910156 73.109375 185.089844 73.109375 185.089844 73.109375 L 183.496094 77.234375 C 182.8125 79.007812 181.300781 80.328125 179.449219 80.769531 C 175.890625 81.613281 172.496094 83.019531 169.375 84.941406 C 167.753906 85.941406 165.746094 86.078125 164.007812 85.304688 L 159.980469 83.511719 L 156.574219 86.917969 L 158.367188 90.945312 C 159.140625 92.683594 159.003906 94.691406 158.003906 96.3125 C 156.082031 99.4375 154.671875 102.835938 153.816406 106.414062 C 153.371094 108.257812 152.050781 109.769531 150.277344 110.449219 L 146.171875 112.03125 L 146.171875 116.851562 L 150.277344 118.429688 C 152.046875 119.113281 153.371094 120.621094 153.8125 122.464844 C 154.671875 126.027344 156.078125 129.433594 158 132.546875 C 159.003906 134.167969 159.140625 136.179688 158.367188 137.921875 C 158.367188 137.921875 156.574219 141.949219 156.574219 141.949219 C 156.574219 141.949219 159.984375 145.359375 159.984375 145.359375 L 164.015625 143.574219 C 165.746094 142.804688 167.746094 142.9375 169.363281 143.929688 C 172.488281 145.84375 175.882812 147.265625 179.460938 148.109375 C 181.3125 148.550781 182.828125 149.875 183.511719 151.652344 L 185.089844 155.757812 L 189.914062 155.757812 L 191.492188 151.652344 C 192.175781 149.875 193.691406 148.550781 195.542969 148.113281 C 199.097656 147.265625 202.503906 145.863281 205.609375 143.941406 C 207.226562 142.941406 209.238281 142.804688 210.976562 143.574219 C 210.976562 143.574219 215.007812 145.359375 215.007812 145.359375 C 215.007812 145.359375 218.421875 141.945312 218.421875 141.945312 L 216.636719 137.914062 C 215.867188 136.183594 216 134.183594 216.992188 132.566406 C 218.90625 129.441406 220.328125 126.042969 221.175781 122.480469 C 221.613281 120.628906 222.9375 119.113281 224.714844 118.429688 L 228.820312 116.851562 L 228.820312 112.03125 L 224.714844 110.449219 C 222.9375 109.765625 221.613281 108.25 221.171875 106.398438 C 220.328125 102.828125 218.921875 99.433594 217 96.3125 C 216.003906 94.695312 215.867188 92.691406 216.636719 90.953125 L 218.421875 86.921875 L 215.011719 83.511719 L 210.984375 85.304688 C 209.246094 86.078125 207.238281 85.941406 205.617188 84.941406 C 202.496094 83.019531 199.101562 81.613281 195.542969 80.769531 C 193.691406 80.328125 192.175781 79.003906 191.492188 77.226562 Z M 187.496094 86.441406 C 202.960938 86.441406 215.5 98.96875 215.5 114.433594 C 215.5 129.898438 202.960938 142.4375 187.496094 142.4375 C 172.03125 142.4375 159.503906 129.898438 159.503906 114.433594 C 159.503906 98.96875 172.03125 86.441406 187.496094 86.441406 Z M 187.496094 97.976562 C 178.402344 97.976562 171.039062 105.339844 171.039062 114.433594 C 171.039062 123.527344 178.402344 130.902344 187.496094 130.902344 C 196.589844 130.902344 203.964844 123.527344 203.964844 114.433594 C 203.964844 105.339844 196.589844 97.976562 187.496094 97.976562 Z M 174.195312 190.300781 L 182.5 175.914062 C 183.007812 175.03125 183.730469 174.316406 184.582031 173.820312 C 185.4375 173.316406 186.433594 173.03125 187.496094 173.03125 C 188.558594 173.03125 189.554688 173.316406 190.410156 173.820312 C 191.261719 174.316406 191.980469 175.03125 192.492188 175.914062 L 200.796875 190.300781 C 202.390625 193.058594 201.441406 196.585938 198.6875 198.179688 C 196.960938 199.175781 194.929688 199.175781 193.261719 198.363281 L 193.261719 234.167969 C 193.261719 237.351562 190.679688 239.9375 187.496094 239.9375 C 184.3125 239.9375 181.730469 237.351562 181.730469 234.167969 L 181.730469 198.363281 C 180.0625 199.175781 178.03125 199.175781 176.304688 198.179688 C 173.550781 196.585938 172.601562 193.058594 174.195312 190.300781 Z M 244.328125 134.613281 C 244.824219 133.765625 245.539062 133.042969 246.421875 132.535156 L 260.808594 124.230469 C 263.5625 122.636719 267.09375 123.582031 268.6875 126.339844 C 269.683594 128.066406 269.683594 130.097656 268.871094 131.761719 L 291.167969 131.761719 C 294.355469 131.761719 296.9375 134.34375 296.9375 137.53125 L 296.9375 174.800781 C 296.9375 177.984375 294.351562 180.566406 291.167969 180.566406 C 287.988281 180.566406 285.402344 177.984375 285.402344 174.800781 L 285.402344 143.296875 L 268.871094 143.296875 C 269.683594 144.964844 269.683594 146.996094 268.6875 148.71875 C 267.09375 151.476562 263.5625 152.421875 260.808594 150.832031 L 246.421875 142.523438 C 245.539062 142.015625 244.824219 141.292969 244.328125 140.445312 C 243.824219 139.589844 243.535156 138.59375 243.535156 137.53125 C 243.535156 136.464844 243.824219 135.46875 244.328125 134.613281 Z M 102.015625 131.761719 C 101.199219 130.097656 101.203125 128.066406 102.199219 126.339844 C 103.789062 123.582031 107.320312 122.636719 110.078125 124.230469 L 124.464844 132.535156 C 125.347656 133.042969 126.058594 133.765625 126.558594 134.613281 C 127.058594 135.46875 127.347656 136.464844 127.347656 137.53125 C 127.347656 138.59375 127.058594 139.589844 126.558594 140.445312 C 126.058594 141.292969 125.347656 142.015625 124.464844 142.523438 L 110.078125 150.832031 C 107.320312 152.421875 103.789062 151.476562 102.199219 148.71875 C 101.203125 146.996094 101.199219 144.964844 102.015625 143.296875 L 85.484375 143.296875 L 85.484375 174.800781 C 85.484375 177.984375 82.898438 180.566406 79.714844 180.566406 C 76.53125 180.566406 73.949219 177.984375 73.949219 174.800781 L 73.949219 137.53125 C 73.949219 134.34375 76.53125 131.761719 79.714844 131.761719 Z M 102.015625 131.761719 " fill-opacity="1" fill-rule="evenodd"/></g></svg>