<svg xmlns="http://www.w3.org/2000/svg" xmlns:xlink="http://www.w3.org/1999/xlink" width="500" zoomAndPan="magnify" viewBox="0 0 375 374.999991" height="500" preserveAspectRatio="xMidYMid meet" version="1.0"><defs><clipPath id="887e6f0f8d"><path d="M 5 42 L 329 42 L 329 364.5 L 5 364.5 Z M 5 42 " clip-rule="nonzero"/></clipPath></defs><path fill="#014ba0" d="M 255.550781 140.085938 L 267.484375 140.085938 C 261.515625 119.34375 245.320312 102.863281 224.578125 96.894531 L 224.578125 108.828125 C 238.785156 114.226562 250.152344 125.59375 255.550781 140.085938 Z M 255.550781 140.085938 " fill-opacity="1" fill-rule="nonzero"/><path fill="#014ba0" d="M 167.464844 259.425781 C 195.878906 259.425781 220.03125 240.105469 227.703125 213.964844 L 215.769531 213.964844 C 208.664062 233.855469 189.910156 248.0625 167.75 248.0625 C 139.617188 248.0625 116.601562 225.046875 116.601562 196.914062 C 116.601562 174.75 130.808594 155.714844 150.699219 148.894531 L 150.699219 136.960938 C 124.273438 144.347656 104.953125 168.5 104.953125 196.914062 C 104.953125 231.296875 133.082031 259.425781 167.464844 259.425781 Z M 167.464844 259.425781 " fill-opacity="1" fill-rule="nonzero"/><g clip-path="url(#887e6f0f8d)"><path fill="#014ba0" d="M 6.351562 249.199219 L 16.582031 276.476562 C 17.71875 279.316406 19.707031 281.589844 22.546875 282.726562 C 25.390625 283.863281 28.515625 284.148438 31.355469 283.011719 L 58.351562 272.496094 C 68.582031 287.273438 81.367188 299.777344 96.425781 309.152344 L 85.0625 337.851562 C 82.789062 343.535156 85.628906 350.355469 91.3125 352.628906 L 118.023438 363.425781 C 119.441406 363.992188 120.863281 364.277344 122.285156 364.277344 C 123.707031 364.277344 125.410156 363.992188 126.832031 363.425781 C 129.671875 362.289062 131.945312 360.015625 133.082031 357.171875 L 145.015625 327.90625 C 161.210938 330.746094 178.261719 330.464844 194.175781 327.054688 L 206.960938 356.035156 C 208.097656 358.878906 210.371094 360.867188 213.210938 362.003906 C 216.054688 363.140625 219.179688 363.140625 222.019531 361.71875 L 248.445312 350.070312 C 254.128906 347.511719 256.6875 340.691406 254.128906 335.011719 L 241.625 306.878906 C 254.414062 298.070312 266.0625 286.988281 274.871094 274.203125 L 301.867188 285.285156 C 304.707031 286.421875 307.832031 286.421875 310.675781 285.285156 C 313.515625 284.148438 315.789062 281.875 316.925781 279.03125 L 327.722656 252.039062 C 329.996094 246.070312 327.15625 239.535156 321.472656 237.261719 L 296.46875 227.035156 C 298.738281 217.089844 299.875 206.859375 299.875 196.628906 C 299.875 193.503906 297.320312 190.945312 294.195312 190.945312 C 293.625 190.945312 293.339844 190.945312 292.773438 191.230469 C 292.488281 191.230469 292.488281 191.230469 292.203125 191.230469 L 173.148438 191.230469 L 173.148438 69.332031 C 173.148438 66.207031 170.589844 63.648438 167.464844 63.648438 C 156.949219 63.648438 146.4375 64.785156 136.207031 67.34375 L 128.25 48.875 C 127.113281 46.03125 124.84375 44.042969 122 42.90625 C 119.160156 41.769531 116.035156 41.769531 113.191406 43.191406 L 86.480469 54.839844 C 80.800781 57.398438 78.242188 64.21875 80.800781 69.898438 L 89.324219 89.222656 C 75.117188 99.734375 62.898438 113.089844 53.804688 128.152344 L 32.777344 119.625 C 29.9375 118.488281 26.8125 118.488281 23.96875 119.625 C 21.128906 120.761719 18.855469 123.035156 17.71875 125.878906 L 6.921875 152.871094 C 4.648438 158.554688 7.488281 165.375 13.171875 167.648438 L 36.1875 177.023438 C 35.335938 183.558594 34.765625 190.09375 34.765625 196.628906 C 34.765625 206.007812 35.621094 215.667969 37.609375 224.761719 L 12.605469 234.421875 C 6.921875 236.980469 4.078125 243.515625 6.351562 249.199219 Z M 46.703125 233.855469 C 49.257812 232.71875 50.964844 229.875 50.109375 227.035156 C 47.554688 217.371094 46.417969 207.144531 46.417969 196.914062 C 46.417969 189.527344 46.984375 182.136719 48.40625 174.75 C 48.972656 172.195312 47.554688 169.351562 44.996094 168.5 L 17.71875 157.417969 L 28.515625 130.421875 L 54.089844 140.9375 C 56.644531 142.074219 59.773438 140.9375 61.191406 138.378906 C 70.285156 121.613281 83.640625 106.839844 99.550781 96.042969 C 101.824219 94.621094 102.679688 91.496094 101.542969 88.9375 L 91.3125 65.355469 L 117.738281 53.703125 L 127.683594 76.4375 C 128.820312 78.992188 131.660156 80.414062 134.503906 79.5625 C 143.3125 77.003906 152.402344 75.582031 161.78125 75.300781 L 161.78125 196.914062 C 161.78125 200.039062 164.339844 202.597656 167.464844 202.597656 L 288.511719 202.597656 C 288.226562 211.691406 286.804688 220.5 284.53125 229.023438 C 283.679688 231.863281 285.101562 234.707031 287.941406 235.84375 L 317.492188 248.0625 L 306.695312 275.054688 L 275.441406 262.269531 C 272.882812 261.132812 270.042969 262.269531 268.621094 264.257812 C 259.242188 278.464844 246.457031 290.96875 231.964844 300.058594 C 229.691406 301.480469 228.554688 304.605469 229.691406 307.164062 L 243.898438 339.839844 L 217.472656 351.492188 L 202.984375 318.246094 C 201.847656 315.6875 199.003906 314.265625 196.445312 315.121094 C 179.113281 319.382812 160.359375 319.667969 142.742188 315.972656 C 139.902344 315.402344 137.34375 316.824219 136.207031 319.382812 L 122.285156 353.195312 L 95.574219 342.113281 L 108.929688 309.152344 C 110.066406 306.59375 108.929688 303.46875 106.65625 302.050781 C 90.175781 292.386719 75.96875 278.75 65.738281 262.550781 C 64.320312 260.277344 61.476562 259.425781 58.917969 260.277344 L 27.664062 272.214844 L 16.867188 245.21875 Z M 46.703125 233.855469 " fill-opacity="1" fill-rule="nonzero"/></g><path fill="#014ba0" d="M 207.246094 162.816406 L 332.269531 162.816406 C 332.839844 162.816406 333.121094 162.816406 333.691406 162.53125 C 333.972656 162.53125 333.972656 162.53125 334.257812 162.53125 C 337.382812 162.53125 339.941406 159.976562 339.941406 156.847656 C 339.941406 151.167969 339.65625 145.199219 338.804688 139.515625 L 362.105469 130.421875 C 368.070312 128.152344 370.914062 121.613281 368.640625 115.648438 L 358.128906 88.371094 C 356.992188 85.527344 355 83.253906 352.160156 82.117188 C 349.320312 80.980469 346.191406 80.699219 343.351562 81.835938 L 322.324219 90.074219 C 312.378906 72.742188 298.457031 57.683594 281.976562 46.316406 L 289.933594 26.710938 C 292.203125 21.027344 289.363281 14.207031 283.679688 11.933594 L 256.96875 1.136719 C 254.128906 0 251.003906 0 248.160156 1.136719 C 245.320312 2.273438 243.046875 4.546875 241.910156 7.386719 L 234.523438 25.859375 C 225.714844 24.152344 216.621094 23.015625 207.527344 23.015625 C 204.402344 23.015625 201.847656 25.574219 201.847656 28.699219 L 201.847656 157.132812 C 201.5625 160.257812 204.117188 162.816406 207.246094 162.816406 Z M 236.226562 38.644531 C 239.070312 39.210938 241.910156 37.792969 242.761719 35.234375 L 252.425781 12.21875 L 279.132812 23.300781 L 269.472656 47.167969 C 268.335938 49.726562 269.472656 52.566406 271.746094 53.988281 C 289.648438 65.355469 304.421875 81.265625 314.367188 100.304688 C 315.789062 102.863281 318.628906 103.996094 321.472656 102.863281 L 347.328125 92.917969 L 357.84375 120.195312 L 330.28125 130.707031 C 327.722656 131.558594 326.300781 134.402344 326.585938 136.960938 C 327.4375 141.789062 327.722656 146.335938 328.007812 151.449219 L 212.925781 151.449219 L 212.925781 35.234375 C 220.882812 35.800781 228.839844 36.9375 236.226562 38.644531 Z M 236.226562 38.644531 " fill-opacity="1" fill-rule="nonzero"/></svg>