<svg xmlns="http://www.w3.org/2000/svg" xmlns:xlink="http://www.w3.org/1999/xlink" width="500" zoomAndPan="magnify" viewBox="0 0 375 374.999991" height="500" preserveAspectRatio="xMidYMid meet" version="1.0"><defs><clipPath id="e00213e307"><path d="M 36 33 L 366.292969 33 L 366.292969 366 L 36 366 Z M 36 33 " clip-rule="nonzero"/></clipPath></defs><path fill="#b10005" d="M 143.570312 122.328125 C 137.042969 122.328125 131.753906 127.621094 131.753906 134.144531 C 131.753906 140.671875 137.042969 145.960938 143.570312 145.960938 C 150.097656 145.960938 155.386719 140.671875 155.386719 134.144531 C 155.386719 127.621094 150.097656 122.328125 143.570312 122.328125 Z M 143.570312 136.542969 C 142.246094 136.542969 141.175781 135.46875 141.175781 134.144531 C 141.175781 132.820312 142.246094 131.746094 143.570312 131.746094 C 144.894531 131.746094 145.96875 132.820312 145.96875 134.144531 C 145.96875 135.46875 144.894531 136.542969 143.570312 136.542969 Z M 143.570312 136.542969 " fill-opacity="1" fill-rule="nonzero"/><path fill="#b10005" d="M 169.699219 122.328125 C 163.171875 122.328125 157.882812 127.621094 157.882812 134.144531 C 157.882812 140.671875 163.171875 145.960938 169.699219 145.960938 C 176.222656 145.960938 181.511719 140.671875 181.511719 134.144531 C 181.511719 127.621094 176.222656 122.328125 169.699219 122.328125 Z M 169.699219 136.542969 C 168.375 136.542969 167.300781 135.46875 167.300781 134.144531 C 167.300781 132.820312 168.375 131.746094 169.699219 131.746094 C 171.019531 131.746094 172.09375 132.820312 172.09375 134.144531 C 172.09375 135.46875 171.019531 136.542969 169.699219 136.542969 Z M 169.699219 136.542969 " fill-opacity="1" fill-rule="nonzero"/><path fill="#b10005" d="M 195.824219 122.328125 C 189.296875 122.328125 184.007812 127.621094 184.007812 134.144531 C 184.007812 140.671875 189.296875 145.960938 195.824219 145.960938 C 202.351562 145.960938 207.640625 140.671875 207.640625 134.144531 C 207.640625 127.621094 202.351562 122.328125 195.824219 122.328125 Z M 195.824219 136.542969 C 194.5 136.542969 193.425781 135.46875 193.425781 134.144531 C 193.425781 132.820312 194.5 131.746094 195.824219 131.746094 C 197.148438 131.746094 198.222656 132.820312 198.222656 134.144531 C 198.222656 135.46875 197.148438 136.542969 195.824219 136.542969 Z M 195.824219 136.542969 " fill-opacity="1" fill-rule="nonzero"/><path fill="#b10005" d="M 212.953125 224.972656 C 199.824219 224.972656 189.179688 235.613281 189.179688 248.742188 C 189.179688 261.871094 199.820312 272.515625 212.953125 272.515625 C 226.082031 272.515625 236.722656 261.871094 236.722656 248.742188 C 236.722656 235.613281 226.082031 224.972656 212.953125 224.972656 Z M 212.953125 263.097656 C 205.027344 263.097656 198.597656 256.675781 198.597656 248.742188 C 198.597656 240.816406 205.027344 234.390625 212.953125 234.390625 C 220.878906 234.390625 227.304688 240.816406 227.304688 248.742188 C 227.304688 256.675781 220.878906 263.097656 212.953125 263.097656 Z M 212.953125 263.097656 " fill-opacity="1" fill-rule="nonzero"/><path fill="#b10005" d="M 60.917969 311.292969 C 62.746094 313.148438 65.726562 313.164062 67.578125 311.339844 L 80.460938 298.628906 C 82.3125 296.800781 82.332031 293.820312 80.503906 291.96875 L 67.792969 279.085938 C 65.96875 277.234375 62.984375 277.214844 61.136719 279.042969 C 59.285156 280.863281 59.265625 283.851562 61.09375 285.703125 L 70.492188 295.226562 L 60.964844 304.632812 C 59.109375 306.460938 59.089844 309.441406 60.917969 311.292969 Z M 60.917969 311.292969 " fill-opacity="1" fill-rule="nonzero"/><path fill="#b10005" d="M 89.785156 299.808594 L 117.296875 299.808594 C 119.902344 299.808594 122.007812 297.707031 122.007812 295.101562 C 122.007812 292.503906 119.902344 290.390625 117.296875 290.390625 L 89.785156 290.390625 C 87.183594 290.390625 85.078125 292.503906 85.078125 295.101562 C 85.078125 297.707031 87.183594 299.808594 89.785156 299.808594 Z M 89.785156 299.808594 " fill-opacity="1" fill-rule="nonzero"/><path fill="#b10005" d="M 275.972656 148.734375 C 277.785156 150.597656 280.765625 150.640625 282.632812 148.828125 C 284.5 147.015625 284.542969 144.035156 282.730469 142.167969 L 275.023438 134.242188 L 282.953125 126.539062 C 284.820312 124.726562 284.863281 121.746094 283.050781 119.878906 C 281.234375 118.015625 278.253906 117.96875 276.390625 119.78125 L 265.082031 130.765625 C 263.21875 132.582031 263.175781 135.5625 264.988281 137.425781 Z M 275.972656 148.734375 " fill-opacity="1" fill-rule="nonzero"/><path fill="#b10005" d="M 326.320312 134.402344 L 318.617188 142.328125 C 316.808594 144.195312 316.851562 147.175781 318.714844 148.988281 C 320.582031 150.800781 323.5625 150.757812 325.375 148.894531 L 336.363281 137.585938 C 338.171875 135.722656 338.128906 132.742188 336.261719 130.925781 L 324.957031 119.941406 C 323.089844 118.132812 320.109375 118.175781 318.296875 120.039062 C 316.484375 121.90625 316.53125 124.886719 318.394531 126.699219 Z M 326.320312 134.402344 " fill-opacity="1" fill-rule="nonzero"/><path fill="#b10005" d="M 293.707031 152.640625 C 296.140625 153.558594 298.859375 152.332031 299.769531 149.898438 L 310.390625 121.710938 C 311.304688 119.277344 310.074219 116.566406 307.640625 115.644531 C 305.207031 114.726562 302.492188 115.957031 301.574219 118.390625 L 290.960938 146.578125 C 290.042969 149.011719 291.269531 151.726562 293.707031 152.640625 Z M 293.707031 152.640625 " fill-opacity="1" fill-rule="nonzero"/><g clip-path="url(#e00213e307)"><path fill="#b10005" d="M 347.667969 41.457031 C 337.0625 41.457031 328.46875 50.054688 328.46875 60.660156 C 328.46875 62.441406 328.789062 64.136719 329.246094 65.773438 L 321.753906 69.726562 C 320.210938 70.542969 319.238281 72.148438 319.238281 73.890625 L 319.238281 92.359375 L 306.25 92.359375 L 306.25 71.183594 C 314.566406 69.074219 320.742188 61.601562 320.742188 52.632812 C 320.742188 42.027344 312.148438 33.425781 301.539062 33.425781 C 290.925781 33.425781 282.335938 42.027344 282.335938 52.632812 C 282.335938 61.605469 288.515625 69.078125 296.832031 71.1875 L 296.832031 92.359375 L 282.105469 92.359375 L 282.105469 73.890625 C 282.105469 72.140625 281.140625 70.542969 279.597656 69.726562 L 272.105469 65.773438 C 272.558594 64.136719 272.882812 62.445312 272.882812 60.660156 C 272.882812 50.054688 264.28125 41.457031 253.675781 41.457031 C 243.070312 41.457031 234.472656 50.054688 234.472656 60.660156 C 234.472656 71.265625 243.070312 79.859375 253.675781 79.859375 C 259.101562 79.859375 263.980469 77.59375 267.472656 73.976562 L 272.6875 76.730469 L 272.6875 92.359375 L 258.457031 92.359375 C 253.257812 92.359375 249.039062 96.574219 249.039062 101.777344 L 249.039062 109.019531 L 126.714844 109.019531 C 118.914062 109.019531 112.589844 115.34375 112.589844 123.148438 L 112.589844 224.972656 L 59.273438 224.972656 C 56.738281 224.972656 54.300781 225.996094 52.53125 227.816406 L 39.199219 241.492188 C 37.484375 243.246094 36.523438 245.605469 36.523438 248.066406 L 36.523438 355.988281 C 36.523438 361.191406 40.746094 365.40625 45.941406 365.40625 L 131.753906 365.40625 C 136.957031 365.40625 141.171875 361.191406 141.171875 355.988281 L 141.171875 256.085938 L 161.570312 256.085938 C 161.191406 263.9375 166.726562 271.988281 176.402344 272.210938 C 180.011719 272.292969 182.660156 275.617188 181.941406 279.15625 C 178.78125 294.628906 198.382812 304.066406 208.511719 291.949219 C 210.824219 289.183594 215.082031 289.183594 217.394531 291.949219 C 227.523438 304.066406 247.121094 294.628906 243.960938 279.15625 C 243.242188 275.617188 245.894531 272.292969 249.5 272.210938 C 259.175781 271.988281 264.710938 263.9375 264.332031 256.085938 L 299.1875 256.085938 C 306.992188 256.085938 313.316406 249.761719 313.316406 241.957031 L 313.316406 175.933594 L 342.890625 175.933594 C 348.09375 175.933594 352.308594 171.714844 352.308594 166.515625 L 352.308594 101.777344 C 352.308594 96.574219 348.09375 92.359375 342.890625 92.359375 L 328.65625 92.359375 L 328.65625 76.730469 L 333.878906 73.976562 C 337.367188 77.59375 342.246094 79.859375 347.667969 79.859375 C 358.277344 79.859375 366.871094 71.265625 366.871094 60.660156 C 366.871094 50.054688 358.277344 41.457031 347.667969 41.457031 Z M 253.675781 70.441406 C 248.277344 70.441406 243.890625 66.0625 243.890625 60.660156 C 243.890625 55.253906 248.277344 50.875 253.675781 50.875 C 259.082031 50.875 263.464844 55.253906 263.464844 60.660156 C 263.464844 66.0625 259.082031 70.441406 253.675781 70.441406 Z M 291.757812 52.632812 C 291.757812 47.230469 296.136719 42.847656 301.539062 42.847656 C 306.945312 42.847656 311.324219 47.230469 311.324219 52.632812 C 311.324219 58.039062 306.945312 62.417969 301.539062 62.417969 C 296.136719 62.417969 291.757812 58.039062 291.757812 52.632812 Z M 122.007812 123.148438 C 122.007812 120.546875 124.117188 118.4375 126.714844 118.4375 L 249.039062 118.4375 L 249.039062 150.296875 L 122.007812 150.296875 Z M 131.753906 355.988281 L 45.941406 355.988281 L 45.941406 248.066406 L 59.273438 234.390625 L 131.753906 234.390625 Z M 249.285156 262.796875 C 239.808594 263.011719 232.839844 271.753906 234.734375 281.039062 C 235.9375 286.929688 228.472656 290.523438 224.621094 285.910156 C 218.542969 278.636719 207.363281 278.636719 201.28125 285.910156 C 197.425781 290.523438 189.964844 286.929688 191.167969 281.039062 C 193.066406 271.753906 186.09375 263.011719 176.621094 262.796875 C 170.605469 262.65625 168.765625 254.582031 174.121094 251.851562 C 182.5625 247.542969 185.050781 236.644531 179.3125 229.097656 C 175.671875 224.3125 180.839844 217.835938 186.3125 220.324219 C 194.945312 224.238281 205.015625 219.386719 207.339844 210.195312 C 208.8125 204.367188 217.089844 204.367188 218.566406 210.195312 C 220.886719 219.386719 230.960938 224.238281 239.59375 220.324219 C 245.0625 217.835938 250.230469 224.3125 246.589844 229.097656 C 240.855469 236.644531 243.339844 247.542969 251.785156 251.851562 C 257.136719 254.582031 255.292969 262.65625 249.285156 262.796875 Z M 303.898438 241.957031 C 303.898438 244.558594 301.785156 246.667969 299.1875 246.667969 L 260.386719 246.667969 C 259.214844 245.433594 257.785156 244.339844 256.066406 243.460938 C 252.847656 241.820312 251.902344 237.671875 254.085938 234.800781 C 263.648438 222.230469 250.085938 205.21875 235.703125 211.742188 C 232.414062 213.230469 228.582031 211.382812 227.695312 207.886719 C 223.832031 192.574219 202.074219 192.574219 198.207031 207.886719 C 197.320312 211.382812 193.488281 213.230469 190.203125 211.742188 C 175.820312 205.21875 162.257812 222.230469 171.816406 234.800781 C 174 237.671875 173.054688 241.820312 169.839844 243.460938 C 168.117188 244.339844 166.6875 245.433594 165.519531 246.667969 L 141.171875 246.667969 L 141.171875 234.390625 C 141.171875 229.191406 136.957031 224.972656 131.753906 224.972656 L 122.007812 224.972656 L 122.007812 159.714844 L 249.039062 159.714844 L 249.039062 166.515625 C 249.039062 171.714844 253.257812 175.933594 258.457031 175.933594 L 303.898438 175.933594 Z M 342.890625 101.777344 L 342.890625 166.515625 L 258.457031 166.515625 L 258.457031 101.777344 Z M 347.667969 70.441406 C 342.265625 70.441406 337.886719 66.0625 337.886719 60.660156 C 337.886719 55.253906 342.265625 50.875 347.667969 50.875 C 353.074219 50.875 357.453125 55.253906 357.453125 60.660156 C 357.453125 66.0625 353.074219 70.441406 347.667969 70.441406 Z M 347.667969 70.441406 " fill-opacity="1" fill-rule="nonzero"/></g><path fill="#b10005" d="M 110.503906 25.230469 L 102.765625 35.449219 C 101.191406 37.519531 101.601562 40.472656 103.675781 42.039062 C 105.75 43.613281 108.703125 43.203125 110.273438 41.132812 L 118.007812 30.917969 C 119.578125 28.847656 119.171875 25.886719 117.101562 24.320312 C 115.023438 22.746094 112.070312 23.15625 110.503906 25.230469 Z M 110.503906 25.230469 " fill-opacity="1" fill-rule="nonzero"/><path fill="#b10005" d="M 47.527344 115.324219 C 51.195312 118.234375 53.371094 121.839844 53.371094 125.355469 L 53.371094 132.871094 C 53.371094 138.707031 56.90625 143.707031 61.949219 145.863281 L 61.949219 147.417969 C 61.949219 153.863281 67.171875 159.089844 73.621094 159.089844 C 80.335938 159.089844 85.660156 153.433594 85.265625 146.730469 L 85.222656 146.027344 C 90.519531 143.988281 94.292969 138.886719 94.292969 132.871094 L 94.292969 125.355469 C 94.292969 121.839844 96.46875 118.234375 100.136719 115.324219 C 110.675781 106.957031 117.429688 93.710938 117.429688 78.882812 C 117.429688 53.878906 98.140625 33.183594 73.832031 33.183594 C 49.523438 33.183594 30.234375 53.878906 30.234375 78.882812 C 30.234375 93.710938 36.980469 106.957031 47.527344 115.324219 Z M 73.621094 149.671875 C 72.375 149.671875 71.367188 148.664062 71.367188 147.417969 L 71.367188 147 L 75.847656 147 L 75.867188 147.289062 C 75.941406 148.578125 74.914062 149.671875 73.621094 149.671875 Z M 84.875 132.871094 C 84.875 135.472656 82.765625 137.582031 80.164062 137.582031 L 67.496094 137.582031 C 64.894531 137.582031 62.789062 135.472656 62.789062 132.871094 L 62.789062 126.457031 L 84.875 126.457031 Z M 73.832031 42.601562 C 92.476562 42.601562 108.011719 58.609375 108.011719 78.882812 C 108.011719 90.828125 102.578125 101.363281 94.277344 107.953125 C 91.351562 110.273438 88.609375 113.363281 86.84375 117.039062 L 60.820312 117.039062 C 59.050781 113.363281 56.308594 110.273438 53.382812 107.953125 C 45.082031 101.363281 39.652344 90.828125 39.652344 78.882812 C 39.652344 58.609375 55.183594 42.601562 73.832031 42.601562 Z M 73.832031 42.601562 " fill-opacity="1" fill-rule="nonzero"/><path fill="#b10005" d="M 69.121094 13.824219 L 69.121094 26.636719 C 69.121094 29.234375 71.226562 31.34375 73.832031 31.34375 C 76.429688 31.34375 78.539062 29.234375 78.539062 26.636719 L 78.539062 13.824219 C 78.539062 11.21875 76.429688 9.113281 73.832031 9.113281 C 71.226562 9.113281 69.121094 11.21875 69.121094 13.824219 Z M 69.121094 13.824219 " fill-opacity="1" fill-rule="nonzero"/><path fill="#b10005" d="M 30.863281 23.925781 C 28.792969 25.492188 28.386719 28.449219 29.957031 30.523438 L 37.691406 40.734375 C 39.261719 42.808594 42.214844 43.21875 44.289062 41.644531 C 46.363281 40.078125 46.773438 37.125 45.199219 35.050781 L 37.460938 24.832031 C 35.894531 22.761719 32.941406 22.355469 30.863281 23.925781 Z M 30.863281 23.925781 " fill-opacity="1" fill-rule="nonzero"/><path fill="#b10005" d="M 125.097656 63.902344 C 122.515625 64.222656 120.679688 66.570312 120.996094 69.152344 C 121.308594 71.734375 123.660156 73.570312 126.242188 73.253906 L 138.960938 71.691406 C 141.539062 71.375 143.378906 69.023438 143.0625 66.445312 C 142.746094 63.863281 140.398438 62.027344 137.816406 62.34375 Z M 125.097656 63.902344 " fill-opacity="1" fill-rule="nonzero"/><path fill="#b10005" d="M 27.0625 63.125 L 14.34375 61.566406 C 11.761719 61.246094 9.414062 63.082031 9.09375 65.664062 C 8.777344 68.246094 10.613281 70.597656 13.195312 70.914062 L 25.914062 72.472656 C 28.496094 72.789062 30.84375 70.949219 31.160156 68.371094 C 31.480469 65.789062 29.644531 63.441406 27.0625 63.125 Z M 27.0625 63.125 " fill-opacity="1" fill-rule="nonzero"/><path fill="#b10005" d="M 338.003906 328.566406 L 326.425781 328.566406 C 326.003906 328.566406 325.605469 328.636719 325.199219 328.6875 C 325.957031 327.332031 326.425781 325.789062 326.425781 324.125 L 326.425781 312.542969 C 326.425781 307.339844 322.207031 303.125 317.007812 303.125 L 305.421875 303.125 C 304.929688 303.125 304.457031 303.199219 303.984375 303.269531 C 304.75 301.910156 305.226562 300.359375 305.226562 298.683594 L 305.226562 287.101562 C 305.226562 281.902344 301.003906 277.683594 295.804688 277.683594 L 284.222656 277.683594 C 279.019531 277.683594 274.804688 281.902344 274.804688 287.101562 L 274.804688 298.683594 C 274.804688 301.4375 276.003906 303.894531 277.886719 305.613281 C 276.003906 307.335938 274.804688 309.789062 274.804688 312.542969 L 274.804688 324.125 C 274.804688 326.878906 276.003906 329.332031 277.886719 331.054688 C 276.003906 332.777344 274.804688 335.230469 274.804688 337.984375 L 274.804688 349.566406 C 274.804688 354.773438 279.019531 358.988281 284.222656 358.988281 L 295.804688 358.988281 C 297.570312 358.988281 299.203125 358.472656 300.613281 357.625 C 302.027344 358.472656 303.660156 358.988281 305.421875 358.988281 L 317.007812 358.988281 C 318.730469 358.988281 320.324219 358.488281 321.714844 357.679688 C 323.105469 358.488281 324.699219 358.988281 326.425781 358.988281 L 338.003906 358.988281 C 343.210938 358.988281 347.425781 354.773438 347.425781 349.566406 L 347.425781 337.984375 C 347.425781 332.785156 343.210938 328.566406 338.003906 328.566406 Z M 295.804688 349.566406 L 284.222656 349.566406 L 284.222656 337.984375 L 295.804688 337.984375 Z M 295.804688 324.125 L 284.222656 324.125 L 284.222656 312.542969 L 295.804688 312.542969 Z M 295.804688 298.683594 L 284.222656 298.683594 L 284.222656 287.101562 L 295.804688 287.101562 Z M 317.007812 349.566406 L 305.421875 349.566406 L 305.421875 337.984375 L 317.007812 337.984375 Z M 317.007812 324.125 L 305.421875 324.125 L 305.421875 312.542969 L 317.007812 312.542969 Z M 338.003906 349.566406 L 326.425781 349.566406 L 326.425781 337.984375 L 338.003906 337.984375 Z M 338.003906 349.566406 " fill-opacity="1" fill-rule="nonzero"/></svg>