<svg xmlns="http://www.w3.org/2000/svg" xmlns:xlink="http://www.w3.org/1999/xlink" width="500" zoomAndPan="magnify" viewBox="0 0 375 187.499995" height="250" preserveAspectRatio="xMidYMid meet" version="1.0"><defs><g/><clipPath id="887aeb716c"><path d="M 0.5 73 L 2 73 L 2 86 L 0.5 86 Z M 0.5 73 " clip-rule="nonzero"/></clipPath><clipPath id="534485adb3"><path d="M 49 4.234375 L 55 4.234375 L 55 8 L 49 8 Z M 49 4.234375 " clip-rule="nonzero"/></clipPath><clipPath id="610237e214"><path d="M 48 4.234375 L 54 4.234375 L 54 7 L 48 7 Z M 48 4.234375 " clip-rule="nonzero"/></clipPath><clipPath id="4fdd42905c"><path d="M 137 127 L 138.878906 127 L 138.878906 130 L 137 130 Z M 137 127 " clip-rule="nonzero"/></clipPath></defs><path fill="#092552" d="M 30.917969 152.316406 C 29.316406 150.671875 26.519531 147.960938 25.367188 147.234375 C 25.304688 147.203125 25.210938 147.179688 25.140625 147.179688 C 25.160156 147.957031 32.433594 155 33.246094 155.027344 C 33.226562 154.746094 31.96875 153.398438 30.917969 152.316406 " fill-opacity="1" fill-rule="nonzero"/><path fill="#092552" d="M 40.359375 159.136719 C 38.679688 157.703125 35.632812 155.355469 34.128906 154.773438 C 34.019531 154.742188 33.851562 154.699219 33.792969 154.75 C 33.503906 155.011719 35.414062 156.8125 37.378906 158.328125 C 39.902344 160.269531 42.199219 161.683594 42.613281 161.542969 C 42.746094 161.238281 41.261719 159.90625 40.359375 159.136719 " fill-opacity="1" fill-rule="nonzero"/><path fill="#092552" d="M 8.929688 122.433594 C 8.890625 122.394531 8.824219 122.359375 8.773438 122.355469 C 8.761719 123.375 13.617188 132.664062 14.1875 132.710938 C 14.195312 132.296875 13.222656 130.265625 12.644531 129.089844 C 11.632812 127.035156 9.730469 123.414062 8.929688 122.433594 " fill-opacity="1" fill-rule="nonzero"/><path fill="#092552" d="M 14.972656 132.402344 C 14.875 132.351562 14.75 132.292969 14.6875 132.359375 C 14.054688 133 19.757812 141.429688 21.109375 141.851562 C 21.632812 142.015625 21.0625 140.613281 19.726562 138.449219 C 18.476562 136.421875 16.175781 133.207031 14.972656 132.402344 " fill-opacity="1" fill-rule="nonzero"/><path fill="#092552" d="M 28.253906 146.804688 C 26.871094 144.960938 24.210938 142.070312 22.613281 141.414062 C 22.480469 141.382812 22.296875 141.335938 22.195312 141.40625 C 21.097656 142.167969 27.523438 149.691406 29.511719 149.96875 C 30.242188 150.070312 29.726562 148.769531 28.253906 146.804688 " fill-opacity="1" fill-rule="nonzero"/><path fill="#092552" d="M 4.644531 111.597656 C 4.707031 111.800781 4.804688 112.09375 4.929688 112.453125 C 4.832031 112.160156 4.730469 111.867188 4.644531 111.59375 L 4.644531 111.597656 " fill-opacity="1" fill-rule="nonzero"/><path fill="#092552" d="M 11.71875 125.863281 C 12.484375 126.296875 12.347656 124.578125 11.40625 121.867188 C 10.597656 119.53125 8.90625 115.847656 7.695312 114.984375 C 7.621094 114.953125 7.519531 114.902344 7.445312 114.917969 C 6.179688 115.160156 9.976562 124.878906 11.71875 125.863281 " fill-opacity="1" fill-rule="nonzero"/><path fill="#092552" d="M 18.816406 135.402344 C 19.863281 135.746094 19.785156 134.105469 18.644531 131.582031 C 17.652344 129.398438 15.511719 126 13.839844 125.28125 C 13.699219 125.246094 13.5 125.203125 13.355469 125.292969 C 11.894531 126.210938 16.4375 134.617188 18.816406 135.402344 " fill-opacity="1" fill-rule="nonzero"/><path fill="#092552" d="M 27.15625 143.890625 C 28.675781 144.390625 28.792969 142.789062 27.417969 140.324219 C 26.117188 137.992188 23.550781 135.160156 21.667969 134.65625 C 21.488281 134.636719 21.238281 134.605469 21.046875 134.707031 C 19.25 135.65625 24.046875 142.863281 27.15625 143.890625 " fill-opacity="1" fill-rule="nonzero"/><path fill="#092552" d="M 3.417969 103.9375 C 3.378906 103.902344 3.320312 103.859375 3.269531 103.84375 C 2.507812 104.320312 5.496094 115.21875 6.46875 115.503906 C 6.851562 115.265625 6.144531 112.199219 5.917969 111.265625 C 5.367188 108.972656 4.195312 104.957031 3.417969 103.9375 " fill-opacity="1" fill-rule="nonzero"/><path fill="#092552" d="M 11.066406 118.191406 C 12.296875 118.871094 12.746094 116.910156 12.066406 113.816406 C 11.523438 111.355469 10.023438 107.558594 8.378906 106.8125 C 8.265625 106.789062 8.113281 106.757812 8.003906 106.78125 C 5.886719 107.246094 8.4375 116.734375 11.066406 118.191406 " fill-opacity="1" fill-rule="nonzero"/><path fill="#092552" d="M 17.992188 127.964844 C 19.75 128.855469 20.441406 126.925781 19.472656 123.835938 C 18.738281 121.492188 16.746094 117.921875 14.605469 117.3125 C 14.464844 117.300781 14.269531 117.28125 14.128906 117.3125 C 11.621094 117.90625 14.65625 126.269531 17.992188 127.964844 " fill-opacity="1" fill-rule="nonzero"/><path fill="#092552" d="M 26.375 136.777344 C 28.6875 137.84375 29.65625 135.996094 28.40625 132.902344 C 27.523438 130.710938 25.148438 127.433594 22.632812 127 C 22.402344 126.992188 22.089844 126.984375 21.808594 127.117188 C 19.464844 128.226562 22.707031 135.089844 26.375 136.777344 " fill-opacity="1" fill-rule="nonzero"/><path fill="#092552" d="M 5.675781 107.464844 C 6.542969 108.238281 6.941406 106.304688 6.558594 103.152344 C 6.261719 100.6875 5.320312 96.828125 4.167969 95.96875 C 4.089844 95.9375 3.980469 95.894531 3.898438 95.910156 C 2.332031 96.191406 3.808594 105.800781 5.675781 107.464844 " fill-opacity="1" fill-rule="nonzero"/><path fill="#092552" d="M 14.636719 105.121094 C 14.367188 102.640625 13.054688 98.875 10.988281 98.265625 C 10.839844 98.253906 10.636719 98.238281 10.496094 98.273438 C 7.9375 98.867188 9.011719 107.269531 11.929688 109.507812 C 13.71875 110.878906 15.03125 108.746094 14.636719 105.121094 " fill-opacity="1" fill-rule="nonzero"/><path fill="#092552" d="M 22.070312 115.171875 C 21.574219 112.695312 19.753906 109 17.25 108.546875 C 17.070312 108.542969 16.824219 108.542969 16.652344 108.585938 C 13.746094 109.335938 15.277344 117.070312 18.808594 119.476562 C 21.214844 121.121094 22.832031 118.988281 22.070312 115.171875 " fill-opacity="1" fill-rule="nonzero"/><path fill="#092552" d="M 30.988281 124.515625 C 30.324219 122.152344 28.113281 118.695312 25.265625 118.402344 C 25.066406 118.410156 24.792969 118.421875 24.597656 118.480469 C 21.410156 119.386719 23.5 126.722656 27.539062 128.800781 C 30.28125 130.214844 31.988281 128.089844 30.988281 124.515625 " fill-opacity="1" fill-rule="nonzero"/><path fill="#092552" d="M 6.882812 99.082031 C 8.117188 100.144531 9.15625 98.105469 9.109375 94.714844 C 9.070312 92.25 8.324219 88.453125 6.777344 87.726562 C 6.664062 87.703125 6.507812 87.675781 6.394531 87.699219 C 4.1875 88.15625 4.574219 97.09375 6.882812 99.082031 " fill-opacity="1" fill-rule="nonzero"/><path fill="#092552" d="M 18.902344 96.042969 C 18.855469 93.550781 17.714844 89.847656 15.335938 89.398438 C 15.246094 89.398438 15.125 89.386719 15.035156 89.394531 C 11.875 89.621094 11.519531 97.203125 14.53125 100.210938 C 16.695312 102.378906 18.984375 100.195312 18.902344 96.042969 " fill-opacity="1" fill-rule="nonzero"/><path fill="#092552" d="M 26.167969 105.800781 C 25.902344 103.300781 24.277344 99.644531 21.503906 99.34375 C 21.402344 99.351562 21.261719 99.347656 21.160156 99.359375 C 17.585938 99.785156 17.871094 107.429688 21.570312 110.261719 C 24.203125 112.28125 26.613281 109.945312 26.167969 105.800781 " fill-opacity="1" fill-rule="nonzero"/><path fill="#092552" d="M 34.96875 115.191406 C 34.507812 112.695312 32.460938 109.117188 29.351562 108.964844 C 29.234375 108.976562 29.082031 108.980469 28.96875 109 C 25.296875 109.578125 25.832031 116.675781 29.761719 119.542969 C 32.945312 121.867188 35.765625 119.503906 34.96875 115.191406 " fill-opacity="1" fill-rule="nonzero"/><path fill="#092552" d="M 9.628906 90.152344 C 11.195312 91.96875 13.09375 89.867188 13.390625 85.996094 C 13.574219 83.539062 12.980469 79.824219 11.070312 79.242188 C 10.996094 79.238281 10.902344 79.222656 10.828125 79.222656 C 8.179688 79.265625 7.28125 87.441406 9.628906 90.152344 " fill-opacity="1" fill-rule="nonzero"/><path fill="#092552" d="M 18.851562 90.976562 C 21.085938 93.503906 24.09375 91.222656 24.308594 86.839844 C 24.429688 84.359375 23.441406 80.738281 20.863281 80.441406 C 17.003906 80.609375 16.195312 87.96875 18.851562 90.976562 " fill-opacity="1" fill-rule="nonzero"/><path fill="#092552" d="M 31.417969 96.261719 C 31.324219 93.753906 29.855469 90.15625 26.886719 90.003906 C 22.546875 90.378906 22.367188 97.835938 25.664062 100.71875 C 28.40625 103.121094 31.582031 100.664062 31.417969 96.261719 " fill-opacity="1" fill-rule="nonzero"/><path fill="#092552" d="M 33.636719 109.796875 C 36.921875 112.628906 40.578125 110.113281 40.046875 105.386719 C 39.761719 102.871094 37.878906 99.320312 34.570312 99.308594 C 30.070312 99.867188 30.101562 106.753906 33.636719 109.796875 " fill-opacity="1" fill-rule="nonzero"/><path fill="#092552" d="M 18.933594 77.203125 C 19.289062 74.773438 18.820312 71.160156 16.675781 70.734375 C 13.253906 70.691406 11.855469 78.578125 14.058594 81.316406 C 15.78125 83.464844 18.335938 81.308594 18.933594 77.203125 " fill-opacity="1" fill-rule="nonzero"/><path fill="#092552" d="M 46.8125 151.691406 C 49.507812 152.371094 50.574219 150.671875 49.097656 148.050781 C 48.054688 146.199219 45.25 143.539062 42.292969 143.4375 C 41.890625 143.46875 41.472656 143.496094 41.066406 143.78125 C 38.78125 145.375 42.589844 150.621094 46.8125 151.691406 " fill-opacity="1" fill-rule="nonzero"/><path fill="#092552" d="M 51.730469 140.382812 C 50.894531 138.339844 48.234375 135.464844 44.941406 135.484375 C 44.636719 135.519531 44.21875 135.570312 43.824219 135.753906 C 40.820312 137.175781 43.1875 142.640625 47.550781 144.355469 C 50.910156 145.671875 53.0625 143.632812 51.730469 140.382812 " fill-opacity="1" fill-rule="nonzero"/><path fill="#092552" d="M 55.710938 131.714844 C 55.054688 129.484375 52.515625 126.410156 48.9375 126.558594 C 48.808594 126.578125 48.632812 126.597656 48.503906 126.625 C 44.566406 127.457031 45.289062 133.296875 49.640625 135.816406 C 53.5 138.042969 56.902344 135.746094 55.710938 131.714844 " fill-opacity="1" fill-rule="nonzero"/><path fill="#092552" d="M 54.054688 116.703125 C 53.914062 116.726562 53.726562 116.753906 53.589844 116.785156 C 49.335938 117.8125 49.578125 124.148438 53.96875 126.753906 C 57.832031 129.046875 61.726562 126.386719 60.800781 122.089844 C 60.285156 119.6875 57.847656 116.429688 54.054688 116.703125 " fill-opacity="1" fill-rule="nonzero"/><path fill="#092552" d="M 47.460938 157.867188 C 49.304688 158.109375 49.535156 156.714844 47.976562 154.691406 C 46.703125 153.035156 43.75 150.605469 41.171875 150.378906 C 40.828125 150.390625 40.46875 150.398438 40.175781 150.625 C 38.351562 152.035156 43.730469 157.382812 47.460938 157.867188 " fill-opacity="1" fill-rule="nonzero"/><path fill="#092552" d="M 49.476562 162.9375 C 50.507812 162.910156 50.109375 161.851562 48.488281 160.300781 C 47.070312 158.945312 43.976562 156.664062 41.699219 156.320312 C 41.414062 156.308594 41.121094 156.292969 40.941406 156.46875 C 39.742188 157.621094 46.839844 163 49.476562 162.9375 " fill-opacity="1" fill-rule="nonzero"/><path fill="#092552" d="M 37.023438 137.183594 C 40.5 138.894531 42.761719 136.640625 41.429688 132.804688 C 40.59375 130.402344 37.894531 126.957031 34.507812 126.816406 C 34.269531 126.835938 33.945312 126.867188 33.714844 126.9375 C 30.148438 128.003906 32.371094 134.902344 37.023438 137.183594 " fill-opacity="1" fill-rule="nonzero"/><path fill="#092552" d="M 36.398438 144.996094 C 39.132812 145.929688 40.265625 143.972656 38.773438 140.890625 C 37.707031 138.6875 34.84375 135.453125 31.820312 135.171875 C 31.542969 135.179688 31.164062 135.191406 30.832031 135.347656 C 27.957031 136.6875 31.855469 143.449219 36.398438 144.996094 " fill-opacity="1" fill-rule="nonzero"/><path fill="#092552" d="M 5.898438 84.230469 C 6.121094 81.59375 5.921875 77.484375 4.777344 76.605469 C 4.691406 76.574219 4.566406 76.53125 4.476562 76.546875 C 2.539062 76.882812 1.988281 87.167969 3.8125 88.914062 C 4.675781 89.742188 5.613281 87.640625 5.898438 84.230469 " fill-opacity="1" fill-rule="nonzero"/><path fill="#092552" d="M 2.058594 84.492188 C 2.007812 84.453125 1.933594 84.390625 1.871094 84.398438 C 0.707031 84.527344 1.234375 95.71875 2.464844 97.003906 C 2.984375 97.546875 3.328125 95.554688 3.261719 92.367188 C 3.210938 89.710938 2.800781 85.511719 2.058594 84.492188 " fill-opacity="1" fill-rule="nonzero"/><path fill="#092552" d="M 45.035156 123.738281 C 44.449219 121.355469 42.101562 118 38.710938 118.003906 C 38.464844 118.035156 38.136719 118.078125 37.902344 118.15625 C 34.324219 119.335938 35.402344 125.667969 39.597656 128.121094 C 43.082031 130.160156 46.03125 127.78125 45.035156 123.738281 " fill-opacity="1" fill-rule="nonzero"/><path fill="#092552" d="M 43.488281 118.414062 C 47.140625 121.015625 50.9375 118.371094 50.148438 113.777344 C 49.71875 111.265625 47.496094 107.792969 43.902344 107.925781 C 43.769531 107.945312 43.589844 107.964844 43.460938 107.996094 C 39.386719 108.886719 39.402344 115.507812 43.488281 118.414062 " fill-opacity="1" fill-rule="nonzero"/><path fill="#092552" d="M 36.917969 151.328125 C 38.671875 151.699219 38.867188 150.207031 37.363281 147.933594 C 36.144531 146.089844 33.347656 143.324219 30.941406 142.9375 C 30.621094 142.925781 30.292969 142.914062 30.019531 143.136719 C 28.378906 144.492188 33.535156 150.617188 36.917969 151.328125 " fill-opacity="1" fill-rule="nonzero"/><path fill="#092552" d="M 39.039062 156.933594 C 39.953125 156.96875 39.507812 155.769531 37.953125 154.015625 C 36.488281 152.363281 33.546875 149.808594 31.59375 149.3125 C 31.335938 149.28125 31.09375 149.25 30.953125 149.425781 C 30.023438 150.597656 36.75 156.839844 39.039062 156.933594 " fill-opacity="1" fill-rule="nonzero"/><g clip-path="url(#887aeb716c)"><path fill="#092552" d="M 1.804688 73.925781 C 1.792969 73.902344 1.78125 73.871094 1.769531 73.847656 C 1.746094 73.847656 1.714844 73.84375 1.691406 73.84375 C 1.082031 74.867188 0.496094 84.199219 0.96875 85.320312 C 0.996094 85.324219 1.027344 85.324219 1.050781 85.324219 C 1.316406 84.839844 1.539062 82.511719 1.648438 81.171875 C 1.832031 78.914062 2.035156 74.953125 1.804688 73.925781 " fill-opacity="1" fill-rule="nonzero"/></g><path fill="#092552" d="M 4.257812 73.441406 C 4.707031 71.066406 5.082031 67.332031 4.511719 66.464844 C 4.464844 66.433594 4.394531 66.382812 4.335938 66.390625 C 3.082031 66.53125 1.476562 76.507812 2.527344 77.628906 C 2.972656 78.105469 3.71875 76.304688 4.257812 73.441406 " fill-opacity="1" fill-rule="nonzero"/><path fill="#092552" d="M 8.496094 65.550781 C 9.164062 63.222656 9.707031 59.609375 8.824219 58.878906 C 8.785156 58.863281 8.734375 58.839844 8.695312 58.832031 C 6.96875 58.546875 4.414062 67.492188 5.621094 69.582031 C 6.246094 70.664062 7.5625 68.820312 8.496094 65.550781 " fill-opacity="1" fill-rule="nonzero"/><path fill="#092552" d="M 10.285156 61.511719 C 11.023438 62.863281 12.859375 60.976562 14.132812 57.550781 C 14.980469 55.277344 15.652344 51.8125 14.507812 51.21875 C 12.363281 50.839844 8.96875 59.109375 10.285156 61.511719 " fill-opacity="1" fill-rule="nonzero"/><path fill="#092552" d="M 9.976562 75.636719 C 10.402344 73.234375 10.386719 69.546875 9.003906 68.875 C 8.949219 68.867188 8.875 68.84375 8.820312 68.84375 C 6.585938 68.722656 4.945312 77.292969 6.730469 79.757812 C 7.765625 81.1875 9.34375 79.183594 9.976562 75.636719 " fill-opacity="1" fill-rule="nonzero"/><path fill="#092552" d="M 11.335938 71.183594 C 12.519531 72.925781 14.710938 70.878906 15.671875 67.125 C 16.277344 64.765625 16.375 61.203125 14.710938 60.679688 C 11.734375 60.441406 9.65625 68.710938 11.335938 71.183594 " fill-opacity="1" fill-rule="nonzero"/><path fill="#092552" d="M 30.996094 76.863281 C 31.242188 74.417969 30.378906 70.910156 27.675781 70.761719 C 23.875 71.109375 22.398438 77.886719 24.664062 80.910156 C 26.855469 83.828125 30.523438 81.484375 30.996094 76.863281 " fill-opacity="1" fill-rule="nonzero"/><path fill="#092552" d="M 37.945312 85.875 C 37.980469 83.386719 36.636719 79.878906 33.539062 79.863281 C 29.191406 80.414062 28.292969 87.25 31.242188 90.269531 C 33.992188 93.085938 37.875 90.539062 37.945312 85.875 " fill-opacity="1" fill-rule="nonzero"/><path fill="#092552" d="M 39.402344 99.375 C 42.628906 102.066406 46.691406 99.335938 46.414062 94.664062 C 46.261719 92.148438 44.503906 88.664062 41.0625 88.789062 C 36.324219 89.53125 35.90625 96.457031 39.402344 99.375 " fill-opacity="1" fill-rule="nonzero"/><path fill="#092552" d="M 50.019531 97.46875 C 45.300781 98.339844 44.972656 104.816406 48.457031 107.8125 C 52.0625 110.917969 56.734375 108.101562 56.148438 103.175781 C 55.847656 100.648438 53.746094 97.210938 50.019531 97.46875 " fill-opacity="1" fill-rule="nonzero"/><path fill="#092552" d="M 23.636719 61.578125 C 20.136719 61.753906 18.152344 68.929688 20.078125 71.738281 C 21.765625 74.203125 24.910156 71.984375 25.773438 67.707031 C 26.257812 65.324219 25.914062 61.847656 23.636719 61.578125 " fill-opacity="1" fill-rule="nonzero"/><path fill="#092552" d="M 17.253906 62.453125 C 18.476562 64.484375 21.183594 62.417969 22.421875 58.5 C 23.152344 56.199219 23.355469 52.789062 21.527344 52.414062 C 18.382812 52.40625 15.703125 59.878906 17.253906 62.453125 " fill-opacity="1" fill-rule="nonzero"/><path fill="#092552" d="M 26.378906 109.816406 L 26.339844 109.878906 L 26.351562 109.886719 Z M 26.378906 109.816406 " fill-opacity="1" fill-rule="nonzero"/><path fill="#092552" d="M 28.699219 119.296875 L 28.773438 119.359375 L 28.710938 119.296875 C 28.707031 119.296875 28.703125 119.296875 28.699219 119.296875 " fill-opacity="1" fill-rule="nonzero"/><path fill="#092552" d="M 58.117188 150.308594 C 61.585938 151.671875 63.988281 149.800781 62.625 146.796875 C 61.820312 145.023438 59.242188 142.589844 56.03125 142.734375 C 55.699219 142.785156 55.28125 142.847656 54.886719 143.050781 C 52.203125 144.40625 54.136719 148.75 58.117188 150.308594 " fill-opacity="1" fill-rule="nonzero"/><path fill="#092552" d="M 57.597656 157.308594 C 60.238281 157.820312 61.324219 156.238281 59.875 153.988281 C 58.9375 152.539062 56.339844 150.25 53.351562 150.285156 C 53.152344 150.296875 52.550781 150.335938 52.085938 150.675781 C 49.980469 152.191406 53.585938 156.53125 57.597656 157.308594 " fill-opacity="1" fill-rule="nonzero"/><path fill="#092552" d="M 44.550781 75.800781 C 44.679688 73.472656 43.507812 70.230469 40.507812 70.316406 C 36.847656 70.699219 35.050781 76.605469 37.636719 79.746094 C 40.101562 82.738281 44.300781 80.339844 44.550781 75.800781 " fill-opacity="1" fill-rule="nonzero"/><path fill="#092552" d="M 34.753906 61.707031 C 31.140625 62.179688 29.457031 68.308594 31.4375 71.035156 C 33.386719 73.71875 37.039062 71.613281 37.742188 67.398438 C 38.128906 65.070312 37.457031 61.765625 34.753906 61.707031 " fill-opacity="1" fill-rule="nonzero"/><path fill="#092552" d="M 3.347656 66.378906 C 3.757812 66.15625 4.480469 63.90625 4.875 62.582031 C 5.03125 62.058594 6.394531 57.4375 6.195312 56.3125 C 6.175781 56.28125 6.140625 56.238281 6.105469 56.222656 C 6.085938 56.230469 6.058594 56.238281 6.042969 56.25 C 5.109375 56.878906 2.640625 66.15625 3.347656 66.378906 " fill-opacity="1" fill-rule="nonzero"/><path fill="#092552" d="M 66.519531 138.425781 C 65.878906 136.609375 63.640625 134.007812 60.105469 134.28125 C 59.839844 134.328125 59.484375 134.394531 59.230469 134.484375 C 55.929688 135.660156 56.894531 140.429688 60.816406 142.335938 C 64.195312 143.976562 67.84375 142.167969 66.519531 138.425781 " fill-opacity="1" fill-rule="nonzero"/><path fill="#092552" d="M 52.257812 166.6875 C 52.75 166.609375 51.652344 165.671875 50.460938 164.824219 C 49.109375 163.863281 46.082031 161.925781 44.296875 161.488281 C 44.082031 161.457031 43.898438 161.433594 43.851562 161.550781 C 43.515625 162.398438 50.902344 166.90625 52.257812 166.6875 " fill-opacity="1" fill-rule="nonzero"/><path fill="#092552" d="M 58 162.914062 C 59.855469 163.042969 60.105469 161.898438 58.597656 160.195312 C 57.609375 159.078125 55 156.941406 52.210938 156.855469 C 51.835938 156.882812 51.484375 156.90625 51.191406 157.128906 C 49.484375 158.402344 54.511719 162.671875 58 162.914062 " fill-opacity="1" fill-rule="nonzero"/><path fill="#092552" d="M 27.058594 62.25 C 28.410156 64.246094 31.574219 62.71875 32.621094 58.699219 C 33.003906 57.226562 33.425781 53.363281 30.816406 53.175781 C 27.515625 53.488281 25.394531 59.800781 27.058594 62.25 " fill-opacity="1" fill-rule="nonzero"/><path fill="#092552" d="M 9.113281 55.277344 C 9.808594 53.566406 11.003906 50.121094 10.539062 49.308594 C 10.515625 49.292969 10.488281 49.265625 10.460938 49.257812 C 9.398438 48.890625 6.023438 57.339844 6.660156 58.773438 C 6.972656 59.472656 8.003906 58.003906 9.113281 55.277344 " fill-opacity="1" fill-rule="nonzero"/><path fill="#092552" d="M 47.929688 78.933594 C 43.464844 79.757812 43.058594 85.75 45.53125 88.328125 C 48.1875 91.097656 52.882812 89.148438 52.761719 84.230469 C 52.683594 81.003906 50.515625 78.625 47.929688 78.933594 " fill-opacity="1" fill-rule="nonzero"/><path fill="#092552" d="M 66.34375 111.359375 C 65.960938 109.160156 64.019531 106.023438 60.234375 106.398438 C 55.757812 107.105469 55.6875 113.296875 59.152344 115.871094 C 62.472656 118.339844 67.175781 116.136719 66.34375 111.359375 " fill-opacity="1" fill-rule="nonzero"/><path fill="#092552" d="M 64.808594 133.207031 C 68.464844 135.496094 72.507812 133.128906 71.566406 129.246094 C 70.910156 126.523438 67.96875 124.480469 65.277344 124.878906 C 65.140625 124.910156 64.957031 124.9375 64.820312 124.976562 C 61.113281 125.964844 61.105469 130.886719 64.808594 133.207031 " fill-opacity="1" fill-rule="nonzero"/><path fill="#092552" d="M 21.191406 43.898438 C 18.859375 43.75 15.679688 50.691406 16.5625 52.726562 C 17.203125 54.199219 19.3125 52.558594 20.742188 49.472656 C 21.617188 47.582031 22.511719 44.402344 21.191406 43.898438 " fill-opacity="1" fill-rule="nonzero"/><path fill="#092552" d="M 59.777344 167.414062 C 60.683594 167.335938 60.378906 166.492188 59.027344 165.363281 C 57.195312 163.824219 54.238281 162.417969 52.703125 162.355469 C 52.421875 162.359375 52.15625 162.367188 51.984375 162.527344 C 50.832031 163.613281 57.238281 167.628906 59.777344 167.414062 " fill-opacity="1" fill-rule="nonzero"/><path fill="#092552" d="M 28.773438 44.703125 C 26.15625 44.875 23.214844 50.59375 24.402344 53.207031 C 25.347656 55.289062 28.207031 53.351562 29.5 49.753906 C 30.203125 47.800781 30.441406 44.9375 28.773438 44.703125 " fill-opacity="1" fill-rule="nonzero"/><path fill="#092552" d="M 11.5625 51.171875 C 11.90625 52.085938 13.425781 50.460938 14.8125 47.695312 C 15.738281 45.847656 16.832031 42.855469 16.226562 42.296875 C 16.226562 42.296875 16.222656 42.292969 16.21875 42.289062 C 14.816406 41.746094 10.859375 49.300781 11.5625 51.171875 " fill-opacity="1" fill-rule="nonzero"/><path fill="#092552" d="M 56.78125 87.386719 C 52.773438 88.015625 51.625 93.871094 54.949219 96.742188 C 58.210938 99.554688 62.632812 96.894531 62.230469 92.363281 C 62.027344 90.101562 60.207031 87.0625 56.78125 87.386719 " fill-opacity="1" fill-rule="nonzero"/><path fill="#092552" d="M 73.433594 152.625 C 72.59375 150.601562 69.617188 148.949219 67.308594 149.230469 C 67.097656 149.265625 66.816406 149.320312 66.613281 149.390625 C 64.054688 150.304688 64.695312 153.753906 68.613281 155.414062 C 72.113281 156.898438 74.4375 155.046875 73.433594 152.625 " fill-opacity="1" fill-rule="nonzero"/><path fill="#092552" d="M 70.617188 159.265625 C 69.742188 157.933594 67.152344 156.152344 64.554688 156.273438 C 64.085938 156.320312 63.703125 156.453125 63.414062 156.660156 C 61.582031 157.992188 64.390625 161.234375 68.039062 162 C 70.84375 162.585938 71.742188 160.984375 70.617188 159.265625 " fill-opacity="1" fill-rule="nonzero"/><path fill="#092552" d="M 47.65625 60.839844 C 44.632812 61.238281 42.445312 66.371094 44.847656 69.316406 C 47.066406 72.035156 50.933594 69.902344 51.316406 65.75 C 51.515625 63.59375 50.351562 60.6875 47.65625 60.839844 " fill-opacity="1" fill-rule="nonzero"/><path fill="#092552" d="M 44.730469 57.597656 C 45.203125 54.898438 43.914062 52.582031 42.027344 52.738281 C 38.867188 53.269531 36.875 58.535156 38.847656 61.152344 C 40.734375 63.652344 44.117188 61.097656 44.730469 57.597656 " fill-opacity="1" fill-rule="nonzero"/><path fill="#092552" d="M 11.597656 45.480469 C 11.988281 44.753906 13.9375 41.089844 13.871094 40.171875 C 13.859375 40.15625 13.851562 40.132812 13.835938 40.121094 C 13.222656 39.667969 9.125 47.449219 9.449219 48.445312 C 9.574219 48.835938 10.398438 47.699219 11.597656 45.480469 " fill-opacity="1" fill-rule="nonzero"/><path fill="#092552" d="M 34.484375 52.703125 C 35.675781 54.78125 38.871094 53.199219 39.859375 49.273438 C 40.304688 47.492188 40.238281 44.828125 38.210938 44.789062 C 35.273438 45.183594 33.191406 50.453125 34.484375 52.703125 " fill-opacity="1" fill-rule="nonzero"/><path fill="#092552" d="M 54.960938 68.996094 C 51.425781 69.546875 50.003906 75.042969 52.726562 77.640625 C 55.367188 80.164062 59.46875 77.660156 59.371094 73.582031 C 59.328125 71.648438 58.089844 68.695312 54.960938 68.996094 " fill-opacity="1" fill-rule="nonzero"/><path fill="#092552" d="M 77.292969 144.53125 C 76.453125 142.359375 73.828125 140.878906 71.449219 141.230469 C 71.214844 141.277344 70.898438 141.339844 70.675781 141.421875 C 67.6875 142.496094 68.34375 146.378906 71.792969 148.023438 C 75.246094 149.667969 78.488281 147.613281 77.292969 144.53125 " fill-opacity="1" fill-rule="nonzero"/><path fill="#092552" d="M 69.242188 164.886719 C 67.773438 163.371094 65.140625 162.21875 63.375 162.3125 C 63.078125 162.34375 62.585938 162.398438 62.308594 162.6875 C 61.132812 163.929688 65.515625 167.035156 68.5625 167.121094 C 70.257812 167.167969 70.542969 166.226562 69.242188 164.886719 " fill-opacity="1" fill-rule="nonzero"/><path fill="#092552" d="M 28.589844 36.597656 C 26.648438 36.417969 23.035156 42.1875 23.757812 44.316406 C 24.265625 45.808594 26.503906 44.59375 28.1875 41.261719 C 28.933594 39.78125 29.980469 36.902344 28.589844 36.597656 " fill-opacity="1" fill-rule="nonzero"/><path fill="#092552" d="M 62.578125 170.816406 C 63.007812 170.730469 62.359375 170.15625 60.847656 169.289062 C 60.476562 169.074219 57.148438 167.1875 55.042969 166.886719 C 54.824219 166.875 54.613281 166.863281 54.542969 166.96875 C 54.066406 167.683594 61.199219 171.097656 62.578125 170.816406 " fill-opacity="1" fill-rule="nonzero"/><path fill="#092552" d="M 82.414062 135.847656 C 81.996094 134.148438 80.117188 131.789062 76.652344 132.242188 C 76.648438 132.242188 76.648438 132.242188 76.648438 132.242188 C 76.648438 132.246094 76.648438 132.246094 76.648438 132.246094 C 76.644531 132.246094 76.644531 132.246094 76.644531 132.246094 C 76.640625 132.246094 76.640625 132.246094 76.640625 132.246094 C 76.109375 132.367188 75.007812 132.621094 74.257812 133.632812 C 72.472656 136.046875 74.890625 140.667969 79.550781 140.050781 C 79.554688 140.050781 79.554688 140.050781 79.554688 140.050781 C 79.558594 140.050781 79.558594 140.050781 79.558594 140.050781 C 79.5625 140.050781 79.5625 140.050781 79.5625 140.050781 C 83.136719 139.226562 82.5 136.191406 82.414062 135.847656 " fill-opacity="1" fill-rule="nonzero"/><path fill="#092552" d="M 77.285156 119.152344 C 76.945312 117.203125 75.015625 114.28125 71.289062 114.734375 C 66.949219 115.75 66.972656 121.0625 70.359375 123.289062 C 73.832031 125.566406 77.972656 123.09375 77.285156 119.152344 " fill-opacity="1" fill-rule="nonzero"/><path fill="#092552" d="M 66.859375 95.761719 C 62.851562 96.5 62.007812 102.261719 65.53125 104.824219 C 68.90625 107.28125 73.152344 104.511719 72.519531 100.269531 C 72.148438 97.789062 70.039062 95.363281 66.859375 95.761719 " fill-opacity="1" fill-rule="nonzero"/><path fill="#092552" d="M 7.316406 52.214844 C 7.902344 50.8125 9.28125 47.457031 9.457031 46.621094 C 9.457031 46.601562 9.457031 46.574219 9.460938 46.550781 C 9.445312 46.550781 9.425781 46.550781 9.410156 46.550781 C 8.832031 47.265625 5.597656 54.925781 5.867188 55.398438 C 5.953125 55.277344 6.152344 55 7.316406 52.214844 " fill-opacity="1" fill-rule="nonzero"/><path fill="#092552" d="M 54.148438 168.320312 C 50.328125 166.339844 49.238281 165.863281 48.675781 165.65625 C 48.671875 165.65625 48.671875 165.65625 48.671875 165.65625 C 48.671875 165.65625 48.671875 165.65625 48.667969 165.65625 C 48.613281 165.640625 48.539062 165.617188 48.484375 165.609375 C 48.480469 165.621094 48.476562 165.640625 48.472656 165.652344 C 49.265625 166.40625 55.941406 169.632812 56.730469 169.753906 C 56.699219 169.6875 56.675781 169.632812 54.148438 168.320312 " fill-opacity="1" fill-rule="nonzero"/><path fill="#092552" d="M 17.808594 43.339844 C 18.089844 44.332031 19.644531 43.355469 21.429688 40.363281 C 21.53125 40.191406 23.933594 36.140625 22.894531 35.503906 C 21.113281 35.222656 17.359375 41.746094 17.808594 43.339844 " fill-opacity="1" fill-rule="nonzero"/><path fill="#092552" d="M 69.941406 171.03125 C 69.941406 171.03125 69.945312 171.03125 69.945312 171.03125 C 70.007812 171.027344 70.089844 171.027344 70.148438 171.019531 C 71.003906 170.921875 70.769531 170.296875 69.558594 169.429688 C 67.839844 168.203125 65.261719 167.21875 63.808594 167.234375 C 63.546875 167.253906 63.28125 167.269531 63.109375 167.410156 C 62.183594 168.175781 66.894531 170.972656 69.941406 171.03125 " fill-opacity="1" fill-rule="nonzero"/><path fill="#092552" d="M 36.308594 36.953125 C 36.015625 36.984375 35.574219 37.027344 34.832031 37.632812 C 32.164062 39.796875 30.664062 44.941406 33.183594 45.121094 C 33.183594 45.121094 33.183594 45.121094 33.1875 45.121094 C 33.1875 45.121094 33.191406 45.121094 33.191406 45.121094 C 35.273438 44.910156 36.636719 41.820312 36.785156 41.46875 C 37.703125 39.289062 37.730469 36.953125 36.308594 36.953125 " fill-opacity="1" fill-rule="nonzero"/><path fill="#092552" d="M 19.5625 33.730469 C 18.902344 33.574219 13.914062 40.179688 14.585938 41.535156 C 14.585938 41.535156 14.585938 41.535156 14.585938 41.539062 C 15.164062 41.871094 17.175781 38.816406 17.40625 38.464844 C 18.125 37.363281 19.925781 34.367188 19.628906 33.765625 C 19.609375 33.753906 19.585938 33.734375 19.5625 33.730469 " fill-opacity="1" fill-rule="nonzero"/><path fill="#092552" d="M 63.746094 77.0625 C 59.445312 78.070312 59.363281 83.453125 61.90625 85.605469 C 64.554688 87.84375 68.980469 85.824219 68.683594 81.535156 C 68.484375 78.628906 66.269531 76.621094 63.746094 77.0625 " fill-opacity="1" fill-rule="nonzero"/><path fill="#092552" d="M 73.738281 84.980469 C 70.167969 85.910156 69.136719 90.492188 71.929688 93.019531 C 75.144531 95.933594 79.300781 93.035156 78.972656 89.242188 C 78.792969 87.175781 76.875 84.542969 73.738281 84.980469 " fill-opacity="1" fill-rule="nonzero"/><path fill="#092552" d="M 83.488281 108.148438 C 83.121094 105.441406 80.367188 103.351562 77.8125 103.851562 C 74.148438 104.820312 73.273438 109.601562 76.304688 112.101562 C 79.878906 115.050781 84.015625 112.074219 83.488281 108.148438 " fill-opacity="1" fill-rule="nonzero"/><path fill="#092552" d="M 88.257812 125.976562 C 87.816406 123.628906 85.105469 121.863281 82.683594 122.34375 C 79.085938 123.285156 78.394531 127.539062 81.492188 129.6875 C 85.03125 132.144531 88.902344 129.390625 88.257812 125.976562 " fill-opacity="1" fill-rule="nonzero"/><path fill="#092552" d="M 25.101562 35.714844 C 25.277344 36.984375 27.335938 35.320312 28.898438 33.070312 C 30.019531 31.453125 31.160156 29.050781 30.386719 28.738281 C 28.742188 28.683594 24.839844 33.832031 25.101562 35.714844 " fill-opacity="1" fill-rule="nonzero"/><path fill="#092552" d="M 83.746094 157.480469 C 83.085938 155.847656 80.453125 154.539062 78.433594 154.835938 C 78.246094 154.875 77.992188 154.925781 77.8125 154.992188 C 75.671875 155.773438 75.960938 158.425781 79.058594 159.773438 C 82.226562 161.15625 84.59375 159.5625 83.746094 157.480469 " fill-opacity="1" fill-rule="nonzero"/><path fill="#092552" d="M 59.070312 170.347656 C 59.011719 170.339844 58.9375 170.328125 58.878906 170.328125 C 58.871094 170.34375 58.863281 170.363281 58.855469 170.378906 C 59.535156 171.042969 65.421875 173.101562 66.761719 173.308594 C 66.773438 173.296875 66.792969 173.28125 66.804688 173.269531 C 66.582031 173.125 65.796875 172.789062 64.476562 172.265625 C 64.0625 172.097656 60.386719 170.648438 59.070312 170.347656 " fill-opacity="1" fill-rule="nonzero"/><path fill="#092552" d="M 31.652344 36.234375 C 32.097656 37.617188 34.265625 36.175781 35.796875 33.488281 C 36.632812 32.023438 37.511719 29.625 36.320312 29.421875 C 34.378906 29.558594 31.0625 34.398438 31.652344 36.234375 " fill-opacity="1" fill-rule="nonzero"/><path fill="#092552" d="M 72.902344 173.832031 C 73.230469 173.644531 71.832031 172.96875 71.394531 172.769531 C 69.710938 171.988281 67.15625 171.117188 65.964844 171.066406 C 65.773438 171.070312 65.578125 171.070312 65.519531 171.171875 C 65.09375 171.867188 71.996094 174.355469 72.902344 173.832031 " fill-opacity="1" fill-rule="nonzero"/><path fill="#092552" d="M 54.691406 51.546875 C 51.707031 52.210938 50.230469 56.785156 52.261719 59.074219 C 54.238281 61.304688 57.695312 59.238281 57.957031 55.671875 C 58.132812 53.242188 56.574219 51.277344 54.691406 51.546875 " fill-opacity="1" fill-rule="nonzero"/><path fill="#092552" d="M 49.179688 44.007812 C 46.519531 44.539062 44.726562 48.898438 46.230469 51.183594 C 47.714844 53.433594 50.949219 51.570312 51.550781 48.117188 C 51.960938 45.777344 50.832031 43.820312 49.179688 44.007812 " fill-opacity="1" fill-rule="nonzero"/><path fill="#092552" d="M 78.1875 165.8125 C 80.800781 166.355469 81.839844 165.042969 80.851562 163.585938 C 79.910156 162.191406 77.40625 161.117188 75.597656 161.335938 C 75.257812 161.394531 74.933594 161.453125 74.601562 161.679688 C 73.011719 162.773438 75.089844 165.164062 78.1875 165.8125 " fill-opacity="1" fill-rule="nonzero"/><path fill="#092552" d="M 20.96875 34.375 C 21.085938 35.066406 22.46875 33.929688 24.125 31.78125 C 24.152344 31.746094 26.929688 28.128906 26.40625 27.546875 C 25.308594 27.246094 20.734375 32.988281 20.96875 34.375 " fill-opacity="1" fill-rule="nonzero"/><path fill="#092552" d="M 78.75 170.378906 C 80.226562 170.359375 80.496094 169.605469 79.394531 168.589844 C 78.519531 167.78125 76.453125 166.625 74.332031 166.746094 C 74.074219 166.773438 73.613281 166.851562 73.371094 167.089844 C 72.320312 168.140625 76.039062 170.414062 78.75 170.378906 " fill-opacity="1" fill-rule="nonzero"/><path fill="#092552" d="M 45.492188 36.65625 C 43.183594 36.886719 40.949219 41.507812 42.175781 43.527344 C 43.183594 45.1875 45.96875 43.785156 46.871094 40.539062 C 47.308594 38.957031 47.308594 36.617188 45.492188 36.65625 " fill-opacity="1" fill-rule="nonzero"/><path fill="#092552" d="M 61.898438 59.199219 C 58.789062 59.757812 57.523438 64.503906 59.878906 66.78125 C 62.023438 68.851562 65.941406 67.03125 65.832031 63.15625 C 65.785156 61.378906 64.695312 58.859375 61.898438 59.199219 " fill-opacity="1" fill-rule="nonzero"/><path fill="#092552" d="M 87.757812 149.996094 C 87.316406 148.753906 85.535156 146.925781 82.625 147.320312 C 82.417969 147.359375 82.105469 147.433594 81.796875 147.5625 C 79.351562 148.59375 79.828125 151.667969 82.628906 152.957031 C 85.59375 154.324219 88.660156 152.554688 87.757812 149.996094 " fill-opacity="1" fill-rule="nonzero"/><path fill="#092552" d="M 15.828125 36.125 C 17.003906 34.410156 18.449219 32.230469 18.644531 31.589844 C 18.636719 31.570312 18.625 31.542969 18.617188 31.519531 C 17.925781 31.757812 13.773438 38.007812 13.9375 38.558594 C 14.015625 38.53125 14.222656 38.460938 15.828125 36.125 " fill-opacity="1" fill-rule="nonzero"/><path fill="#092552" d="M 21.664062 29.910156 C 21.691406 29.875 24.527344 26.457031 24.53125 25.8125 C 24.523438 25.800781 24.511719 25.789062 24.503906 25.78125 C 23.699219 25.742188 18.851562 31.738281 19.261719 32.261719 C 19.617188 32.289062 20.917969 30.800781 21.664062 29.910156 " fill-opacity="1" fill-rule="nonzero"/><path fill="#092552" d="M 69.886719 173.839844 C 69.703125 173.828125 69.703125 173.828125 69.652344 173.875 C 70.089844 174.308594 76.308594 175.84375 76.882812 175.660156 C 76.804688 175.617188 76.679688 175.546875 74.921875 175.058594 C 72.390625 174.359375 70.699219 173.949219 69.886719 173.839844 " fill-opacity="1" fill-rule="nonzero"/><path fill="#092552" d="M 84.628906 92.84375 C 81.222656 93.636719 80.34375 98.226562 83.160156 100.519531 C 86.183594 102.984375 90.328125 100.542969 89.777344 96.621094 C 89.515625 94.734375 87.742188 92.3125 84.628906 92.84375 " fill-opacity="1" fill-rule="nonzero"/><path fill="#092552" d="M 90.28125 145.308594 C 90.28125 145.308594 90.285156 145.308594 90.285156 145.308594 C 90.289062 145.308594 90.289062 145.308594 90.289062 145.308594 C 90.289062 145.308594 90.289062 145.308594 90.292969 145.308594 C 90.292969 145.308594 90.292969 145.304688 90.292969 145.304688 C 90.296875 145.304688 90.296875 145.304688 90.296875 145.304688 C 90.296875 145.304688 90.296875 145.304688 90.300781 145.304688 C 93.480469 144.511719 92.980469 141.949219 92.914062 141.660156 C 92.582031 140.246094 90.976562 138.3125 87.910156 138.796875 C 86.699219 139.046875 86.050781 139.6875 85.773438 140.046875 C 84.015625 142.3125 86.457031 145.894531 90.277344 145.308594 C 90.28125 145.308594 90.28125 145.308594 90.28125 145.308594 " fill-opacity="1" fill-rule="nonzero"/><path fill="#092552" d="M 43.742188 29.46875 C 41.871094 29.601562 39.300781 33.78125 39.921875 35.679688 C 40.441406 37.265625 42.824219 36.140625 44.121094 33.109375 C 44.714844 31.726562 45.136719 29.511719 43.742188 29.46875 " fill-opacity="1" fill-rule="nonzero"/><path fill="#092552" d="M 28.425781 27.4375 C 28.402344 28.230469 29.953125 27.152344 31.746094 25.128906 C 32.667969 24.085938 34.425781 21.824219 33.976562 21.488281 C 32.824219 21.371094 28.46875 26.039062 28.425781 27.4375 " fill-opacity="1" fill-rule="nonzero"/><path fill="#092552" d="M 80.277344 173.609375 C 80.8125 173.449219 80.488281 172.964844 79.453125 172.378906 C 78.582031 171.882812 76.460938 170.960938 74.683594 171 C 74.683594 171 74.683594 171 74.679688 171 C 74.679688 171 74.675781 171.003906 74.675781 171.003906 C 74.675781 171.003906 74.671875 171.003906 74.671875 171.003906 C 74.460938 171.023438 74.105469 171.058594 73.988281 171.238281 C 73.390625 172.136719 78.621094 174.109375 80.277344 173.609375 " fill-opacity="1" fill-rule="nonzero"/><path fill="#092552" d="M 70.582031 66.796875 C 70.578125 66.796875 70.578125 66.800781 70.578125 66.800781 C 70.578125 66.800781 70.578125 66.800781 70.574219 66.800781 C 70.574219 66.800781 70.570312 66.800781 70.570312 66.800781 C 70.570312 66.800781 70.570312 66.800781 70.566406 66.800781 C 70.566406 66.800781 70.5625 66.800781 70.5625 66.800781 C 66.753906 67.828125 66.785156 72.667969 69.097656 74.4375 C 71.726562 76.445312 75.316406 74.109375 75.011719 70.589844 C 74.863281 68.894531 73.53125 66.363281 70.582031 66.796875 " fill-opacity="1" fill-rule="nonzero"/><path fill="#092552" d="M 65.703125 173.125 L 65.945312 173.195312 C 65.765625 173.140625 65.578125 173.085938 65.402344 173.03125 L 65.703125 173.125 " fill-opacity="1" fill-rule="nonzero"/><path fill="#092552" d="M 94.472656 115.234375 C 94.023438 112.832031 91.644531 111.246094 89.273438 111.769531 C 85.441406 112.847656 85.273438 117.425781 88.152344 119.289062 C 91.242188 121.285156 95.140625 118.785156 94.472656 115.234375 " fill-opacity="1" fill-rule="nonzero"/><path fill="#092552" d="M 33.167969 28.332031 C 33.363281 29.285156 35.191406 28.039062 36.859375 25.820312 C 37.652344 24.769531 39.027344 22.523438 38.230469 22.308594 C 36.96875 22.199219 32.832031 26.6875 33.167969 28.332031 " fill-opacity="1" fill-rule="nonzero"/><path fill="#092552" d="M 98.902344 132.355469 C 98.691406 130.542969 96.636719 128.835938 94.027344 129.28125 C 91.011719 130.117188 90.152344 133.433594 92.464844 135.292969 C 95.398438 137.648438 99.25 135.355469 98.902344 132.355469 " fill-opacity="1" fill-rule="nonzero"/><path fill="#092552" d="M 82.675781 175.8125 C 82.925781 175.671875 81.792969 175.261719 81.441406 175.140625 C 79.996094 174.640625 77.699219 174.09375 76.710938 174.105469 C 76.566406 174.113281 76.328125 174.125 76.324219 174.238281 C 76.320312 174.8125 81.957031 176.207031 82.675781 175.8125 " fill-opacity="1" fill-rule="nonzero"/><path fill="#092552" d="M 80.527344 74.273438 C 80.523438 74.273438 80.523438 74.273438 80.523438 74.273438 C 80.523438 74.273438 80.523438 74.277344 80.519531 74.277344 C 80.519531 74.277344 80.515625 74.277344 80.515625 74.277344 C 80.515625 74.277344 80.515625 74.277344 80.511719 74.277344 C 80.511719 74.277344 80.507812 74.277344 80.507812 74.277344 C 77.183594 75.246094 76.492188 79.792969 79.367188 81.769531 C 82.378906 83.839844 85.671875 80.984375 85.199219 77.757812 C 84.945312 76.023438 83.179688 73.851562 80.527344 74.273438 " fill-opacity="1" fill-rule="nonzero"/><path fill="#092552" d="M 39.742188 28.359375 C 40.066406 29.457031 42 28.171875 43.371094 25.941406 C 44.007812 24.910156 44.984375 22.734375 43.941406 22.605469 C 42.242188 22.8125 39.296875 26.84375 39.742188 28.359375 " fill-opacity="1" fill-rule="nonzero"/><path fill="#092552" d="M 25.914062 25.949219 C 25.914062 25.949219 25.914062 25.949219 25.914062 25.953125 C 26.324219 26.121094 28.207031 24.226562 28.773438 23.644531 C 28.890625 23.523438 31.585938 20.738281 31.453125 20.257812 C 31.4375 20.25 31.421875 20.238281 31.40625 20.234375 C 30.851562 20.140625 25.527344 24.996094 25.914062 25.949219 " fill-opacity="1" fill-rule="nonzero"/><path fill="#092552" d="M 93.242188 161.441406 C 92.804688 160.5 91.195312 159.308594 88.996094 159.609375 C 88.683594 159.667969 88.371094 159.773438 88.136719 159.898438 C 86.496094 160.78125 87.214844 162.765625 89.464844 163.558594 C 91.859375 164.40625 94.046875 163.179688 93.242188 161.441406 " fill-opacity="1" fill-rule="nonzero"/><path fill="#092552" d="M 59.371094 48.945312 C 61.113281 50.832031 64.085938 48.882812 64.117188 45.828125 C 64.128906 44.359375 63.265625 42.386719 61.296875 42.613281 C 58.878906 43.0625 57.65625 47.085938 59.371094 48.945312 " fill-opacity="1" fill-rule="nonzero"/><path fill="#092552" d="M 87.878906 168.832031 C 89.929688 169.207031 91.164062 168.324219 90.324219 167.085938 C 89.59375 166.007812 87.605469 165.261719 86.070312 165.488281 C 85.820312 165.535156 85.40625 165.617188 85.09375 165.863281 C 83.984375 166.746094 85.546875 168.410156 87.878906 168.832031 " fill-opacity="1" fill-rule="nonzero"/><path fill="#092552" d="M 55.890625 35.699219 C 53.460938 36.234375 52.308594 40.285156 53.660156 41.832031 C 54.90625 43.261719 57.527344 41.832031 57.914062 38.910156 C 58.140625 37.195312 57.429688 35.476562 55.890625 35.699219 " fill-opacity="1" fill-rule="nonzero"/><path fill="#092552" d="M 97.441406 154.609375 C 97.097656 153.601562 95.707031 152.238281 93.277344 152.636719 C 93.160156 152.660156 92.910156 152.726562 92.90625 152.730469 C 90.429688 153.480469 90.710938 155.988281 92.765625 157.058594 C 95.265625 158.359375 98.191406 156.824219 97.441406 154.609375 " fill-opacity="1" fill-rule="nonzero"/><path fill="#092552" d="M 52.347656 28.9375 C 50.480469 29.175781 48.644531 32.980469 49.617188 34.589844 C 50.433594 35.933594 52.710938 34.773438 53.464844 32.121094 C 53.84375 30.796875 53.855469 28.855469 52.347656 28.9375 " fill-opacity="1" fill-rule="nonzero"/><path fill="#092552" d="M 68.410156 49.695312 C 65.304688 50.507812 65.140625 54.625 66.929688 56.167969 C 68.785156 57.765625 71.96875 56.167969 71.820312 52.992188 C 71.722656 50.828125 70.191406 49.347656 68.410156 49.695312 " fill-opacity="1" fill-rule="nonzero"/><path fill="#092552" d="M 88.21875 172.742188 C 89.386719 172.667969 89.617188 172.125 88.78125 171.421875 C 87.90625 170.683594 86.132812 170.027344 84.6875 170.203125 C 84.464844 170.238281 84.09375 170.300781 83.886719 170.496094 C 83.023438 171.304688 86.0625 172.878906 88.21875 172.742188 " fill-opacity="1" fill-rule="nonzero"/><path fill="#092552" d="M 89.429688 175.324219 C 89.847656 175.199219 89.625 174.894531 88.847656 174.535156 C 88.019531 174.152344 86.289062 173.613281 84.917969 173.699219 C 84.707031 173.722656 84.4375 173.773438 84.355469 173.902344 C 83.945312 174.523438 88.167969 175.707031 89.429688 175.324219 " fill-opacity="1" fill-rule="nonzero"/><path fill="#092552" d="M 41.503906 21.214844 C 41.652344 21.890625 43.171875 20.882812 44.632812 19.140625 C 45.78125 17.773438 46.625 16.273438 46.050781 16.222656 C 44.703125 16.34375 41.257812 20.121094 41.503906 21.214844 " fill-opacity="1" fill-rule="nonzero"/><path fill="#092552" d="M 80.550781 176.089844 C 80.390625 176.089844 80.390625 176.089844 80.351562 176.121094 C 80.765625 176.382812 86.105469 177.09375 86.496094 176.9375 C 86.359375 176.902344 86.175781 176.875 84.753906 176.65625 C 82.511719 176.316406 81.273438 176.128906 80.550781 176.089844 " fill-opacity="1" fill-rule="nonzero"/><path fill="#092552" d="M 51 25.351562 C 51.652344 23.898438 51.71875 22.332031 50.765625 22.402344 C 49.082031 22.710938 46.980469 26.230469 47.644531 27.628906 C 48.179688 28.765625 50.03125 27.507812 51 25.351562 " fill-opacity="1" fill-rule="nonzero"/><path fill="#092552" d="M 33.582031 19.722656 C 33.5 20.1875 34.75 19.375 36.488281 17.839844 C 36.515625 17.816406 39.386719 15.253906 39.179688 14.914062 C 38.410156 14.769531 33.753906 18.773438 33.582031 19.722656 " fill-opacity="1" fill-rule="nonzero"/><path fill="#092552" d="M 96.074219 100.597656 C 92.453125 101.6875 92.601562 105.875 94.738281 107.59375 C 97.234375 109.601562 101.355469 107.757812 100.824219 104 C 100.480469 101.566406 98.347656 100.039062 96.074219 100.597656 " fill-opacity="1" fill-rule="nonzero"/><path fill="#092552" d="M 41.921875 15.78125 C 40.808594 15.757812 36.574219 19.785156 36.652344 20.785156 C 36.695312 21.308594 37.941406 20.652344 39.882812 18.679688 C 39.988281 18.570312 42.464844 16.050781 41.921875 15.78125 " fill-opacity="1" fill-rule="nonzero"/><path fill="#092552" d="M 100.703125 119.042969 C 97.449219 119.867188 97.066406 123.714844 99.367188 125.34375 C 101.941406 127.167969 105.664062 124.996094 105.226562 121.929688 C 105.019531 120.503906 103.613281 118.457031 100.703125 119.042969 " fill-opacity="1" fill-rule="nonzero"/><path fill="#092552" d="M 24.621094 23.699219 C 24.628906 23.683594 24.625 23.660156 24.628906 23.640625 C 24.105469 23.875 19.890625 28.859375 19.882812 29.253906 C 20.003906 29.179688 20.316406 28.847656 21.695312 27.238281 C 23.957031 24.605469 24.4375 24 24.621094 23.699219 " fill-opacity="1" fill-rule="nonzero"/><path fill="#092552" d="M 91.375 81.800781 C 87.726562 82.910156 88.03125 87.261719 90.378906 88.824219 C 93.097656 90.632812 96.488281 88.328125 95.957031 85.035156 C 95.59375 82.761719 93.496094 81.28125 91.375 81.800781 " fill-opacity="1" fill-rule="nonzero"/><path fill="#092552" d="M 77.03125 56.746094 C 73.980469 57.617188 73.722656 61.652344 75.945312 63.265625 C 78.273438 64.953125 81.316406 62.800781 80.878906 59.777344 C 80.679688 58.390625 79.457031 56.339844 77.03125 56.746094 " fill-opacity="1" fill-rule="nonzero"/><path fill="#092552" d="M 102.746094 146.777344 C 102.464844 145.398438 100.933594 144.160156 98.652344 144.578125 C 95.84375 145.230469 95.546875 148.019531 97.472656 149.347656 C 99.800781 150.953125 103.25 149.273438 102.746094 146.777344 " fill-opacity="1" fill-rule="nonzero"/><path fill="#092552" d="M 27.683594 21.769531 C 27.710938 21.742188 30.492188 19.066406 30.675781 18.597656 C 30.675781 18.59375 30.675781 18.59375 30.675781 18.59375 C 30.675781 18.59375 30.675781 18.59375 30.667969 18.570312 C 30.070312 18.546875 25.332031 23.164062 25.441406 23.664062 C 25.652344 23.683594 26.9375 22.484375 27.683594 21.769531 " fill-opacity="1" fill-rule="nonzero"/><path fill="#092552" d="M 86.113281 70.152344 C 88.730469 71.867188 91.453125 69.402344 90.960938 66.671875 C 90.703125 65.25 89.238281 63.351562 86.902344 63.792969 C 84.363281 64.441406 83.457031 68.414062 86.113281 70.152344 " fill-opacity="1" fill-rule="nonzero"/><path fill="#092552" d="M 108.816406 137.820312 C 108.625 136.382812 107.070312 135.109375 104.890625 135.542969 C 102.535156 136.136719 101.328125 138.984375 103.445312 140.566406 C 105.875 142.386719 109.136719 140.273438 108.816406 137.820312 " fill-opacity="1" fill-rule="nonzero"/><path fill="#092552" d="M 86.894531 176.011719 C 86.660156 176.03125 86.597656 176.050781 86.578125 176.109375 C 86.792969 176.539062 91.101562 177.007812 91.652344 176.800781 C 91.652344 176.789062 91.65625 176.773438 91.660156 176.761719 C 91.613281 176.730469 91.496094 176.640625 90.441406 176.433594 C 90.050781 176.355469 88.035156 175.96875 86.894531 176.011719 " fill-opacity="1" fill-rule="nonzero"/><path fill="#092552" d="M 47.621094 20.792969 C 47.769531 21.664062 49.242188 20.886719 50.539062 18.890625 C 51.363281 17.621094 51.828125 16.265625 51.140625 16.289062 C 49.890625 16.480469 47.425781 19.636719 47.621094 20.792969 " fill-opacity="1" fill-rule="nonzero"/><path fill="#092552" d="M 34.777344 16.484375 C 35.847656 15.617188 37.65625 14.117188 37.738281 13.78125 C 37.410156 13.484375 32.488281 17.460938 32.417969 18.078125 C 32.460938 18.121094 32.589844 18.25 34.777344 16.484375 " fill-opacity="1" fill-rule="nonzero"/><path fill="#092552" d="M 65.917969 39.210938 C 67.246094 40.488281 69.585938 39.21875 69.515625 36.6875 C 69.488281 35.703125 68.96875 33.902344 67.183594 34.160156 C 65.140625 34.589844 64.582031 37.929688 65.917969 39.210938 " fill-opacity="1" fill-rule="nonzero"/><path fill="#092552" d="M 98.632812 163.570312 C 98.5 163.597656 98.320312 163.640625 98.195312 163.6875 C 96.597656 164.261719 96.953125 165.734375 98.375 166.378906 C 100.003906 167.113281 102.316406 166.34375 101.785156 164.882812 C 101.535156 164.1875 100.484375 163.265625 98.632812 163.570312 " fill-opacity="1" fill-rule="nonzero"/><path fill="#092552" d="M 63.546875 30.375 C 63.691406 28.976562 63.113281 27.652344 61.898438 27.855469 C 60.015625 28.3125 59.21875 31.4375 60.285156 32.660156 C 61.289062 33.808594 63.308594 32.695312 63.546875 30.375 " fill-opacity="1" fill-rule="nonzero"/><path fill="#092552" d="M 96.515625 171.070312 C 98.035156 171.351562 99.382812 170.785156 98.730469 169.796875 C 98.199219 168.992188 96.816406 168.535156 95.582031 168.75 C 95.382812 168.792969 95.046875 168.863281 94.789062 169.046875 C 93.9375 169.652344 94.886719 170.769531 96.515625 171.070312 " fill-opacity="1" fill-rule="nonzero"/><path fill="#092552" d="M 106.136719 158.636719 C 105.945312 157.855469 104.953125 156.828125 103 157.195312 C 100.683594 157.808594 100.800781 159.71875 102.183594 160.519531 C 104.007812 161.582031 106.558594 160.367188 106.136719 158.636719 " fill-opacity="1" fill-rule="nonzero"/><path fill="#092552" d="M 102.804688 89.234375 C 99.636719 90.117188 99.785156 94.027344 101.769531 95.503906 C 104.015625 97.175781 107.621094 95.292969 106.988281 92 C 106.75 90.773438 105.574219 88.617188 102.804688 89.234375 " fill-opacity="1" fill-rule="nonzero"/><path fill="#092552" d="M 49.941406 10.457031 C 48.980469 10.507812 45.261719 13.664062 45.257812 14.429688 C 45.253906 14.816406 46.261719 14.308594 47.953125 12.796875 C 47.976562 12.777344 50.378906 10.617188 49.941406 10.457031 " fill-opacity="1" fill-rule="nonzero"/><path fill="#092552" d="M 42.070312 13.847656 C 42.039062 14.167969 43.113281 13.542969 44.746094 12.289062 C 45.007812 12.089844 47.292969 10.320312 47.324219 9.96875 C 47.316406 9.960938 47.304688 9.953125 47.300781 9.945312 C 46.578125 9.898438 42.132812 13.21875 42.070312 13.847656 " fill-opacity="1" fill-rule="nonzero"/><path fill="#092552" d="M 106.394531 114.144531 C 108.554688 115.726562 112.144531 113.980469 111.699219 110.824219 C 111.523438 109.605469 110.445312 107.460938 107.609375 108.097656 C 104.15625 109.226562 104.683594 112.890625 106.394531 114.144531 " fill-opacity="1" fill-rule="nonzero"/><path fill="#092552" d="M 73.277344 45.78125 C 75.023438 47.21875 77.40625 45.503906 77.085938 43.042969 C 76.9375 41.929688 76.027344 40.28125 74.210938 40.582031 C 72.148438 41.0625 71.554688 44.363281 73.277344 45.78125 " fill-opacity="1" fill-rule="nonzero"/><path fill="#092552" d="M 115.335938 127.804688 C 115.117188 126.226562 113.378906 125.199219 111.691406 125.648438 C 109.1875 126.460938 108.382812 129.324219 110.253906 130.753906 C 112.542969 132.496094 115.675781 130.238281 115.335938 127.804688 " fill-opacity="1" fill-rule="nonzero"/><path fill="#092552" d="M 96.820312 174.285156 C 97.546875 174.164062 97.644531 173.785156 97.058594 173.367188 C 96.578125 173.023438 95.339844 172.539062 94.054688 172.695312 C 93.632812 172.761719 93.457031 172.890625 93.382812 172.984375 C 92.882812 173.632812 95.289062 174.546875 96.820312 174.285156 " fill-opacity="1" fill-rule="nonzero"/><path fill="#092552" d="M 56.476562 26.128906 C 57.136719 27.261719 58.847656 26.140625 59.382812 24.21875 C 59.738281 22.945312 59.460938 21.609375 58.496094 21.742188 C 57.027344 22.078125 55.746094 24.867188 56.476562 26.128906 " fill-opacity="1" fill-rule="nonzero"/><path fill="#092552" d="M 108.5 149.671875 C 106.570312 150.25 105.816406 152.152344 107.082031 153.242188 C 108.871094 154.785156 111.722656 153.269531 111.59375 151.375 C 111.507812 150.15625 109.976562 149.316406 108.5 149.671875 " fill-opacity="1" fill-rule="nonzero"/><path fill="#092552" d="M 84.160156 52.726562 C 84.164062 52.726562 84.164062 52.726562 84.164062 52.726562 C 84.164062 52.726562 84.167969 52.726562 84.167969 52.722656 C 84.167969 52.726562 84.167969 52.722656 84.167969 52.722656 C 84.171875 52.722656 84.171875 52.722656 84.171875 52.722656 C 85.8125 52.191406 86.183594 50.535156 86.03125 49.550781 C 85.777344 47.929688 84.1875 46.722656 82.761719 47.066406 C 82.46875 47.15625 81.867188 47.351562 81.367188 48.128906 C 79.976562 50.300781 81.726562 53.175781 84.160156 52.726562 " fill-opacity="1" fill-rule="nonzero"/><path fill="#092552" d="M 96.863281 76.628906 C 99.386719 78.53125 102.191406 76.21875 101.695312 73.519531 C 101.398438 71.90625 99.800781 70.429688 97.738281 70.851562 C 95.242188 71.675781 94.734375 75.023438 96.863281 76.628906 " fill-opacity="1" fill-rule="nonzero"/><path fill="#092552" d="M 40.378906 12.808594 C 40.605469 12.878906 42.1875 11.824219 42.855469 11.367188 C 42.882812 11.347656 45.648438 9.449219 45.726562 9.15625 C 45.191406 9.023438 40.34375 12.335938 40.378906 12.808594 " fill-opacity="1" fill-rule="nonzero"/><path fill="#092552" d="M 57.074219 15.929688 C 55.972656 16.175781 54.277344 18.734375 54.714844 19.878906 C 55.097656 20.890625 56.613281 19.582031 57.273438 17.992188 C 57.699219 16.96875 57.707031 15.867188 57.074219 15.929688 " fill-opacity="1" fill-rule="nonzero"/><path fill="#092552" d="M 53.488281 10.628906 C 52.722656 10.648438 49.652344 13.539062 49.667969 14.472656 C 49.679688 15.074219 51.054688 14.0625 52.183594 12.828125 C 52.851562 12.09375 53.921875 10.699219 53.488281 10.628906 " fill-opacity="1" fill-rule="nonzero"/><path fill="#092552" d="M 97.0625 175.746094 C 96.3125 175.5 94.914062 175.292969 94.167969 175.386719 C 94.03125 175.40625 93.800781 175.445312 93.765625 175.554688 C 93.609375 176.058594 96.945312 176.449219 97.558594 176.167969 C 97.804688 176.054688 97.464844 175.875 97.0625 175.746094 " fill-opacity="1" fill-rule="nonzero"/><path fill="#092552" d="M 31.535156 16.632812 C 31.539062 16.621094 31.550781 16.605469 31.554688 16.59375 C 31.234375 16.734375 27.292969 20.347656 27.085938 20.792969 C 27.160156 20.738281 27.160156 20.738281 28.789062 19.222656 C 30.871094 17.285156 31.367188 16.824219 31.535156 16.632812 " fill-opacity="1" fill-rule="nonzero"/><path fill="#092552" d="M 34.800781 14.65625 C 37.367188 12.703125 37.558594 12.476562 37.699219 12.3125 C 37.425781 12.164062 33.019531 15.535156 32.984375 15.917969 C 33.027344 15.921875 33.128906 15.929688 34.800781 14.65625 " fill-opacity="1" fill-rule="nonzero"/><path fill="#092552" d="M 50.972656 8.355469 C 51.078125 8.488281 51.757812 8.117188 53.386719 7.027344 C 53.730469 6.796875 55.457031 5.632812 55.539062 5.417969 C 55.53125 5.410156 55.527344 5.40625 55.523438 5.402344 C 55.199219 5.359375 51.035156 7.800781 50.972656 8.355469 " fill-opacity="1" fill-rule="nonzero"/><path fill="#092552" d="M 117.726562 143.007812 C 117.730469 142.980469 117.601562 140.503906 114.863281 141.242188 C 111.710938 142.207031 113.074219 144.730469 113.371094 145.035156 C 114.390625 146.078125 117.585938 145.523438 117.726562 143.007812 " fill-opacity="1" fill-rule="nonzero"/><path fill="#092552" d="M 57.601562 10.59375 C 56.761719 10.761719 54.867188 13.121094 54.96875 13.871094 C 55.046875 14.441406 56.128906 13.824219 57.035156 12.488281 C 57.253906 12.164062 58.3125 10.554688 57.601562 10.59375 " fill-opacity="1" fill-rule="nonzero"/><path fill="#092552" d="M 98.605469 176.839844 C 97.199219 176.78125 96.570312 176.773438 96.109375 176.8125 C 95.871094 176.832031 95.863281 176.851562 95.847656 176.875 C 96.160156 177.058594 99.105469 177.011719 99.53125 176.90625 C 99.503906 176.886719 99.492188 176.878906 98.605469 176.839844 " fill-opacity="1" fill-rule="nonzero"/><path fill="#092552" d="M 117.519531 119.929688 C 117.941406 120.246094 119.097656 120.867188 120.746094 119.78125 C 121.285156 119.425781 122.15625 118.59375 121.933594 117.023438 C 121.640625 114.96875 119.984375 114.6875 118.65625 115.074219 C 115.976562 116.015625 116.253906 118.984375 117.519531 119.929688 " fill-opacity="1" fill-rule="nonzero"/><path fill="#092552" d="M 113.371094 102.058594 C 114.683594 103.144531 118.34375 102.527344 117.980469 99.003906 C 117.976562 98.972656 117.507812 95.8125 114.429688 96.597656 C 111.144531 97.582031 112.269531 101.148438 113.371094 102.058594 " fill-opacity="1" fill-rule="nonzero"/><path fill="#092552" d="M 108.519531 83.175781 C 108.773438 83.347656 110.113281 84.15625 111.636719 83.097656 C 112.304688 82.636719 113.03125 81.773438 112.707031 80.273438 C 112.289062 78.332031 110.898438 77.449219 109.078125 77.972656 C 106.40625 78.929688 107.011719 82.144531 108.519531 83.175781 " fill-opacity="1" fill-rule="nonzero"/><path fill="#092552" d="M 92.253906 58.644531 C 93.773438 59.535156 96.5 58.710938 95.910156 55.980469 C 95.605469 54.5625 94.40625 53.324219 92.699219 53.691406 C 90.015625 54.445312 90.714844 57.75 92.253906 58.644531 " fill-opacity="1" fill-rule="nonzero"/><path fill="#092552" d="M 45 8.226562 C 45.003906 8.21875 44.992188 8.210938 44.988281 8.207031 C 44.550781 8.21875 40.757812 10.53125 40.234375 11.21875 C 40.460938 11.1875 41.007812 10.882812 42.386719 10.007812 C 44.34375 8.769531 44.933594 8.367188 45 8.226562 " fill-opacity="1" fill-rule="nonzero"/><path fill="#092552" d="M 103.730469 171.183594 C 103.582031 171.21875 103.335938 171.273438 103.15625 171.398438 C 102.714844 171.710938 102.867188 172.359375 103.988281 172.613281 C 104.945312 172.835938 106.253906 172.480469 105.808594 171.761719 C 105.539062 171.320312 104.789062 170.972656 103.730469 171.183594 " fill-opacity="1" fill-rule="nonzero"/><path fill="#092552" d="M 53.808594 8.671875 C 54.167969 8.542969 54.660156 8.292969 55.8125 7.371094 C 56.757812 6.613281 57.835938 5.703125 57.617188 5.652344 C 57.617188 5.652344 57.613281 5.652344 57.613281 5.652344 C 57.140625 5.675781 53.410156 8.28125 53.808594 8.671875 " fill-opacity="1" fill-rule="nonzero"/><g clip-path="url(#534485adb3)"><path fill="#092552" d="M 49.191406 7.78125 C 49.589844 7.671875 50.226562 7.339844 51.632812 6.515625 C 54.003906 5.128906 54.03125 5.046875 54.058594 4.972656 C 53.710938 4.921875 49.46875 7.230469 49.191406 7.78125 " fill-opacity="1" fill-rule="nonzero"/></g><path fill="#092552" d="M 106.933594 166.75 C 106.859375 166.765625 106.785156 166.785156 106.714844 166.808594 C 105.765625 167.101562 105.273438 168.070312 106.476562 168.660156 C 107.539062 169.179688 109.328125 168.550781 109.003906 167.539062 C 108.941406 167.351562 108.558594 166.429688 106.933594 166.75 " fill-opacity="1" fill-rule="nonzero"/><path fill="#092552" d="M 65.945312 24.0625 C 66.46875 24.742188 68.046875 24.53125 68.226562 22.394531 C 68.230469 22.375 68.21875 20.488281 66.964844 20.664062 C 65.539062 20.96875 65.347656 23.292969 65.945312 24.0625 " fill-opacity="1" fill-rule="nonzero"/><path fill="#092552" d="M 71.484375 29.964844 C 71.492188 29.96875 72.292969 30.636719 73.046875 30.105469 C 73.320312 29.914062 74.039062 29.40625 73.960938 28.21875 C 73.953125 28.128906 73.792969 26.019531 72.15625 26.296875 C 70.554688 26.671875 70.515625 29.144531 71.484375 29.964844 " fill-opacity="1" fill-rule="nonzero"/><path fill="#092552" d="M 111.414062 161.113281 C 109.820312 161.558594 109.75 162.808594 110.550781 163.386719 C 111.445312 164.035156 113.652344 163.445312 113.46875 162.039062 C 113.355469 161.183594 112.570312 160.828125 111.414062 161.113281 " fill-opacity="1" fill-rule="nonzero"/><path fill="#092552" d="M 103.109375 64.839844 C 104.335938 65.621094 107.0625 65.101562 106.589844 62.316406 C 106.515625 61.855469 105.648438 59.667969 103.402344 60.316406 C 100.8125 61.207031 102.035156 64.15625 103.109375 64.839844 " fill-opacity="1" fill-rule="nonzero"/><path fill="#092552" d="M 121.808594 131.785156 C 119.1875 132.664062 119.859375 134.925781 120.273438 135.457031 C 121.25 136.699219 124.261719 135.933594 124.417969 133.449219 C 124.441406 133.066406 124.0625 131.125 121.808594 131.785156 " fill-opacity="1" fill-rule="nonzero"/><path fill="#092552" d="M 36.671875 12.316406 C 38.753906 10.785156 38.753906 10.785156 38.878906 10.675781 C 38.894531 10.660156 38.910156 10.644531 38.917969 10.628906 C 38.585938 10.769531 35.585938 13.003906 35.355469 13.285156 C 35.820312 13 36.230469 12.640625 36.671875 12.316406 " fill-opacity="1" fill-rule="nonzero"/><g clip-path="url(#610237e214)"><path fill="#092552" d="M 53.125 4.4375 C 52.964844 4.351562 49.152344 6.214844 48.703125 6.710938 C 48.828125 6.746094 49.410156 6.457031 50.761719 5.757812 C 52.648438 4.773438 53.070312 4.539062 53.125 4.4375 " fill-opacity="1" fill-rule="nonzero"/></g><path fill="#092552" d="M 103.660156 175.132812 C 104.289062 175.042969 104.414062 174.878906 104.050781 174.617188 C 104.042969 174.609375 103.253906 174.121094 102.121094 174.320312 C 101.984375 174.347656 101.703125 174.402344 101.613281 174.523438 C 101.398438 174.8125 102.550781 175.289062 103.660156 175.132812 " fill-opacity="1" fill-rule="nonzero"/><path fill="#092552" d="M 64.316406 16.882812 C 64.453125 16.125 64.453125 15.238281 63.675781 15.332031 C 62.492188 15.554688 62.023438 17.8125 62.453125 18.367188 C 62.855469 18.890625 64.023438 18.515625 64.316406 16.882812 " fill-opacity="1" fill-rule="nonzero"/><path fill="#092552" d="M 119.023438 155.328125 C 119.003906 154.761719 118.730469 153.871094 117.113281 154.261719 C 114.757812 154.988281 115.722656 156.625 115.9375 156.820312 C 116.726562 157.53125 119.074219 156.875 119.023438 155.328125 " fill-opacity="1" fill-rule="nonzero"/><path fill="#092552" d="M 59.101562 7.160156 C 59.148438 7.113281 59.210938 7.050781 59.257812 7.003906 C 60.34375 5.878906 60.277344 5.75 60.132812 5.753906 C 59.574219 5.84375 57.410156 7.84375 57.378906 8.300781 C 57.363281 8.507812 57.777344 8.511719 59.101562 7.160156 " fill-opacity="1" fill-rule="nonzero"/><path fill="#092552" d="M 78.753906 35.902344 C 79.769531 36.578125 81.707031 35.9375 81.285156 33.910156 C 81.066406 32.851562 80.378906 31.832031 79.097656 32.144531 C 77.152344 32.726562 77.828125 35.292969 78.753906 35.902344 " fill-opacity="1" fill-rule="nonzero"/><path fill="#092552" d="M 87.492188 41.753906 C 88.710938 42.46875 90.5625 41.585938 90.007812 39.710938 C 89.78125 38.949219 89.171875 37.726562 87.632812 38.074219 C 85.644531 38.628906 86.492188 41.171875 87.492188 41.753906 " fill-opacity="1" fill-rule="nonzero"/><path fill="#092552" d="M 120.0625 89.246094 C 121.160156 90.246094 123.957031 89.917969 123.714844 86.769531 C 123.648438 85.882812 122.570312 85.160156 122.558594 85.152344 C 121.871094 84.722656 121.21875 84.902344 120.871094 84.996094 C 118.460938 85.789062 119.140625 88.402344 120.0625 89.246094 " fill-opacity="1" fill-rule="nonzero"/><path fill="#092552" d="M 102.152344 176.109375 C 102.054688 176.125 101.855469 176.160156 101.863281 176.210938 C 101.871094 176.28125 102.328125 176.363281 103.058594 176.367188 C 103.417969 176.371094 104.257812 176.320312 104.296875 176.226562 C 104.273438 176.207031 104.234375 176.1875 103.953125 176.140625 C 103.941406 176.140625 102.929688 175.992188 102.152344 176.109375 " fill-opacity="1" fill-rule="nonzero"/><path fill="#092552" d="M 60.898438 12.800781 C 60.945312 12.9375 61.109375 13.226562 61.546875 12.898438 C 61.792969 12.71875 62.152344 12.390625 62.453125 11.648438 C 62.667969 11.117188 62.945312 10.230469 62.394531 10.273438 C 61.65625 10.390625 60.6875 12.210938 60.898438 12.800781 " fill-opacity="1" fill-rule="nonzero"/><path fill="#092552" d="M 124.824219 108.050781 C 125.429688 108.472656 126.628906 108.492188 127.050781 108.199219 C 127.441406 107.925781 128.640625 107.089844 128.394531 105.5625 C 128.199219 104.332031 127.292969 103.320312 125.710938 103.824219 C 123.210938 104.746094 123.929688 107.425781 124.824219 108.050781 " fill-opacity="1" fill-rule="nonzero"/><path fill="#092552" d="M 43.089844 8.429688 C 43.109375 8.417969 45.078125 7.269531 45.300781 7.0625 C 45.296875 7.054688 45.300781 7.046875 45.300781 7.039062 C 44.976562 7.097656 41.996094 8.824219 41.601562 9.234375 C 41.601562 9.242188 41.601562 9.25 41.605469 9.253906 C 41.726562 9.21875 42.089844 9.011719 43.089844 8.429688 " fill-opacity="1" fill-rule="nonzero"/><path fill="#092552" d="M 129.082031 121.566406 C 127.222656 122.175781 127.050781 124.097656 127.929688 124.976562 C 128.90625 125.957031 131.234375 124.910156 131.203125 123.109375 C 131.195312 122.753906 131.0625 121 129.082031 121.566406 " fill-opacity="1" fill-rule="nonzero"/><path fill="#092552" d="M 125.355469 147.417969 C 125.359375 146.957031 125.203125 145.925781 123.65625 146.332031 C 121.851562 146.875 121.898438 148.410156 122.402344 148.9375 C 123.167969 149.746094 125.34375 148.863281 125.355469 147.417969 " fill-opacity="1" fill-rule="nonzero"/><path fill="#092552" d="M 114.671875 70.761719 C 115.9375 71.566406 118.128906 70.578125 117.578125 68.585938 C 117.4375 68.070312 116.824219 66.433594 114.949219 66.957031 C 112.832031 67.65625 113.625 70.097656 114.671875 70.761719 " fill-opacity="1" fill-rule="nonzero"/><path fill="#092552" d="M 97.394531 47.449219 C 98.308594 48.03125 100.296875 47.664062 99.8125 45.644531 C 99.808594 45.625 99.246094 43.609375 97.453125 44.136719 C 95.480469 44.8125 96.6875 47.003906 97.394531 47.449219 " fill-opacity="1" fill-rule="nonzero"/><path fill="#092552" d="M 62.652344 6.820312 C 62.734375 6.707031 63.46875 5.695312 63.109375 5.695312 C 62.582031 5.804688 61.472656 7.324219 61.492188 7.65625 C 61.492188 7.664062 61.648438 8.183594 62.652344 6.820312 " fill-opacity="1" fill-rule="nonzero"/><path fill="#092552" d="M 110.320312 172.867188 C 110.265625 172.882812 110.210938 172.894531 110.15625 172.914062 C 109.652344 173.085938 109.777344 173.34375 110.023438 173.46875 C 110.421875 173.667969 111.40625 173.503906 111.265625 173.078125 C 111.261719 173.074219 111.054688 172.71875 110.320312 172.867188 " fill-opacity="1" fill-rule="nonzero"/><path fill="#092552" d="M 130.683594 137.484375 C 129.722656 137.835938 129.046875 139.027344 129.671875 139.761719 C 130.304688 140.511719 132.015625 139.8125 132.140625 138.46875 C 132.234375 137.4375 131.476562 137.230469 130.683594 137.484375 " fill-opacity="1" fill-rule="nonzero"/><path fill="#092552" d="M 108.402344 53.054688 C 109.5625 53.632812 110.863281 52.71875 110.320312 51.3125 C 109.96875 50.394531 109.15625 49.960938 108.300781 50.234375 C 106.738281 50.820312 107.558594 52.640625 108.402344 53.054688 " fill-opacity="1" fill-rule="nonzero"/><path fill="#092552" d="M 113.636719 169.292969 C 112.894531 169.480469 112.777344 169.945312 113.019531 170.1875 C 113.449219 170.601562 114.625 170.234375 114.597656 169.695312 C 114.585938 169.46875 114.371094 169.128906 113.636719 169.292969 " fill-opacity="1" fill-rule="nonzero"/><path fill="#092552" d="M 131.914062 95.226562 C 132.640625 95.769531 134.355469 95.148438 134.105469 93.578125 C 133.980469 92.792969 133.574219 91.9375 132.34375 92.316406 C 130.746094 92.886719 131.230469 94.714844 131.914062 95.226562 " fill-opacity="1" fill-rule="nonzero"/><path fill="#092552" d="M 136.261719 110.765625 C 134.722656 111.3125 135.078125 112.988281 135.601562 113.367188 C 135.605469 113.371094 136.273438 113.820312 137.09375 113.214844 C 137.277344 113.078125 137.835938 112.667969 137.746094 111.78125 C 137.695312 111.242188 137.433594 110.398438 136.261719 110.765625 " fill-opacity="1" fill-rule="nonzero"/><path fill="#092552" d="M 118.246094 164.460938 C 117.101562 164.800781 117.546875 165.574219 117.554688 165.582031 C 117.847656 165.949219 119.109375 165.667969 119.179688 164.917969 C 119.199219 164.699219 119.148438 164.21875 118.246094 164.460938 " fill-opacity="1" fill-rule="nonzero"/><path fill="#092552" d="M 82.96875 26.53125 C 83.476562 26.820312 84.535156 26.53125 84.183594 25.425781 C 84.070312 25.074219 83.71875 24.28125 82.90625 24.496094 C 81.804688 24.851562 82.484375 26.257812 82.96875 26.53125 " fill-opacity="1" fill-rule="nonzero"/><path fill="#092552" d="M 109.40625 175.125 C 109.3125 175.078125 109.035156 174.984375 108.554688 175.082031 C 108.476562 175.097656 108.316406 175.132812 108.289062 175.1875 C 108.214844 175.324219 108.949219 175.40625 109.367188 175.261719 C 109.5 175.21875 109.511719 175.171875 109.40625 175.125 " fill-opacity="1" fill-rule="nonzero"/><path fill="#092552" d="M 75.824219 21.296875 C 76.1875 21.601562 77.191406 21.570312 77.050781 20.363281 C 77.046875 20.351562 76.851562 19.167969 75.964844 19.378906 C 75.097656 19.640625 75.40625 20.9375 75.824219 21.296875 " fill-opacity="1" fill-rule="nonzero"/><path fill="#092552" d="M 68.011719 10.660156 C 68.054688 10.382812 68.113281 9.738281 67.679688 9.800781 C 67.125 9.917969 66.996094 11.054688 67.210938 11.304688 C 67.410156 11.539062 67.894531 11.390625 68.011719 10.660156 " fill-opacity="1" fill-rule="nonzero"/><path fill="#092552" d="M 70.574219 16.234375 C 70.683594 16.328125 70.976562 16.507812 71.316406 16.199219 C 71.460938 16.070312 71.625 15.808594 71.585938 15.316406 C 71.566406 15.078125 71.460938 14.3125 70.859375 14.441406 C 70.078125 14.664062 70.234375 15.945312 70.574219 16.234375 " fill-opacity="1" fill-rule="nonzero"/><path fill="#092552" d="M 126.546875 76.472656 C 127.171875 76.84375 128.855469 76.554688 128.484375 74.828125 C 128.480469 74.8125 128.097656 73.34375 126.722656 73.761719 C 125.160156 74.320312 125.902344 76.09375 126.546875 76.472656 " fill-opacity="1" fill-rule="nonzero"/><path fill="#092552" d="M 91.675781 31.699219 C 92.273438 31.925781 92.433594 31.746094 92.636719 31.523438 C 92.738281 31.414062 92.945312 31.09375 92.714844 30.542969 C 92.464844 29.941406 91.914062 29.628906 91.378906 29.78125 C 91.351562 29.792969 91.320312 29.800781 91.292969 29.8125 C 90.582031 30.113281 90.839844 31.382812 91.675781 31.699219 " fill-opacity="1" fill-rule="nonzero"/><path fill="#092552" d="M 124.097656 158.308594 C 123.296875 158.550781 123.050781 159.210938 123.273438 159.535156 C 123.488281 159.847656 124.121094 159.691406 124.125 159.6875 C 124.132812 159.6875 124.796875 159.332031 124.894531 158.878906 C 124.9375 158.667969 124.890625 158.101562 124.097656 158.308594 " fill-opacity="1" fill-rule="nonzero"/><path fill="#092552" d="M 130.730469 151.070312 C 129.917969 151.359375 129.976562 152.050781 130.082031 152.199219 C 130.3125 152.5 131.226562 152.21875 131.367188 151.570312 C 131.394531 151.441406 131.492188 150.828125 130.730469 151.070312 " fill-opacity="1" fill-rule="nonzero"/><g clip-path="url(#4fdd42905c)"><path fill="#092552" d="M 138.097656 127.789062 C 137.269531 128.082031 137.101562 129.070312 137.46875 129.476562 C 137.878906 129.929688 139.046875 129.351562 139.085938 128.488281 C 139.101562 128.105469 138.992188 127.5 138.097656 127.789062 " fill-opacity="1" fill-rule="nonzero"/></g><path fill="#092552" d="M 119.957031 58.421875 C 120.550781 58.714844 121.621094 58.246094 121.234375 57.25 C 121.082031 56.859375 120.714844 56.246094 119.929688 56.488281 C 118.777344 56.902344 119.453125 58.167969 119.957031 58.421875 " fill-opacity="1" fill-rule="nonzero"/><path fill="#092552" d="M 101.523438 36.699219 C 101.566406 36.714844 101.945312 36.855469 102.199219 36.613281 C 102.40625 36.414062 102.457031 36.175781 102.347656 35.910156 C 102.34375 35.902344 102.007812 35.105469 101.320312 35.289062 C 101.285156 35.300781 101.253906 35.316406 101.222656 35.328125 C 100.578125 35.632812 101.042969 36.507812 101.523438 36.699219 " fill-opacity="1" fill-rule="nonzero"/><g fill="#014ba0" fill-opacity="1"><g transform="translate(137.191889, 146.382858)"><g><path d="M 76.09375 -28.875 C 76.09375 -22.445312 74.492188 -16.96875 71.296875 -12.4375 C 68.109375 -7.90625 63.644531 -4.453125 57.90625 -2.078125 C 52.164062 0.296875 45.410156 1.484375 37.640625 1.484375 C 33.535156 1.484375 29.648438 1.285156 25.984375 0.890625 C 22.316406 0.492188 18.945312 -0.0703125 15.875 -0.8125 C 12.8125 -1.5625 10.117188 -2.476562 7.796875 -3.5625 L 7.796875 -15.671875 C 11.503906 -14.128906 16.03125 -12.703125 21.375 -11.390625 C 26.726562 -10.078125 32.320312 -9.421875 38.15625 -9.421875 C 43.601562 -9.421875 48.207031 -10.148438 51.96875 -11.609375 C 55.726562 -13.078125 58.585938 -15.179688 60.546875 -17.921875 C 62.503906 -20.671875 63.484375 -23.976562 63.484375 -27.84375 C 63.484375 -31.550781 62.664062 -34.65625 61.03125 -37.15625 C 59.394531 -39.65625 56.679688 -41.929688 52.890625 -43.984375 C 49.109375 -46.035156 43.953125 -48.226562 37.421875 -50.5625 C 32.816406 -52.195312 28.753906 -53.988281 25.234375 -55.9375 C 21.722656 -57.894531 18.78125 -60.109375 16.40625 -62.578125 C 14.03125 -65.054688 12.234375 -67.925781 11.015625 -71.1875 C 9.804688 -74.457031 9.203125 -78.195312 9.203125 -82.40625 C 9.203125 -88.195312 10.675781 -93.160156 13.625 -97.296875 C 16.570312 -101.429688 20.65625 -104.597656 25.875 -106.796875 C 31.09375 -108.992188 37.09375 -110.09375 43.875 -110.09375 C 49.664062 -110.09375 55.023438 -109.546875 59.953125 -108.453125 C 64.878906 -107.367188 69.394531 -105.914062 73.5 -104.09375 L 69.5625 -93.25 C 65.65625 -94.882812 61.507812 -96.242188 57.125 -97.328125 C 52.75 -98.421875 48.234375 -98.96875 43.578125 -98.96875 C 38.921875 -98.96875 35 -98.285156 31.8125 -96.921875 C 28.625 -95.554688 26.1875 -93.632812 24.5 -91.15625 C 22.8125 -88.6875 21.96875 -85.742188 21.96875 -82.328125 C 21.96875 -78.523438 22.769531 -75.359375 24.375 -72.828125 C 25.988281 -70.304688 28.566406 -68.066406 32.109375 -66.109375 C 35.648438 -64.148438 40.335938 -62.109375 46.171875 -59.984375 C 52.554688 -57.660156 57.976562 -55.195312 62.4375 -52.59375 C 66.894531 -50 70.285156 -46.832031 72.609375 -43.09375 C 74.929688 -39.351562 76.09375 -34.613281 76.09375 -28.875 Z M 76.09375 -28.875 "/></g></g></g><g fill="#b10005" fill-opacity="1"><g transform="translate(235.776646, 146.382858)"><g><path d="M 43.203125 -108.546875 C 57.210938 -108.546875 67.445312 -105.8125 73.90625 -100.34375 C 80.363281 -94.875 83.59375 -87.039062 83.59375 -76.84375 C 83.59375 -72.238281 82.835938 -67.867188 81.328125 -63.734375 C 79.816406 -59.597656 77.378906 -55.957031 74.015625 -52.8125 C 70.648438 -49.675781 66.234375 -47.203125 60.765625 -45.390625 C 55.296875 -43.585938 48.601562 -42.6875 40.6875 -42.6875 L 27.46875 -42.6875 L 27.46875 0 L 14.84375 0 L 14.84375 -108.546875 Z M 42.015625 -97.78125 L 27.46875 -97.78125 L 27.46875 -53.53125 L 39.28125 -53.53125 C 46.207031 -53.53125 51.984375 -54.269531 56.609375 -55.75 C 61.234375 -57.238281 64.707031 -59.648438 67.03125 -62.984375 C 69.363281 -66.328125 70.53125 -70.773438 70.53125 -76.328125 C 70.53125 -83.546875 68.226562 -88.925781 63.625 -92.46875 C 59.019531 -96.007812 51.816406 -97.78125 42.015625 -97.78125 Z M 42.015625 -97.78125 "/></g></g></g><g fill="#fabc05" fill-opacity="1"><g transform="translate(342.449213, 146.382858)"><g><path d="M 14.84375 0 L 14.84375 -108.546875 L 27.46875 -108.546875 L 27.46875 0 Z M 14.84375 0 "/></g></g></g></svg>