<svg xmlns="http://www.w3.org/2000/svg" xmlns:xlink="http://www.w3.org/1999/xlink" width="500" zoomAndPan="magnify" viewBox="0 0 375 374.999991" height="500" preserveAspectRatio="xMidYMid meet" version="1.0"><defs><clipPath id="773a93a1f4"><path d="M 130 6.023438 L 245 6.023438 L 245 115 L 130 115 Z M 130 6.023438 " clip-rule="nonzero"/></clipPath></defs><g clip-path="url(#773a93a1f4)"><path fill="#014ba0" d="M 133.488281 54.195312 L 160.714844 73.976562 L 150.316406 105.980469 C 149.449219 108.644531 150.398438 111.566406 152.664062 113.210938 C 154.933594 114.859375 158.003906 114.859375 160.269531 113.210938 L 187.496094 93.429688 L 214.722656 113.210938 C 215.855469 114.035156 217.1875 114.445312 218.523438 114.445312 C 219.855469 114.445312 221.191406 114.035156 222.324219 113.210938 C 224.589844 111.5625 225.539062 108.644531 224.675781 105.980469 L 214.273438 73.976562 L 241.5 54.195312 C 243.769531 52.546875 244.714844 49.628906 243.851562 46.964844 C 242.984375 44.296875 240.5 42.492188 237.699219 42.492188 L 204.046875 42.492188 L 193.648438 10.488281 C 192.78125 7.824219 190.296875 6.019531 187.496094 6.019531 C 184.695312 6.019531 182.210938 7.824219 181.34375 10.488281 L 170.945312 42.492188 L 137.292969 42.492188 C 134.492188 42.492188 132.007812 44.296875 131.140625 46.964844 C 130.273438 49.628906 131.222656 52.546875 133.488281 54.195312 Z M 175.644531 55.429688 C 178.445312 55.429688 180.929688 53.625 181.796875 50.960938 L 187.496094 33.417969 L 193.195312 50.960938 C 194.058594 53.625 196.542969 55.429688 199.34375 55.429688 L 217.789062 55.429688 L 202.867188 66.269531 C 200.601562 67.917969 199.652344 70.835938 200.519531 73.503906 L 206.21875 91.042969 L 191.296875 80.203125 C 190.164062 79.378906 188.828125 78.96875 187.496094 78.96875 C 186.160156 78.96875 184.828125 79.378906 183.691406 80.203125 L 168.773438 91.042969 L 174.472656 73.503906 C 175.335938 70.835938 174.386719 67.917969 172.121094 66.269531 L 157.199219 55.429688 Z M 175.644531 55.429688 " fill-opacity="1" fill-rule="nonzero"/></g><path fill="#014ba0" d="M 240.644531 88.035156 C 239.777344 90.699219 240.726562 93.617188 242.992188 95.265625 L 270.21875 115.046875 L 259.820312 147.050781 C 258.953125 149.714844 259.902344 152.636719 262.171875 154.28125 C 264.4375 155.929688 267.507812 155.929688 269.773438 154.28125 L 297 134.5 L 324.226562 154.28125 C 325.359375 155.105469 326.691406 155.515625 328.027344 155.515625 C 329.359375 155.515625 330.695312 155.105469 331.828125 154.28125 C 334.097656 152.632812 335.042969 149.714844 334.179688 147.050781 L 323.777344 115.046875 L 351.003906 95.265625 C 353.273438 93.617188 354.21875 90.699219 353.355469 88.035156 C 352.488281 85.367188 350.003906 83.5625 347.203125 83.5625 L 313.550781 83.5625 L 303.152344 51.558594 C 302.285156 48.894531 299.800781 47.089844 297 47.089844 C 294.199219 47.089844 291.714844 48.894531 290.847656 51.558594 L 280.449219 83.5625 L 246.796875 83.5625 C 243.992188 83.5625 241.511719 85.367188 240.644531 88.035156 Z M 285.148438 96.5 C 287.949219 96.5 290.433594 94.695312 291.300781 92.03125 L 297 74.492188 L 302.699219 92.03125 C 303.5625 94.695312 306.046875 96.5 308.851562 96.5 L 327.292969 96.5 L 312.371094 107.34375 C 310.105469 108.988281 309.15625 111.910156 310.023438 114.574219 L 315.722656 132.113281 L 300.800781 121.273438 C 299.667969 120.449219 298.332031 120.039062 297 120.039062 C 295.664062 120.039062 294.332031 120.449219 293.195312 121.273438 L 278.277344 132.113281 L 283.976562 114.574219 C 284.839844 111.910156 283.894531 108.988281 281.625 107.34375 L 266.703125 96.5 Z M 285.148438 96.5 " fill-opacity="1" fill-rule="nonzero"/><path fill="#014ba0" d="M 105.214844 154.28125 C 106.347656 155.105469 107.683594 155.519531 109.015625 155.519531 C 110.351562 155.519531 111.6875 155.105469 112.820312 154.28125 C 115.085938 152.636719 116.035156 149.714844 115.167969 147.050781 L 104.769531 115.046875 L 131.996094 95.265625 C 134.261719 93.617188 135.210938 90.699219 134.34375 88.035156 C 133.480469 85.371094 130.996094 83.566406 128.195312 83.566406 L 94.542969 83.566406 L 84.140625 51.558594 C 83.277344 48.894531 80.792969 47.089844 77.992188 47.089844 C 75.1875 47.089844 72.703125 48.894531 71.839844 51.558594 L 61.441406 83.566406 L 27.789062 83.566406 C 24.984375 83.566406 22.5 85.371094 21.636719 88.035156 C 20.769531 90.699219 21.71875 93.621094 23.984375 95.265625 L 51.210938 115.046875 L 40.8125 147.050781 C 39.945312 149.714844 40.894531 152.636719 43.160156 154.28125 C 45.429688 155.929688 48.5 155.929688 50.765625 154.28125 L 77.992188 134.503906 Z M 59.269531 132.113281 L 64.96875 114.574219 C 65.832031 111.90625 64.882812 108.988281 62.617188 107.339844 L 47.695312 96.5 L 66.140625 96.5 C 68.941406 96.5 71.425781 94.695312 72.292969 92.03125 L 77.992188 74.488281 L 83.691406 92.03125 C 84.554688 94.695312 87.039062 96.5 89.839844 96.5 L 108.285156 96.5 L 93.363281 107.339844 C 91.097656 108.988281 90.148438 111.90625 91.015625 114.574219 L 96.714844 132.113281 L 81.792969 121.273438 C 80.660156 120.449219 79.324219 120.039062 77.992188 120.039062 C 76.65625 120.039062 75.324219 120.449219 74.191406 121.273438 Z M 59.269531 132.113281 " fill-opacity="1" fill-rule="nonzero"/><path fill="#014ba0" d="M 283.390625 279.171875 C 281.808594 276.894531 280.148438 274.675781 278.417969 272.519531 L 266.308594 259.597656 C 264.277344 257.738281 262.1875 255.945312 260.023438 254.226562 C 253.1875 248.792969 245.796875 244.160156 237.972656 240.398438 C 242.714844 234.972656 246.535156 228.875 249.351562 222.214844 C 252.890625 213.847656 254.6875 204.964844 254.6875 195.808594 C 254.6875 186.65625 252.890625 177.769531 249.351562 169.402344 C 245.9375 161.324219 241.046875 154.070312 234.820312 147.84375 C 228.59375 141.617188 221.339844 136.726562 213.257812 133.308594 C 204.890625 129.769531 196.007812 127.976562 186.855469 127.976562 C 177.699219 127.976562 168.816406 129.769531 160.449219 133.308594 C 152.371094 136.726562 145.117188 141.617188 138.890625 147.84375 C 132.660156 154.070312 127.773438 161.324219 124.355469 169.402344 C 120.816406 177.769531 119.023438 186.65625 119.023438 195.808594 C 119.023438 204.964844 120.816406 213.847656 124.355469 222.214844 C 127.25 229.054688 131.203125 235.300781 136.125 240.835938 C 128.625 244.519531 121.53125 249.007812 114.953125 254.238281 C 105.980469 261.375 98.121094 269.769531 91.59375 279.183594 C 78.039062 298.730469 70.875 321.683594 70.875 345.554688 L 70.875 345.71875 C 70.875 358.535156 81.304688 368.960938 94.121094 368.960938 L 280.871094 368.960938 C 293.6875 368.960938 304.117188 358.535156 304.117188 345.71875 L 304.117188 345.554688 C 304.117188 339.140625 303.597656 332.796875 302.578125 326.5625 L 299.859375 314.207031 C 298.46875 309.210938 296.746094 304.3125 294.691406 299.539062 L 288.183594 286.675781 C 286.6875 284.125 285.089844 281.621094 283.390625 279.171875 Z M 133.253906 195.808594 C 133.253906 181.492188 138.828125 168.03125 148.953125 157.90625 C 159.074219 147.785156 172.535156 142.207031 186.855469 142.207031 C 201.171875 142.207031 214.632812 147.785156 224.757812 157.90625 C 234.878906 168.03125 240.457031 181.492188 240.457031 195.808594 C 240.457031 210.125 234.878906 223.585938 224.757812 233.710938 C 214.632812 243.835938 201.171875 249.410156 186.855469 249.410156 C 172.535156 249.410156 159.074219 243.835938 148.953125 233.710938 C 138.828125 223.585938 133.253906 210.125 133.253906 195.808594 Z M 289.882812 345.71875 C 289.882812 350.6875 285.839844 354.730469 280.867188 354.730469 L 94.121094 354.730469 C 89.148438 354.730469 85.105469 350.6875 85.105469 345.71875 L 85.105469 345.554688 C 85.105469 324.59375 91.394531 304.445312 103.289062 287.289062 C 109.023438 279.019531 115.925781 271.644531 123.808594 265.375 C 131.109375 259.570312 139.128906 254.808594 147.675781 251.199219 C 151.652344 254.015625 155.917969 256.394531 160.445312 258.308594 C 168.816406 261.847656 177.699219 263.640625 186.851562 263.640625 C 196.007812 263.640625 204.890625 261.847656 213.257812 258.308594 C 217.964844 256.316406 222.390625 253.820312 226.5 250.859375 C 235.347656 254.503906 243.640625 259.378906 251.167969 265.367188 C 259.050781 271.636719 265.960938 279.011719 271.695312 287.28125 C 283.59375 304.4375 289.882812 324.589844 289.882812 345.554688 Z M 289.882812 345.71875 " fill-opacity="1" fill-rule="nonzero"/><path fill="#014ba0" d="M 219.382812 280.707031 C 215.109375 276.445312 209.4375 274.097656 203.40625 274.097656 C 197.398438 274.097656 191.75 276.421875 187.492188 280.648438 C 183.226562 276.421875 177.582031 274.097656 171.578125 274.097656 C 165.542969 274.097656 159.871094 276.445312 155.609375 280.710938 C 151.34375 284.972656 148.992188 290.644531 148.992188 296.679688 C 148.992188 302.714844 151.34375 308.390625 155.609375 312.65625 L 183.027344 340.078125 C 184.203125 341.25 185.828125 341.921875 187.492188 341.921875 C 189.15625 341.921875 190.785156 341.25 191.957031 340.078125 L 219.382812 312.65625 C 223.648438 308.390625 225.996094 302.71875 225.996094 296.6875 C 225.996094 290.648438 223.648438 284.972656 219.382812 280.707031 Z M 213.382812 296.679688 C 213.382812 299.339844 212.34375 301.84375 210.460938 303.726562 L 187.5 326.691406 L 164.535156 303.726562 C 162.652344 301.847656 161.613281 299.347656 161.613281 296.679688 C 161.613281 294.019531 162.652344 291.515625 164.535156 289.628906 C 166.421875 287.746094 168.925781 286.707031 171.585938 286.707031 C 174.242188 286.707031 176.753906 287.746094 178.648438 289.628906 L 183.042969 294.023438 C 184.214844 295.199219 185.84375 295.871094 187.507812 295.871094 C 189.171875 295.871094 190.796875 295.195312 191.96875 294.023438 L 196.367188 289.628906 C 198.246094 287.746094 200.746094 286.707031 203.414062 286.707031 C 206.074219 286.707031 208.578125 287.746094 210.464844 289.632812 C 212.347656 291.507812 213.382812 294.011719 213.382812 296.679688 Z M 213.382812 296.679688 " fill-opacity="1" fill-rule="nonzero"/></svg>