<svg xmlns="http://www.w3.org/2000/svg" xmlns:xlink="http://www.w3.org/1999/xlink" width="500" zoomAndPan="magnify" viewBox="0 0 375 374.999991" height="500" preserveAspectRatio="xMidYMid meet" version="1.0"><defs><clipPath id="9a1220ac89"><path d="M 29 8.335938 L 346 8.335938 L 346 366.835938 L 29 366.835938 Z M 29 8.335938 " clip-rule="nonzero"/></clipPath></defs><rect x="-37.5" width="450" fill="#ffffff" y="-37.499999" height="449.999989" fill-opacity="1"/><rect x="-37.5" width="450" fill="#ffffff" y="-37.499999" height="449.999989" fill-opacity="1"/><path fill="#fabc05" d="M 256.15625 297.417969 L 247.863281 305.707031 L 269.605469 327.449219 L 320.667969 276.386719 L 312.375 268.09375 L 269.605469 310.863281 Z M 256.15625 297.417969 " fill-opacity="1" fill-rule="nonzero"/><g clip-path="url(#9a1220ac89)"><path fill="#fabc05" d="M 339.976562 219.457031 L 345.84375 219.457031 L 345.84375 160.8125 L 324.902344 160.8125 C 321.585938 160.8125 318.679688 158.578125 317.757812 155.101562 C 316.902344 151.882812 318.316406 148.46875 321.199219 146.800781 L 339.285156 136.359375 L 309.964844 85.570312 L 291.84375 96.027344 C 288.949219 97.699219 285.28125 97.210938 282.773438 94.707031 C 280.410156 92.34375 279.929688 88.671875 281.601562 85.78125 L 292.058594 67.667969 L 241.273438 38.34375 L 230.828125 56.429688 C 229.160156 59.320312 225.75 60.730469 222.253906 59.808594 C 219.058594 58.953125 216.824219 56.046875 216.824219 52.734375 L 216.824219 31.792969 L 164.042969 31.792969 L 164.042969 49.386719 C 164.042969 50.640625 163.5625 51.738281 162.890625 52.6875 C 157.667969 27.398438 135.230469 8.335938 108.417969 8.335938 L 90.652344 8.335938 C 59.976562 8.335938 35.019531 33.289062 35.019531 63.960938 C 35.019531 78.816406 40.808594 92.785156 51.3125 103.292969 L 53.519531 105.5 L 35.714844 136.359375 L 53.800781 146.800781 C 56.683594 148.46875 58.105469 151.882812 57.171875 155.375 C 56.316406 158.578125 53.414062 160.8125 50.097656 160.8125 L 29.15625 160.8125 L 29.15625 219.457031 L 50.097656 219.457031 C 53.414062 219.457031 56.320312 221.691406 57.242188 225.171875 C 58.097656 228.390625 56.683594 231.804688 53.800781 233.46875 L 35.714844 243.914062 L 65.035156 294.699219 L 83.15625 284.246094 C 86.039062 282.566406 89.714844 283.046875 92.222656 285.5625 C 94.585938 287.925781 95.070312 291.597656 93.398438 294.488281 L 82.933594 312.605469 L 133.722656 341.929688 L 144.191406 323.789062 C 145.839844 320.9375 149.210938 319.519531 152.683594 320.453125 C 155.917969 321.308594 158.175781 324.246094 158.175781 327.59375 L 158.175781 348.480469 L 216.824219 348.480469 L 216.824219 340.71875 L 281.332031 366.523438 L 345.84375 340.71875 L 345.84375 250.675781 L 322.382812 241.292969 L 322.382812 237.050781 C 322.382812 227.351562 330.277344 219.457031 339.976562 219.457031 Z M 286.347656 226.878906 L 281.332031 224.871094 L 257.875 234.253906 L 257.875 131.492188 C 257.875 125.023438 252.613281 119.761719 246.144531 119.761719 L 131.28125 119.761719 L 147.75 103.292969 C 152.058594 98.984375 155.527344 94.070312 158.175781 88.765625 C 167.671875 86.027344 177.519531 84.574219 187.5 84.574219 C 245.707031 84.574219 293.0625 131.929688 293.0625 190.136719 C 293.0625 202.832031 290.714844 215.136719 286.347656 226.878906 Z M 81.9375 66.980469 L 76.074219 66.980469 C 72.84375 66.980469 70.207031 64.351562 70.207031 61.117188 C 70.207031 57.878906 72.84375 55.25 76.074219 55.25 C 79.304688 55.25 81.9375 57.878906 81.9375 61.117188 Z M 105.394531 113.898438 L 93.667969 113.898438 L 93.667969 78.710938 L 105.394531 78.710938 Z M 117.125 125.625 L 117.125 131.492188 C 117.125 141.191406 109.230469 149.082031 99.53125 149.082031 C 89.832031 149.082031 81.9375 141.191406 81.9375 131.492188 L 81.9375 125.625 Z M 87.039062 157.914062 C 90.847656 159.722656 95.050781 160.8125 99.53125 160.8125 C 106.160156 160.8125 112.210938 158.519531 117.125 154.796875 L 117.125 248.78125 C 117.125 255.25 122.386719 260.511719 128.855469 260.511719 L 216.824219 260.511719 L 216.824219 291.480469 C 207.320312 294.230469 197.492188 295.699219 187.5 295.699219 C 129.292969 295.699219 81.9375 248.339844 81.9375 190.136719 C 81.9375 179.082031 83.714844 168.289062 87.039062 157.914062 Z M 221.5625 248.78125 L 128.855469 248.78125 L 128.855469 131.492188 L 152.3125 131.492188 L 152.3125 143.21875 C 152.3125 149.6875 157.574219 154.949219 164.042969 154.949219 L 210.957031 154.949219 C 217.425781 154.949219 222.6875 149.6875 222.6875 143.21875 L 222.6875 131.492188 L 246.144531 131.492188 L 246.144531 238.945312 Z M 210.957031 131.492188 L 210.957031 143.21875 L 193.363281 143.21875 L 193.363281 131.492188 Z M 181.636719 143.21875 L 164.042969 143.21875 L 164.042969 131.492188 L 181.636719 131.492188 Z M 46.75 63.960938 C 46.75 39.75 66.445312 20.0625 90.648438 20.0625 L 108.410156 20.0625 C 132.621094 20.0625 152.3125 39.75 152.3125 63.960938 C 152.3125 75.683594 147.742188 86.707031 139.457031 95 L 120.5625 113.898438 L 117.125 113.898438 L 117.125 78.710938 L 122.988281 78.710938 C 132.691406 78.710938 140.582031 70.816406 140.582031 61.117188 C 140.582031 51.414062 132.691406 43.523438 122.988281 43.523438 C 113.289062 43.523438 105.394531 51.414062 105.394531 61.117188 L 105.394531 66.980469 L 93.667969 66.980469 L 93.667969 61.117188 C 93.667969 51.414062 85.773438 43.523438 76.074219 43.523438 C 66.375 43.523438 58.480469 51.414062 58.480469 61.117188 C 58.480469 70.816406 66.375 78.710938 76.074219 78.710938 L 81.9375 78.710938 L 81.9375 113.898438 L 78.5 113.898438 L 59.605469 95 C 51.320312 86.707031 46.75 75.683594 46.75 63.960938 Z M 117.125 66.980469 L 117.125 61.117188 C 117.125 57.878906 119.757812 55.25 122.988281 55.25 C 126.222656 55.25 128.855469 57.878906 128.855469 61.117188 C 128.855469 64.351562 126.222656 66.980469 122.988281 66.980469 Z M 205.09375 330.886719 L 205.09375 336.75 L 169.90625 336.75 L 169.90625 327.59375 C 169.90625 318.933594 164.066406 311.339844 155.433594 309.046875 C 147.144531 306.824219 138.332031 310.480469 134.03125 317.925781 L 129.421875 325.898438 L 98.957031 308.304688 L 103.546875 300.355469 C 107.863281 292.871094 106.617188 283.375 100.363281 277.125 C 94.253906 271.007812 84.757812 269.765625 77.28125 274.082031 L 69.328125 278.679688 L 51.734375 248.210938 L 59.671875 243.632812 C 67.140625 239.320312 70.808594 230.488281 68.515625 221.875 C 66.285156 213.542969 58.71875 207.730469 50.097656 207.730469 L 40.886719 207.730469 L 40.886719 172.542969 L 50.097656 172.542969 C 58.71875 172.542969 66.285156 166.730469 68.578125 158.128906 C 70.800781 149.789062 67.136719 140.957031 59.664062 136.644531 L 51.730469 132.066406 L 62.109375 114.089844 L 70.207031 122.1875 L 70.207031 131.492188 C 70.207031 138.703125 72.925781 145.226562 77.257812 150.339844 C 72.652344 163.082031 70.207031 176.4375 70.207031 190.136719 C 70.207031 254.808594 122.824219 307.425781 187.5 307.425781 C 197.457031 307.425781 207.28125 306.136719 216.824219 303.679688 L 216.824219 314.371094 C 210.015625 316.796875 205.09375 323.25 205.09375 330.886719 Z M 334.113281 332.78125 L 281.332031 353.890625 L 228.550781 332.78125 L 228.550781 258.617188 L 281.332031 237.503906 L 334.113281 258.617188 Z M 297.226562 231.230469 C 302.152344 218.105469 304.789062 204.339844 304.789062 190.136719 C 304.789062 125.460938 252.175781 72.84375 187.5 72.84375 C 179.15625 72.84375 170.898438 73.777344 162.820312 75.507812 C 163.480469 72.382812 163.835938 69.179688 163.949219 65.929688 C 170.808594 63.527344 175.769531 57.058594 175.769531 49.386719 L 175.769531 43.523438 L 205.09375 43.523438 L 205.09375 52.734375 C 205.09375 61.351562 210.910156 68.914062 219.507812 71.214844 C 227.859375 73.417969 236.679688 69.761719 240.992188 62.292969 L 245.566406 54.367188 L 276.035156 71.960938 L 271.445312 79.910156 C 267.128906 87.394531 268.378906 96.890625 274.628906 103.140625 C 280.742188 109.25 290.230469 110.5 297.710938 106.183594 L 305.671875 101.59375 L 323.265625 132.058594 L 315.328125 136.640625 C 307.859375 140.949219 304.191406 149.78125 306.484375 158.398438 C 308.714844 166.730469 316.28125 172.542969 324.902344 172.542969 L 334.113281 172.542969 L 334.113281 208.320312 C 320.890625 211.019531 310.902344 222.65625 310.695312 236.617188 Z M 297.226562 231.230469 " fill-opacity="1" fill-rule="nonzero"/></g><path fill="#fabc05" d="M 140.582031 225.324219 L 152.3125 225.324219 L 152.3125 237.050781 L 140.582031 237.050781 Z M 140.582031 225.324219 " fill-opacity="1" fill-rule="nonzero"/><path fill="#fabc05" d="M 164.042969 225.324219 L 175.769531 225.324219 L 175.769531 237.050781 L 164.042969 237.050781 Z M 164.042969 225.324219 " fill-opacity="1" fill-rule="nonzero"/></svg>