<svg xmlns="http://www.w3.org/2000/svg" xmlns:xlink="http://www.w3.org/1999/xlink" width="1024" zoomAndPan="magnify" viewBox="0 0 768 767.999994" height="1024" preserveAspectRatio="xMidYMid meet" version="1.0"><defs><clipPath id="ff4d322652"><path d="M 95 30.8125 L 673 30.8125 L 673 737.3125 L 95 737.3125 Z M 95 30.8125 " clip-rule="nonzero"/></clipPath></defs><g clip-path="url(#ff4d322652)"><path fill="#092552" d="M 383.996094 30.8125 L 95.023438 159.246094 L 95.023438 351.890625 C 95.023438 603.292969 301.765625 720.679688 383.996094 737.183594 C 466.222656 720.679688 672.964844 603.292969 672.964844 351.890625 L 672.964844 159.246094 Z M 383.996094 101.113281 L 608.75 201.007812 L 608.75 351.890625 C 608.75 548.839844 455.113281 649.03125 383.996094 670.960938 C 312.875 649.03125 159.238281 548.839844 159.238281 351.890625 L 159.238281 201.007812 Z M 537.886719 248.984375 L 351.886719 434.917969 L 262.898438 345.933594 L 217.496094 391.335938 L 351.886719 525.722656 L 583.226562 294.324219 Z M 537.886719 248.984375 " fill-opacity="1" fill-rule="nonzero"/></g></svg>