<svg xmlns="http://www.w3.org/2000/svg" xmlns:xlink="http://www.w3.org/1999/xlink" width="500" zoomAndPan="magnify" viewBox="0 0 375 374.999991" height="500" preserveAspectRatio="xMidYMid meet" version="1.0"><defs><clipPath id="b67589530f"><path d="M 17.875 17.875 L 356.875 17.875 L 356.875 356.875 L 17.875 356.875 Z M 17.875 17.875 " clip-rule="nonzero"/></clipPath></defs><path fill="#34a853" d="M 258.367188 126.257812 C 257.820312 124.277344 256.496094 122.671875 254.605469 121.679688 C 255.011719 117.246094 254.410156 111.804688 253.386719 107.316406 C 252.484375 103.640625 251.105469 99.523438 248.988281 95.210938 C 246.761719 90.988281 244.003906 86.464844 240.132812 82.3125 C 236.460938 78.003906 231.722656 74.097656 226.371094 70.636719 C 179.757812 41.074219 115.390625 76.042969 120.390625 121.699219 C 118.519531 122.671875 117.191406 124.296875 116.664062 126.257812 C 105.621094 126.453125 96.75 134.648438 96.75 144.773438 C 96.75 154.898438 105.621094 163.113281 116.664062 163.308594 C 117.527344 166.507812 120.550781 168.929688 124.3125 168.929688 C 128.785156 168.929688 132.386719 165.625 132.386719 161.542969 L 132.386719 128.023438 C 132.386719 125.691406 131.152344 123.714844 129.332031 122.351562 C 131.347656 110.816406 137.335938 98.621094 145.746094 91.058594 C 158.097656 79.027344 179.53125 72.066406 203.082031 77.3125 C 212.128906 80.015625 221.050781 84.558594 228.492188 91.820312 C 236.757812 99.257812 243.472656 110.40625 245.664062 122.371094 C 240.894531 125.902344 242.609375 128.960938 242.609375 161.542969 C 242.609375 164.085938 244.109375 166.242188 246.265625 167.566406 L 246.265625 170.394531 C 246.265625 172.195312 245.753906 173.964844 244.78125 175.484375 C 234.234375 191.898438 233.542969 193.578125 217.625 198.664062 C 212.625 200.273438 206.96875 200.960938 201.246094 202.359375 C 195.996094 197.144531 186.683594 200.574219 186.683594 207.550781 C 186.683594 216.335938 200.414062 218.347656 203.082031 209.550781 C 206.933594 208.613281 210.910156 208.066406 214.65625 206.917969 C 235.1875 200.679688 241.902344 196.96875 252.769531 176.226562 C 253.792969 174.265625 254.339844 172.089844 254.339844 169.863281 L 254.339844 168.027344 C 256.355469 167.074219 257.804688 165.375 258.367188 163.308594 C 269.375 163.097656 278.246094 154.898438 278.246094 144.773438 C 278.246094 134.667969 269.375 126.46875 258.367188 126.257812 " fill-opacity="1" fill-rule="nonzero"/><path fill="#34a853" d="M 187.535156 246.089844 C 194.125 236.832031 199.847656 228.878906 205.484375 220.839844 C 212.074219 211.441406 218.71875 208.402344 229.125 211.917969 C 242.359375 216.386719 255.472656 221.371094 268.261719 226.9375 C 279.269531 231.742188 285.457031 240.292969 284.765625 252.980469 C 284.414062 259.234375 284.765625 265.507812 284.679688 271.761719 C 284.449219 289.007812 276.601562 297.027344 259.515625 297.117188 C 237.464844 297.242188 215.414062 297.152344 193.363281 297.152344 C 167.726562 297.152344 142.105469 297.222656 116.46875 297.117188 C 98.144531 297.046875 90.425781 289.21875 90.320312 270.984375 C 90.28125 265.03125 90.617188 259.039062 90.246094 253.101562 C 89.433594 239.90625 96.238281 231.40625 107.457031 226.566406 C 120.265625 221.035156 133.449219 216.210938 146.699219 211.828125 C 158.007812 208.066406 161.507812 209.742188 168.503906 219.550781 C 174.527344 227.996094 180.589844 236.425781 187.535156 246.089844 " fill-opacity="1" fill-rule="nonzero"/><path fill="#34a853" d="M 234.234375 136.027344 C 233.03125 151.578125 228.121094 171.472656 211.8125 186.773438 C 197.976562 199.742188 176.878906 200.078125 163.273438 186.792969 C 144.402344 168.363281 138.464844 144.949219 141.382812 119.683594 C 142.917969 106.449219 150.976562 96.042969 164.527344 91.609375 C 184.652344 85.019531 204.140625 84.382812 221.882812 98.445312 C 232.234375 106.664062 234.605469 117.933594 234.234375 136.027344 " fill-opacity="1" fill-rule="nonzero"/><g clip-path="url(#b67589530f)"><path fill="#34a853" d="M 187.5 343.835938 C 101.148438 343.835938 31.164062 273.847656 31.164062 187.5 C 31.164062 101.148438 101.148438 31.164062 187.5 31.164062 C 273.847656 31.164062 343.835938 101.148438 343.835938 187.5 C 343.835938 273.847656 273.847656 343.835938 187.5 343.835938 Z M 187.5 17.875 C 93.816406 17.875 17.875 93.816406 17.875 187.5 C 17.875 281.179688 93.816406 357.121094 187.5 357.121094 C 281.179688 357.121094 357.121094 281.179688 357.121094 187.5 C 357.121094 93.816406 281.179688 17.875 187.5 17.875 " fill-opacity="1" fill-rule="nonzero"/></g></svg>