<svg xmlns="http://www.w3.org/2000/svg" xmlns:xlink="http://www.w3.org/1999/xlink" width="500" zoomAndPan="magnify" viewBox="0 0 375 374.999991" height="500" preserveAspectRatio="xMidYMid meet" version="1.0"><defs><clipPath id="810d87201f"><path d="M 16.125 16.125 L 358.875 16.125 L 358.875 358.875 L 16.125 358.875 Z M 16.125 16.125 " clip-rule="nonzero"/></clipPath></defs><g clip-path="url(#810d87201f)"><path fill="#34a853" d="M 335.960938 201.621094 C 335.035156 201.621094 334.117188 201.53125 333.207031 201.351562 C 332.296875 201.171875 331.414062 200.902344 330.554688 200.546875 C 329.699219 200.195312 328.882812 199.757812 328.113281 199.242188 C 327.339844 198.726562 326.628906 198.140625 325.972656 197.488281 C 325.316406 196.832031 324.730469 196.117188 324.214844 195.347656 C 323.699219 194.574219 323.261719 193.761719 322.90625 192.902344 C 322.550781 192.046875 322.285156 191.164062 322.101562 190.253906 C 321.921875 189.34375 321.832031 188.425781 321.832031 187.496094 C 321.832031 186.570312 321.921875 185.652344 322.101562 184.742188 C 322.28125 183.832031 322.550781 182.949219 322.90625 182.089844 C 323.261719 181.234375 323.695312 180.417969 324.210938 179.648438 C 324.726562 178.875 325.3125 178.164062 325.96875 177.507812 C 326.625 176.851562 327.335938 176.265625 328.109375 175.75 C 328.878906 175.234375 329.695312 174.796875 330.550781 174.441406 C 331.40625 174.089844 332.292969 173.820312 333.203125 173.640625 C 334.109375 173.457031 335.03125 173.367188 335.957031 173.367188 C 336.886719 173.367188 337.804688 173.457031 338.714844 173.636719 C 339.625 173.820312 340.507812 174.085938 341.363281 174.441406 C 342.222656 174.796875 343.035156 175.230469 343.808594 175.746094 C 344.578125 176.261719 345.292969 176.847656 345.949219 177.503906 C 346.605469 178.160156 347.191406 178.875 347.707031 179.644531 C 348.21875 180.417969 348.65625 181.230469 349.011719 182.089844 C 349.367188 182.945312 349.632812 183.828125 349.816406 184.738281 C 349.996094 185.648438 350.085938 186.566406 350.085938 187.496094 C 350.085938 188.421875 349.996094 189.339844 349.8125 190.25 C 349.632812 191.160156 349.363281 192.042969 349.007812 192.898438 C 348.652344 193.753906 348.21875 194.570312 347.703125 195.339844 C 347.1875 196.109375 346.601562 196.824219 345.945312 197.480469 C 345.289062 198.136719 344.578125 198.722656 343.808594 199.238281 C 343.035156 199.75 342.222656 200.1875 341.367188 200.542969 C 340.507812 200.898438 339.625 201.167969 338.71875 201.347656 C 337.808594 201.53125 336.890625 201.621094 335.960938 201.621094 Z M 230.667969 227.683594 C 226.589844 224.210938 222.15625 221.265625 217.367188 218.859375 C 219.796875 209.898438 221.125 200.78125 221.355469 191.5 L 246.277344 191.5 C 246.050781 194.847656 245.546875 198.152344 244.757812 201.414062 C 243.96875 204.675781 242.910156 207.847656 241.582031 210.929688 C 240.25 214.011719 238.671875 216.957031 236.839844 219.769531 C 235.007812 222.582031 232.953125 225.21875 230.671875 227.679688 Z M 127.957031 191.503906 L 152.875 191.503906 C 153.101562 200.785156 154.429688 209.902344 156.859375 218.863281 C 152.074219 221.269531 147.640625 224.214844 143.5625 227.6875 C 141.28125 225.226562 139.226562 222.589844 137.394531 219.777344 C 135.5625 216.964844 133.980469 214.019531 132.652344 210.9375 C 131.324219 207.855469 130.265625 204.683594 129.476562 201.421875 C 128.6875 198.160156 128.179688 194.855469 127.957031 191.507812 Z M 143.5625 147.300781 C 147.640625 150.777344 152.074219 153.722656 156.859375 156.136719 C 154.429688 165.09375 153.101562 174.214844 152.875 183.492188 L 127.957031 183.492188 C 128.179688 180.144531 128.6875 176.839844 129.476562 173.578125 C 130.265625 170.316406 131.324219 167.144531 132.652344 164.0625 C 133.980469 160.980469 135.5625 158.03125 137.394531 155.21875 C 139.226562 152.40625 141.28125 149.769531 143.5625 147.308594 Z M 191.121094 183.484375 L 191.121094 163.175781 C 197.570312 162.796875 203.832031 161.515625 209.914062 159.332031 C 211.960938 167.253906 213.101562 175.304688 213.332031 183.484375 Z M 191.121094 211.816406 L 191.121094 191.503906 L 213.332031 191.503906 C 213.101562 199.683594 211.964844 207.734375 209.914062 215.65625 C 203.828125 213.472656 197.5625 212.191406 191.109375 211.816406 Z M 214.828125 226.574219 C 212.488281 233.0625 209.078125 238.925781 204.59375 244.160156 C 212.050781 241.855469 218.789062 238.214844 224.804688 233.238281 C 221.707031 230.679688 218.382812 228.460938 214.832031 226.574219 Z M 204.945312 229.234375 C 201.042969 237.160156 196.160156 242.402344 191.128906 244.253906 L 191.128906 219.855469 C 196.746094 220.230469 202.199219 221.382812 207.488281 223.3125 C 206.730469 225.378906 205.867188 227.367188 204.945312 229.234375 Z M 169.636719 244.160156 C 165.148438 238.921875 161.738281 233.0625 159.398438 226.574219 C 155.847656 228.460938 152.523438 230.679688 149.425781 233.238281 C 155.441406 238.210938 162.179688 241.851562 169.636719 244.160156 Z M 183.101562 219.84375 L 183.101562 244.242188 C 178.070312 242.390625 173.1875 237.144531 169.28125 229.21875 C 168.367188 227.351562 167.523438 225.363281 166.742188 223.296875 C 172.03125 221.367188 177.484375 220.214844 183.101562 219.84375 Z M 183.101562 191.488281 L 183.101562 211.8125 C 176.652344 212.1875 170.382812 213.46875 164.300781 215.652344 C 162.246094 207.730469 161.109375 199.679688 160.882812 191.5 Z M 183.101562 163.15625 L 183.101562 183.472656 L 160.894531 183.472656 C 161.121094 175.289062 162.261719 167.238281 164.316406 159.316406 C 170.394531 161.507812 176.65625 162.792969 183.105469 163.175781 Z M 159.398438 148.398438 C 161.738281 141.917969 165.152344 136.0625 169.636719 130.828125 C 162.179688 133.136719 155.441406 136.777344 149.425781 141.75 C 152.523438 144.308594 155.847656 146.53125 159.398438 148.414062 Z M 169.277344 145.738281 C 173.183594 137.808594 178.066406 132.566406 183.097656 130.714844 L 183.097656 155.109375 C 177.480469 154.738281 172.027344 153.589844 166.738281 151.660156 C 167.519531 149.589844 168.363281 147.609375 169.277344 145.738281 Z M 204.578125 130.808594 C 212.039062 133.113281 218.773438 136.753906 224.789062 141.730469 C 221.691406 144.292969 218.367188 146.511719 214.820312 148.394531 C 212.484375 141.914062 209.074219 136.058594 204.59375 130.828125 Z M 191.113281 130.714844 L 191.113281 155.109375 C 196.730469 154.738281 202.183594 153.589844 207.472656 151.660156 C 206.714844 149.589844 205.851562 147.609375 204.933594 145.738281 C 201.03125 137.808594 196.148438 132.566406 191.113281 130.714844 Z M 246.273438 183.484375 C 246.046875 180.136719 245.542969 176.832031 244.753906 173.570312 C 243.964844 170.308594 242.90625 167.136719 241.578125 164.054688 C 240.246094 160.972656 238.667969 158.023438 236.835938 155.210938 C 235.003906 152.398438 232.949219 149.761719 230.667969 147.300781 C 226.585938 150.777344 222.15625 153.722656 217.367188 156.136719 C 219.800781 165.09375 221.128906 174.214844 221.355469 183.492188 Z M 312.085938 292.886719 C 312.085938 293.8125 311.996094 294.730469 311.8125 295.640625 C 311.632812 296.550781 311.363281 297.433594 311.007812 298.292969 C 310.65625 299.148438 310.21875 299.960938 309.703125 300.734375 C 309.1875 301.503906 308.601562 302.21875 307.945312 302.875 C 307.292969 303.53125 306.578125 304.117188 305.804688 304.632812 C 305.035156 305.148438 304.222656 305.582031 303.363281 305.9375 C 302.507812 306.292969 301.625 306.558594 300.714844 306.742188 C 299.804688 306.921875 298.886719 307.011719 297.957031 307.011719 C 297.03125 307.011719 296.109375 306.921875 295.203125 306.742188 C 294.292969 306.558594 293.40625 306.292969 292.550781 305.9375 C 291.695312 305.582031 290.878906 305.148438 290.109375 304.632812 C 289.335938 304.117188 288.625 303.53125 287.96875 302.875 C 287.3125 302.21875 286.726562 301.503906 286.210938 300.734375 C 285.695312 299.960938 285.261719 299.148438 284.90625 298.292969 C 284.550781 297.433594 284.28125 296.550781 284.101562 295.640625 C 283.921875 294.730469 283.828125 293.8125 283.828125 292.886719 C 283.828125 291.957031 283.921875 291.039062 284.101562 290.128906 C 284.28125 289.21875 284.550781 288.335938 284.90625 287.476562 C 285.261719 286.621094 285.695312 285.808594 286.210938 285.035156 C 286.726562 284.265625 287.3125 283.550781 287.96875 282.894531 C 288.625 282.238281 289.335938 281.652344 290.109375 281.136719 C 290.878906 280.621094 291.695312 280.1875 292.550781 279.832031 C 293.40625 279.476562 294.292969 279.210938 295.203125 279.027344 C 296.109375 278.847656 297.03125 278.757812 297.957031 278.757812 C 298.886719 278.757812 299.804688 278.847656 300.710938 279.03125 C 301.621094 279.210938 302.503906 279.480469 303.363281 279.835938 C 304.21875 280.191406 305.03125 280.625 305.804688 281.140625 C 306.574219 281.65625 307.289062 282.242188 307.945312 282.898438 C 308.597656 283.554688 309.183594 284.269531 309.699219 285.039062 C 310.214844 285.808594 310.652344 286.625 311.007812 287.480469 C 311.363281 288.335938 311.628906 289.21875 311.8125 290.128906 C 311.992188 291.039062 312.085938 291.957031 312.085938 292.886719 Z M 262.984375 321.515625 C 262.984375 322.445312 262.894531 323.363281 262.714844 324.273438 C 262.53125 325.183594 262.265625 326.066406 261.910156 326.925781 C 261.554688 327.78125 261.121094 328.597656 260.605469 329.367188 C 260.089844 330.140625 259.503906 330.851562 258.847656 331.507812 C 258.191406 332.164062 257.480469 332.75 256.707031 333.265625 C 255.9375 333.78125 255.121094 334.21875 254.265625 334.574219 C 253.40625 334.929688 252.523438 335.199219 251.613281 335.378906 C 250.703125 335.558594 249.785156 335.652344 248.855469 335.652344 C 247.929688 335.652344 247.011719 335.5625 246.101562 335.378906 C 245.191406 335.199219 244.304688 334.933594 243.449219 334.578125 C 242.589844 334.222656 241.777344 333.785156 241.003906 333.273438 C 240.234375 332.757812 239.519531 332.171875 238.863281 331.515625 C 238.207031 330.859375 237.621094 330.144531 237.105469 329.375 C 236.589844 328.601562 236.15625 327.789062 235.800781 326.929688 C 235.445312 326.074219 235.175781 325.191406 234.996094 324.28125 C 234.8125 323.371094 234.722656 322.453125 234.722656 321.523438 C 234.722656 320.597656 234.8125 319.675781 234.992188 318.765625 C 235.171875 317.855469 235.441406 316.972656 235.796875 316.117188 C 236.152344 315.257812 236.585938 314.445312 237.101562 313.671875 C 237.617188 312.902344 238.203125 312.1875 238.859375 311.53125 C 239.515625 310.875 240.226562 310.289062 241 309.773438 C 241.769531 309.257812 242.585938 308.820312 243.441406 308.464844 C 244.300781 308.109375 245.183594 307.84375 246.09375 307.660156 C 247.003906 307.480469 247.921875 307.390625 248.847656 307.386719 C 249.777344 307.390625 250.695312 307.480469 251.605469 307.660156 C 252.515625 307.84375 253.398438 308.113281 254.253906 308.46875 C 255.113281 308.820312 255.925781 309.257812 256.699219 309.773438 C 257.46875 310.289062 258.183594 310.875 258.839844 311.527344 C 259.496094 312.183594 260.082031 312.898438 260.597656 313.667969 C 261.113281 314.441406 261.546875 315.253906 261.902344 316.109375 C 262.257812 316.96875 262.527344 317.851562 262.710938 318.761719 C 262.890625 319.667969 262.984375 320.589844 262.984375 321.515625 Z M 234.722656 53.472656 C 234.722656 52.546875 234.8125 51.625 234.992188 50.714844 C 235.171875 49.804688 235.441406 48.921875 235.796875 48.066406 C 236.152344 47.207031 236.585938 46.394531 237.101562 45.621094 C 237.617188 44.847656 238.203125 44.136719 238.859375 43.480469 C 239.515625 42.824219 240.230469 42.238281 241 41.722656 C 241.773438 41.207031 242.585938 40.769531 243.445312 40.414062 C 244.300781 40.058594 245.183594 39.792969 246.09375 39.609375 C 247.003906 39.429688 247.925781 39.339844 248.851562 39.339844 C 249.78125 39.339844 250.699219 39.429688 251.609375 39.609375 C 252.519531 39.789062 253.402344 40.058594 254.261719 40.414062 C 255.117188 40.769531 255.933594 41.203125 256.703125 41.71875 C 257.476562 42.234375 258.1875 42.820312 258.84375 43.476562 C 259.5 44.132812 260.085938 44.847656 260.601562 45.617188 C 261.117188 46.390625 261.554688 47.203125 261.910156 48.0625 C 262.265625 48.917969 262.53125 49.804688 262.714844 50.714844 C 262.894531 51.625 262.984375 52.542969 262.984375 53.472656 C 262.984375 54.398438 262.894531 55.316406 262.710938 56.226562 C 262.53125 57.136719 262.261719 58.023438 261.90625 58.878906 C 261.554688 59.738281 261.117188 60.550781 260.601562 61.324219 C 260.085938 62.09375 259.5 62.808594 258.84375 63.464844 C 258.1875 64.121094 257.472656 64.707031 256.703125 65.222656 C 255.929688 65.738281 255.117188 66.171875 254.257812 66.527344 C 253.402344 66.882812 252.515625 67.148438 251.605469 67.328125 C 250.695312 67.511719 249.777344 67.601562 248.847656 67.601562 C 247.921875 67.601562 247.003906 67.507812 246.09375 67.328125 C 245.183594 67.144531 244.300781 66.875 243.445312 66.519531 C 242.589844 66.164062 241.777344 65.730469 241.003906 65.214844 C 240.234375 64.699219 239.519531 64.113281 238.867188 63.457031 C 238.210938 62.800781 237.625 62.089844 237.109375 61.316406 C 236.59375 60.546875 236.15625 59.734375 235.800781 58.875 C 235.445312 58.019531 235.179688 57.136719 234.996094 56.226562 C 234.816406 55.320312 234.722656 54.402344 234.722656 53.472656 Z M 283.828125 82.105469 C 283.828125 81.175781 283.921875 80.257812 284.101562 79.347656 C 284.28125 78.4375 284.550781 77.554688 284.902344 76.699219 C 285.257812 75.839844 285.695312 75.027344 286.210938 74.253906 C 286.722656 73.484375 287.308594 72.769531 287.964844 72.113281 C 288.621094 71.457031 289.335938 70.871094 290.105469 70.355469 C 290.878906 69.839844 291.691406 69.40625 292.546875 69.050781 C 293.40625 68.695312 294.289062 68.425781 295.199219 68.246094 C 296.109375 68.0625 297.027344 67.972656 297.953125 67.972656 C 298.882812 67.972656 299.800781 68.0625 300.710938 68.246094 C 301.621094 68.425781 302.503906 68.691406 303.363281 69.046875 C 304.21875 69.402344 305.035156 69.835938 305.804688 70.351562 C 306.574219 70.867188 307.289062 71.453125 307.945312 72.109375 C 308.601562 72.765625 309.1875 73.480469 309.703125 74.25 C 310.21875 75.023438 310.652344 75.835938 311.007812 76.691406 C 311.363281 77.550781 311.632812 78.433594 311.8125 79.34375 C 311.996094 80.253906 312.085938 81.171875 312.085938 82.097656 C 312.085938 83.027344 311.996094 83.945312 311.8125 84.855469 C 311.632812 85.765625 311.363281 86.648438 311.011719 87.507812 C 310.65625 88.363281 310.21875 89.175781 309.703125 89.949219 C 309.1875 90.71875 308.605469 91.433594 307.949219 92.089844 C 307.292969 92.746094 306.578125 93.332031 305.808594 93.847656 C 305.035156 94.363281 304.222656 94.796875 303.363281 95.152344 C 302.507812 95.507812 301.625 95.777344 300.714844 95.957031 C 299.804688 96.136719 298.886719 96.226562 297.957031 96.226562 C 297.03125 96.226562 296.113281 96.136719 295.203125 95.953125 C 294.292969 95.773438 293.410156 95.503906 292.554688 95.148438 C 291.699219 94.792969 290.886719 94.359375 290.113281 93.84375 C 289.34375 93.328125 288.628906 92.742188 287.976562 92.085938 C 287.320312 91.429688 286.734375 90.71875 286.21875 89.945312 C 285.703125 89.175781 285.265625 88.363281 284.910156 87.507812 C 284.554688 86.652344 284.289062 85.769531 284.105469 84.859375 C 283.921875 83.949219 283.832031 83.03125 283.828125 82.105469 Z M 335.960938 165.355469 C 334.679688 165.355469 333.40625 165.46875 332.140625 165.691406 C 330.875 165.914062 329.640625 166.246094 328.433594 166.683594 C 327.226562 167.121094 326.066406 167.65625 324.953125 168.296875 C 323.839844 168.9375 322.789062 169.667969 321.800781 170.488281 C 320.8125 171.308594 319.90625 172.210938 319.074219 173.191406 C 318.246094 174.167969 317.503906 175.214844 316.855469 176.320312 C 316.207031 177.429688 315.660156 178.585938 315.210938 179.789062 C 314.761719 180.992188 314.421875 182.222656 314.1875 183.484375 L 254.300781 183.484375 C 253.882812 176.371094 252.363281 169.5 249.742188 162.871094 L 293.628906 162.871094 C 294.175781 162.871094 294.71875 162.816406 295.253906 162.707031 C 295.789062 162.601562 296.3125 162.441406 296.816406 162.230469 C 297.320312 162.023438 297.800781 161.765625 298.253906 161.460938 C 298.710938 161.15625 299.128906 160.8125 299.515625 160.425781 C 299.902344 160.039062 300.25 159.617188 300.554688 159.164062 C 300.855469 158.710938 301.113281 158.230469 301.324219 157.726562 C 301.535156 157.21875 301.695312 156.699219 301.800781 156.164062 C 301.910156 155.628906 301.964844 155.085938 301.964844 154.539062 L 301.964844 103.875 C 302.414062 103.789062 302.859375 103.695312 303.300781 103.585938 C 303.742188 103.476562 304.179688 103.351562 304.613281 103.214844 C 305.050781 103.078125 305.476562 102.929688 305.902344 102.765625 C 306.328125 102.601562 306.746094 102.425781 307.160156 102.234375 C 307.574219 102.046875 307.984375 101.84375 308.386719 101.628906 C 308.789062 101.414062 309.183594 101.1875 309.570312 100.949219 C 309.957031 100.710938 310.335938 100.460938 310.710938 100.199219 C 311.082031 99.9375 311.445312 99.664062 311.800781 99.378906 C 312.15625 99.09375 312.503906 98.800781 312.839844 98.492188 C 313.175781 98.1875 313.503906 97.871094 313.820312 97.546875 C 314.140625 97.21875 314.445312 96.882812 314.742188 96.539062 C 315.039062 96.191406 315.328125 95.839844 315.601562 95.476562 C 315.875 95.113281 316.140625 94.742188 316.394531 94.363281 C 316.644531 93.984375 316.886719 93.597656 317.113281 93.203125 C 317.34375 92.8125 317.558594 92.410156 317.761719 92.003906 C 317.964844 91.597656 318.15625 91.183594 318.335938 90.765625 C 318.511719 90.34375 318.679688 89.921875 318.832031 89.492188 C 318.984375 89.0625 319.121094 88.628906 319.246094 88.191406 C 319.371094 87.753906 319.484375 87.3125 319.582031 86.867188 C 319.679688 86.421875 319.765625 85.976562 319.835938 85.527344 C 319.90625 85.078125 319.960938 84.625 320.003906 84.171875 C 320.046875 83.71875 320.078125 83.265625 320.089844 82.808594 C 320.105469 82.355469 320.105469 81.898438 320.09375 81.445312 C 320.078125 80.988281 320.050781 80.535156 320.011719 80.082031 C 319.96875 79.628906 319.914062 79.175781 319.84375 78.726562 C 319.777344 78.277344 319.691406 77.828125 319.597656 77.382812 C 319.5 76.9375 319.386719 76.496094 319.265625 76.058594 C 319.140625 75.621094 319.003906 75.1875 318.851562 74.757812 C 318.703125 74.328125 318.539062 73.90625 318.359375 73.484375 C 318.183594 73.066406 317.992188 72.652344 317.792969 72.242188 C 317.589844 71.835938 317.375 71.433594 317.144531 71.039062 C 316.917969 70.644531 316.679688 70.257812 316.429688 69.878906 C 316.179688 69.5 315.914062 69.128906 315.640625 68.765625 C 315.367188 68.402344 315.082031 68.046875 314.785156 67.699219 C 314.488281 67.355469 314.183594 67.015625 313.867188 66.691406 C 313.550781 66.363281 313.222656 66.046875 312.886719 65.738281 C 312.550781 65.433594 312.207031 65.136719 311.851562 64.851562 C 311.496094 64.566406 311.132812 64.289062 310.761719 64.027344 C 310.390625 63.765625 310.011719 63.511719 309.625 63.273438 C 309.238281 63.03125 308.84375 62.804688 308.441406 62.589844 C 308.042969 62.375 307.636719 62.171875 307.222656 61.980469 C 306.808594 61.789062 306.390625 61.613281 305.964844 61.449219 C 305.539062 61.28125 305.109375 61.132812 304.675781 60.992188 C 304.242188 60.855469 303.804688 60.730469 303.363281 60.621094 C 302.921875 60.507812 302.476562 60.410156 302.03125 60.328125 C 301.582031 60.242188 301.132812 60.171875 300.679688 60.117188 C 300.230469 60.0625 299.777344 60.019531 299.320312 59.992188 C 298.867188 59.964844 298.414062 59.949219 297.957031 59.949219 C 297.503906 59.949219 297.046875 59.964844 296.59375 59.992188 C 296.136719 60.019531 295.683594 60.0625 295.234375 60.117188 C 294.78125 60.171875 294.332031 60.242188 293.882812 60.328125 C 293.4375 60.410156 292.992188 60.507812 292.550781 60.621094 C 292.109375 60.730469 291.671875 60.855469 291.238281 60.992188 C 290.804688 61.132812 290.375 61.28125 289.949219 61.449219 C 289.527344 61.613281 289.105469 61.789062 288.695312 61.980469 C 288.28125 62.171875 287.871094 62.375 287.472656 62.589844 C 287.070312 62.804688 286.675781 63.03125 286.289062 63.273438 C 285.902344 63.511719 285.523438 63.765625 285.152344 64.027344 C 284.78125 64.289062 284.417969 64.566406 284.0625 64.851562 C 283.707031 65.136719 283.363281 65.433594 283.027344 65.738281 C 282.691406 66.046875 282.363281 66.363281 282.046875 66.691406 C 281.730469 67.015625 281.425781 67.355469 281.128906 67.699219 C 280.832031 68.046875 280.546875 68.402344 280.273438 68.765625 C 280 69.128906 279.738281 69.5 279.484375 69.878906 C 279.234375 70.257812 278.996094 70.644531 278.769531 71.039062 C 278.542969 71.433594 278.328125 71.835938 278.125 72.242188 C 277.921875 72.652344 277.730469 73.066406 277.554688 73.484375 C 277.378906 73.90625 277.214844 74.328125 277.0625 74.757812 C 276.910156 75.1875 276.773438 75.621094 276.652344 76.058594 C 276.527344 76.496094 276.414062 76.9375 276.320312 77.382812 C 276.222656 77.828125 276.140625 78.277344 276.070312 78.726562 C 276 79.175781 275.945312 79.628906 275.902344 80.082031 C 275.863281 80.535156 275.835938 80.988281 275.820312 81.445312 C 275.808594 81.898438 275.808594 82.355469 275.824219 82.808594 C 275.839844 83.265625 275.867188 83.71875 275.910156 84.171875 C 275.953125 84.625 276.007812 85.078125 276.082031 85.527344 C 276.152344 85.976562 276.234375 86.421875 276.332031 86.867188 C 276.429688 87.3125 276.542969 87.753906 276.667969 88.191406 C 276.792969 88.628906 276.933594 89.0625 277.085938 89.492188 C 277.238281 89.921875 277.402344 90.34375 277.578125 90.765625 C 277.757812 91.183594 277.949219 91.597656 278.152344 92.003906 C 278.355469 92.410156 278.574219 92.8125 278.800781 93.203125 C 279.03125 93.597656 279.269531 93.984375 279.523438 94.363281 C 279.773438 94.742188 280.039062 95.113281 280.3125 95.476562 C 280.589844 95.839844 280.875 96.191406 281.171875 96.539062 C 281.46875 96.882812 281.777344 97.21875 282.09375 97.546875 C 282.410156 97.871094 282.738281 98.1875 283.074219 98.492188 C 283.414062 98.800781 283.757812 99.09375 284.113281 99.378906 C 284.46875 99.664062 284.832031 99.9375 285.207031 100.199219 C 285.578125 100.460938 285.957031 100.710938 286.34375 100.949219 C 286.734375 101.1875 287.128906 101.414062 287.53125 101.628906 C 287.929688 101.84375 288.339844 102.046875 288.753906 102.234375 C 289.167969 102.425781 289.585938 102.601562 290.011719 102.765625 C 290.4375 102.929688 290.867188 103.078125 291.300781 103.214844 C 291.734375 103.351562 292.171875 103.476562 292.613281 103.585938 C 293.054688 103.695312 293.5 103.789062 293.949219 103.875 L 293.949219 154.539062 C 293.945312 154.625 293.914062 154.699219 293.851562 154.761719 C 293.789062 154.824219 293.714844 154.855469 293.628906 154.859375 L 245.964844 154.859375 C 241.460938 146.777344 235.550781 139.902344 228.230469 134.242188 L 244.527344 134.242188 C 245.074219 134.238281 245.617188 134.183594 246.152344 134.078125 C 246.6875 133.96875 247.207031 133.8125 247.714844 133.601562 C 248.21875 133.390625 248.699219 133.132812 249.152344 132.832031 C 249.605469 132.527344 250.027344 132.179688 250.410156 131.792969 C 250.796875 131.40625 251.144531 130.988281 251.445312 130.53125 C 251.75 130.078125 252.007812 129.597656 252.214844 129.09375 C 252.425781 128.589844 252.582031 128.066406 252.691406 127.53125 C 252.796875 126.996094 252.851562 126.453125 252.851562 125.910156 L 252.851562 75.246094 C 253.296875 75.164062 253.742188 75.066406 254.183594 74.957031 C 254.625 74.847656 255.066406 74.722656 255.5 74.585938 C 255.933594 74.449219 256.363281 74.300781 256.789062 74.136719 C 257.214844 73.972656 257.632812 73.796875 258.046875 73.609375 C 258.460938 73.417969 258.867188 73.21875 259.269531 73.003906 C 259.671875 72.789062 260.066406 72.5625 260.453125 72.324219 C 260.84375 72.085938 261.222656 71.835938 261.59375 71.574219 C 261.964844 71.308594 262.332031 71.035156 262.6875 70.753906 C 263.042969 70.46875 263.386719 70.171875 263.726562 69.867188 C 264.0625 69.5625 264.390625 69.246094 264.707031 68.917969 C 265.023438 68.59375 265.332031 68.257812 265.628906 67.910156 C 265.925781 67.566406 266.210938 67.210938 266.488281 66.851562 C 266.761719 66.488281 267.027344 66.117188 267.277344 65.738281 C 267.53125 65.359375 267.769531 64.972656 268 64.578125 C 268.226562 64.183594 268.445312 63.785156 268.648438 63.375 C 268.851562 62.96875 269.042969 62.554688 269.21875 62.136719 C 269.398438 61.71875 269.5625 61.292969 269.714844 60.863281 C 269.867188 60.4375 270.007812 60.003906 270.132812 59.566406 C 270.257812 59.128906 270.371094 58.6875 270.46875 58.242188 C 270.566406 57.796875 270.648438 57.351562 270.722656 56.898438 C 270.792969 56.449219 270.847656 56 270.890625 55.546875 C 270.933594 55.09375 270.960938 54.636719 270.976562 54.183594 C 270.992188 53.726562 270.992188 53.273438 270.980469 52.816406 C 270.964844 52.363281 270.9375 51.910156 270.898438 51.453125 C 270.855469 51 270.800781 50.550781 270.730469 50.101562 C 270.660156 49.648438 270.578125 49.203125 270.480469 48.757812 C 270.386719 48.3125 270.273438 47.871094 270.152344 47.433594 C 270.027344 46.996094 269.890625 46.5625 269.738281 46.132812 C 269.585938 45.703125 269.425781 45.277344 269.246094 44.859375 C 269.070312 44.4375 268.878906 44.023438 268.675781 43.617188 C 268.476562 43.210938 268.261719 42.808594 268.03125 42.414062 C 267.804688 42.019531 267.566406 41.632812 267.316406 41.253906 C 267.0625 40.871094 266.800781 40.5 266.527344 40.136719 C 266.253906 39.773438 265.96875 39.417969 265.671875 39.074219 C 265.375 38.726562 265.070312 38.390625 264.753906 38.0625 C 264.4375 37.734375 264.109375 37.417969 263.773438 37.113281 C 263.4375 36.804688 263.09375 36.507812 262.738281 36.222656 C 262.382812 35.9375 262.019531 35.664062 261.648438 35.398438 C 261.277344 35.136719 260.898438 34.882812 260.511719 34.644531 C 260.125 34.40625 259.730469 34.175781 259.328125 33.960938 C 258.929688 33.746094 258.519531 33.542969 258.109375 33.351562 C 257.695312 33.160156 257.273438 32.984375 256.851562 32.820312 C 256.425781 32.65625 255.996094 32.503906 255.5625 32.367188 C 255.128906 32.226562 254.691406 32.101562 254.25 31.992188 C 253.808594 31.878906 253.363281 31.78125 252.917969 31.699219 C 252.46875 31.617188 252.019531 31.546875 251.566406 31.488281 C 251.117188 31.433594 250.664062 31.390625 250.207031 31.363281 C 249.753906 31.335938 249.300781 31.320312 248.84375 31.320312 C 248.386719 31.320312 247.933594 31.335938 247.480469 31.363281 C 247.023438 31.390625 246.570312 31.433594 246.121094 31.488281 C 245.667969 31.546875 245.21875 31.617188 244.769531 31.699219 C 244.324219 31.78125 243.878906 31.878906 243.4375 31.992188 C 242.996094 32.101562 242.558594 32.226562 242.125 32.367188 C 241.691406 32.503906 241.261719 32.65625 240.835938 32.820312 C 240.414062 32.984375 239.992188 33.160156 239.578125 33.351562 C 239.167969 33.542969 238.757812 33.746094 238.359375 33.960938 C 237.957031 34.175781 237.5625 34.40625 237.175781 34.644531 C 236.789062 34.882812 236.410156 35.136719 236.039062 35.398438 C 235.667969 35.664062 235.304688 35.9375 234.949219 36.222656 C 234.59375 36.507812 234.25 36.804688 233.914062 37.113281 C 233.578125 37.417969 233.25 37.734375 232.933594 38.0625 C 232.617188 38.390625 232.3125 38.726562 232.015625 39.074219 C 231.71875 39.417969 231.433594 39.773438 231.160156 40.136719 C 230.886719 40.5 230.625 40.871094 230.371094 41.253906 C 230.121094 41.632812 229.882812 42.019531 229.65625 42.414062 C 229.425781 42.808594 229.210938 43.210938 229.007812 43.617188 C 228.808594 44.023438 228.617188 44.4375 228.441406 44.859375 C 228.261719 45.277344 228.101562 45.703125 227.949219 46.132812 C 227.796875 46.5625 227.660156 46.996094 227.535156 47.433594 C 227.414062 47.871094 227.300781 48.3125 227.207031 48.757812 C 227.109375 49.203125 227.023438 49.648438 226.957031 50.101562 C 226.886719 50.550781 226.832031 51 226.789062 51.453125 C 226.75 51.910156 226.722656 52.363281 226.707031 52.816406 C 226.695312 53.273438 226.695312 53.726562 226.710938 54.183594 C 226.726562 54.636719 226.753906 55.09375 226.796875 55.546875 C 226.839844 56 226.894531 56.449219 226.964844 56.898438 C 227.035156 57.351562 227.121094 57.796875 227.21875 58.242188 C 227.316406 58.6875 227.429688 59.128906 227.554688 59.566406 C 227.679688 60.003906 227.820312 60.4375 227.972656 60.863281 C 228.125 61.292969 228.289062 61.71875 228.464844 62.136719 C 228.644531 62.554688 228.835938 62.96875 229.039062 63.375 C 229.242188 63.785156 229.460938 64.183594 229.6875 64.578125 C 229.917969 64.972656 230.15625 65.359375 230.410156 65.738281 C 230.660156 66.117188 230.925781 66.488281 231.199219 66.851562 C 231.476562 67.210938 231.761719 67.566406 232.058594 67.910156 C 232.355469 68.257812 232.664062 68.59375 232.980469 68.917969 C 233.296875 69.246094 233.625 69.5625 233.960938 69.867188 C 234.300781 70.171875 234.644531 70.46875 235 70.753906 C 235.355469 71.035156 235.722656 71.308594 236.09375 71.574219 C 236.464844 71.835938 236.84375 72.085938 237.234375 72.324219 C 237.621094 72.5625 238.015625 72.789062 238.417969 73.003906 C 238.820312 73.21875 239.226562 73.417969 239.640625 73.609375 C 240.054688 73.796875 240.472656 73.972656 240.898438 74.136719 C 241.324219 74.300781 241.753906 74.449219 242.1875 74.585938 C 242.621094 74.722656 243.0625 74.847656 243.503906 74.957031 C 243.945312 75.066406 244.390625 75.164062 244.835938 75.246094 L 244.835938 125.910156 C 244.835938 125.996094 244.804688 126.070312 244.742188 126.128906 C 244.683594 126.191406 244.609375 126.222656 244.523438 126.226562 L 214.980469 126.226562 C 213.707031 125.648438 212.414062 125.105469 211.105469 124.605469 C 209.796875 124.109375 208.472656 123.648438 207.136719 123.230469 C 205.796875 122.816406 204.449219 122.441406 203.085938 122.109375 C 201.726562 121.773438 200.355469 121.484375 198.976562 121.238281 C 197.597656 120.992188 196.210938 120.785156 194.820312 120.625 C 193.425781 120.464844 192.03125 120.347656 190.632812 120.273438 C 189.230469 120.199219 187.832031 120.171875 186.429688 120.183594 C 185.027344 120.199219 183.628906 120.257812 182.230469 120.359375 C 180.835938 120.460938 179.441406 120.605469 178.054688 120.792969 C 176.664062 120.980469 175.28125 121.214844 173.910156 121.488281 C 172.535156 121.761719 171.171875 122.078125 169.816406 122.4375 C 168.460938 122.800781 167.121094 123.199219 165.789062 123.644531 C 164.460938 124.089844 163.148438 124.574219 161.847656 125.097656 C 160.550781 125.625 159.269531 126.191406 158.003906 126.796875 C 156.742188 127.402344 155.496094 128.046875 154.273438 128.730469 C 153.050781 129.414062 151.851562 130.132812 150.671875 130.890625 C 149.492188 131.652344 148.339844 132.445312 147.210938 133.273438 C 146.082031 134.105469 144.980469 134.96875 143.90625 135.871094 C 142.832031 136.769531 141.785156 137.699219 140.769531 138.664062 C 139.753906 139.628906 138.765625 140.625 137.8125 141.652344 C 136.859375 142.675781 135.9375 143.730469 135.046875 144.816406 C 134.160156 145.898438 133.304688 147.011719 132.488281 148.148438 C 131.667969 149.285156 130.886719 150.445312 130.136719 151.632812 C 129.390625 152.816406 128.683594 154.023438 128.011719 155.253906 C 127.339844 156.484375 126.707031 157.734375 126.117188 159.003906 C 125.523438 160.273438 124.96875 161.5625 124.457031 162.863281 C 123.945312 164.167969 123.472656 165.488281 123.042969 166.820312 C 122.613281 168.15625 122.222656 169.5 121.878906 170.859375 C 121.53125 172.214844 121.226562 173.582031 120.964844 174.960938 C 120.707031 176.335938 120.488281 177.722656 120.3125 179.113281 C 120.136719 180.5 120.007812 181.894531 119.921875 183.296875 C 119.832031 184.695312 119.789062 186.09375 119.789062 187.496094 C 119.789062 188.894531 119.832031 190.296875 119.921875 191.695312 C 120.007812 193.09375 120.136719 194.488281 120.3125 195.878906 C 120.488281 197.269531 120.707031 198.652344 120.964844 200.027344 C 121.226562 201.40625 121.53125 202.773438 121.878906 204.128906 C 122.222656 205.488281 122.613281 206.835938 123.042969 208.167969 C 123.472656 209.5 123.945312 210.820312 124.457031 212.125 C 124.96875 213.429688 125.523438 214.714844 126.117188 215.984375 C 126.707031 217.253906 127.339844 218.503906 128.011719 219.734375 C 128.683594 220.964844 129.390625 222.171875 130.136719 223.359375 C 130.886719 224.542969 131.667969 225.707031 132.488281 226.84375 C 133.304688 227.980469 134.160156 229.089844 135.046875 230.171875 C 135.9375 231.257812 136.859375 232.3125 137.8125 233.339844 C 138.765625 234.363281 139.753906 235.359375 140.769531 236.324219 C 141.785156 237.289062 142.832031 238.21875 143.90625 239.121094 C 144.980469 240.019531 146.082031 240.882812 147.210938 241.714844 C 148.339844 242.542969 149.492188 243.339844 150.671875 244.097656 C 151.851562 244.855469 153.050781 245.578125 154.273438 246.261719 C 155.496094 246.945312 156.742188 247.589844 158.003906 248.195312 C 159.269531 248.800781 160.550781 249.363281 161.847656 249.890625 C 163.148438 250.417969 164.460938 250.902344 165.789062 251.34375 C 167.121094 251.789062 168.460938 252.191406 169.816406 252.550781 C 171.171875 252.910156 172.535156 253.226562 173.910156 253.5 C 175.28125 253.777344 176.664062 254.007812 178.054688 254.195312 C 179.441406 254.386719 180.835938 254.53125 182.230469 254.632812 C 183.628906 254.734375 185.027344 254.789062 186.429688 254.804688 C 187.832031 254.816406 189.230469 254.789062 190.632812 254.714844 C 192.03125 254.640625 193.425781 254.523438 194.820312 254.363281 C 196.210938 254.203125 197.597656 254 198.976562 253.75 C 200.355469 253.503906 201.726562 253.214844 203.085938 252.882812 C 204.449219 252.550781 205.796875 252.175781 207.136719 251.757812 C 208.472656 251.339844 209.796875 250.882812 211.105469 250.382812 C 212.414062 249.882812 213.707031 249.34375 214.980469 248.761719 L 244.527344 248.761719 C 244.617188 248.765625 244.6875 248.796875 244.75 248.859375 C 244.8125 248.921875 244.84375 248.996094 244.84375 249.082031 L 244.84375 299.746094 C 244.398438 299.828125 243.953125 299.925781 243.507812 300.035156 C 243.066406 300.144531 242.628906 300.269531 242.195312 300.40625 C 241.761719 300.542969 241.332031 300.691406 240.90625 300.855469 C 240.480469 301.019531 240.0625 301.195312 239.644531 301.386719 C 239.230469 301.574219 238.824219 301.777344 238.421875 301.992188 C 238.019531 302.203125 237.625 302.429688 237.238281 302.671875 C 236.851562 302.910156 236.46875 303.160156 236.097656 303.421875 C 235.726562 303.683594 235.359375 303.957031 235.003906 304.242188 C 234.648438 304.527344 234.304688 304.820312 233.964844 305.128906 C 233.628906 305.433594 233.300781 305.75 232.984375 306.078125 C 232.664062 306.402344 232.359375 306.738281 232.0625 307.082031 C 231.765625 307.429688 231.476562 307.78125 231.203125 308.144531 C 230.925781 308.507812 230.664062 308.878906 230.410156 309.257812 C 230.160156 309.636719 229.917969 310.023438 229.691406 310.417969 C 229.460938 310.8125 229.246094 311.214844 229.042969 311.621094 C 228.835938 312.027344 228.644531 312.441406 228.46875 312.859375 C 228.289062 313.277344 228.125 313.703125 227.972656 314.132812 C 227.820312 314.5625 227.679688 314.996094 227.554688 315.433594 C 227.429688 315.871094 227.316406 316.3125 227.21875 316.757812 C 227.121094 317.203125 227.039062 317.648438 226.964844 318.097656 C 226.894531 318.550781 226.839844 319 226.796875 319.453125 C 226.753906 319.90625 226.726562 320.363281 226.710938 320.816406 C 226.695312 321.273438 226.695312 321.726562 226.707031 322.183594 C 226.722656 322.636719 226.75 323.09375 226.789062 323.546875 C 226.832031 324 226.886719 324.453125 226.957031 324.902344 C 227.027344 325.351562 227.109375 325.800781 227.207031 326.246094 C 227.300781 326.691406 227.414062 327.132812 227.535156 327.570312 C 227.660156 328.007812 227.796875 328.441406 227.949219 328.871094 C 228.101562 329.300781 228.265625 329.726562 228.441406 330.144531 C 228.617188 330.566406 228.808594 330.980469 229.011719 331.386719 C 229.214844 331.792969 229.429688 332.195312 229.65625 332.589844 C 229.882812 332.984375 230.121094 333.371094 230.371094 333.753906 C 230.625 334.132812 230.886719 334.503906 231.160156 334.867188 C 231.433594 335.230469 231.71875 335.585938 232.015625 335.933594 C 232.3125 336.277344 232.617188 336.617188 232.933594 336.941406 C 233.253906 337.269531 233.578125 337.585938 233.914062 337.894531 C 234.25 338.203125 234.597656 338.496094 234.953125 338.785156 C 235.304688 339.070312 235.667969 339.34375 236.042969 339.609375 C 236.414062 339.871094 236.792969 340.121094 237.179688 340.363281 C 237.566406 340.601562 237.960938 340.832031 238.363281 341.046875 C 238.761719 341.261719 239.171875 341.464844 239.582031 341.65625 C 239.996094 341.847656 240.417969 342.023438 240.839844 342.1875 C 241.265625 342.351562 241.695312 342.503906 242.128906 342.640625 C 242.5625 342.78125 243 342.90625 243.441406 343.015625 C 243.882812 343.128906 244.328125 343.226562 244.777344 343.308594 C 245.222656 343.394531 245.675781 343.460938 246.125 343.519531 C 246.578125 343.574219 247.03125 343.617188 247.484375 343.644531 C 247.941406 343.671875 248.394531 343.6875 248.851562 343.6875 C 249.308594 343.6875 249.761719 343.671875 250.214844 343.644531 C 250.671875 343.617188 251.125 343.574219 251.578125 343.519531 C 252.027344 343.460938 252.476562 343.394531 252.925781 343.308594 C 253.375 343.226562 253.816406 343.128906 254.261719 343.015625 C 254.703125 342.90625 255.140625 342.78125 255.574219 342.640625 C 256.007812 342.503906 256.4375 342.351562 256.859375 342.1875 C 257.285156 342.023438 257.707031 341.847656 258.117188 341.65625 C 258.53125 341.464844 258.941406 341.261719 259.339844 341.046875 C 259.742188 340.832031 260.136719 340.601562 260.523438 340.363281 C 260.910156 340.121094 261.289062 339.871094 261.660156 339.609375 C 262.03125 339.34375 262.394531 339.070312 262.75 338.785156 C 263.105469 338.496094 263.449219 338.203125 263.789062 337.894531 C 264.125 337.585938 264.449219 337.269531 264.765625 336.941406 C 265.085938 336.617188 265.390625 336.277344 265.6875 335.933594 C 265.984375 335.585938 266.265625 335.230469 266.542969 334.867188 C 266.816406 334.503906 267.078125 334.132812 267.328125 333.753906 C 267.582031 333.371094 267.820312 332.984375 268.046875 332.589844 C 268.273438 332.195312 268.488281 331.792969 268.691406 331.386719 C 268.894531 330.980469 269.085938 330.566406 269.261719 330.144531 C 269.4375 329.726562 269.601562 329.300781 269.753906 328.871094 C 269.90625 328.441406 270.042969 328.007812 270.164062 327.570312 C 270.289062 327.132812 270.402344 326.691406 270.496094 326.246094 C 270.59375 325.800781 270.675781 325.351562 270.746094 324.902344 C 270.816406 324.453125 270.871094 324 270.914062 323.546875 C 270.953125 323.09375 270.980469 322.636719 270.996094 322.183594 C 271.007812 321.726562 271.007812 321.273438 270.992188 320.816406 C 270.976562 320.363281 270.949219 319.90625 270.90625 319.453125 C 270.863281 319 270.804688 318.550781 270.734375 318.097656 C 270.664062 317.648438 270.582031 317.203125 270.484375 316.757812 C 270.382812 316.3125 270.273438 315.871094 270.148438 315.433594 C 270.023438 314.996094 269.882812 314.5625 269.730469 314.132812 C 269.578125 313.703125 269.414062 313.277344 269.234375 312.859375 C 269.054688 312.441406 268.867188 312.027344 268.660156 311.621094 C 268.457031 311.214844 268.242188 310.8125 268.011719 310.417969 C 267.785156 310.023438 267.542969 309.636719 267.292969 309.257812 C 267.039062 308.878906 266.777344 308.507812 266.5 308.144531 C 266.226562 307.78125 265.9375 307.429688 265.640625 307.082031 C 265.34375 306.738281 265.035156 306.402344 264.71875 306.078125 C 264.402344 305.75 264.074219 305.433594 263.738281 305.128906 C 263.398438 304.820312 263.054688 304.527344 262.695312 304.242188 C 262.339844 303.957031 261.976562 303.683594 261.605469 303.421875 C 261.234375 303.160156 260.851562 302.910156 260.464844 302.671875 C 260.078125 302.429688 259.683594 302.203125 259.28125 301.992188 C 258.878906 301.777344 258.46875 301.574219 258.054688 301.386719 C 257.640625 301.195312 257.222656 301.019531 256.796875 300.855469 C 256.371094 300.691406 255.941406 300.542969 255.507812 300.40625 C 255.074219 300.269531 254.636719 300.144531 254.191406 300.035156 C 253.75 299.925781 253.304688 299.828125 252.859375 299.746094 L 252.859375 249.082031 C 252.859375 248.535156 252.804688 247.992188 252.699219 247.457031 C 252.589844 246.917969 252.433594 246.398438 252.222656 245.894531 C 252.015625 245.386719 251.757812 244.910156 251.453125 244.453125 C 251.148438 244 250.804688 243.578125 250.417969 243.191406 C 250.03125 242.804688 249.609375 242.460938 249.15625 242.15625 C 248.703125 241.851562 248.222656 241.59375 247.714844 241.382812 C 247.210938 241.175781 246.691406 241.015625 246.152344 240.910156 C 245.617188 240.800781 245.074219 240.75 244.527344 240.75 L 228.230469 240.75 C 235.550781 235.085938 241.460938 228.210938 245.964844 220.128906 L 293.628906 220.128906 C 293.714844 220.132812 293.789062 220.164062 293.851562 220.226562 C 293.914062 220.289062 293.945312 220.363281 293.949219 220.449219 L 293.949219 271.117188 C 293.5 271.199219 293.054688 271.292969 292.613281 271.40625 C 292.171875 271.515625 291.734375 271.636719 291.300781 271.773438 C 290.867188 271.910156 290.4375 272.0625 290.011719 272.226562 C 289.589844 272.386719 289.167969 272.5625 288.753906 272.753906 C 288.339844 272.941406 287.933594 273.144531 287.53125 273.359375 C 287.128906 273.574219 286.734375 273.800781 286.347656 274.039062 C 285.960938 274.277344 285.582031 274.527344 285.210938 274.789062 C 284.835938 275.050781 284.472656 275.324219 284.117188 275.609375 C 283.761719 275.894531 283.417969 276.1875 283.078125 276.496094 C 282.742188 276.800781 282.414062 277.117188 282.097656 277.441406 C 281.78125 277.769531 281.472656 278.105469 281.175781 278.449219 C 280.878906 278.792969 280.59375 279.148438 280.320312 279.511719 C 280.042969 279.875 279.78125 280.246094 279.527344 280.625 C 279.277344 281 279.035156 281.386719 278.808594 281.78125 C 278.578125 282.175781 278.363281 282.574219 278.160156 282.984375 C 277.957031 283.390625 277.765625 283.804688 277.585938 284.222656 C 277.410156 284.640625 277.242188 285.0625 277.089844 285.492188 C 276.941406 285.921875 276.800781 286.355469 276.675781 286.792969 C 276.550781 287.230469 276.4375 287.671875 276.339844 288.117188 C 276.242188 288.5625 276.15625 289.007812 276.085938 289.457031 C 276.015625 289.90625 275.960938 290.359375 275.917969 290.8125 C 275.875 291.265625 275.847656 291.71875 275.832031 292.171875 C 275.816406 292.628906 275.816406 293.082031 275.828125 293.539062 C 275.84375 293.992188 275.871094 294.445312 275.910156 294.898438 C 275.953125 295.351562 276.007812 295.804688 276.078125 296.253906 C 276.148438 296.703125 276.230469 297.152344 276.328125 297.597656 C 276.421875 298.042969 276.535156 298.484375 276.65625 298.921875 C 276.78125 299.359375 276.917969 299.792969 277.070312 300.222656 C 277.222656 300.652344 277.386719 301.074219 277.5625 301.496094 C 277.738281 301.914062 277.929688 302.328125 278.132812 302.734375 C 278.332031 303.140625 278.546875 303.542969 278.773438 303.9375 C 279.003906 304.332031 279.242188 304.71875 279.492188 305.097656 C 279.742188 305.476562 280.007812 305.851562 280.28125 306.214844 C 280.554688 306.578125 280.839844 306.929688 281.136719 307.277344 C 281.429688 307.621094 281.738281 307.960938 282.054688 308.285156 C 282.371094 308.613281 282.695312 308.929688 283.03125 309.238281 C 283.367188 309.542969 283.714844 309.839844 284.070312 310.125 C 284.421875 310.410156 284.785156 310.683594 285.15625 310.949219 C 285.527344 311.210938 285.90625 311.464844 286.292969 311.703125 C 286.679688 311.941406 287.074219 312.171875 287.476562 312.386719 C 287.875 312.601562 288.285156 312.804688 288.695312 312.996094 C 289.109375 313.183594 289.527344 313.363281 289.953125 313.527344 C 290.378906 313.691406 290.808594 313.84375 291.242188 313.980469 C 291.675781 314.121094 292.113281 314.242188 292.554688 314.355469 C 292.996094 314.464844 293.4375 314.5625 293.886719 314.648438 C 294.332031 314.730469 294.78125 314.800781 295.234375 314.855469 C 295.6875 314.914062 296.140625 314.953125 296.59375 314.984375 C 297.046875 315.011719 297.503906 315.023438 297.957031 315.023438 C 298.414062 315.023438 298.867188 315.011719 299.320312 314.984375 C 299.777344 314.953125 300.230469 314.914062 300.679688 314.855469 C 301.132812 314.800781 301.582031 314.730469 302.027344 314.648438 C 302.476562 314.5625 302.921875 314.464844 303.363281 314.355469 C 303.804688 314.242188 304.242188 314.121094 304.675781 313.980469 C 305.109375 313.84375 305.539062 313.691406 305.960938 313.527344 C 306.386719 313.363281 306.804688 313.183594 307.21875 312.996094 C 307.632812 312.804688 308.039062 312.601562 308.4375 312.386719 C 308.839844 312.171875 309.234375 311.941406 309.621094 311.703125 C 310.007812 311.464844 310.386719 311.210938 310.757812 310.949219 C 311.128906 310.683594 311.492188 310.410156 311.847656 310.125 C 312.199219 309.839844 312.546875 309.542969 312.882812 309.238281 C 313.21875 308.929688 313.546875 308.613281 313.863281 308.285156 C 314.179688 307.960938 314.484375 307.621094 314.78125 307.277344 C 315.074219 306.929688 315.359375 306.578125 315.636719 306.214844 C 315.910156 305.851562 316.171875 305.476562 316.421875 305.097656 C 316.671875 304.71875 316.914062 304.332031 317.140625 303.9375 C 317.367188 303.542969 317.582031 303.140625 317.785156 302.734375 C 317.988281 302.328125 318.175781 301.914062 318.351562 301.496094 C 318.53125 301.074219 318.695312 300.652344 318.84375 300.222656 C 318.996094 299.792969 319.132812 299.359375 319.257812 298.921875 C 319.382812 298.484375 319.492188 298.042969 319.589844 297.597656 C 319.683594 297.152344 319.769531 296.703125 319.835938 296.253906 C 319.90625 295.804688 319.960938 295.351562 320.003906 294.898438 C 320.042969 294.445312 320.070312 293.992188 320.085938 293.539062 C 320.097656 293.082031 320.097656 292.628906 320.082031 292.171875 C 320.070312 291.71875 320.039062 291.265625 319.996094 290.8125 C 319.953125 290.359375 319.898438 289.90625 319.828125 289.457031 C 319.757812 289.007812 319.671875 288.5625 319.574219 288.117188 C 319.476562 287.671875 319.363281 287.230469 319.238281 286.792969 C 319.113281 286.355469 318.976562 285.921875 318.824219 285.492188 C 318.671875 285.066406 318.507812 284.640625 318.328125 284.222656 C 318.148438 283.804688 317.960938 283.390625 317.753906 282.984375 C 317.550781 282.574219 317.335938 282.175781 317.109375 281.78125 C 316.878906 281.386719 316.640625 281 316.386719 280.625 C 316.136719 280.246094 315.871094 279.875 315.597656 279.511719 C 315.320312 279.148438 315.035156 278.792969 314.738281 278.449219 C 314.441406 278.105469 314.132812 277.769531 313.816406 277.441406 C 313.5 277.117188 313.171875 276.800781 312.835938 276.496094 C 312.5 276.1875 312.152344 275.894531 311.796875 275.609375 C 311.441406 275.324219 311.078125 275.050781 310.707031 274.789062 C 310.335938 274.527344 309.953125 274.277344 309.566406 274.039062 C 309.179688 273.800781 308.785156 273.574219 308.382812 273.359375 C 307.980469 273.144531 307.574219 272.941406 307.160156 272.753906 C 306.746094 272.5625 306.328125 272.386719 305.902344 272.226562 C 305.476562 272.0625 305.046875 271.910156 304.613281 271.773438 C 304.179688 271.636719 303.742188 271.515625 303.300781 271.40625 C 302.859375 271.292969 302.414062 271.199219 301.964844 271.117188 L 301.964844 220.449219 C 301.964844 219.902344 301.910156 219.363281 301.800781 218.824219 C 301.695312 218.289062 301.535156 217.769531 301.324219 217.265625 C 301.113281 216.757812 300.855469 216.28125 300.554688 215.824219 C 300.25 215.371094 299.902344 214.949219 299.515625 214.5625 C 299.128906 214.175781 298.710938 213.832031 298.253906 213.527344 C 297.800781 213.222656 297.320312 212.96875 296.816406 212.757812 C 296.3125 212.546875 295.789062 212.390625 295.253906 212.28125 C 294.71875 212.171875 294.175781 212.117188 293.628906 212.117188 L 249.757812 212.117188 C 252.375 205.488281 253.898438 198.617188 254.316406 191.503906 L 314.203125 191.503906 C 314.328125 192.1875 314.484375 192.867188 314.675781 193.539062 C 314.867188 194.207031 315.089844 194.867188 315.339844 195.519531 C 315.59375 196.167969 315.875 196.804688 316.1875 197.425781 C 316.5 198.050781 316.84375 198.65625 317.210938 199.246094 C 317.582031 199.839844 317.980469 200.410156 318.402344 200.964844 C 318.828125 201.515625 319.277344 202.050781 319.75 202.558594 C 320.226562 203.070312 320.722656 203.558594 321.242188 204.023438 C 321.761719 204.484375 322.304688 204.925781 322.867188 205.335938 C 323.429688 205.75 324.007812 206.136719 324.605469 206.492188 C 325.203125 206.851562 325.816406 207.179688 326.449219 207.480469 C 327.078125 207.78125 327.71875 208.050781 328.375 208.289062 C 329.027344 208.527344 329.691406 208.738281 330.367188 208.914062 C 331.039062 209.089844 331.722656 209.234375 332.410156 209.347656 C 333.097656 209.460938 333.789062 209.539062 334.484375 209.585938 C 335.179688 209.632812 335.878906 209.648438 336.574219 209.628906 C 337.269531 209.609375 337.964844 209.558594 338.65625 209.472656 C 339.347656 209.390625 340.035156 209.273438 340.714844 209.121094 C 341.398438 208.972656 342.070312 208.792969 342.734375 208.578125 C 343.398438 208.367188 344.050781 208.125 344.691406 207.847656 C 345.332031 207.574219 345.957031 207.269531 346.570312 206.9375 C 347.183594 206.605469 347.777344 206.242188 348.355469 205.851562 C 348.933594 205.460938 349.492188 205.046875 350.03125 204.605469 C 350.570312 204.160156 351.085938 203.695312 351.578125 203.203125 C 352.074219 202.710938 352.542969 202.199219 352.992188 201.664062 C 353.4375 201.128906 353.855469 200.570312 354.25 199.996094 C 354.644531 199.421875 355.007812 198.828125 355.347656 198.21875 C 355.683594 197.609375 355.992188 196.984375 356.273438 196.347656 C 356.550781 195.707031 356.796875 195.054688 357.015625 194.394531 C 357.234375 193.730469 357.417969 193.058594 357.570312 192.378906 C 357.726562 191.699219 357.847656 191.015625 357.9375 190.324219 C 358.027344 189.632812 358.082031 188.9375 358.105469 188.242188 C 358.128906 187.542969 358.121094 186.847656 358.078125 186.152344 C 358.035156 185.457031 357.960938 184.765625 357.851562 184.074219 C 357.746094 183.386719 357.605469 182.703125 357.433594 182.03125 C 357.261719 181.355469 357.058594 180.6875 356.824219 180.03125 C 356.585938 179.375 356.320312 178.730469 356.027344 178.101562 C 355.730469 177.46875 355.40625 176.851562 355.050781 176.253906 C 354.699219 175.652344 354.316406 175.070312 353.90625 174.503906 C 353.5 173.941406 353.0625 173.398438 352.601562 172.875 C 352.144531 172.351562 351.660156 171.847656 351.152344 171.371094 C 350.644531 170.894531 350.113281 170.441406 349.566406 170.011719 C 349.015625 169.585938 348.445312 169.183594 347.855469 168.808594 C 347.269531 168.4375 346.664062 168.089844 346.042969 167.773438 C 345.421875 167.457031 344.789062 167.171875 344.140625 166.914062 C 343.492188 166.65625 342.832031 166.429688 342.164062 166.234375 C 341.496094 166.039062 340.816406 165.878906 340.132812 165.746094 C 339.449219 165.617188 338.757812 165.519531 338.066406 165.453125 C 337.371094 165.386719 336.675781 165.355469 335.976562 165.355469 Z M 24.140625 162.601562 L 24.140625 212.378906 C 24.136719 212.707031 24.191406 213.023438 24.308594 213.328125 C 24.421875 213.636719 24.585938 213.910156 24.804688 214.15625 C 25.019531 214.402344 25.273438 214.601562 25.5625 214.753906 C 25.851562 214.90625 26.160156 215 26.484375 215.039062 L 55.785156 218.636719 C 56.179688 218.6875 56.5625 218.792969 56.925781 218.957031 C 57.289062 219.121094 57.625 219.332031 57.925781 219.59375 C 58.226562 219.859375 58.484375 220.160156 58.695312 220.496094 C 58.90625 220.835938 59.0625 221.199219 59.164062 221.585938 C 62.183594 232.941406 66.640625 243.695312 72.535156 253.859375 C 72.738281 254.203125 72.882812 254.570312 72.972656 254.960938 C 73.066406 255.351562 73.097656 255.742188 73.070312 256.144531 C 73.042969 256.542969 72.957031 256.929688 72.8125 257.300781 C 72.671875 257.675781 72.476562 258.019531 72.230469 258.332031 L 54.054688 281.597656 C 53.851562 281.855469 53.703125 282.140625 53.605469 282.453125 C 53.507812 282.765625 53.46875 283.085938 53.488281 283.410156 C 53.511719 283.738281 53.589844 284.046875 53.722656 284.347656 C 53.859375 284.644531 54.042969 284.90625 54.273438 285.136719 L 89.460938 320.339844 C 89.691406 320.570312 89.953125 320.757812 90.25 320.890625 C 90.546875 321.027344 90.859375 321.105469 91.1875 321.125 C 91.511719 321.144531 91.832031 321.105469 92.144531 321.007812 C 92.457031 320.90625 92.738281 320.753906 92.996094 320.550781 L 116.261719 302.378906 C 116.574219 302.132812 116.917969 301.9375 117.292969 301.792969 C 117.667969 301.652344 118.050781 301.566406 118.453125 301.539062 C 118.851562 301.511719 119.246094 301.542969 119.632812 301.632812 C 120.023438 301.726562 120.390625 301.871094 120.738281 302.074219 C 130.898438 307.96875 141.65625 312.425781 153.007812 315.445312 C 153.394531 315.546875 153.757812 315.703125 154.097656 315.914062 C 154.4375 316.128906 154.738281 316.382812 155 316.683594 C 155.261719 316.988281 155.476562 317.320312 155.640625 317.6875 C 155.800781 318.050781 155.90625 318.433594 155.957031 318.828125 L 159.554688 348.125 C 159.59375 348.449219 159.691406 348.757812 159.84375 349.046875 C 159.996094 349.335938 160.191406 349.585938 160.4375 349.804688 C 160.683594 350.019531 160.960938 350.183594 161.265625 350.296875 C 161.570312 350.414062 161.886719 350.46875 162.214844 350.464844 L 183.113281 350.464844 L 183.113281 272.078125 C 181.769531 272.015625 180.429688 271.917969 179.09375 271.789062 C 177.753906 271.664062 176.421875 271.503906 175.089844 271.3125 C 173.761719 271.121094 172.433594 270.898438 171.117188 270.644531 C 169.796875 270.390625 168.484375 270.105469 167.175781 269.789062 C 165.871094 269.472656 164.574219 269.125 163.28125 268.746094 C 161.992188 268.367188 160.714844 267.960938 159.441406 267.519531 C 158.171875 267.082031 156.914062 266.613281 155.664062 266.113281 C 154.417969 265.613281 153.183594 265.085938 151.960938 264.527344 C 150.738281 263.96875 149.527344 263.382812 148.335938 262.765625 C 147.140625 262.148438 145.960938 261.507812 144.796875 260.835938 C 143.632812 260.164062 142.484375 259.464844 141.355469 258.738281 C 140.222656 258.011719 139.109375 257.257812 138.015625 256.476562 C 136.921875 255.699219 135.84375 254.894531 134.789062 254.0625 C 133.730469 253.230469 132.695312 252.375 131.679688 251.496094 C 130.664062 250.617188 129.667969 249.714844 128.695312 248.785156 C 127.722656 247.859375 126.773438 246.910156 125.847656 245.9375 C 124.917969 244.964844 124.015625 243.96875 123.132812 242.953125 C 122.253906 241.9375 121.398438 240.902344 120.566406 239.84375 C 119.738281 238.789062 118.929688 237.714844 118.152344 236.617188 C 117.371094 235.523438 116.617188 234.410156 115.890625 233.28125 C 115.164062 232.152344 114.464844 231.003906 113.792969 229.839844 C 113.121094 228.675781 112.476562 227.496094 111.863281 226.300781 C 111.246094 225.105469 110.660156 223.898438 110.101562 222.675781 C 109.542969 221.453125 109.011719 220.21875 108.511719 218.96875 C 108.015625 217.722656 107.542969 216.464844 107.105469 215.195312 C 106.664062 213.925781 106.253906 212.644531 105.878906 211.355469 C 105.5 210.066406 105.152344 208.765625 104.832031 207.460938 C 104.515625 206.15625 104.230469 204.84375 103.976562 203.523438 C 103.722656 202.203125 103.5 200.878906 103.308594 199.546875 C 103.117188 198.21875 102.957031 196.882812 102.828125 195.546875 C 102.703125 194.207031 102.605469 192.867188 102.542969 191.523438 C 102.476562 190.183594 102.445312 188.839844 102.445312 187.496094 C 102.445312 186.152344 102.476562 184.808594 102.542969 183.464844 C 102.605469 182.121094 102.703125 180.78125 102.828125 179.445312 C 102.957031 178.105469 103.117188 176.773438 103.308594 175.441406 C 103.5 174.113281 103.722656 172.785156 103.976562 171.46875 C 104.230469 170.148438 104.515625 168.835938 104.832031 167.527344 C 105.152344 166.222656 105.5 164.925781 105.878906 163.636719 C 106.253906 162.34375 106.664062 161.066406 107.105469 159.796875 C 107.542969 158.523438 108.015625 157.265625 108.511719 156.019531 C 109.011719 154.769531 109.542969 153.535156 110.101562 152.3125 C 110.660156 151.089844 111.246094 149.882812 111.863281 148.6875 C 112.476562 147.492188 113.121094 146.3125 113.792969 145.148438 C 114.464844 143.984375 115.164062 142.839844 115.890625 141.707031 C 116.617188 140.578125 117.371094 139.464844 118.152344 138.371094 C 118.929688 137.277344 119.738281 136.199219 120.566406 135.144531 C 121.398438 134.085938 122.253906 133.050781 123.132812 132.035156 C 124.015625 131.019531 124.917969 130.027344 125.847656 129.054688 C 126.773438 128.082031 127.722656 127.132812 128.695312 126.203125 C 129.667969 125.277344 130.664062 124.371094 131.679688 123.492188 C 132.695312 122.613281 133.730469 121.757812 134.789062 120.925781 C 135.84375 120.097656 136.921875 119.289062 138.015625 118.511719 C 139.109375 117.730469 140.222656 116.980469 141.355469 116.253906 C 142.484375 115.527344 143.632812 114.828125 144.796875 114.15625 C 145.960938 113.484375 147.140625 112.839844 148.335938 112.222656 C 149.527344 111.609375 150.738281 111.019531 151.960938 110.464844 C 153.183594 109.90625 154.417969 109.375 155.664062 108.878906 C 156.914062 108.378906 158.171875 107.910156 159.441406 107.46875 C 160.714844 107.03125 161.992188 106.621094 163.28125 106.242188 C 164.574219 105.863281 165.871094 105.515625 167.175781 105.199219 C 168.484375 104.882812 169.796875 104.597656 171.117188 104.34375 C 172.433594 104.089844 173.761719 103.867188 175.089844 103.675781 C 176.421875 103.484375 177.753906 103.328125 179.09375 103.199219 C 180.429688 103.070312 181.769531 102.976562 183.113281 102.910156 L 183.113281 24.519531 L 162.214844 24.519531 C 161.886719 24.515625 161.570312 24.574219 161.265625 24.6875 C 160.957031 24.804688 160.683594 24.96875 160.4375 25.183594 C 160.191406 25.402344 159.992188 25.65625 159.839844 25.945312 C 159.6875 26.234375 159.59375 26.542969 159.554688 26.867188 L 155.957031 56.164062 C 155.90625 56.558594 155.800781 56.941406 155.636719 57.304688 C 155.476562 57.671875 155.261719 58.003906 155 58.304688 C 154.738281 58.605469 154.4375 58.863281 154.097656 59.074219 C 153.757812 59.285156 153.394531 59.441406 153.007812 59.546875 C 141.65625 62.5625 130.898438 67.019531 120.738281 72.917969 C 120.390625 73.117188 120.023438 73.265625 119.632812 73.355469 C 119.246094 73.445312 118.851562 73.480469 118.453125 73.453125 C 118.054688 73.425781 117.667969 73.339844 117.292969 73.195312 C 116.921875 73.054688 116.574219 72.859375 116.261719 72.613281 L 92.996094 54.433594 C 92.738281 54.234375 92.453125 54.082031 92.140625 53.988281 C 91.832031 53.890625 91.511719 53.851562 91.1875 53.871094 C 90.859375 53.890625 90.546875 53.96875 90.25 54.105469 C 89.953125 54.238281 89.691406 54.421875 89.460938 54.65625 L 54.273438 89.839844 C 54.039062 90.070312 53.855469 90.332031 53.71875 90.628906 C 53.582031 90.925781 53.503906 91.238281 53.484375 91.566406 C 53.464844 91.890625 53.503906 92.210938 53.601562 92.523438 C 53.699219 92.835938 53.851562 93.117188 54.054688 93.375 L 72.230469 116.640625 C 72.476562 116.957031 72.671875 117.300781 72.8125 117.675781 C 72.957031 118.046875 73.042969 118.433594 73.070312 118.832031 C 73.097656 119.234375 73.066406 119.628906 72.976562 120.015625 C 72.882812 120.40625 72.738281 120.773438 72.535156 121.121094 C 66.640625 131.28125 62.183594 142.035156 59.164062 153.386719 C 59.0625 153.773438 58.90625 154.136719 58.695312 154.476562 C 58.484375 154.816406 58.226562 155.117188 57.925781 155.378906 C 57.625 155.640625 57.292969 155.855469 56.925781 156.019531 C 56.5625 156.179688 56.179688 156.289062 55.785156 156.335938 L 26.488281 159.9375 C 26.164062 159.976562 25.855469 160.074219 25.566406 160.222656 C 25.273438 160.375 25.023438 160.574219 24.804688 160.820312 C 24.589844 161.066406 24.421875 161.339844 24.308594 161.648438 C 24.191406 161.953125 24.136719 162.269531 24.140625 162.597656 Z M 25.507812 222.996094 L 52.140625 226.265625 C 55.066406 236.480469 59.109375 246.234375 64.265625 255.527344 L 47.738281 276.667969 C 47.34375 277.175781 46.992188 277.71875 46.695312 278.292969 C 46.394531 278.863281 46.148438 279.460938 45.960938 280.078125 C 45.769531 280.695312 45.632812 281.324219 45.554688 281.964844 C 45.480469 282.609375 45.460938 283.25 45.5 283.898438 C 45.539062 284.542969 45.636719 285.179688 45.792969 285.804688 C 45.945312 286.433594 46.15625 287.042969 46.421875 287.632812 C 46.6875 288.222656 47.003906 288.78125 47.371094 289.3125 C 47.738281 289.847656 48.148438 290.339844 48.605469 290.796875 L 83.808594 326.003906 C 84.265625 326.460938 84.757812 326.871094 85.292969 327.238281 C 85.824219 327.605469 86.386719 327.921875 86.976562 328.1875 C 87.566406 328.453125 88.171875 328.664062 88.800781 328.816406 C 89.429688 328.972656 90.066406 329.070312 90.710938 329.109375 C 91.355469 329.148438 92 329.128906 92.640625 329.054688 C 93.285156 328.976562 93.914062 328.84375 94.53125 328.652344 C 95.148438 328.460938 95.742188 328.214844 96.316406 327.914062 C 96.890625 327.617188 97.433594 327.265625 97.941406 326.871094 L 119.097656 310.34375 C 128.390625 315.496094 138.144531 319.539062 148.355469 322.464844 L 151.628906 349.097656 C 151.707031 349.742188 151.84375 350.371094 152.039062 350.988281 C 152.230469 351.605469 152.480469 352.199219 152.78125 352.769531 C 153.082031 353.34375 153.433594 353.882812 153.832031 354.390625 C 154.230469 354.902344 154.671875 355.371094 155.15625 355.796875 C 155.640625 356.226562 156.160156 356.609375 156.714844 356.941406 C 157.269531 357.277344 157.847656 357.558594 158.453125 357.789062 C 159.058594 358.015625 159.675781 358.191406 160.3125 358.308594 C 160.949219 358.425781 161.589844 358.484375 162.238281 358.484375 L 187.113281 358.484375 C 187.378906 358.484375 187.636719 358.457031 187.894531 358.40625 C 188.15625 358.355469 188.40625 358.28125 188.648438 358.179688 C 188.890625 358.078125 189.121094 357.957031 189.339844 357.808594 C 189.558594 357.664062 189.761719 357.496094 189.949219 357.3125 C 190.132812 357.125 190.300781 356.921875 190.445312 356.703125 C 190.59375 356.484375 190.714844 356.253906 190.816406 356.011719 C 190.917969 355.769531 190.992188 355.519531 191.042969 355.261719 C 191.09375 355.003906 191.121094 354.742188 191.121094 354.480469 L 191.121094 268.164062 C 191.121094 267.902344 191.09375 267.640625 191.042969 267.382812 C 190.992188 267.125 190.917969 266.871094 190.816406 266.628906 C 190.714844 266.386719 190.59375 266.15625 190.445312 265.9375 C 190.300781 265.71875 190.132812 265.515625 189.949219 265.328125 C 189.761719 265.144531 189.558594 264.976562 189.339844 264.832031 C 189.121094 264.683594 188.890625 264.5625 188.648438 264.460938 C 188.40625 264.359375 188.15625 264.285156 187.898438 264.230469 C 187.636719 264.179688 187.378906 264.15625 187.113281 264.15625 C 185.859375 264.15625 184.605469 264.125 183.351562 264.0625 C 182.101562 264 180.847656 263.910156 179.601562 263.785156 C 178.351562 263.664062 177.105469 263.507812 175.867188 263.324219 C 174.625 263.140625 173.390625 262.925781 172.160156 262.683594 C 170.929688 262.4375 169.703125 262.164062 168.488281 261.859375 C 167.269531 261.550781 166.0625 261.21875 164.863281 260.855469 C 163.660156 260.488281 162.46875 260.097656 161.289062 259.671875 C 160.109375 259.25 158.9375 258.800781 157.777344 258.320312 C 156.617188 257.839844 155.472656 257.332031 154.339844 256.792969 C 153.203125 256.257812 152.082031 255.695312 150.976562 255.101562 C 149.871094 254.511719 148.78125 253.894531 147.703125 253.25 C 146.628906 252.601562 145.566406 251.933594 144.523438 251.234375 C 143.480469 250.539062 142.457031 249.816406 141.449219 249.070312 C 140.441406 248.320312 139.453125 247.550781 138.480469 246.753906 C 137.511719 245.957031 136.5625 245.136719 135.632812 244.296875 C 134.703125 243.453125 133.796875 242.589844 132.90625 241.703125 C 132.019531 240.816406 131.15625 239.90625 130.3125 238.976562 C 129.472656 238.046875 128.652344 237.097656 127.855469 236.128906 C 127.058594 235.15625 126.289062 234.167969 125.539062 233.160156 C 124.792969 232.152344 124.070312 231.128906 123.375 230.085938 C 122.675781 229.042969 122.007812 227.980469 121.359375 226.90625 C 120.714844 225.828125 120.097656 224.738281 119.507812 223.632812 C 118.914062 222.527344 118.351562 221.40625 117.816406 220.269531 C 117.277344 219.136719 116.769531 217.992188 116.289062 216.832031 C 115.808594 215.671875 115.359375 214.503906 114.9375 213.320312 C 114.511719 212.140625 114.121094 210.949219 113.753906 209.746094 C 113.390625 208.546875 113.058594 207.339844 112.753906 206.121094 C 112.445312 204.90625 112.171875 203.679688 111.925781 202.449219 C 111.683594 201.21875 111.46875 199.984375 111.285156 198.742188 C 111.101562 197.503906 110.945312 196.257812 110.824219 195.007812 C 110.699219 193.761719 110.609375 192.507812 110.546875 191.257812 C 110.484375 190.003906 110.453125 188.75 110.453125 187.496094 C 110.453125 186.238281 110.484375 184.984375 110.546875 183.734375 C 110.609375 182.480469 110.699219 181.230469 110.824219 179.980469 C 110.945312 178.730469 111.101562 177.488281 111.285156 176.246094 C 111.46875 175.003906 111.683594 173.769531 111.925781 172.539062 C 112.171875 171.308594 112.445312 170.085938 112.753906 168.867188 C 113.058594 167.652344 113.390625 166.441406 113.753906 165.242188 C 114.121094 164.039062 114.511719 162.851562 114.9375 161.667969 C 115.359375 160.488281 115.808594 159.316406 116.289062 158.15625 C 116.769531 157 117.277344 155.851562 117.816406 154.71875 C 118.351562 153.585938 118.914062 152.464844 119.507812 151.355469 C 120.097656 150.25 120.714844 149.160156 121.359375 148.082031 C 122.007812 147.007812 122.675781 145.949219 123.375 144.90625 C 124.070312 143.863281 124.792969 142.835938 125.539062 141.828125 C 126.289062 140.820312 127.058594 139.832031 127.855469 138.863281 C 128.652344 137.890625 129.472656 136.941406 130.3125 136.011719 C 131.15625 135.082031 132.019531 134.175781 132.90625 133.289062 C 133.796875 132.402344 134.703125 131.535156 135.632812 130.691406 C 136.5625 129.851562 137.511719 129.03125 138.480469 128.234375 C 139.453125 127.441406 140.441406 126.667969 141.449219 125.921875 C 142.457031 125.171875 143.480469 124.449219 144.523438 123.753906 C 145.566406 123.058594 146.628906 122.386719 147.703125 121.742188 C 148.78125 121.097656 149.871094 120.476562 150.976562 119.886719 C 152.082031 119.296875 153.203125 118.730469 154.339844 118.195312 C 155.472656 117.660156 156.617188 117.148438 157.777344 116.671875 C 158.9375 116.191406 160.109375 115.738281 161.289062 115.316406 C 162.46875 114.894531 163.660156 114.5 164.863281 114.136719 C 166.0625 113.769531 167.269531 113.4375 168.488281 113.132812 C 169.703125 112.828125 170.929688 112.550781 172.160156 112.308594 C 173.390625 112.0625 174.625 111.847656 175.867188 111.664062 C 177.105469 111.480469 178.351562 111.328125 179.601562 111.203125 C 180.847656 111.082031 182.101562 110.988281 183.351562 110.925781 C 184.605469 110.867188 185.859375 110.835938 187.113281 110.835938 C 187.378906 110.835938 187.636719 110.808594 187.898438 110.757812 C 188.15625 110.707031 188.40625 110.628906 188.648438 110.53125 C 188.890625 110.429688 189.121094 110.304688 189.339844 110.160156 C 189.558594 110.011719 189.761719 109.847656 189.949219 109.660156 C 190.132812 109.472656 190.300781 109.273438 190.445312 109.050781 C 190.59375 108.832031 190.714844 108.601562 190.816406 108.359375 C 190.917969 108.117188 190.992188 107.867188 191.042969 107.609375 C 191.09375 107.347656 191.121094 107.089844 191.121094 106.824219 L 191.121094 20.511719 C 191.121094 20.246094 191.09375 19.988281 191.042969 19.730469 C 190.992188 19.472656 190.917969 19.21875 190.816406 18.976562 C 190.714844 18.734375 190.59375 18.503906 190.445312 18.285156 C 190.300781 18.066406 190.132812 17.863281 189.949219 17.675781 C 189.761719 17.492188 189.558594 17.324219 189.339844 17.179688 C 189.121094 17.035156 188.890625 16.910156 188.648438 16.808594 C 188.40625 16.707031 188.15625 16.632812 187.894531 16.582031 C 187.636719 16.53125 187.378906 16.503906 187.113281 16.503906 L 162.222656 16.503906 C 161.574219 16.507812 160.933594 16.566406 160.296875 16.683594 C 159.664062 16.796875 159.042969 16.972656 158.4375 17.203125 C 157.832031 17.429688 157.253906 17.710938 156.699219 18.046875 C 156.144531 18.382812 155.628906 18.761719 155.144531 19.191406 C 154.660156 19.621094 154.214844 20.089844 153.816406 20.597656 C 153.417969 21.105469 153.066406 21.644531 152.765625 22.21875 C 152.464844 22.789062 152.21875 23.386719 152.023438 24.003906 C 151.828125 24.621094 151.691406 25.25 151.613281 25.890625 L 148.355469 52.523438 C 138.144531 55.449219 128.390625 59.492188 119.097656 64.644531 L 97.941406 48.121094 C 97.433594 47.722656 96.890625 47.375 96.316406 47.074219 C 95.742188 46.777344 95.148438 46.53125 94.53125 46.339844 C 93.914062 46.148438 93.285156 46.015625 92.640625 45.9375 C 92 45.863281 91.355469 45.84375 90.710938 45.882812 C 90.066406 45.921875 89.429688 46.019531 88.800781 46.175781 C 88.171875 46.328125 87.566406 46.539062 86.976562 46.804688 C 86.386719 47.070312 85.824219 47.382812 85.292969 47.75 C 84.761719 48.117188 84.265625 48.53125 83.808594 48.984375 L 48.605469 84.1875 C 48.148438 84.644531 47.738281 85.140625 47.371094 85.671875 C 47.003906 86.203125 46.6875 86.765625 46.421875 87.355469 C 46.15625 87.945312 45.945312 88.554688 45.792969 89.179688 C 45.636719 89.808594 45.539062 90.445312 45.5 91.089844 C 45.460938 91.734375 45.480469 92.378906 45.554688 93.023438 C 45.632812 93.664062 45.765625 94.292969 45.957031 94.910156 C 46.148438 95.527344 46.394531 96.125 46.695312 96.695312 C 46.992188 97.269531 47.34375 97.8125 47.738281 98.320312 L 64.261719 119.480469 C 59.109375 128.773438 55.070312 138.523438 52.140625 148.738281 L 25.507812 152.011719 C 24.867188 152.089844 24.238281 152.226562 23.621094 152.421875 C 23.003906 152.613281 22.410156 152.859375 21.839844 153.160156 C 21.265625 153.460938 20.726562 153.8125 20.21875 154.210938 C 19.710938 154.609375 19.242188 155.050781 18.816406 155.535156 C 18.386719 156.015625 18.003906 156.535156 17.671875 157.089844 C 17.335938 157.640625 17.054688 158.21875 16.824219 158.824219 C 16.59375 159.425781 16.421875 160.046875 16.304688 160.679688 C 16.1875 161.316406 16.125 161.957031 16.125 162.601562 L 16.125 212.378906 C 16.125 213.027344 16.183594 213.667969 16.300781 214.304688 C 16.417969 214.941406 16.589844 215.5625 16.820312 216.167969 C 17.046875 216.769531 17.328125 217.351562 17.664062 217.90625 C 17.996094 218.457031 18.378906 218.976562 18.808594 219.460938 C 19.234375 219.949219 19.703125 220.390625 20.214844 220.789062 C 20.722656 221.1875 21.261719 221.539062 21.835938 221.84375 C 22.40625 222.144531 23 222.390625 23.617188 222.585938 C 24.234375 222.78125 24.863281 222.917969 25.507812 222.996094 Z M 25.507812 222.996094 " fill-opacity="1" fill-rule="evenodd"/></g></svg>