<svg xmlns="http://www.w3.org/2000/svg" xmlns:xlink="http://www.w3.org/1999/xlink" width="1024" zoomAndPan="magnify" viewBox="0 0 768 767.999994" height="1024" preserveAspectRatio="xMidYMid meet" version="1.0"><defs><clipPath id="74910351ca"><path d="M 29.773438 13.894531 L 738.523438 13.894531 L 738.523438 722.644531 L 29.773438 722.644531 Z M 29.773438 13.894531 " clip-rule="nonzero"/></clipPath></defs><g clip-path="url(#74910351ca)"><path fill="#092552" d="M 383.996094 41.140625 C 203.703125 41.140625 57.023438 187.824219 57.023438 368.117188 C 57.023438 548.410156 203.703125 695.089844 383.996094 695.089844 C 564.292969 695.089844 710.972656 548.410156 710.972656 368.117188 C 710.972656 187.824219 564.292969 41.140625 383.996094 41.140625 Z M 383.996094 722.339844 C 289.378906 722.339844 200.429688 685.492188 133.523438 618.589844 C 66.625 551.683594 29.773438 462.734375 29.773438 368.117188 C 29.773438 273.5 66.625 184.550781 133.523438 117.644531 C 200.429688 50.742188 289.378906 13.894531 383.996094 13.894531 C 478.613281 13.894531 567.5625 50.742188 634.46875 117.644531 C 701.371094 184.550781 738.21875 273.5 738.21875 368.117188 C 738.21875 462.734375 701.371094 551.683594 634.46875 618.589844 C 567.5625 685.492188 478.613281 722.339844 383.996094 722.339844 " fill-opacity="1" fill-rule="nonzero"/></g><path fill="#092552" d="M 144.359375 387.871094 L 144.359375 477.261719 C 144.359375 478.714844 145.535156 479.890625 146.988281 479.890625 L 202.441406 479.890625 C 203.894531 479.890625 205.070312 478.714844 205.070312 477.261719 L 205.070312 387.871094 C 205.070312 386.417969 203.894531 385.238281 202.441406 385.238281 L 146.988281 385.238281 C 145.535156 385.238281 144.359375 386.417969 144.359375 387.871094 Z M 212.984375 432.554688 C 212.984375 451.167969 212.847656 469.789062 213.039062 488.40625 C 213.144531 498.660156 208.941406 503.652344 198.214844 503.394531 C 182.507812 503.007812 166.773438 503.085938 151.058594 503.367188 C 140.476562 503.5625 136.003906 498.464844 136.019531 488.300781 C 136.078125 450.648438 136.074219 413 136.03125 375.355469 C 136.019531 365.59375 140.707031 360.949219 150.484375 361.023438 C 166.621094 361.140625 182.757812 361.15625 198.894531 361.015625 C 208.796875 360.933594 213.140625 365.648438 213.039062 375.460938 C 212.839844 394.492188 212.980469 413.523438 212.984375 432.554688 " fill-opacity="1" fill-rule="nonzero"/><path fill="#092552" d="M 422.839844 415.921875 L 422.839844 443.3125 C 422.839844 445.90625 420.738281 448.011719 418.140625 448.011719 L 336.839844 448.011719 C 335.722656 448.011719 334.816406 448.914062 334.816406 450.023438 L 334.816406 460.832031 C 334.816406 461.945312 335.710938 462.851562 336.820312 462.851562 C 343.441406 462.882812 350.148438 462.941406 356.871094 463.046875 C 359.054688 463.078125 362.1875 465.28125 363.164062 467.304688 C 367.042969 475.308594 370.390625 483.570312 373.976562 492.007812 C 374.464844 493.175781 373.621094 494.460938 372.359375 494.460938 L 284.234375 494.460938 C 282.914062 494.460938 282.0625 493.035156 282.691406 491.875 C 287.378906 483.167969 292.109375 474.394531 297.792969 463.8125 C 298.109375 463.230469 298.726562 462.851562 299.386719 462.851562 C 306.699219 462.851562 314.546875 462.828125 322.707031 462.828125 C 323.816406 462.828125 324.734375 461.925781 324.734375 460.8125 L 324.734375 450.023438 C 324.734375 448.914062 323.828125 448.011719 322.707031 448.011719 L 232.570312 448.011719 C 229.976562 448.011719 227.871094 445.90625 227.871094 443.3125 L 227.871094 415.921875 C 227.871094 413.335938 229.976562 411.230469 232.570312 411.230469 L 418.140625 411.230469 C 420.738281 411.230469 422.839844 413.335938 422.839844 415.921875 " fill-opacity="1" fill-rule="nonzero"/><path fill="#092552" d="M 165.355469 346.675781 L 165.75 346.675781 C 171.316406 346.675781 176.640625 346.621094 182.527344 346.609375 C 183.695312 346.605469 184.640625 345.667969 184.640625 344.507812 C 184.640625 332.875 184.640625 276.164062 184.640625 258.554688 C 184.640625 255.660156 186.980469 253.324219 189.871094 253.324219 L 468.195312 253.324219 C 471.085938 253.324219 473.429688 255.671875 473.429688 258.5625 L 473.429688 280.433594 C 473.429688 280.839844 473.753906 281.164062 474.160156 281.164062 L 491.722656 281.164062 C 492.207031 281.164062 492.605469 280.761719 492.605469 280.273438 C 492.605469 269.46875 492.621094 259.472656 492.601562 249.472656 C 492.574219 238.214844 486.769531 232.835938 475.65625 232.839844 C 377.707031 232.84375 279.757812 232.78125 181.808594 232.914062 C 169.304688 232.9375 165.273438 237.539062 165.230469 250.566406 C 165.140625 279.496094 165.171875 308.425781 165.246094 337.355469 C 165.253906 339.777344 165.199219 342.234375 165.324219 344.621094 L 165.355469 346.675781 " fill-opacity="1" fill-rule="nonzero"/><path fill="#092552" d="M 563.289062 384.097656 L 563.289062 473.488281 C 563.289062 474.941406 564.464844 476.125 565.917969 476.125 L 621.375 476.125 C 622.828125 476.125 624.003906 474.941406 624.003906 473.488281 L 624.003906 384.097656 C 624.003906 382.644531 622.828125 381.46875 621.375 381.46875 L 565.917969 381.46875 C 564.464844 381.46875 563.289062 382.644531 563.289062 384.097656 Z M 631.914062 428.78125 C 631.914062 447.402344 631.777344 466.015625 631.96875 484.632812 C 632.074219 494.886719 627.871094 499.886719 617.148438 499.625 C 601.4375 499.234375 585.707031 499.3125 569.992188 499.597656 C 559.398438 499.789062 554.933594 494.691406 554.953125 484.527344 C 555.011719 446.878906 555.003906 409.234375 554.960938 371.582031 C 554.953125 361.824219 559.640625 357.179688 569.417969 357.25 C 585.550781 357.371094 601.6875 357.386719 617.824219 357.242188 C 627.726562 357.160156 632.070312 361.875 631.96875 371.6875 C 631.773438 390.71875 631.910156 409.75 631.914062 428.78125 " fill-opacity="1" fill-rule="nonzero"/><path fill="#092552" d="M 533.992188 472.492188 L 534 472.492188 C 534 469.636719 534.011719 466.761719 534.011719 463.867188 L 533.992188 472.492188 " fill-opacity="1" fill-rule="nonzero"/><path fill="#092552" d="M 586.769531 335.675781 C 586.769531 336.0625 586.460938 336.367188 586.085938 336.367188 C 583.003906 336.355469 579.867188 336.34375 576.703125 336.335938 C 576.324219 336.324219 576.011719 336.019531 576.011719 335.640625 L 576.011719 316.894531 C 576.011719 313.035156 572.886719 309.910156 569.027344 309.910156 L 455.425781 309.910156 C 451.570312 309.910156 448.445312 313.035156 448.445312 316.902344 L 448.445312 455.171875 C 448.445312 459.03125 451.578125 462.160156 455.425781 462.160156 L 532.3125 462.160156 C 533.25 462.160156 533.992188 462.898438 534.011719 463.824219 L 534.011719 463.867188 L 533.992188 472.492188 L 534 472.492188 L 533.960938 493.8125 C 533.953125 494.75 533.195312 495.503906 532.257812 495.503906 C 507.734375 495.542969 483.207031 495.523438 458.65625 495.429688 C 443.515625 495.367188 437.710938 489.597656 437.679688 474.351562 C 437.550781 421.496094 437.550781 368.621094 437.679688 315.761719 C 437.722656 301.007812 443.214844 295.261719 457.789062 295.164062 C 494.132812 294.925781 530.476562 294.945312 566.824219 295.144531 C 581.503906 295.226562 586.695312 300.785156 586.738281 315.519531 C 586.753906 322.242188 586.769531 328.964844 586.769531 335.675781 " fill-opacity="1" fill-rule="nonzero"/></svg>